<svg width="19" height="19" viewBox="0 0 19 19" fill="none" xmlns="http://www.w3.org/2000/svg">
<path d="M8.52508 0C3.82701 0 0 3.827 0 8.52509C0 13.2232 3.82701 17.0576 8.52508 17.0576C10.5318 17.0576 12.3773 16.3544 13.8359 15.1868L17.387 18.7359C17.5662 18.9077 17.8055 19.0025 18.0537 19C18.302 18.9974 18.5393 18.8978 18.715 18.7224C18.8906 18.547 18.9906 18.3098 18.9935 18.0616C18.9964 17.8133 18.9019 17.5739 18.7304 17.3944L15.1793 13.8434C16.3479 12.3825 17.052 10.5341 17.052 8.52509C17.052 3.827 13.2232 0 8.52508 0ZM8.52508 1.8949C12.1991 1.8949 15.1553 4.85109 15.1553 8.52509C15.1553 12.1991 12.1991 15.1627 8.52508 15.1627C4.85108 15.1627 1.89487 12.1991 1.89487 8.52509C1.89487 4.85109 4.85108 1.8949 8.52508 1.8949Z" fill="#1B1A3F"/>
</svg>
