<svg width="146" height="67" viewBox="0 0 146 67" fill="none" xmlns="http://www.w3.org/2000/svg">
<path d="M0.592387 51.6198C1.44894 52.8064 2.93144 53.1426 4.26238 53.525C6.35763 54.1315 8.47264 54.738 10.6074 55.1995C11.2531 55.3379 11.7539 54.382 11.0818 54.0656C10.0342 53.5712 8.96021 53.1426 7.88624 52.7009C6.73319 52.2263 4.93444 51.8505 3.95271 51.1056C3.89999 51.066 3.85386 51.0199 3.80116 50.9803C13.0321 43.9264 24.6878 40.3533 36.2973 41.5795C36.6465 41.619 36.9957 41.6586 37.3449 41.7047C33.9583 43.9132 31.4677 47.1962 30.8747 51.8176C29.8666 59.7944 35.981 67 44.1051 67C51.5768 67 57.6715 59.6626 56.222 52.2856C55.0689 46.4381 50.3381 42.9309 44.9419 40.9598C54.9108 38.3821 66.7048 42.0607 75.7117 45.5943C86.2868 49.7409 97.8437 55.6478 109.447 51.9626C117.9 49.2729 124.047 41.5795 124.805 32.7456C124.825 32.528 124.838 32.3105 124.845 32.0863C127.81 31.1832 130.61 29.8515 132.909 28.3155C142.154 22.1515 146.97 11.3926 145.837 0.403004C145.784 -0.124393 144.954 -0.144169 144.993 0.403004C145.863 12.2694 139.755 23.8062 128.824 28.8956C127.579 29.4757 126.242 29.9899 124.858 30.4119C124.594 22.613 120.009 12.8034 111.397 12.5397C103.161 12.2892 100.795 22.4679 105.223 28.0188C109.4 33.2532 116.141 34.0707 122.499 32.6929C122.091 37.09 120.246 41.2696 117.136 44.5263C107.654 54.4611 93.6466 50.5057 82.5707 45.9503C71.9232 41.5729 60.9198 37.1032 49.1587 38.0327C46.4178 38.2503 43.6307 38.8172 41.0742 39.8127C39.0449 39.338 37.0221 39.048 35.1443 38.9029C23.5479 37.9932 11.8988 41.5333 2.60858 48.4686C2.60858 47.6841 2.80624 46.8403 2.93142 45.9305C3.1291 44.4802 3.33995 43.0364 3.51126 41.5795C3.67598 40.1819 1.25787 39.8457 1.04043 41.2433C0.717586 43.3528 0.454021 45.4756 0.190471 47.5984C0.0191601 48.9894 -0.277334 50.4002 0.592387 51.6132L0.592387 51.6198ZM109.908 29.6076C104.913 26.6344 101.929 16.7325 109.71 14.9064C117.109 13.166 121.84 22.8239 122.473 28.6517C122.558 29.4428 122.591 30.2273 122.585 31.0118C118.262 31.9545 113.663 31.8424 109.901 29.6076L109.908 29.6076ZM41.0083 42.3706C44.6849 43.2408 48.2429 44.7834 50.8784 47.4797C55.1612 51.8571 54.8185 58.6803 49.9164 62.4776C45.0012 66.288 37.6217 64.2246 34.6303 58.9704C31.415 53.3272 34.1823 46.1349 39.5983 43.0957C40.0661 42.832 40.5405 42.6013 41.0149 42.3772L41.0083 42.3706Z" fill="#0E0D23"/>
</svg>
