<svg width="415" height="502" viewBox="0 0 415 502" fill="none" xmlns="http://www.w3.org/2000/svg">
<path d="M0 365.24H415V366.855H0V365.24Z" fill="#1B1A3F"/>
<path d="M320.406 409.103H394.415V410.719H320.406V409.103Z" fill="#1B1A3F"/>
<path d="M340.967 97.845H361.695C362.598 87.3346 363.501 76.8242 364.403 66.3137H337.68C338.773 76.8242 339.874 87.3346 340.967 97.845Z" fill="white"/>
<path d="M340.967 98.1856H361.695C361.869 98.1856 362.02 98.051 362.035 97.8767L364.744 66.3454C364.752 66.2504 364.721 66.1553 364.657 66.084C364.594 66.0127 364.499 65.9731 364.404 65.9731H337.68C337.585 65.9731 337.49 66.0127 337.427 66.084C337.363 66.1553 337.332 66.2504 337.34 66.3454L340.627 97.8767C340.642 98.051 340.793 98.1777 340.967 98.1777V98.1856ZM361.378 97.5045H341.268L338.052 66.6543H364.024L361.378 97.5045Z" fill="#1B1A3F"/>
<path d="M357.624 98.3123C357.846 98.3123 358.044 98.146 358.083 97.9163L373.251 0.542264C373.291 0.288809 373.116 0.0511959 372.863 0.0115936C372.61 -0.0280086 372.372 0.146241 372.332 0.399696L357.165 97.7737C357.125 98.0272 357.299 98.2648 357.553 98.3044C357.577 98.3044 357.6 98.3044 357.624 98.3044V98.3123Z" fill="#1B1A3F"/>
<path d="M344.777 98.3124C344.777 98.3124 344.824 98.3124 344.848 98.3124C345.102 98.2728 345.276 98.0351 345.244 97.7817L330.948 0.399738C330.908 0.146284 330.679 -0.0279664 330.417 0.00371543C330.164 0.0433177 329.989 0.280931 330.021 0.534386L344.31 97.9084C344.341 98.1381 344.539 98.3044 344.769 98.3044L344.777 98.3124Z" fill="#1B1A3F"/>
<path d="M341.957 79.0894H360.618C360.871 79.0894 361.085 78.8835 361.085 78.6221C361.085 78.3607 360.879 78.1548 360.618 78.1548H341.957C341.704 78.1548 341.49 78.3607 341.49 78.6221C341.49 78.8835 341.696 79.0894 341.957 79.0894Z" fill="#1B1A3F"/>
<path d="M249.763 97.845H270.491C271.394 87.3346 272.297 76.8242 273.2 66.3137H246.476C247.569 76.8242 248.67 87.3346 249.763 97.845Z" fill="white"/>
<path d="M249.763 98.1856H270.491C270.665 98.1856 270.816 98.051 270.832 97.8767L273.54 66.3454C273.548 66.2504 273.517 66.1553 273.453 66.084C273.39 66.0127 273.295 65.9731 273.2 65.9731H246.476C246.381 65.9731 246.286 66.0127 246.223 66.084C246.159 66.1553 246.128 66.2504 246.136 66.3454L249.423 97.8767C249.438 98.051 249.589 98.1777 249.763 98.1777V98.1856ZM270.174 97.5045H250.064L246.849 66.6543H272.82L270.174 97.5045Z" fill="#1B1A3F"/>
<path d="M266.42 98.3123C266.642 98.3123 266.84 98.146 266.879 97.9163L282.047 0.542264C282.087 0.288809 281.912 0.0511959 281.659 0.0115936C281.406 -0.0280086 281.168 0.146241 281.128 0.399696L265.961 97.7737C265.921 98.0272 266.095 98.2648 266.349 98.3044C266.373 98.3044 266.396 98.3044 266.42 98.3044V98.3123Z" fill="#1B1A3F"/>
<path d="M253.573 98.3124C253.573 98.3124 253.621 98.3124 253.644 98.3124C253.898 98.2728 254.072 98.0351 254.04 97.7817L239.744 0.399738C239.704 0.146284 239.475 -0.0279664 239.213 0.00371543C238.96 0.0433177 238.786 0.280931 238.817 0.534386L253.106 97.9084C253.137 98.1381 253.335 98.3044 253.565 98.3044L253.573 98.3124Z" fill="#1B1A3F"/>
<path d="M250.753 79.0894H269.414C269.667 79.0894 269.881 78.8835 269.881 78.6221C269.881 78.3607 269.675 78.1548 269.414 78.1548H250.753C250.5 78.1548 250.286 78.3607 250.286 78.6221C250.286 78.8835 250.492 79.0894 250.753 79.0894Z" fill="#1B1A3F"/>
<path d="M341.554 65.292C341.823 62.3535 339.407 60.2783 337.134 58.8764C335.764 58.0289 334.299 57.3161 332.825 56.6903C331.297 56.0409 329.649 55.5894 327.986 55.8349C325.174 56.2468 322.901 58.314 321.483 60.6664C319.772 63.5019 319.361 66.6939 319.685 69.9492C320.073 73.7906 321.396 77.4657 322.521 81.1329C323.511 84.3644 324.303 87.6435 324.81 90.978C325.808 97.5044 325.847 104.181 324.723 110.692C323.614 117.1 321.325 123.333 317.753 128.782C317.309 129.463 316.842 130.129 316.359 130.778C316.018 131.238 315.06 131.166 315.131 130.446C315.59 125.939 316.058 121.424 316.034 116.894C316.01 112.427 315.4 108.078 314.165 103.785C312.985 99.6746 311.448 95.6669 310.466 91.5007C309.444 87.1841 309.191 82.7645 309.595 78.3528C310.007 73.854 310.981 69.4264 312.121 65.0623C313.064 61.4426 313.951 57.7438 315.472 54.3142C316.739 51.4391 318.648 48.6352 321.563 47.2333C325.23 45.475 329.459 46.2908 333.008 47.9224C339.193 50.7738 343.946 56.6111 345.554 63.2168C345.759 64.0484 345.902 64.8959 346.013 65.7434C346.116 66.583 344.801 66.5751 344.698 65.7434C343.866 59.2328 339.772 53.2608 334.116 49.9738C330.956 48.1363 326.933 46.8215 323.305 47.9462C320.256 48.8887 318.26 51.5024 316.929 54.2667C315.408 57.4269 314.585 60.904 313.69 64.2702C312.565 68.4839 311.543 72.753 311.044 77.0934C310.553 81.3942 310.585 85.7346 311.48 89.98C312.319 94.0036 313.745 97.8767 314.957 101.797C316.2 105.837 317.064 109.916 317.285 114.145C317.515 118.525 317.198 122.913 316.779 127.277C316.676 128.331 316.573 129.392 316.462 130.446C316.05 130.335 315.646 130.224 315.234 130.113C319.258 124.664 321.879 118.335 323.21 111.706C324.549 105.013 324.588 98.0589 323.551 91.3186C323.02 87.8732 322.196 84.507 321.166 81.1804C319.986 77.3627 318.672 73.5451 318.339 69.5373C318.062 66.2186 318.592 62.9396 320.311 60.0565C321.792 57.5616 324.121 55.3755 327.004 54.6785C330.394 53.8548 333.728 55.4706 336.643 57.0547C339.13 58.4012 341.886 60.3179 342.694 63.193C342.884 63.8663 342.94 64.5791 342.876 65.2761C342.797 66.1078 341.482 66.1157 341.562 65.2761L341.554 65.292Z" fill="#1B1A3F"/>
<path d="M358.226 66.8919C359.375 62.0921 361.466 55.7399 367.2 55.0587C370.186 54.7023 373.212 56.2151 375.128 58.4408C377.259 60.904 378.281 64.096 378.803 67.2562C379.405 70.9313 379.389 74.6856 378.748 78.3607C378.098 82.0596 376.831 85.6396 376.475 89.3939C376.118 93.1007 376.451 96.8312 377.148 100.483C377.853 104.15 378.962 107.69 380.007 111.27C380.498 112.941 380.894 114.676 380.839 116.434C380.791 117.947 380.451 119.436 379.888 120.838C378.708 123.777 376.72 126.295 374.629 128.632C374.099 129.226 373.552 129.812 373.006 130.39C372.554 130.865 371.722 130.374 371.905 129.749C372.657 127.198 373.433 124.584 373.354 121.899C373.291 119.555 372.435 117.353 371.366 115.302C370.297 113.258 369.022 111.326 367.968 109.274C366.867 107.136 366.02 104.855 365.481 102.51C364.38 97.75 364.491 92.8076 365.743 88.0949C366.946 83.5644 369.14 78.9706 368.832 74.1787C368.586 70.3056 366.479 65.9018 362.329 65.1098C361.497 64.9514 361.854 63.6841 362.677 63.8425C366.503 64.5712 368.911 68.0958 369.766 71.6758C370.883 76.341 369.291 80.9744 367.905 85.402C367.144 87.8336 366.44 90.2889 366.178 92.8314C365.917 95.3025 365.98 97.8292 366.376 100.285C366.78 102.74 367.485 105.164 368.523 107.429C369.521 109.599 370.82 111.603 371.984 113.686C373.267 115.991 374.368 118.422 374.621 121.076C374.922 124.149 374.035 127.19 373.172 130.105C372.808 129.891 372.443 129.677 372.071 129.463C374.122 127.285 376.166 125.044 377.663 122.43C379.207 119.729 379.896 116.775 379.271 113.694C378.922 111.991 378.344 110.336 377.845 108.664C377.346 106.985 376.879 105.306 376.475 103.603C375.659 100.174 375.081 96.6569 375.017 93.1244C374.954 89.5761 375.572 86.1703 376.419 82.7407C377.283 79.232 377.988 75.7707 377.932 72.1352C377.845 66.4325 376.356 58.4249 369.956 56.6032C367.406 55.8745 364.887 56.7062 363.153 58.6705C361.489 60.5476 360.61 63.0584 359.953 65.4345C359.786 66.0365 359.636 66.6384 359.485 67.2404C359.287 68.0641 358.02 67.7156 358.218 66.8919H358.226Z" fill="#1B1A3F"/>
<path d="M348.444 65.9177C349.672 58.219 354.092 51.154 360.404 46.6076C363.762 44.184 367.786 42.3702 372.008 42.6474C375.722 42.8929 379.176 44.5641 381.995 46.9403C384.95 49.4273 387.175 52.6747 388.585 56.2627C390.24 60.4763 390.858 65.0148 391.056 69.5136C391.46 78.5666 390.082 87.8177 392.276 96.7203C392.807 98.8905 393.567 100.982 394.565 102.977C395.547 104.95 396.672 106.882 397.298 109.013C398.644 113.567 397.226 118.232 395.397 122.43C394.937 123.484 394.446 124.521 393.947 125.559C393.654 126.176 392.743 125.836 392.72 125.226C392.553 119.84 390.359 114.858 387.706 110.256C384.95 105.48 381.702 100.989 379.152 96.0946C377.892 93.6789 376.799 91.1522 376.071 88.5227C375.326 85.8139 375.017 83.01 374.827 80.2141C374.455 74.8282 374.685 68.9987 372.404 63.9772C371.382 61.7278 369.837 59.5338 367.572 58.4091C365.838 57.5458 363.279 57.0705 361.632 58.3774C361.228 58.6942 360.943 59.114 360.713 59.5734C360.341 60.3338 359.208 59.6684 359.58 58.9081C360.65 56.722 363.089 56.0488 365.346 56.3656C367.865 56.7141 369.996 58.1002 371.548 60.0724C375.12 64.595 375.58 70.5511 375.897 76.0955C376.063 79.0419 376.166 82.0041 376.633 84.9188C377.077 87.6989 377.916 90.384 379.073 92.9502C381.425 98.1777 384.775 102.875 387.746 107.754C390.629 112.498 393.211 117.551 393.884 123.135C393.971 123.832 394.018 124.529 394.034 125.226C393.622 125.115 393.219 125.004 392.807 124.893C394.715 120.917 396.759 116.609 396.506 112.078C396.379 109.829 395.531 107.785 394.525 105.797C393.567 103.896 392.585 102.035 391.872 100.023C388.957 91.7304 389.781 82.7803 389.813 74.155C389.844 65.981 389.171 56.9913 383.659 50.4728C381.338 47.7323 378.312 45.4671 374.827 44.4691C370.978 43.3682 367.136 44.1602 363.683 46.077C357.078 49.7441 352.175 56.2706 350.266 63.5653C350.036 64.4603 349.846 65.3633 349.704 66.2741C349.569 67.1057 348.302 66.7493 348.436 65.9256L348.444 65.9177Z" fill="#1B1A3F"/>
<path d="M267.117 66.1315C267.101 64.0564 268.463 62.306 270.277 61.403C272.249 60.413 274.42 60.4051 276.423 61.3001C278.617 62.2822 280.297 64.1831 281.548 66.187C282.989 68.4839 284.011 71.0739 284.764 73.6718C286.332 79.0736 286.68 84.7605 286.554 90.3602C286.419 96.2768 285.77 102.185 284.653 107.991C283.386 114.557 281.493 120.989 279.013 127.198C278.705 127.974 277.429 127.634 277.746 126.85C281.912 116.426 284.415 105.346 285.088 94.1303C285.405 88.784 285.405 83.3427 284.447 78.0598C283.98 75.4698 283.275 72.9115 282.261 70.4799C281.35 68.2938 280.194 66.1236 278.53 64.4128C276.907 62.7574 274.665 61.5456 272.297 62.0763C270.348 62.5119 268.424 63.9851 268.44 66.1395C268.44 66.987 267.133 66.987 267.125 66.1395L267.117 66.1315Z" fill="#1B1A3F"/>
<path d="M282.34 122.731C283.378 126.05 282.324 129.669 280.344 132.426C278.19 135.412 275.093 137.503 272.075 139.522C271.616 139.831 270.911 139.316 271.109 138.778C271.798 136.917 271.909 134.944 272.17 132.996C272.4 131.261 272.796 129.598 273.572 128.022C275.006 125.115 277.493 122.731 280.463 121.448C281.231 121.115 281.905 122.248 281.128 122.581C278.285 123.808 275.972 126.034 274.634 128.83C273.081 132.077 273.604 135.8 272.376 139.134C272.051 138.889 271.735 138.643 271.41 138.39C274.19 136.536 277.089 134.62 279.109 131.903C280.962 129.408 282.039 126.145 281.081 123.08C280.827 122.272 282.095 121.923 282.348 122.731H282.34Z" fill="#1B1A3F"/>
<path d="M287.353 105.702C292.129 109.203 294.506 115.421 293.238 121.21C293.072 121.979 292.011 121.725 291.947 121.036C291.718 118.692 289.943 116.886 288.771 114.961C287.583 113.013 286.807 110.621 287.868 108.451C288.241 107.69 289.373 108.355 289.001 109.116C287.995 111.175 289.334 113.512 290.49 115.199C291.726 117.005 293.04 118.787 293.262 121.036C292.834 120.981 292.399 120.917 291.971 120.862C293.096 115.69 290.957 109.971 286.688 106.843C286.015 106.352 286.664 105.211 287.353 105.71V105.702Z" fill="#1B1A3F"/>
<path d="M284.336 107.936C283.409 110.573 281.279 112.569 278.784 113.757C275.774 115.191 272.416 115.492 269.137 115.785C268.384 115.848 268.273 114.7 268.962 114.494C271.513 113.749 273.414 111.793 275.283 110.011C277.176 108.205 279.188 106.383 281.778 105.702C282.594 105.488 282.942 106.756 282.126 106.969C279.56 107.643 277.643 109.567 275.782 111.349C273.889 113.171 271.893 115.009 269.311 115.761C269.255 115.333 269.192 114.898 269.137 114.47C272.107 114.209 275.22 113.963 277.968 112.696C280.194 111.666 282.229 109.963 283.069 107.595C283.346 106.803 284.621 107.144 284.336 107.944V107.936Z" fill="#1B1A3F"/>
<path d="M287.013 94.1462C292.13 94.9224 296.233 99.5084 296.977 104.546C297.191 105.995 297.144 107.445 296.795 108.87C296.668 109.369 296.051 109.48 295.694 109.163C292.621 106.391 290.102 103.033 288.296 99.3024C287.932 98.5421 289.065 97.8768 289.429 98.6371C291.187 102.273 293.619 105.528 296.621 108.229C296.256 108.324 295.892 108.419 295.52 108.522C296.953 102.684 292.566 96.3085 286.657 95.4135C285.825 95.2868 286.182 94.0195 287.005 94.1462H287.013Z" fill="#1B1A3F"/>
<path d="M285.452 90.0434C279.9 93.5126 276.265 99.7381 275.972 106.28C275.639 106.09 275.314 105.9 274.982 105.71C277.833 103.524 280.447 101.045 282.807 98.3361C283.361 97.6946 284.288 98.6292 283.734 99.2628C281.294 102.059 278.585 104.585 275.647 106.843C275.251 107.152 274.641 106.732 274.657 106.272C274.974 99.2628 278.839 92.6255 284.787 88.9029C285.508 88.4514 286.165 89.592 285.452 90.0355V90.0434Z" fill="#1B1A3F"/>
<path d="M284.803 73.7431C290.767 75.2559 295.52 80.3409 297.009 86.2654C297.436 87.9524 297.587 89.7108 297.436 91.4453C297.389 91.9602 296.716 92.3799 296.312 91.9126C294.181 89.4256 292.043 86.9465 289.912 84.4595C288.146 82.4002 286.38 80.1745 286.166 77.3628C286.102 76.5232 287.417 76.5232 287.48 77.3628C287.678 80.0003 289.611 82.0992 291.251 84.008C293.247 86.3287 295.243 88.6573 297.238 90.978C296.866 91.1364 296.494 91.2869 296.114 91.4453C296.597 85.7347 293.603 80.024 288.819 76.9272C287.473 76.0559 285.999 75.4064 284.447 75.0104C283.631 74.8045 283.972 73.5372 284.795 73.7431H284.803Z" fill="#1B1A3F"/>
<path d="M282.205 69.577C276.811 74.4639 274.008 81.8458 274.768 89.0851L273.778 88.5148C278.57 84.8476 281.453 78.9152 281.461 72.8957C281.461 72.0482 282.776 72.0482 282.776 72.8957C282.776 79.4221 279.615 85.6951 274.443 89.6474C274 89.988 273.501 89.5128 273.453 89.0771C272.835 83.2239 274.499 77.1648 277.936 72.3888C278.918 71.0264 280.027 69.7671 281.271 68.6424C281.896 68.0721 282.831 68.9988 282.197 69.5691L282.205 69.577Z" fill="#1B1A3F"/>
<path d="M256.147 65.9019C258.357 57.5141 266.681 52.9757 272.986 47.9225C276.099 45.4275 279.132 42.592 280.796 38.8932C283.401 33.1033 281.271 26.8541 279.449 21.183C277.548 15.2506 275.758 7.98756 279.647 2.42741C280.13 1.73833 281.271 2.39573 280.78 3.09273C277.366 7.97172 278.689 14.3873 280.336 19.6623C282.182 25.5551 284.613 31.8836 282.522 38.0457C281.207 41.9109 278.435 44.9998 275.394 47.6215C272.17 50.3937 268.606 52.7381 265.335 55.4548C261.85 58.3458 258.595 61.7595 257.414 66.2504C257.201 67.0662 255.933 66.7177 256.147 65.9019Z" fill="#1B1A3F"/>
<path d="M280.899 36.5961C278.522 32.7389 275.418 29.3569 271.766 26.6797C272.067 26.6005 272.368 26.5213 272.661 26.4421C271.663 28.7153 272.582 31.4558 274.214 33.1904C276.075 35.1625 278.713 36.1209 281.295 36.6991C282.118 36.8813 281.77 38.1486 280.946 37.9664C278.008 37.309 274.934 36.1288 272.954 33.7527C271.117 31.5429 270.341 28.4856 271.521 25.7847C271.655 25.4838 272.154 25.357 272.416 25.5471C276.257 28.3589 279.52 31.8835 282.023 35.9387C282.467 36.6595 281.334 37.3248 280.891 36.6041L280.899 36.5961Z" fill="#1B1A3F"/>
<path d="M283.79 28.541C285.881 23.5116 286.887 18.1019 286.736 12.6526C286.712 11.8843 287.789 11.8051 288.027 12.4784C289.366 16.3277 290.76 20.3988 290.181 24.5333C289.73 27.749 288.035 30.9489 285.057 32.4617C284.304 32.8419 283.639 31.7092 284.392 31.329C287.108 29.9509 288.605 26.9886 288.93 24.0422C289.35 20.185 288.003 16.4069 286.76 12.8269L288.051 12.6526C288.201 18.2049 287.18 23.7571 285.057 28.8895C284.74 29.6578 283.465 29.3252 283.79 28.541Z" fill="#1B1A3F"/>
<path d="M269.77 50.5441C270 45.5067 268.582 40.5089 265.747 36.3348H266.879C264.828 40.3901 265.319 45.5938 268.139 49.1659C268.653 49.8233 267.735 50.7579 267.212 50.0926C264.004 46.0294 263.402 40.295 265.747 35.6695C265.984 35.2022 266.626 35.2893 266.879 35.6695C269.826 40.0178 271.315 45.2928 271.077 50.5441C271.037 51.3836 269.723 51.3916 269.762 50.5441H269.77Z" fill="#1B1A3F"/>
<path d="M278.055 46.3305C282.293 44.3583 286.213 41.7525 289.659 38.5843C290.07 38.2041 290.783 38.4655 290.783 39.0516C290.783 42.2911 289.635 45.4434 287.607 47.9621C285.564 50.4966 282.578 52.2075 279.378 52.7857C277.532 53.1183 275.655 53.0866 273.818 52.6906C272.994 52.5084 273.342 51.2412 274.166 51.4233C280.075 52.7064 286.205 49.5145 288.502 43.9227C289.136 42.3782 289.461 40.7228 289.461 39.0595C289.833 39.2179 290.205 39.3684 290.585 39.5268C287.061 42.7663 283.061 45.4513 278.72 47.4789C277.96 47.8354 277.295 46.7027 278.055 46.3463V46.3305Z" fill="#1B1A3F"/>
<path d="M250.516 66.2108C250.563 64.7851 248.821 64.1356 247.633 64.3732C245.866 64.7217 244.86 66.7177 244.258 68.2147C242.476 72.6184 241.407 77.3232 240.449 81.9566C239.966 84.2853 239.419 86.6376 239.205 89.0138C238.991 91.3899 239.316 93.6551 239.95 95.9442C240.567 98.1777 241.352 100.364 241.803 102.637C242.27 104.966 242.46 107.35 242.445 109.726C242.405 115.143 241.344 120.498 240.282 125.788C240.116 126.62 238.849 126.264 239.015 125.44C240.021 120.426 241.019 115.373 241.122 110.241C241.169 107.666 240.995 105.092 240.457 102.574C239.942 100.182 239.078 97.8847 238.476 95.5165C237.859 93.0849 237.677 90.6691 237.977 88.1742C238.286 85.6555 238.841 83.1606 239.371 80.6814C239.902 78.1865 240.48 75.6995 241.185 73.2441C241.827 71.0027 242.508 68.682 243.553 66.583C244.456 64.7772 246.025 62.9634 248.219 63.0109C249.993 63.0505 251.894 64.2623 251.83 66.2108C251.799 67.0503 250.484 67.0583 250.516 66.2108Z" fill="#1B1A3F"/>
<path d="M242.175 121.86C241.32 127.61 237.938 132.838 233.098 136.037C232.71 136.299 232.283 136.014 232.132 135.641C230.991 132.846 231.657 129.622 233.162 127.087C234.754 124.402 237.201 122.383 239.593 120.442C240.243 119.911 241.177 120.838 240.52 121.369C238.31 123.167 236.029 125.012 234.484 127.444C233.019 129.764 232.338 132.679 233.399 135.293C233.075 135.158 232.758 135.032 232.433 134.897C237.003 131.871 240.1 126.913 240.9 121.503C241.027 120.672 242.294 121.028 242.167 121.852L242.175 121.86Z" fill="#1B1A3F"/>
<path d="M243.72 105.607C247.229 108.126 249.51 112.078 249.977 116.371C250.032 116.87 250.056 117.369 250.056 117.868C250.056 118.391 250.088 119.016 249.898 119.508C249.431 120.688 248.124 120.26 247.379 119.65C245.835 118.391 244.876 116.577 244.314 114.692C243.657 112.458 243.498 110.106 243.403 107.793C243.371 106.946 244.678 106.946 244.718 107.793C244.853 111.056 245.043 114.827 247.134 117.519C247.363 117.82 247.625 118.098 247.902 118.359C248.052 118.502 248.203 118.636 248.369 118.755C248.433 118.803 248.496 118.842 248.559 118.882C248.734 118.969 248.773 118.906 248.686 119.009C248.773 118.906 248.734 118.502 248.734 118.367C248.734 118.177 248.741 117.979 248.741 117.781C248.741 117.314 248.71 116.838 248.662 116.371C248.464 114.589 247.886 112.839 247.023 111.262C246.048 109.488 244.702 107.92 243.055 106.74C242.373 106.249 243.031 105.108 243.72 105.607Z" fill="#1B1A3F"/>
<path d="M239.807 109.472C237.146 112.633 233.447 114.874 229.416 115.777C229.091 115.848 228.671 115.682 228.608 115.318C228.196 113.044 229.867 111.167 231.784 110.209C233.875 109.163 236.354 109.092 238.279 107.69C238.96 107.191 239.617 108.332 238.944 108.823C237.225 110.074 235.087 110.343 233.138 111.048C231.594 111.611 229.534 113.06 229.883 114.969C229.614 114.819 229.344 114.66 229.075 114.51C232.909 113.646 236.354 111.547 238.888 108.538C239.435 107.888 240.362 108.823 239.815 109.464L239.807 109.472Z" fill="#1B1A3F"/>
<path d="M242.136 91.8256C245.359 93.3542 247.862 96.2689 248.924 99.6747C249.177 100.491 249.486 101.568 248.773 102.249C248.092 102.898 247.11 102.55 246.444 102.067C244.932 100.958 243.506 99.5559 242.413 98.0194C241.249 96.3798 240.607 94.4076 241.13 92.4117C241.344 91.5959 242.611 91.9444 242.397 92.7602C241.621 95.7462 244.124 98.3441 246.175 100.142C246.452 100.388 246.737 100.633 247.023 100.863C247.157 100.974 247.672 101.417 247.862 101.298C248.131 101.14 247.577 99.7698 247.498 99.5559C247.023 98.2253 246.278 96.9739 245.359 95.9125C244.274 94.669 242.967 93.671 241.478 92.9661C240.718 92.6018 241.383 91.4692 242.144 91.8335L242.136 91.8256Z" fill="#1B1A3F"/>
<path d="M239.047 88.7128C234.009 90.4949 230.263 95.3898 229.851 100.712L229.194 100.055C233.423 99.6668 237.059 95.9046 237.336 91.6751C237.391 90.8355 238.706 90.8276 238.651 91.6751C238.326 96.6729 234.176 100.91 229.194 101.37C228.861 101.401 228.513 101.045 228.536 100.712C228.996 94.7641 233.075 89.4336 238.698 87.4456C239.498 87.1604 239.839 88.4277 239.047 88.7128Z" fill="#1B1A3F"/>
<path d="M243.031 79.3508C247.831 82.2734 250.302 88.3405 248.908 93.7818C248.813 94.162 248.29 94.4234 247.942 94.1779C243.95 91.2473 241.954 86.099 242.983 81.2438C243.158 80.42 244.425 80.7685 244.251 81.5923C243.356 85.8218 245.114 90.479 248.607 93.0452L247.641 93.4413C248.884 88.5702 246.666 83.1051 242.366 80.4913C241.645 80.0557 242.302 78.9151 243.031 79.3587V79.3508Z" fill="#1B1A3F"/>
<path d="M238.904 77.0063C234.999 79.327 230.136 79.8497 225.836 78.3845C225.44 78.2498 225.21 77.7983 225.44 77.4182C226.588 75.5093 228.584 74.3054 230.715 73.7985C233.36 73.1649 236.093 73.5688 238.738 73.949C239.57 74.0678 239.213 75.3351 238.389 75.2163C234.445 74.646 228.996 74.044 226.572 78.0756C226.437 77.7508 226.311 77.434 226.176 77.1093C230.16 78.4716 234.611 78.0201 238.231 75.8658C238.96 75.4301 239.617 76.5707 238.896 76.9984L238.904 77.0063Z" fill="#1B1A3F"/>
<path d="M324.366 53.2053C317.063 57.1418 314.077 65.9493 314.133 73.8223C314.212 84.301 318.513 94.1382 319.875 104.435C320.612 110.003 320.516 115.777 318.513 121.092C318.22 121.876 316.944 121.535 317.245 120.743C320.992 110.819 317.942 100.15 315.471 90.3206C313.158 81.1091 311.21 71.2402 315.012 62.1475C316.762 57.9655 319.653 54.2508 323.693 52.0727C324.437 51.6688 325.102 52.8093 324.358 53.2053H324.366Z" fill="#1B1A3F"/>
<path d="M367.533 64.5237C371.699 70.3294 374.051 77.3786 374.289 84.515C374.352 86.2654 374.281 88.0237 374.075 89.7741C373.845 91.7305 373.418 93.6552 373.077 95.5878C372.721 97.6312 372.546 99.6826 372.832 101.742C373.117 103.809 373.727 105.821 374.289 107.825C375.604 112.498 376.911 117.163 378.225 121.836C378.455 122.652 377.188 123 376.958 122.185C375.802 118.074 374.653 113.971 373.497 109.86C372.388 105.908 371.049 101.924 371.461 97.7659C371.651 95.7858 372.095 93.8373 372.451 91.881C372.776 90.0751 372.966 88.2613 372.998 86.4238C373.069 82.8754 372.594 79.335 371.612 75.9292C370.503 72.0799 368.737 68.4444 366.4 65.1891C365.909 64.5 367.042 63.8426 367.533 64.5237Z" fill="#1B1A3F"/>
<path d="M370.503 49.4353C375.049 48.1918 379.793 50.3461 382.827 53.744C386.32 57.6646 387.381 63.0505 387.436 68.1592C387.508 74.0917 386.241 79.9449 386.343 85.8773C386.439 91.3582 388.197 96.4115 390.232 101.441C392.403 106.811 394.739 112.237 395.032 118.098C395.072 118.945 393.757 118.937 393.717 118.098C393.21 107.88 386.446 99.2708 385.243 89.188C384.546 83.3823 385.67 77.5846 386.019 71.8026C386.328 66.686 386.098 61.1179 383.342 56.6271C380.815 52.5084 375.77 49.364 370.851 50.7105C370.035 50.9322 369.687 49.665 370.503 49.4432V49.4353Z" fill="#1B1A3F"/>
<path d="M55.7516 77.4816C59.5534 73.4263 60.5118 67.5414 61.1296 62.0209C62.2147 52.3579 62.8008 42.6316 62.8879 32.9053C56.8446 39.9149 50.5241 47.5185 49.4865 56.7141C48.5678 64.8405 51.9577 72.7689 53.1933 80.8478L55.7516 77.4816Z" fill="#1B1A3F"/>
<path d="M55.0624 76.7925C58.5474 73.0382 59.482 67.6998 60.0682 62.7892C60.8127 56.4528 61.3116 50.0848 61.6126 43.7088C61.779 40.1129 61.8819 36.5091 61.9136 32.9053C62.468 33.135 63.0225 33.3647 63.5848 33.5944C59.4266 38.4179 55.2208 43.3761 52.5912 49.2293C51.3081 52.0886 50.4923 55.1776 50.3418 58.3141C50.1755 61.8308 50.7616 65.3079 51.522 68.7295C52.4011 72.6818 53.5179 76.5787 54.1436 80.5864C53.5496 80.5072 52.9556 80.428 52.3615 80.3567C53.217 79.232 54.0645 78.1073 54.9199 76.9905C55.2367 76.5707 55.7594 76.349 56.2584 76.642C56.6703 76.8876 56.9317 77.5529 56.6069 77.9806C55.7515 79.1053 54.904 80.23 54.0486 81.3468C53.8031 81.6636 53.5021 81.8774 53.0744 81.8141C52.7259 81.7586 52.3219 81.4973 52.2586 81.1171C51.1339 73.8699 48.3221 66.8444 48.3617 59.4309C48.3934 52.6431 51.2923 46.4493 55.1496 41C57.3198 37.9348 59.7513 35.0676 62.2067 32.2241C62.769 31.5667 63.8858 32.1053 63.8779 32.9132C63.8145 39.5426 63.5215 46.1641 62.9987 52.7777C62.7373 56.0409 62.4364 59.2962 62.0562 62.5436C61.7552 65.1574 61.3829 67.787 60.6543 70.3215C59.8305 73.2125 58.5078 75.9609 56.4485 78.1786C55.5931 79.1053 54.2149 77.7192 55.0703 76.8004L55.0624 76.7925Z" fill="#1B1A3F"/>
<path d="M20.1489 82.519C22.9369 85.6079 25.8358 88.6019 28.8377 91.4849C33.2335 95.7065 38.0887 99.8251 44.0053 101.283C46.722 101.948 49.5338 102.019 52.3376 101.932L52.2268 102.067C56.3375 103.049 60.765 102.669 64.654 101.013C66.8717 100.071 68.8993 98.7321 70.8557 97.3381C79.1246 91.4295 86.6332 83.9842 90.6885 74.6619C88.1856 75.5569 85.6827 76.4519 83.1878 77.3548C79.5998 78.6379 75.9643 79.9527 72.812 82.0992C70.5309 83.6516 68.5508 85.6158 66.5865 87.5564C62.1511 91.9601 57.7156 96.356 53.2722 100.76L52.7574 101.401C44.5756 90.384 31.8237 82.8675 18.2242 81.022C18.9608 81.2834 19.5945 81.9249 20.141 82.5269L20.1489 82.519Z" fill="#1B1A3F"/>
<path d="M20.8383 81.8299C24.3233 85.6872 27.9509 89.4494 31.8161 92.9265C35.2139 95.9837 39.0237 98.8351 43.475 100.126C46.358 100.966 49.3599 101.045 52.338 100.95C53.2646 100.926 53.5181 102.003 53.027 102.621L52.9162 102.756C52.7736 102.209 52.631 101.671 52.4884 101.124C55.7517 101.884 59.1733 101.766 62.3811 100.799C65.6522 99.8172 68.5036 97.8609 71.2362 95.8649C76.1785 92.2453 80.8199 88.0554 84.5267 83.1605C86.6335 80.3805 88.4473 77.3707 89.8492 74.1708C90.2136 74.6461 90.5858 75.1292 90.9502 75.6044C87.8929 76.6974 84.8277 77.7826 81.7783 78.8993C79.022 79.9052 76.2815 81.0141 73.8024 82.614C71.3154 84.214 69.2164 86.3287 67.1255 88.4039C64.7493 90.7563 62.3811 93.1086 60.0049 95.4689L56.1319 99.3103C55.2131 100.221 54.2626 101.092 53.4547 102.098C53.0191 102.637 52.2508 102.344 51.9182 101.9C45.6452 93.4888 36.6317 87.1524 26.6519 83.9447C23.8243 83.0338 20.9175 82.3764 17.9711 81.9725C18.1454 81.3468 18.3196 80.7131 18.4939 80.0874C19.4443 80.4597 20.1572 81.1012 20.8383 81.8457C21.6858 82.7724 20.3076 84.1585 19.4602 83.2239C19.0404 82.7645 18.5731 82.2022 17.979 81.9725C16.791 81.5052 17.2583 79.9211 18.5018 80.0874C29.329 81.5764 39.5939 86.5901 47.5382 94.0749C49.7638 96.1738 51.7915 98.4708 53.6132 100.918C53.0983 100.855 52.5914 100.784 52.0766 100.72C52.7736 99.8489 53.5815 99.0965 54.3656 98.3124C55.5537 97.1322 56.7417 95.96 57.9219 94.7798C60.3218 92.4037 62.7217 90.0196 65.1216 87.6435C67.3076 85.4812 69.4699 83.2714 71.9886 81.4893C74.4756 79.731 77.2953 78.5191 80.1387 77.442C83.5445 76.1509 86.9979 74.9629 90.4274 73.7352C91.3224 73.4184 91.8373 74.4718 91.5284 75.1688C88.9463 81.0695 84.9702 86.2733 80.3684 90.7483C78.0398 93.0136 75.537 95.0967 72.9311 97.0372C70.1035 99.1519 67.165 101.203 63.8226 102.399C60.0366 103.746 55.8705 103.936 51.9657 103.025C51.1816 102.843 51.1024 101.932 51.538 101.393L51.6489 101.259C51.8786 101.813 52.1083 102.368 52.338 102.93C49.5341 103.017 46.6986 102.938 43.9502 102.296C41.6295 101.75 39.4039 100.784 37.3525 99.5717C33.0596 97.0451 29.4241 93.5126 25.9153 90.0196C23.7055 87.8178 21.5512 85.5525 19.4522 83.2318C18.6127 82.2972 19.9908 80.9111 20.8304 81.8537L20.8383 81.8299Z" fill="#1B1A3F"/>
<path d="M51.6645 123.484C51.514 123.452 51.3635 123.42 51.2131 123.389C51.2923 123.476 51.3714 123.563 51.4427 123.658H51.4665C51.3239 123.785 51.1893 123.903 51.0467 124.03L52.0526 124.45C55.7594 126.002 60.0127 124.996 63.7828 123.602C73.4695 120.007 82.1978 113.892 88.8906 106.019C78.4832 109.203 68.4004 113.464 58.8721 118.716C56.3455 120.11 53.8347 121.591 51.6645 123.492V123.484Z" fill="#1B1A3F"/>
<path d="M51.4032 124.426C51.2527 124.394 51.1022 124.363 50.9517 124.331C51.2685 123.785 51.5853 123.246 51.9022 122.7C51.9814 122.787 52.0606 122.874 52.1318 122.969C51.9021 122.874 51.6725 122.779 51.4428 122.684H51.4665C52.2744 122.684 52.813 123.777 52.1556 124.355C52.0131 124.482 51.8784 124.6 51.7358 124.727C51.5933 124.181 51.4507 123.642 51.3081 123.096C52.1715 123.452 53.0189 123.824 53.9298 124.03C55.3555 124.355 56.8604 124.323 58.3019 124.109C61.2483 123.658 64.0996 122.533 66.8164 121.329C72.0359 119.001 76.9387 115.943 81.287 112.245C83.7741 110.13 86.0868 107.817 88.2016 105.338C88.5184 105.884 88.8352 106.423 89.152 106.969C78.9188 110.106 69.0182 114.272 59.6325 119.42C57.09 120.814 54.5555 122.28 52.3536 124.189C51.4111 125.004 50.0171 123.634 50.9755 122.81C52.9793 121.076 55.2129 119.658 57.5178 118.359C59.9097 117.013 62.3413 115.745 64.8046 114.534C69.7311 112.11 74.7843 109.932 79.9326 108.023C82.7998 106.962 85.7066 105.979 88.6293 105.084C89.6273 104.776 90.1738 106.019 89.5798 106.716C85.6829 111.286 81.1128 115.27 76.0674 118.525C73.5804 120.133 70.9825 121.559 68.2896 122.787C65.5016 124.062 62.5948 125.258 59.5771 125.852C57.7791 126.208 55.9574 126.327 54.1436 126.05C52.9556 125.868 51.8863 125.432 50.7854 124.981C50.1597 124.719 49.7557 123.895 50.3577 123.349C50.4923 123.222 50.6349 123.103 50.7775 122.977L51.4665 124.648C51.0309 124.648 50.7854 124.402 50.5161 124.094C49.8666 123.349 50.4923 122.264 51.4665 122.462C51.617 122.494 51.7675 122.525 51.918 122.557C53.1457 122.81 52.6308 124.695 51.3952 124.442L51.4032 124.426Z" fill="#1B1A3F"/>
<path d="M20.4187 107.524C22.3116 110.106 24.2046 112.696 26.0976 115.278C27.0718 116.609 28.1015 117.987 29.5747 118.731C30.4063 119.151 31.341 119.341 32.2518 119.531L51.2134 123.396C43.483 114.438 32.2043 108.617 20.4187 107.532V107.524Z" fill="#1B1A3F"/>
<path d="M21.2662 107.033L25.5907 112.933C26.7629 114.525 27.8956 116.545 29.6143 117.622C30.5568 118.216 31.6578 118.407 32.735 118.628C33.9072 118.866 35.0794 119.104 36.2516 119.341C38.6278 119.824 41.0118 120.307 43.388 120.798L51.4827 122.446C51.1659 122.992 50.849 123.531 50.5322 124.078C44.5998 117.226 36.6397 112.244 27.9035 109.868C25.4561 109.203 22.9611 108.736 20.4345 108.498C19.9118 108.451 19.4603 108.086 19.4603 107.524C19.4603 107.033 19.9118 106.494 20.4345 106.55C29.8915 107.445 38.9367 111.215 46.2869 117.226C48.3145 118.89 50.1996 120.719 51.9183 122.707C52.5678 123.452 51.9421 124.537 50.9679 124.339C46.0334 123.333 41.099 122.327 36.1645 121.321C34.921 121.068 33.6775 120.814 32.434 120.561C31.2934 120.331 30.145 120.109 29.0995 119.579C27.1352 118.581 25.8917 116.616 24.6324 114.898L19.6029 108.023C19.294 107.595 19.5316 106.93 19.9514 106.684C20.4504 106.391 20.9731 106.605 21.2899 107.033H21.2662Z" fill="#1B1A3F"/>
<path d="M61.0034 146.461C67.5695 145.178 73.1296 140.98 78.4363 136.901C81.4619 134.572 84.5351 132.204 86.7449 129.099C73.8583 132.307 61.4549 137.487 50.1049 144.386L52.0533 144.956C54.4928 146.904 57.9382 147.063 61.0034 146.461Z" fill="#1B1A3F"/>
<path d="M60.7421 145.518C64.6628 144.734 68.219 142.912 71.5298 140.726C74.8801 138.525 78.1196 136.053 81.1927 133.471C82.9194 132.014 84.5748 130.438 85.9054 128.6C86.2697 129.075 86.642 129.559 87.0064 130.034C77.0187 132.529 67.3319 136.188 58.1997 140.94C55.6176 142.287 53.091 143.712 50.6039 145.225C50.5247 144.631 50.4456 144.037 50.3743 143.443C50.897 143.594 51.4118 143.752 51.9346 143.902C52.7583 144.14 53.3761 144.75 54.1681 145.091C56.2116 145.986 58.6036 145.93 60.75 145.518C61.2649 145.423 61.8035 145.661 61.954 146.199C62.0886 146.675 61.7955 147.3 61.2728 147.403C57.8512 148.053 54.2078 147.855 51.3722 145.645C51.5148 145.732 51.6574 145.811 51.7999 145.898C51.1505 145.708 50.501 145.518 49.8515 145.328C49.0436 145.091 48.8931 143.982 49.6218 143.546C58.5323 138.136 68.0844 133.772 78.0087 130.58C80.8046 129.677 83.6401 128.877 86.4915 128.165C87.2519 127.974 88.1231 128.869 87.5925 129.598C85.0975 133.067 81.6917 135.634 78.3335 138.216C75.0227 140.75 71.6565 143.269 67.8943 145.106C65.7875 146.136 63.5697 146.952 61.2649 147.419C60.0372 147.665 59.5145 145.78 60.7421 145.534V145.518Z" fill="#1B1A3F"/>
<path d="M21.6069 127.879C23.1117 133.044 24.7513 138.445 28.5927 142.207C34.1053 147.625 42.8178 148.267 50.3977 146.73L50.1205 144.639C42.2872 136.766 29.2184 135.966 21.6148 127.879H21.6069Z" fill="#1B1A3F"/>
<path d="M22.5495 127.626C23.9672 132.497 25.48 137.709 29.1551 141.4C32.5134 144.774 37.2657 146.223 41.9308 146.453C44.6792 146.588 47.4355 146.342 50.1364 145.803C49.8988 146.12 49.6612 146.429 49.4156 146.746C49.3206 146.049 49.2255 145.352 49.1384 144.655C49.2334 144.885 49.3285 145.114 49.4236 145.344C43.1981 139.126 34.0737 137.471 26.6918 133.091C24.585 131.84 22.6049 130.359 20.9179 128.576C20.0545 127.666 21.4327 126.279 22.296 127.198C29.3056 134.596 40.3071 135.705 48.2434 141.748C48.8058 142.176 49.3602 142.619 49.8909 143.095C50.3898 143.546 50.9997 143.982 51.0948 144.679C51.1898 145.368 51.2769 146.057 51.372 146.738C51.4274 147.134 51.0314 147.601 50.6512 147.681C45.59 148.694 40.1645 148.845 35.2063 147.237C32.7906 146.453 30.5412 145.241 28.6165 143.578C26.5335 141.772 24.9573 139.435 23.7851 136.956C22.4465 134.137 21.5356 131.143 20.6644 128.149C20.3159 126.937 22.193 126.422 22.5495 127.626Z" fill="#1B1A3F"/>
<path d="M49.2176 170.998L51.6729 170.951C54.6748 171.561 57.7875 170.935 60.7498 170.135C70.4365 167.513 79.5846 162.92 87.4734 156.726C77.1055 157.835 66.9277 160.749 57.542 165.304C54.4926 166.777 51.467 168.48 49.2176 171.006V170.998Z" fill="#1B1A3F"/>
<path d="M49.2173 170.024C49.8351 170.008 50.4529 170 51.0707 169.985C52.0845 169.961 53.0746 170.206 54.0963 170.214C57.114 170.238 60.1 169.359 62.9593 168.472C68.464 166.777 73.7549 164.432 78.721 161.51C81.5248 159.862 84.2178 158.033 86.7761 156.029L87.4652 157.7C76.8201 158.856 66.2384 161.906 56.7022 166.801C54.1993 168.084 51.7994 169.581 49.9064 171.687C49.0668 172.622 47.6887 171.236 48.5282 170.309C50.2707 168.369 52.4568 166.88 54.7379 165.636C57.1536 164.321 59.6802 163.189 62.2227 162.143C67.3552 160.029 72.6777 158.381 78.1032 157.233C81.2001 156.575 84.3287 156.092 87.4731 155.752C88.281 155.664 88.8117 156.908 88.1622 157.423C83.4416 161.122 78.325 164.274 72.8757 166.777C70.1748 168.012 67.4027 169.105 64.5751 170.024C61.6445 170.975 58.611 171.878 55.522 172.123C54.6428 172.194 53.7637 172.202 52.8845 172.115C52.2984 172.06 51.8707 171.933 51.4113 171.941C50.6826 171.957 49.9539 171.973 49.2252 171.988C47.9659 172.012 47.9659 170.064 49.2252 170.032L49.2173 170.024Z" fill="#1B1A3F"/>
<path d="M36.3623 159.189C33.9386 158.294 31.3407 158.033 28.7665 157.779C22.8895 157.193 17.0205 156.607 11.1435 156.021C19.9511 163.783 30.8496 169.153 42.3739 171.41L48.9954 170.444C45.5024 165.914 41.7323 161.169 36.3623 159.189Z" fill="#1B1A3F"/>
<path d="M36.1009 160.132C34.192 159.442 32.1961 159.118 30.1922 158.904C28.125 158.682 26.0498 158.484 23.9826 158.278C19.7055 157.85 15.4285 157.423 11.1435 156.995C11.3732 156.441 11.6029 155.886 11.8326 155.324C18.5888 161.264 26.5726 165.779 35.1346 168.527C37.5899 169.319 40.0928 169.961 42.6273 170.46H42.1046L48.7261 169.494C48.5281 169.969 48.338 170.452 48.14 170.927C44.8688 166.69 41.2729 162.064 36.0929 160.124C35.6019 159.941 35.2613 159.466 35.4118 158.92C35.5385 158.445 36.1167 158.048 36.6157 158.239C42.3422 160.385 46.2153 165.248 49.8349 169.945C50.1913 170.412 49.8349 171.299 49.2488 171.379C47.7915 171.592 46.3341 171.806 44.8767 172.012C44.1718 172.115 43.4748 172.218 42.7699 172.321C42.2947 172.392 41.859 172.297 41.3838 172.194C40.5442 172.02 39.7047 171.83 38.8651 171.624C32.1644 169.961 25.7171 167.244 19.8322 163.64C16.5136 161.605 13.3692 159.276 10.4465 156.71C9.83666 156.179 10.296 154.96 11.1356 155.039C15.4839 155.474 19.8402 155.91 24.1885 156.338C26.3191 156.552 28.4576 156.742 30.5882 156.987C32.6317 157.225 34.6673 157.542 36.6157 158.246C37.1147 158.429 37.4473 158.912 37.2969 159.45C37.1622 159.926 36.5919 160.314 36.0929 160.132H36.1009Z" fill="#1B1A3F"/>
<path d="M49.6532 194.213L52.1085 194.166C55.1103 194.776 58.2231 194.15 61.1853 193.35C70.8721 190.728 80.0202 186.134 87.9089 179.941C77.5411 181.049 67.3633 183.964 57.9775 188.518C54.9282 189.992 51.9026 191.695 49.6532 194.221V194.213Z" fill="#1B1A3F"/>
<path d="M49.6529 193.231C50.2707 193.215 50.8885 193.207 51.5063 193.192C52.5201 193.168 53.5102 193.413 54.5319 193.421C57.5496 193.445 60.5356 192.566 63.3949 191.679C68.8996 189.984 74.1904 187.639 79.1566 184.717C81.9604 183.069 84.6533 181.24 87.2117 179.236C87.4413 179.79 87.671 180.345 87.9007 180.907C77.2556 182.063 66.6739 185.113 57.1377 190.007C54.6348 191.291 52.235 192.788 50.342 194.894C49.5024 195.829 48.1242 194.443 48.9638 193.516C50.7063 191.576 52.8924 190.087 55.1734 188.843C57.5892 187.528 60.1158 186.396 62.6583 185.35C67.7907 183.235 73.1133 181.588 78.5388 180.44C81.6357 179.782 84.7642 179.299 87.9087 178.958C88.7165 178.871 89.2472 180.115 88.5977 180.63C83.8771 184.329 78.7605 187.481 73.3113 189.984C70.6104 191.219 67.8382 192.312 65.0106 193.231C62.0801 194.182 59.0465 195.084 55.9576 195.33C55.0784 195.401 54.1992 195.409 53.32 195.322C52.7339 195.267 52.3062 195.14 51.8468 195.148C51.1182 195.164 50.3895 195.18 49.6608 195.195C48.4014 195.219 48.4014 193.271 49.6608 193.239L49.6529 193.231Z" fill="#1B1A3F"/>
<path d="M36.7983 182.404C34.3746 181.509 31.7767 181.248 29.2026 180.994C23.3256 180.408 17.4565 179.822 11.5796 179.236C20.3871 186.998 31.2856 192.368 42.8099 194.625L49.4314 193.659C45.9385 189.128 42.1683 184.384 36.7983 182.404Z" fill="#1B1A3F"/>
<path d="M36.5445 183.338C34.6356 182.649 32.6397 182.325 30.6358 182.111C28.5686 181.889 26.4934 181.691 24.4262 181.485C20.1491 181.057 15.8721 180.63 11.5871 180.202C11.8168 179.648 12.0465 179.093 12.2762 178.531C19.0324 184.471 27.0162 188.986 35.5782 191.734C38.0335 192.526 40.5443 193.168 43.0709 193.667H42.5482C44.758 193.342 46.9599 193.025 49.1697 192.7L48.5836 194.134C45.3124 189.897 41.7165 185.271 36.5366 183.331C36.0455 183.148 35.7049 182.673 35.8554 182.127C35.9821 181.651 36.5603 181.255 37.0593 181.445C42.7858 183.592 46.6589 188.455 50.2785 193.152C50.6349 193.619 50.2785 194.506 49.6924 194.586C48.2351 194.799 46.7777 195.005 45.3203 195.219C44.6154 195.322 43.9184 195.425 43.2135 195.528C42.7383 195.599 42.3026 195.504 41.8274 195.401C40.9879 195.227 40.1483 195.037 39.3087 194.831C32.608 193.168 26.1608 190.451 20.2759 186.847C16.9572 184.812 13.8128 182.483 10.8901 179.917C10.2803 179.386 10.7396 178.166 11.5792 178.246C15.9275 178.681 20.2838 179.117 24.6321 179.545C26.7627 179.758 28.9012 179.949 31.0318 180.194C33.0753 180.432 35.1109 180.748 37.0593 181.453C37.5583 181.636 37.891 182.119 37.7405 182.657C37.6058 183.133 37.0356 183.521 36.5366 183.338H36.5445Z" fill="#1B1A3F"/>
<path d="M50.0892 215.67L52.5445 215.622C55.5464 216.232 58.6591 215.606 61.6214 214.806C71.3081 212.185 80.4562 207.591 88.345 201.397C77.9771 202.506 67.7993 205.421 58.4136 209.975C55.3642 211.448 52.3386 213.151 50.0892 215.678V215.67Z" fill="#1B1A3F"/>
<path d="M50.0889 214.695C50.7067 214.68 51.3245 214.672 51.9423 214.656C52.9561 214.632 53.9462 214.878 54.9679 214.886C57.9856 214.909 60.9716 214.03 63.8309 213.143C69.3356 211.448 74.6265 209.104 79.5926 206.181C82.3964 204.534 85.0894 202.704 87.6477 200.7C87.8774 201.254 88.1071 201.809 88.3368 202.371C77.6917 203.528 67.11 206.577 57.5737 211.472C55.0709 212.755 52.671 214.252 50.778 216.359C49.9384 217.293 48.5603 215.907 49.3998 214.981C51.1423 213.04 53.3284 211.551 55.6095 210.308C58.0252 208.993 60.5518 207.86 63.0943 206.815C68.2267 204.7 73.5493 203.052 78.9748 201.904C82.0717 201.247 85.2003 200.763 88.3447 200.423C89.1526 200.336 89.6833 201.579 89.0338 202.094C84.3132 205.793 79.1966 208.945 73.7473 211.448C71.0464 212.684 68.2743 213.777 65.4467 214.695C62.5161 215.646 59.4825 216.549 56.3936 216.794C55.5144 216.866 54.6352 216.874 53.7561 216.786C53.17 216.731 52.7422 216.604 52.2829 216.612C51.5542 216.628 50.8255 216.644 50.0968 216.66C48.8375 216.684 48.8375 214.735 50.0968 214.703L50.0889 214.695Z" fill="#1B1A3F"/>
<path d="M37.2419 203.86C34.8182 202.965 32.2203 202.704 29.6462 202.45C23.7692 201.864 17.9001 201.278 12.0232 200.692C20.8307 208.454 31.7292 213.824 43.2535 216.082L49.875 215.115C46.3821 210.585 42.6119 205.84 37.2419 203.86Z" fill="#1B1A3F"/>
<path d="M36.9805 204.803C35.0717 204.114 33.0757 203.789 31.0718 203.575C29.0046 203.353 26.9294 203.155 24.8622 202.949C20.5852 202.522 16.3081 202.094 12.0232 201.666C12.2528 201.112 12.4825 200.557 12.7122 199.995C19.4684 205.935 27.4522 210.45 36.0142 213.199C38.4695 213.991 40.9803 214.632 43.507 215.131H42.9842C45.194 214.814 47.3959 214.49 49.6057 214.165C49.4077 214.64 49.2176 215.123 49.0196 215.598C45.7484 211.361 42.1526 206.735 36.9726 204.795C36.4815 204.613 36.1409 204.138 36.2914 203.591C36.4181 203.116 36.9963 202.72 37.4953 202.91C43.2218 205.056 47.0949 209.919 50.7146 214.616C51.071 215.084 50.7146 215.971 50.1284 216.05C48.6711 216.264 47.2137 216.478 45.7564 216.684C45.0514 216.786 44.3544 216.889 43.6495 216.992C43.1743 217.064 42.7387 216.969 42.2634 216.866C41.4239 216.691 40.5843 216.501 39.7447 216.295C33.044 214.632 26.5968 211.915 20.7119 208.312C17.3932 206.276 14.2488 203.947 11.3261 201.381C10.7163 200.851 11.1757 199.631 12.0152 199.71C16.3636 200.146 20.7198 200.581 25.0681 201.009C27.1987 201.223 29.3372 201.413 31.4679 201.658C33.5113 201.896 35.5469 202.213 37.4953 202.918C37.9943 203.1 38.327 203.583 38.1765 204.122C38.0418 204.597 37.4716 204.985 36.9726 204.803H36.9805Z" fill="#1B1A3F"/>
<path d="M58.524 293.647C55.7677 279.025 53.7004 264.278 52.2272 249.474C50.7461 234.584 49.8511 219.646 49.4076 204.684C48.964 189.762 48.964 174.832 49.2571 159.91C49.558 144.877 50.16 129.852 50.9283 114.834C51.6966 99.8252 52.6232 84.8239 53.5737 69.8226C53.6925 67.9692 53.8113 66.1158 53.9301 64.2624C53.9856 63.4228 55.3004 63.4149 55.2449 64.2624C54.2945 79.1845 53.3519 94.1067 52.552 109.037C51.752 123.983 51.0867 138.929 50.7144 153.89C50.3342 168.82 50.2392 183.758 50.5719 198.688C50.8966 213.579 51.649 228.453 52.9638 243.288C54.2866 258.203 56.1874 273.077 58.7933 287.825C59.118 289.655 59.4507 291.476 59.7913 293.298C59.9497 294.122 58.6824 294.478 58.524 293.647Z" fill="#1B1A3F"/>
<path d="M70.7454 297.781C68.9475 281.782 68.3772 265.648 69.0109 249.553C69.6445 233.538 71.4662 217.563 74.4284 201.809C77.3986 185.976 81.5252 170.365 86.7606 155.134C91.9722 139.974 98.269 125.187 105.627 110.946C113.009 96.6412 121.46 82.8834 130.917 69.8542C132.097 68.2305 133.293 66.6227 134.497 65.0228C135.004 64.3574 136.145 65.0069 135.63 65.6881C125.967 78.4875 117.286 92.0236 109.659 106.13C102.023 120.244 95.4493 134.921 89.9684 150.009C84.5112 165.026 80.1391 180.44 76.8996 196.082C73.6285 211.86 71.5137 227.867 70.595 243.954C69.6841 259.898 69.9534 275.913 71.4424 291.817C71.6325 293.813 71.8384 295.809 72.0602 297.805C72.1553 298.644 70.8405 298.636 70.7454 297.805V297.781Z" fill="#1B1A3F"/>
<path d="M111.52 96.2372C113.745 86.8911 116.074 77.236 121.452 69.1255C124.208 64.9752 127.749 61.4664 131.543 58.2586C135.638 54.7895 139.907 51.5183 144.112 48.1759C149.102 44.2078 154.092 40.2396 159.082 36.2715C159.644 35.8279 160.5 36.3744 160.112 37.0714C157.229 42.3069 154.346 47.5423 151.463 52.7777C148.92 57.3953 146.417 62.0367 143.788 66.6068C139.21 74.5669 134.133 82.4556 127.424 88.8157C123.709 92.3403 119.496 95.3343 114.823 97.449C114.062 97.7975 113.389 96.6649 114.157 96.3164C122.45 92.5621 129.032 86.0911 134.378 78.8439C140.136 71.0423 144.659 62.409 149.324 53.9262C152.54 48.0888 155.748 42.2435 158.963 36.4061C159.304 36.6754 159.652 36.9368 159.993 37.2061C155.605 40.699 151.209 44.1919 146.821 47.6848C142.576 51.059 138.299 54.3935 134.101 57.8309C130.267 60.9754 126.521 64.3257 123.583 68.3493C120.787 72.1828 118.727 76.5074 117.127 80.9666C115.298 86.0674 114.031 91.3344 112.771 96.6015C112.573 97.4253 111.306 97.0768 111.504 96.253L111.52 96.2372Z" fill="#1B1A3F"/>
<path d="M101.785 117.591C108.446 114.383 115.329 111.635 122.371 109.377C129.388 107.128 136.564 105.362 143.819 104.102C147.938 103.389 152.08 102.835 156.238 102.439C156.92 102.376 157.086 103.342 156.571 103.667C149.506 108.07 142.132 111.991 134.521 115.381C130.806 117.036 127.036 118.62 123.186 119.959C119.614 121.202 115.923 122.185 112.145 122.501C108.027 122.85 103.845 122.256 100.201 120.244C99.4646 119.832 100.122 118.7 100.867 119.111C107.425 122.739 115.298 121.226 122.046 118.969C125.776 117.725 129.42 116.205 133.024 114.628C136.73 113.005 140.374 111.254 143.962 109.377C148.033 107.255 152.017 104.973 155.906 102.542C156.017 102.954 156.128 103.358 156.238 103.77C148.959 104.459 141.728 105.655 134.616 107.342C127.543 109.021 120.588 111.183 113.809 113.805C109.959 115.294 106.165 116.941 102.443 118.731C101.682 119.096 101.017 117.963 101.777 117.599L101.785 117.591Z" fill="#1B1A3F"/>
<path d="M102.894 117.662C100.843 104.847 95.7816 92.7997 90.1581 81.1883C88.574 77.9251 86.9503 74.6856 85.3187 71.4462C85.7226 71.2798 86.1187 71.1056 86.5226 70.9393C88.0433 78.1231 87.085 85.5446 88.3602 92.7522C88.9938 96.3401 90.0551 99.841 91.1561 103.31C92.1936 106.558 93.152 109.892 94.9104 112.838C96.6133 115.698 99.2191 118.161 102.569 118.826C103.401 118.993 103.045 120.26 102.221 120.094C99.2112 119.492 96.6925 117.535 94.8708 115.127C92.7956 112.403 91.6471 109.108 90.6096 105.892C89.4611 102.344 88.3047 98.7955 87.5047 95.1521C86.7048 91.5008 86.4196 87.8019 86.3088 84.0634C86.1741 79.7943 86.1583 75.4935 85.2712 71.2957C85.1286 70.6066 86.1187 70.0918 86.4751 70.7888C92.3045 82.3764 98.1815 94.067 101.777 106.581C102.791 110.114 103.607 113.694 104.193 117.321C104.328 118.145 103.06 118.502 102.926 117.67L102.894 117.662Z" fill="#1B1A3F"/>
<path d="M93.5166 140.79C98.5065 137.202 104.534 135.554 110.553 134.762C117.127 133.899 123.765 134.081 130.363 133.59C134.244 133.297 138.117 132.75 141.855 131.626C142.441 131.452 143.027 132.307 142.497 132.727C137.071 136.932 130.957 140.164 124.438 142.326C117.904 144.489 110.997 145.558 104.114 145.455C100.241 145.392 96.3838 144.956 92.5978 144.148C91.7741 143.974 92.1226 142.706 92.9463 142.881C99.4807 144.283 106.245 144.504 112.866 143.641C119.488 142.778 125.983 140.806 131.955 137.82C135.337 136.132 138.568 134.121 141.562 131.8C141.776 132.164 141.99 132.529 142.204 132.901C129.539 136.695 115.963 133.859 103.283 137.582C100.027 138.54 96.9303 139.942 94.174 141.93C93.4849 142.421 92.8275 141.289 93.5087 140.798L93.5166 140.79Z" fill="#1B1A3F"/>
<path d="M91.3542 142.897C87.7188 131.222 85.2555 119.199 84.012 107.033C83.6635 103.603 83.41 100.158 83.2516 96.7124C83.6239 96.8708 83.9961 97.0213 84.3763 97.1797C80.028 102.178 77.7944 108.807 77.7944 115.397C77.7944 118.684 78.3409 121.963 79.4577 125.052C80.6695 128.402 82.5942 131.42 84.9704 134.065C87.8851 137.313 91.3463 140.006 94.8947 142.516C95.5758 143 94.9264 144.14 94.2294 143.649C87.9089 139.158 81.723 133.986 78.6736 126.652C76.0202 120.268 75.7985 112.926 77.8499 106.336C79.0062 102.621 80.8992 99.1756 83.4496 96.2372C83.8456 95.7857 84.5506 96.1738 84.5743 96.7045C85.1209 108.839 86.8871 120.901 89.8494 132.679C90.681 135.99 91.6077 139.277 92.6294 142.54C92.8829 143.348 91.6156 143.697 91.3622 142.889L91.3542 142.897Z" fill="#1B1A3F"/>
<path d="M83.79 162.017C87.6077 161.098 90.9185 158.951 94.3718 157.185C97.8251 155.419 101.421 153.938 105.096 152.702C112.478 150.215 120.137 148.686 127.828 147.514C132.184 146.849 136.556 146.294 140.928 145.74C141.498 145.669 141.784 146.5 141.395 146.865C135.4 152.362 128.509 156.86 121.08 160.163C113.642 163.466 105.714 165.597 97.6112 166.404C95.3222 166.634 93.0095 166.777 90.7125 166.753C88.3681 166.729 85.9919 166.428 83.9089 165.288C83.1643 164.884 83.8297 163.743 84.5742 164.155C86.3959 165.153 88.471 165.407 90.5224 165.438C92.4946 165.47 94.4747 165.359 96.439 165.201C100.375 164.876 104.28 164.218 108.106 163.26C115.773 161.343 123.123 158.223 129.824 154.033C133.61 151.665 137.174 148.956 140.461 145.938C140.619 146.31 140.77 146.683 140.928 147.063C133.206 148.037 125.475 149.027 117.856 150.643C110.308 152.243 102.847 154.468 95.9083 157.898C92.0432 159.807 88.376 162.286 84.1385 163.3C83.3148 163.498 82.9663 162.23 83.79 162.032V162.017Z" fill="#1B1A3F"/>
<path d="M85.3189 163.403C82.5863 158.056 79.5528 152.861 76.2341 147.855C74.6104 145.415 72.9313 143.008 71.1729 140.663C69.6205 138.604 67.9651 136.616 66.0801 134.857C63.9812 132.901 61.5654 131.269 58.817 130.374C59.0863 130.105 59.3556 129.836 59.6249 129.567C60.6942 133.052 61.7634 136.529 62.8248 140.014C63.7911 143.158 64.7098 146.326 65.8029 149.431C67.7988 155.094 70.666 160.757 75.8539 164.116C78.5152 165.834 81.5962 166.824 84.7802 166.555C85.6198 166.484 85.6198 167.799 84.7802 167.87C78.832 168.369 73.3114 164.813 69.8185 160.235C65.7633 154.936 63.997 148.306 62.0723 142.033C60.8367 137.994 59.5932 133.954 58.3576 129.915C58.2151 129.448 58.6903 128.957 59.1655 129.107C64.2504 130.763 68.1235 134.636 71.3472 138.754C75.0302 143.459 78.3489 148.473 81.4062 153.605C83.1883 156.591 84.8753 159.64 86.4594 162.737C86.8475 163.49 85.7069 164.155 85.3268 163.403H85.3189Z" fill="#1B1A3F"/>
<path d="M79.0777 182.673C84.3607 179.315 90.5941 178.095 96.7007 177.263C103.607 176.321 110.53 175.513 117.444 174.642C121.397 174.143 125.349 173.652 129.325 173.454C129.935 173.422 130.141 174.174 129.792 174.578C127.67 177.018 125.159 179.109 122.363 180.741C119.44 182.451 116.233 183.592 112.953 184.408C109.524 185.263 106.023 185.81 102.538 186.38C98.9026 186.974 95.2592 187.528 91.5841 187.813C87.4417 188.13 83.2756 188.067 79.1807 187.354C78.3491 187.212 78.7055 185.944 79.5292 186.087C86.6655 187.33 93.9444 186.443 101.033 185.303C107.631 184.241 114.577 183.386 120.573 180.234C123.725 178.578 126.529 176.337 128.866 173.652C129.024 174.024 129.175 174.396 129.333 174.776C122.308 175.117 115.314 176.234 108.344 177.105C104.962 177.533 101.58 177.945 98.1977 178.38C95.1879 178.768 92.1861 179.22 89.2397 179.941C85.8972 180.764 82.6657 181.96 79.751 183.806C79.0381 184.257 78.3728 183.125 79.0857 182.673H79.0777Z" fill="#1B1A3F"/>
<path d="M76.4084 183.98C72.7966 175.442 67.585 167.6 61.0823 160.995C59.2606 159.141 57.3359 157.383 55.3241 155.728C55.6885 155.633 56.0528 155.538 56.425 155.435C55.8627 158.064 56.3458 160.733 57.1221 163.268C57.8903 165.779 58.8804 168.242 59.9734 170.626C62.0169 175.085 64.6782 179.323 68.4562 182.515C70.4284 184.178 72.6857 185.509 75.1411 186.332C75.941 186.602 75.6005 187.869 74.7926 187.6C64.6782 184.233 59.2606 173.889 56.1162 164.401C55.1182 161.399 54.5004 158.223 55.1736 155.086C55.2845 154.563 55.9181 154.508 56.2746 154.793C63.4742 160.71 69.5413 167.989 74.0718 176.131C75.3708 178.459 76.5351 180.859 77.5727 183.307C77.7152 183.639 77.6677 184.004 77.335 184.202C77.0578 184.368 76.5747 184.289 76.44 183.964L76.4084 183.98Z" fill="#1B1A3F"/>
<path d="M74.3648 205.777C79.8537 201.975 86.4752 200.399 93.0412 199.813C100.241 199.171 107.464 199.742 114.672 199.56C118.933 199.449 123.186 199.061 127.329 198.007C128.097 197.809 128.398 198.775 127.836 199.211C125.056 201.357 122.268 203.512 119.242 205.294C116.248 207.06 113.017 208.367 109.65 209.238C106.324 210.102 102.91 210.577 99.4964 210.87C96.0906 211.163 92.661 211.329 89.2394 211.369C85.7861 211.401 82.1981 211.044 79.3943 208.834C78.729 208.312 79.6636 207.385 80.321 207.908C82.6971 209.777 85.8811 210.062 88.7958 210.062C92.0353 210.062 95.2906 209.888 98.5143 209.642C105.16 209.135 111.829 207.931 117.713 204.66C121.08 202.791 124.129 200.431 127.17 198.086C127.337 198.49 127.511 198.886 127.677 199.29C120.391 201.144 112.834 200.977 105.381 200.866C98.5855 200.771 91.7027 200.763 85.0733 202.466C81.4932 203.385 78.0716 204.819 75.0301 206.926C74.3331 207.409 73.6757 206.268 74.3648 205.793V205.777Z" fill="#1B1A3F"/>
<path d="M73.3669 206.688C72.2501 205.128 70.967 203.702 69.7076 202.26C68.5196 200.898 67.379 199.496 66.2939 198.047C64.1316 195.172 62.199 192.122 60.512 188.946C59.5457 187.132 58.6665 185.271 57.8666 183.378C58.2071 183.426 58.5556 183.465 58.8962 183.513C55.7914 186.752 55.7914 191.813 57.4072 195.75C58.3418 198.031 59.7833 200.082 61.3674 201.952C62.9752 203.844 64.7257 205.635 66.5474 207.322C68.5433 209.167 70.7611 210.822 73.3827 211.646C74.1906 211.9 73.8421 213.167 73.0342 212.913C70.5155 212.129 68.3374 210.64 66.3652 208.921C64.3613 207.171 62.4842 205.238 60.7417 203.235C57.4626 199.457 54.738 194.879 55.039 189.706C55.1894 187.069 56.1161 184.511 57.9616 182.578C58.223 182.301 58.8249 182.317 58.9913 182.713C61.803 189.366 65.6365 195.552 70.3571 201.017C71.7749 202.656 73.2243 204.256 74.4916 206.023C74.9827 206.712 73.8421 207.369 73.359 206.688H73.3669Z" fill="#1B1A3F"/>
<path d="M18.0582 81.6478C17.9156 81.6002 17.773 81.5606 17.6226 81.5369L17.7968 81.5606C17.6542 81.5448 17.5117 81.5369 17.3691 81.5606V80.2458C17.7176 80.2854 18.0582 80.333 18.4067 80.3805C18.4938 80.4043 18.5651 80.4439 18.6284 80.4993C18.6997 80.5468 18.7552 80.6102 18.7948 80.6815C18.8423 80.7607 18.8661 80.8399 18.874 80.927C18.8898 81.0141 18.8898 81.1013 18.866 81.1884C18.8106 81.3468 18.7156 81.4973 18.5651 81.5844L18.4067 81.6478C18.2879 81.6794 18.177 81.6794 18.0582 81.6478C17.9314 81.6319 17.7968 81.6161 17.6701 81.5923L17.8443 81.6161C17.6859 81.5923 17.5275 81.5765 17.3691 81.5527C17.282 81.5527 17.1948 81.5369 17.1156 81.4973C17.0364 81.4735 16.9652 81.426 16.9018 81.3626C16.8384 81.2993 16.7909 81.2359 16.7671 81.1488C16.7275 81.0696 16.7038 80.9824 16.7117 80.8953C16.7117 80.729 16.7751 80.5468 16.9018 80.428L17.0364 80.3251C17.1394 80.2617 17.2503 80.2379 17.3691 80.2379C17.575 80.2142 17.773 80.2379 17.979 80.2696C18.1215 80.2934 18.272 80.325 18.4067 80.3726C18.4938 80.3963 18.5651 80.4359 18.6284 80.4914C18.6997 80.5389 18.7552 80.6023 18.7948 80.6735C18.8423 80.7528 18.8661 80.832 18.874 80.9191C18.8898 81.0062 18.8898 81.0933 18.866 81.1805C18.8106 81.3389 18.7156 81.4894 18.5651 81.5765C18.4146 81.6557 18.2245 81.7032 18.0582 81.6398V81.6478Z" fill="#1B1A3F"/>
<path d="M92.3651 289.372L92.9722 363.378L41.7365 363.799L41.1294 289.793L92.3651 289.372Z" fill="#C41730"/>
<path d="M41.0991 364.455L93.6196 364.028L93.0018 288.736L40.4813 289.164L41.0991 364.455ZM92.3207 362.745L42.3743 363.156L41.7803 290.439L91.7267 290.027L92.3207 362.745Z" fill="#1B1A3F"/>
<path d="M41.4239 324.322H92.6375C93.2157 324.322 93.6909 323.855 93.6909 323.269C93.6909 322.683 93.2236 322.216 92.6375 322.216H41.4239C40.8457 322.216 40.3705 322.683 40.3705 323.269C40.3705 323.855 40.8377 324.322 41.4239 324.322Z" fill="#1B1A3F"/>
<path d="M41.4239 309.432H92.6375C93.2157 309.432 93.6909 308.965 93.6909 308.379C93.6909 307.792 93.2236 307.325 92.6375 307.325H41.4239C40.8457 307.325 40.3705 307.792 40.3705 308.379C40.3705 308.965 40.8377 309.432 41.4239 309.432Z" fill="#1B1A3F"/>
<path d="M41.4239 351.474H92.6375C93.2157 351.474 93.6909 351.006 93.6909 350.42C93.6909 349.834 93.2236 349.367 92.6375 349.367H41.4239C40.8457 349.367 40.3705 349.834 40.3705 350.42C40.3705 351.006 40.8377 351.474 41.4239 351.474Z" fill="#1B1A3F"/>
<path d="M284.503 409.103H303.33V410.719H284.503V409.103Z" fill="#1B1A3F"/>
<path d="M57.6691 499.753H139.559V501.368H57.6691V499.753Z" fill="#1B1A3F"/>
<path d="M32.2681 499.753H48.0298V501.368H32.2681V499.753Z" fill="#1B1A3F"/>
<path d="M183.209 172.685C183.264 172.907 183.328 173.121 183.391 173.327L208.443 204.296L223.595 223.02H295.244C301.445 224.303 310.974 222.98 310.974 222.98C310.974 222.98 323.084 224.002 326.989 222.378C330.886 220.755 328.351 218.466 328.351 218.466C331.725 216.937 328.818 214.482 328.818 214.482C328.985 214.284 329.452 213.666 329.333 212.969C329.175 211.994 327.947 211.147 326.363 211.29C327.131 210.997 328.026 210.553 328.026 209.999C328.026 209.08 325.547 208.319 322.648 207.599C316.106 205.967 312.843 205.143 309.999 205.238C305.508 205.381 301.659 206.799 298.681 208.391C298.665 208.351 298.657 208.319 298.641 208.28C278.056 205.904 257.471 203.528 236.894 201.151C233.694 196.573 230.502 191.987 227.302 187.409C219.888 176.788 212.475 166.175 205.069 155.553C199.01 149.558 190.694 148.876 185.236 151.799C181.34 157.328 181.514 166.381 183.217 172.677L183.209 172.685Z" fill="white"/>
<path d="M301.944 224.311C306.324 224.311 310.332 223.796 310.989 223.709C312.154 223.804 323.369 224.667 327.266 223.052C328.81 222.41 329.682 221.555 329.856 220.517C329.982 219.796 329.737 219.155 329.452 218.687C330.173 218.196 330.592 217.594 330.687 216.882C330.83 215.836 330.22 214.925 329.753 214.394C329.975 213.983 330.149 213.452 330.054 212.85C329.919 211.995 329.285 211.29 328.406 210.894C328.62 210.64 328.755 210.347 328.755 210.007C328.755 208.62 326.759 207.868 322.822 206.886L322.696 206.854C316.169 205.223 312.89 204.407 309.975 204.502C306.158 204.621 302.364 205.65 298.705 207.551L237.305 200.47L227.904 186.998C224.165 181.635 220.427 176.281 216.68 170.919C213.005 165.66 209.338 160.401 205.663 155.134C205.639 155.094 205.608 155.062 205.576 155.031C198.836 148.354 190.123 148.338 184.88 151.15C184.777 151.205 184.69 151.276 184.626 151.371C180.666 156.987 180.698 166.206 182.496 172.86C182.551 173.081 182.615 173.303 182.678 173.517C182.702 173.612 182.749 173.699 182.813 173.77L223.017 223.455C223.159 223.63 223.365 223.725 223.587 223.725H295.156C297.231 224.145 299.639 224.287 301.936 224.287L301.944 224.311ZM310.965 222.236C310.965 222.236 310.894 222.236 310.863 222.236C310.767 222.252 301.382 223.527 295.378 222.283C295.331 222.275 295.283 222.267 295.228 222.267H223.936L184.048 172.971C184.001 172.812 183.961 172.654 183.914 172.495C182.226 166.222 182.139 157.613 185.727 152.369C190.511 149.898 198.353 149.993 204.491 156.029C208.15 161.272 211.809 166.515 215.469 171.759C219.207 177.121 222.953 182.475 226.692 187.837L236.284 201.579C236.402 201.753 236.592 201.864 236.798 201.888L298.229 208.977C298.285 209.016 298.348 209.056 298.419 209.08C298.617 209.159 298.839 209.143 299.029 209.04C302.601 207.124 306.3 206.094 310.023 205.975C312.756 205.88 315.955 206.688 322.347 208.28L322.474 208.312C325.864 209.159 326.965 209.682 327.25 209.991C327.139 210.094 326.846 210.315 326.101 210.601C325.761 210.735 325.563 211.1 325.65 211.456C325.737 211.812 326.07 212.058 326.434 212.018C327.709 211.9 328.533 212.573 328.612 213.08C328.676 213.468 328.359 213.888 328.256 214.006C327.994 214.315 328.034 214.775 328.343 215.036C328.604 215.258 329.333 216.042 329.238 216.676C329.167 217.182 328.549 217.555 328.042 217.784C327.82 217.887 327.654 218.093 327.622 218.339C327.583 218.584 327.67 218.83 327.852 218.996C327.852 218.996 328.517 219.638 328.406 220.256C328.319 220.755 327.709 221.262 326.695 221.681C323.005 223.218 311.148 222.236 311.029 222.228C311.005 222.228 310.989 222.228 310.965 222.228V222.236Z" fill="#1B1A3F"/>
<path d="M326.354 212.026C326.711 212.026 327.02 211.773 327.075 211.408C327.139 211.004 326.869 210.632 326.465 210.561L315.076 208.692C314.672 208.628 314.3 208.898 314.228 209.302C314.165 209.706 314.434 210.078 314.838 210.149L326.228 212.018C326.267 212.018 326.307 212.026 326.347 212.026H326.354Z" fill="#1B1A3F"/>
<path d="M328.81 215.218C329.174 215.218 329.491 214.949 329.539 214.577C329.586 214.173 329.301 213.808 328.897 213.761L315.67 212.129C315.266 212.074 314.902 212.367 314.854 212.771C314.807 213.175 315.092 213.539 315.496 213.587L328.723 215.218C328.723 215.218 328.786 215.218 328.81 215.218Z" fill="#1B1A3F"/>
<path d="M328.343 219.194C328.715 219.194 329.032 218.917 329.072 218.537C329.111 218.133 328.826 217.769 328.422 217.729L316.977 216.509C316.573 216.47 316.209 216.755 316.169 217.159C316.13 217.563 316.415 217.927 316.819 217.967L328.264 219.186C328.264 219.186 328.319 219.186 328.343 219.186V219.194Z" fill="#1B1A3F"/>
<path d="M183.209 172.685C183.264 172.907 183.327 173.121 183.391 173.327C184.286 176.345 185.648 178.848 189.403 184.558C193.086 190.166 198.44 197.888 205.576 206.862C206.534 206.007 207.493 205.151 208.443 204.296C214.732 198.68 221.013 193.049 227.302 187.425C228.918 185.984 230.533 184.534 232.149 183.085C230.106 179.37 211.778 146.754 195.058 147.023C193.806 147.039 190.694 147.094 187.906 149.09C186.852 149.843 185.973 150.762 185.236 151.807C181.339 157.336 181.514 166.389 183.217 172.685H183.209Z" fill="#77CBD8"/>
<path d="M205.568 207.916C205.829 207.916 206.075 207.821 206.273 207.646L207.247 206.775C207.881 206.213 208.514 205.642 209.148 205.072C213.813 200.906 218.478 196.732 223.143 192.558L232.854 183.869C233.218 183.544 233.313 183.006 233.076 182.57C229.694 176.44 212.047 145.962 195.263 145.962C195.192 145.962 195.113 145.962 195.042 145.962C193.759 145.978 190.353 146.033 187.288 148.227C186.179 149.019 185.197 150.017 184.373 151.197C180.349 156.892 180.381 166.23 182.195 172.955C182.258 173.184 182.321 173.406 182.385 173.62C183.304 176.717 184.618 179.196 188.523 185.128C193.466 192.661 198.931 200.185 204.752 207.512C204.934 207.741 205.204 207.884 205.489 207.908C205.52 207.908 205.552 207.908 205.576 207.908L205.568 207.916ZM230.803 182.855L221.726 190.982C217.061 195.156 212.395 199.33 207.73 203.504C207.097 204.074 206.463 204.637 205.837 205.199L205.695 205.326C200.174 198.332 194.986 191.148 190.274 183.972C186.503 178.238 185.244 175.885 184.397 173.026C184.341 172.828 184.278 172.63 184.222 172.416C182.535 166.159 182.464 157.557 186.092 152.417C186.781 151.435 187.596 150.603 188.515 149.954C191.042 148.148 193.862 148.1 195.073 148.084C195.137 148.084 195.2 148.084 195.263 148.084C210.399 148.084 227.444 176.899 230.81 182.863L230.803 182.855Z" fill="#1B1A3F"/>
<path d="M232.371 210.038C232.576 210.038 232.774 209.927 232.877 209.729L237.154 201.175C237.297 200.898 237.178 200.557 236.901 200.415C236.624 200.272 236.283 200.391 236.141 200.668L231.864 209.222C231.721 209.5 231.84 209.84 232.117 209.983C232.196 210.022 232.283 210.046 232.371 210.046V210.038Z" fill="#1B1A3F"/>
<path d="M93.0734 424.896H208.498C209.48 424.896 210.28 424.096 210.28 423.114C210.28 422.132 209.48 421.332 208.498 421.332H93.0734C92.0913 421.332 91.2913 422.132 91.2913 423.114C91.2913 424.096 92.0913 424.896 93.0734 424.896Z" fill="white"/>
<path d="M93.0734 425.625H208.498C209.884 425.625 211.017 424.5 211.017 423.106C211.017 421.712 209.892 420.588 208.498 420.588H93.0734C91.6873 420.588 90.5547 421.712 90.5547 423.106C90.5547 424.5 91.6873 425.625 93.0734 425.625ZM208.498 422.061C209.076 422.061 209.544 422.528 209.544 423.106C209.544 423.684 209.076 424.152 208.498 424.152H93.0734C92.4952 424.152 92.0279 423.684 92.0279 423.106C92.0279 422.528 92.4952 422.061 93.0734 422.061H208.498Z" fill="#1B1A3F"/>
<path d="M192.61 379.528C185.783 387.876 178.955 396.224 172.12 404.564C183.652 413.95 195.184 423.336 206.716 432.73C208.277 430.932 209.829 429.134 211.389 427.328C206.455 419.74 201.528 412.152 196.594 404.564C199.628 399.63 202.661 394.704 205.703 389.769C201.338 386.355 196.974 382.942 192.61 379.528Z" fill="#C41730"/>
<path d="M206.827 433.965L212.498 427.407L197.647 404.557L206.875 389.563L192.475 378.292L170.876 404.691L206.835 433.957L206.827 433.965ZM210.28 427.257L206.613 431.502L173.379 404.446L192.752 380.771L204.53 389.991L195.548 404.588L210.288 427.265L210.28 427.257Z" fill="#1B1A3F"/>
<path d="M208.261 430.655L174.417 401.523C173.696 400.905 172.627 400.945 171.961 401.618L171.534 402.046C170.789 402.798 170.845 404.018 171.652 404.699L206.93 434.401C207.698 435.05 208.839 434.947 209.481 434.171C210.075 433.458 210.027 432.405 209.37 431.748L208.364 430.742C208.364 430.742 208.3 430.678 208.261 430.647V430.655Z" fill="#1B1A3F"/>
<path d="M208.079 435.264C208.15 435.264 208.213 435.264 208.285 435.256C208.887 435.201 209.425 434.916 209.805 434.456C210.55 433.561 210.486 432.27 209.671 431.447L208.665 430.441C208.625 430.401 208.578 430.362 208.538 430.322L174.694 401.198C173.807 400.438 172.468 400.486 171.645 401.317L171.217 401.745C170.773 402.188 170.536 402.798 170.567 403.424C170.591 404.05 170.884 404.636 171.359 405.04L206.637 434.742C207.041 435.082 207.548 435.264 208.079 435.264ZM173.237 401.523C173.553 401.523 173.87 401.634 174.132 401.856L207.976 430.987C207.976 430.987 208.031 431.035 208.055 431.058L209.053 432.064C209.552 432.571 209.591 433.363 209.14 433.91C208.902 434.195 208.57 434.369 208.205 434.401C207.841 434.433 207.485 434.322 207.199 434.084L171.922 404.382C171.629 404.129 171.454 403.78 171.439 403.392C171.423 403.004 171.565 402.64 171.835 402.363L172.262 401.935C172.532 401.666 172.88 401.531 173.237 401.531V401.523Z" fill="#1B1A3F"/>
<path d="M106.958 276.926C107.52 279.841 108.391 282.463 109.397 284.768H207.785L205.203 292.831L176.127 383.567C176.127 383.567 186.551 391.599 195.635 396.327C199.437 398.307 203.001 399.717 205.472 399.717C214.803 380.843 239.998 328.599 247.126 294.581C247.126 294.573 247.126 294.565 247.126 294.549C248.742 286.819 249.423 280.031 248.782 274.788C248.409 271.77 247.657 269.766 247.388 269.085C241.313 253.807 219.127 250.306 182.654 244.381C178.59 243.724 173.347 242.868 166.583 241.767C155.859 240.017 141.325 237.641 121.642 234.401C118.561 238.789 115.472 243.169 112.391 247.549C105.817 265.98 106.102 272.34 106.974 276.918L106.958 276.926Z" fill="#1B1A3F"/>
<path d="M205.457 400.177H205.742L205.869 399.923C218.605 374.15 240.956 326.2 247.562 294.676L247.578 294.613C249.289 286.415 249.843 279.73 249.233 274.74C248.972 272.626 248.481 270.614 247.807 268.927C241.677 253.506 219.753 249.949 183.43 244.057L166.647 241.332C154.932 239.423 139.82 236.944 121.714 233.966L121.429 233.918L121.262 234.156C119.718 236.35 118.181 238.536 116.637 240.73C115.092 242.924 113.548 245.11 112.011 247.304L111.956 247.415C105.287 266.099 105.651 272.499 106.522 277.021C107.037 279.722 107.869 282.392 108.994 284.958L109.112 285.235H207.168L175.597 383.742L175.85 383.94C175.953 384.019 186.408 392.05 195.422 396.747C199.802 399.028 203.184 400.184 205.473 400.184L205.457 400.177ZM246.651 294.518C240.085 325.843 217.908 373.461 205.172 399.25C203.033 399.155 199.897 398.038 195.833 395.923C187.675 391.678 178.313 384.66 176.65 383.401L208.411 284.308H109.691C108.653 281.893 107.885 279.382 107.402 276.847C106.562 272.443 106.206 266.21 112.78 247.779C114.308 245.601 115.837 243.431 117.373 241.253C118.863 239.138 120.352 237.031 121.833 234.916C139.812 237.871 154.837 240.334 166.488 242.235L183.272 244.959C219.27 250.797 241.004 254.329 246.936 269.259C247.578 270.875 248.053 272.808 248.306 274.843C248.908 279.738 248.354 286.336 246.659 294.454L246.643 294.518H246.651Z" fill="#1B1A3F"/>
<path d="M205.916 388.557C199.088 396.905 192.261 405.254 185.425 413.594C196.958 422.98 208.49 432.365 220.022 441.759C221.582 439.961 223.135 438.163 224.695 436.357C219.761 428.769 214.834 421.182 209.9 413.594C212.933 408.659 215.967 403.733 219.008 398.798C214.644 395.385 210.28 391.971 205.916 388.557Z" fill="#C41730"/>
<path d="M220.133 442.987L225.804 436.428L210.953 413.578L220.18 398.585L205.781 387.314L184.182 413.713L220.141 442.979L220.133 442.987ZM223.586 436.278L219.919 440.523L186.685 413.467L206.058 389.793L217.836 399.012L208.854 413.61L223.594 436.286L223.586 436.278Z" fill="#1B1A3F"/>
<path d="M221.559 439.676L187.715 410.544C186.994 409.927 185.925 409.966 185.259 410.639L184.831 411.067C184.087 411.82 184.142 413.039 184.95 413.72L220.228 443.422C220.996 444.072 222.137 443.969 222.778 443.192C223.372 442.48 223.325 441.426 222.667 440.769L221.67 439.763C221.67 439.763 221.606 439.7 221.567 439.668L221.559 439.676Z" fill="#1B1A3F"/>
<path d="M221.384 444.293C221.456 444.293 221.519 444.293 221.59 444.286C222.192 444.23 222.731 443.945 223.111 443.486C223.855 442.591 223.792 441.3 222.976 440.476L221.97 439.47C221.931 439.43 221.891 439.391 221.844 439.351L188 410.22C187.112 409.459 185.774 409.507 184.95 410.338L184.523 410.766C184.079 411.21 183.849 411.82 183.873 412.445C183.897 413.071 184.19 413.657 184.665 414.061L219.943 443.763C220.347 444.103 220.854 444.286 221.384 444.286V444.293ZM221.281 440.008C221.281 440.008 221.337 440.056 221.361 440.08L222.366 441.086C222.865 441.593 222.905 442.385 222.454 442.931C222.216 443.216 221.883 443.391 221.519 443.422C221.155 443.454 220.798 443.343 220.513 443.105L185.235 413.404C184.934 413.15 184.768 412.802 184.752 412.414C184.736 412.026 184.879 411.661 185.148 411.384L185.576 410.956C186.083 410.449 186.899 410.418 187.445 410.885L221.289 440.016L221.281 440.008Z" fill="#1B1A3F"/>
<path d="M109.857 482.605H103.172L116.344 308.038H127.67L123.377 350.08H177.284L172.999 308.038H184.325L197.497 482.605H190.804L178.107 358.151H122.553L109.857 482.605Z" fill="white"/>
<path d="M103.172 483.341H109.865C110.245 483.341 110.554 483.056 110.593 482.684L123.218 358.887H177.442L190.067 482.684C190.107 483.056 190.424 483.341 190.796 483.341H197.489C197.695 483.341 197.885 483.254 198.027 483.104C198.17 482.953 198.233 482.755 198.225 482.549L185.053 307.983C185.022 307.602 184.705 307.301 184.325 307.301H172.999C172.793 307.301 172.595 307.389 172.452 307.547C172.309 307.697 172.246 307.903 172.27 308.117L176.476 349.343H124.201L128.406 308.117C128.43 307.911 128.359 307.705 128.224 307.547C128.082 307.396 127.884 307.301 127.678 307.301H116.351C115.963 307.301 115.647 307.594 115.623 307.983L102.451 482.549C102.435 482.755 102.507 482.953 102.649 483.104C102.792 483.254 102.982 483.341 103.188 483.341H103.172ZM109.199 481.876H103.964L117.025 308.775H126.862L122.656 350.001C122.632 350.206 122.704 350.412 122.838 350.571C122.981 350.721 123.179 350.816 123.385 350.816H177.291C177.497 350.816 177.695 350.729 177.838 350.571C177.981 350.42 178.044 350.214 178.02 350.001L173.814 308.775H183.652L196.712 481.876H191.477L178.852 358.079C178.812 357.707 178.495 357.422 178.123 357.422H122.569C122.189 357.422 121.88 357.707 121.84 358.079L109.215 481.876H109.199Z" fill="#1B1A3F"/>
<path d="M104.123 276.926C104.843 280.681 106.253 283.968 106.61 284.768C108.075 288.047 109.801 290.676 111.243 292.609C142.267 292.688 173.292 292.759 204.324 292.839C205.362 292.839 206.399 292.839 207.437 292.846C200.942 325.78 194.455 358.713 187.961 391.646C189.956 393.238 192.143 394.822 194.55 396.335C205.924 403.495 217.353 406.252 225.955 407.321C236.022 357.921 243.142 318.572 247.063 294.581C247.063 294.573 247.063 294.565 247.063 294.549C247.324 292.965 247.57 291.445 247.8 289.987C248.639 284.736 249.851 275.144 244.473 267.184C239.515 259.842 231.103 257.141 210.035 253.173C197.782 250.868 181.513 248.183 162.061 246.045C162.916 244.643 163.859 243.217 164.904 241.767C169.181 235.843 173.91 231.352 178.21 227.994C167.296 222.838 158.457 220.454 152.271 219.242C146.259 218.062 130.989 215.622 124.581 214.664C124.296 214.624 124.019 214.577 123.734 214.529C122.134 217.832 120.668 220.968 119.338 223.907C116.795 229.53 114.736 234.449 113.136 238.449C112.415 240.239 111.75 241.942 111.124 243.565C111.124 243.565 110.316 245.672 109.635 247.557C105.429 259.105 102.325 267.652 104.115 276.926H104.123Z" fill="#1B1A3F"/>
<path d="M226.327 407.828L226.414 407.408C238.604 347.632 245.241 308.648 247.522 294.652V294.589C247.752 293.266 247.958 291.991 248.148 290.756L248.259 290.051C249.344 283.231 249.938 274.439 244.861 266.915C239.824 259.454 231.38 256.705 210.122 252.706C194.614 249.791 178.709 247.415 162.845 245.656C163.621 244.421 164.437 243.209 165.284 242.037C168.975 236.928 173.418 232.326 178.495 228.358L179.09 227.891L178.408 227.566C169.577 223.392 160.817 220.438 152.366 218.774C146.41 217.602 131.163 215.171 124.652 214.189L123.464 214.006L123.314 214.315C121.809 217.42 120.328 220.58 118.918 223.701L118.878 223.796C116.708 228.596 114.633 233.459 112.708 238.259C112.075 239.835 111.433 241.467 110.696 243.383C110.688 243.407 109.881 245.514 109.199 247.383C104.93 259.121 101.841 267.596 103.655 276.998L104.115 276.911L103.655 276.998C104.376 280.736 105.77 284.023 106.174 284.934C107.394 287.667 108.97 290.336 110.863 292.862L111.005 293.045L206.867 293.282L187.446 391.813L187.667 391.987C189.806 393.698 192.039 395.282 194.305 396.707C203.667 402.6 214.296 406.323 225.899 407.764L226.327 407.82V407.828ZM246.603 294.526C244.314 308.497 237.709 347.308 225.59 406.798C214.288 405.333 203.928 401.681 194.796 395.931C192.641 394.577 190.511 393.072 188.467 391.448L207.999 292.371L204.324 292.355L111.481 292.126C109.691 289.71 108.201 287.168 107.037 284.562C106.641 283.667 105.279 280.467 104.582 276.823C102.816 267.675 105.865 259.295 110.087 247.708C110.768 245.847 111.568 243.74 111.576 243.716C112.312 241.807 112.946 240.183 113.579 238.607C115.512 233.792 117.595 228.905 119.773 224.089L119.813 223.994C121.159 221.016 122.577 217.998 124.011 215.028L124.526 215.107C131.028 216.081 146.259 218.513 152.2 219.685C160.366 221.293 168.817 224.113 177.347 228.089C172.444 232.01 168.143 236.508 164.548 241.49C163.542 242.884 162.575 244.326 161.68 245.791L161.3 246.417L162.029 246.496C178.115 248.262 194.241 250.662 209.971 253.617C230.945 257.569 239.261 260.246 244.109 267.43C249.003 274.685 248.417 283.247 247.364 289.9L247.253 290.605C247.055 291.841 246.849 293.124 246.627 294.454V294.51L246.603 294.526Z" fill="#1B1A3F"/>
<path d="M209.576 95.2708C209.576 95.2708 219.381 81.513 214.494 74.4638C212.894 72.151 210.352 71.4382 208.998 71.0263C199.327 68.1116 185.323 75.4697 184.777 84.1188C184.563 87.5484 186.44 91.3344 189.157 93.5521C189.387 93.7422 192.586 96.3005 196.737 96.4351C197.497 96.4589 197.877 96.3876 198.915 96.4589C201.426 96.6252 203.422 97.3143 204.744 97.8846C206.36 97.0133 207.976 96.1421 209.592 95.2629L209.576 95.2708Z" fill="#1B1A3F"/>
<path d="M204.744 98.2252L209.782 95.5005L209.821 95.4451C210.225 94.8748 219.69 81.4338 214.74 74.2896C213.116 71.953 210.558 71.1847 209.188 70.7729L209.085 70.7412C203.73 69.1254 196.46 70.5986 190.986 74.4005C187.066 77.1251 184.69 80.6655 184.476 84.103C184.262 87.5167 186.06 91.4136 188.959 93.7897C189.307 94.0749 192.507 96.6015 196.721 96.744C197.038 96.752 197.283 96.744 197.545 96.744C197.909 96.744 198.289 96.7282 198.891 96.7678C200.84 96.8945 202.772 97.3698 204.618 98.1697L204.752 98.2252H204.744ZM209.37 95.0411L204.713 97.5599C202.843 96.7678 200.895 96.3005 198.923 96.1659C198.289 96.1263 197.901 96.1342 197.521 96.1421C197.275 96.1421 197.038 96.15 196.729 96.1421C192.65 96.0074 189.466 93.4333 189.331 93.3224C186.575 91.0651 184.856 87.3742 185.062 84.1426C185.268 80.8873 187.549 77.5132 191.319 74.8915C196.65 71.1848 203.715 69.7511 208.903 71.3115L209.006 71.3432C210.4 71.7629 212.736 72.4599 214.241 74.6301C218.803 81.2041 210.035 94.0749 209.37 95.0411Z" fill="#1B1A3F"/>
<path d="M211.666 91.9204C211.666 91.9204 198.811 86.6771 192.245 95.3817C185.687 104.086 212.997 97.4093 211.666 91.9204Z" fill="#C41730"/>
<path d="M221.044 112.205C221.044 112.205 229.448 93.8452 206.502 92.4512C183.557 91.0572 184.674 118.644 191.113 120.561C197.552 122.478 221.044 112.205 221.044 112.205Z" fill="#1B1A3F"/>
<path d="M193.109 121.099C201.354 121.099 220.292 112.862 221.171 112.482L221.274 112.434L221.322 112.332C221.464 112.023 224.759 104.664 221.258 98.8271C218.874 94.8511 213.916 92.6016 206.526 92.1581C191.121 91.2235 187.802 103.144 187.153 106.819C185.996 113.337 187.81 119.896 191.026 120.854C191.596 121.028 192.301 121.099 193.109 121.099ZM220.823 111.975C219.088 112.728 197.243 122.074 191.2 120.276C188.309 119.412 186.662 113.044 187.747 106.922C188.373 103.373 191.58 91.8492 206.495 92.7521C213.671 93.1878 218.462 95.3342 220.743 99.1281C223.872 104.332 221.211 111.064 220.823 111.975Z" fill="#1B1A3F"/>
<path d="M222.034 105.647C219.468 100.467 214.55 97.2431 209.75 97.6391C202.891 98.2094 199.279 105.94 198.598 110.597C198.455 111.563 198.424 112.522 198.463 113.456L198.241 113.543C195.731 110.431 192.586 109.401 191.034 110.415C189.497 111.421 189.775 114.288 189.798 114.66C189.925 116.292 190.923 118.082 193.521 120.339L187.113 141.827C186.59 143.578 186.575 145.439 187.074 147.189C187.192 147.609 187.327 148.005 187.462 148.378C190.646 156.955 202.986 156.448 205.6 147.673L210.106 132.552C211.453 132.941 212.775 133.051 213.924 132.806C219.761 131.586 224.799 120.6 222.027 105.639L222.034 105.647Z" fill="white"/>
<path d="M196.341 155.157C196.459 155.157 196.578 155.157 196.697 155.157C201.188 155.007 204.911 152.148 206.186 147.863L210.526 133.313C211.809 133.614 212.989 133.645 214.051 133.432C220.443 132.093 225.417 120.569 222.629 105.552C222.621 105.496 222.597 105.441 222.573 105.393C219.896 99.9835 214.716 96.6253 209.687 97.045C202.503 97.6391 198.693 105.631 197.972 110.526C197.893 111.072 197.846 111.627 197.822 112.197C195.414 109.765 192.428 108.767 190.67 109.916C189.101 110.945 189.046 113.345 189.157 114.684C189.307 116.601 190.464 118.462 192.792 120.545L186.496 141.653C185.933 143.53 185.925 145.502 186.456 147.364C186.575 147.783 186.717 148.203 186.86 148.599C188.349 152.615 192.04 155.165 196.317 155.165L196.341 155.157ZM210.114 131.95C209.853 131.95 209.607 132.125 209.528 132.386L205.021 147.506C203.897 151.276 200.618 153.795 196.665 153.93C193.576 154.033 189.68 152.575 188.04 148.172C187.905 147.807 187.779 147.419 187.66 147.023C187.193 145.391 187.2 143.657 187.692 142.002L194.099 120.513C194.17 120.284 194.099 120.03 193.917 119.872C191.644 117.908 190.527 116.228 190.4 114.613C190.25 112.783 190.614 111.421 191.359 110.93C192.61 110.106 195.485 111.12 197.758 113.931C197.925 114.137 198.202 114.209 198.448 114.122L198.669 114.034C198.915 113.939 199.081 113.702 199.065 113.432C199.026 112.458 199.065 111.555 199.192 110.684C199.857 106.161 203.319 98.7876 209.79 98.249C214.312 97.8767 218.969 100.926 221.433 105.845C224.015 119.911 219.484 131.024 213.789 132.22C212.784 132.434 211.564 132.347 210.265 131.974C210.209 131.958 210.154 131.95 210.098 131.95H210.114Z" fill="#1B1A3F"/>
<path d="M210.114 132.568L209.187 135.665C205.061 132.885 203.429 129.368 202.875 127.824C204.792 130.065 207.508 131.824 210.106 132.568H210.114Z" fill="#1B1A3F"/>
<path d="M209.362 136.14L210.486 132.362L210.193 132.275C207.619 131.539 204.966 129.796 203.105 127.626L202.051 126.398L202.59 127.919C203.105 129.368 204.76 133.043 209.013 135.911L209.354 136.14H209.362ZM209.742 132.766L209.021 135.182C206.217 133.202 204.649 130.873 203.817 129.234C205.536 130.842 207.651 132.117 209.742 132.766Z" fill="#1B1A3F"/>
<path d="M215.35 119.317C215.548 119.317 215.73 119.183 215.777 118.977C216.918 114.114 214.7 110.486 214.605 110.336C214.478 110.13 214.201 110.066 213.995 110.193C213.789 110.32 213.726 110.597 213.853 110.803C213.876 110.834 215.975 114.28 214.914 118.771C214.859 119.008 215.009 119.246 215.239 119.301C215.27 119.309 215.31 119.309 215.342 119.309L215.35 119.317Z" fill="#1B1A3F"/>
<path d="M216.411 98.5657C211.152 100.807 208.998 103.571 208.016 105.75C207.121 107.73 207.089 109.456 205.354 111.524C203.493 113.741 201.647 113.916 200.253 115.001C198.194 116.609 196.634 120.545 198.962 130.873C197.624 127.547 195.042 119.777 197.283 110.834C197.616 109.504 199.248 103.864 203.818 98.8746C206.043 96.443 207.596 95.8648 208.831 95.6589C212.641 95.0253 215.793 97.9638 216.411 98.5657Z" fill="#1B1A3F"/>
<path d="M198.685 130.984L199.255 130.81C197.394 122.541 197.79 117.306 200.443 115.246C200.919 114.882 201.457 114.613 202.035 114.327C203.121 113.797 204.348 113.195 205.592 111.722C206.796 110.288 207.215 108.989 207.611 107.738C207.802 107.136 208.007 106.518 208.293 105.884C209.599 102.993 212.372 100.625 216.53 98.8509L216.942 98.6766L216.617 98.3598C215.484 97.2589 212.443 94.7639 208.776 95.3738C207.516 95.5797 205.916 96.1421 203.588 98.6846C198.899 103.809 197.259 109.654 196.982 110.771C194.931 118.937 196.776 126.279 198.677 130.992L198.685 130.984ZM215.872 98.4707C211.801 100.292 209.069 102.692 207.746 105.623C207.445 106.288 207.239 106.93 207.041 107.54C206.637 108.791 206.257 109.979 205.132 111.318C203.976 112.696 202.804 113.266 201.774 113.773C201.172 114.066 200.602 114.351 200.079 114.755C197.703 116.609 196.974 120.513 197.869 126.652C196.697 122.319 196.087 116.83 197.576 110.898C197.853 109.805 199.453 104.078 204.047 99.0647C206.249 96.6569 207.73 96.1342 208.887 95.9441C212.015 95.4213 214.748 97.449 215.88 98.4628L215.872 98.4707Z" fill="#1B1A3F"/>
<path d="M205.536 222.537H360.388V233.934H205.536V222.537Z" fill="white"/>
<path d="M205.536 234.489H360.389C360.698 234.489 360.943 234.243 360.943 233.934V222.537C360.943 222.228 360.698 221.982 360.389 221.982H205.536C205.227 221.982 204.982 222.228 204.982 222.537V233.934C204.982 234.243 205.227 234.489 205.536 234.489ZM359.834 233.38H206.09V223.083H359.834V233.38Z" fill="#1B1A3F"/>
<path d="M113.144 308.038H186.297C190.495 308.038 193.901 304.632 193.901 300.434C193.901 296.236 190.495 292.831 186.297 292.831H113.144C108.946 292.831 105.54 296.236 105.54 300.434C105.54 304.632 108.946 308.038 113.144 308.038Z" fill="#C41730"/>
<path d="M110.197 308.925H189.243C192.3 308.925 194.78 306.438 194.78 303.381V297.48C194.78 294.423 192.293 291.944 189.243 291.944H110.197C107.14 291.944 104.653 294.431 104.653 297.48V303.381C104.653 306.438 107.14 308.925 110.197 308.925ZM189.243 293.726C191.318 293.726 193.005 295.413 193.005 297.488V303.389C193.005 305.464 191.318 307.151 189.243 307.151H110.197C108.122 307.151 106.435 305.464 106.435 303.389V297.488C106.435 295.413 108.122 293.726 110.197 293.726H189.243Z" fill="#1B1A3F"/>
<path d="M178.218 228.002C186.923 219.155 197.608 206.26 206.478 188.811C211.27 179.386 214.589 170.491 216.926 162.682C211.096 154.048 198.415 137.954 183.913 139.166C178.796 139.594 171.415 142.35 147.336 178.119C137.246 193.112 129.61 205.904 124.581 214.664C142.457 219.107 160.334 223.55 178.21 227.994L178.218 228.002Z" fill="#77CBD8"/>
<path d="M178.218 229.055C178.495 229.055 178.773 228.944 178.971 228.738C190.495 217.032 200.063 203.757 207.421 189.287C211.69 180.891 215.23 172.044 217.939 162.983C218.026 162.682 217.979 162.349 217.804 162.088C211.405 152.607 198.487 136.885 183.826 138.113C178.012 138.596 170.345 142.041 146.457 177.525C138.41 189.485 130.743 201.801 123.662 214.133C123.496 214.418 123.48 214.767 123.607 215.076C123.733 215.384 124.003 215.606 124.327 215.685L177.957 229.016C178.044 229.039 178.123 229.047 178.21 229.047L178.218 229.055ZM215.777 162.864C213.124 171.632 209.678 180.202 205.544 188.336C198.376 202.435 189.069 215.384 177.893 226.83L126.212 213.983C133.072 202.094 140.469 190.237 148.231 178.721C171.589 144.013 178.955 140.655 184.016 140.235C197.401 139.11 209.559 153.74 215.785 162.872L215.777 162.864Z" fill="#1B1A3F"/>
<path d="M260.876 213.753V222.537H345.427L385.148 146.524L377.212 143.451H376.776L340.2 213.753H260.876Z" fill="#1B1A3F"/>
<path d="M260.409 223.004H345.704L385.797 146.279L377.299 142.984H376.491L376.364 143.237L339.922 213.286H260.409V223.004ZM345.142 222.077H261.335V214.22H340.484L340.611 213.967L377.053 143.918H377.124L384.49 146.77L345.142 222.077Z" fill="#1B1A3F"/>
<path d="M226.533 408.113L226.668 407.463C238.849 347.696 245.487 308.711 247.783 294.708L247.799 294.621C248.013 293.306 248.219 292.031 248.417 290.811L248.528 290.106C249.621 283.239 250.215 274.384 245.091 266.788C240.006 259.256 231.523 256.492 210.193 252.468C194.804 249.577 179.034 247.217 163.296 245.458C164.001 244.35 164.745 243.249 165.514 242.195C169.189 237.11 173.616 232.524 178.678 228.564L179.596 227.843L178.543 227.344C169.696 223.162 160.912 220.2 152.437 218.537C146.481 217.365 131.218 214.933 124.715 213.951L123.345 213.737L123.116 214.212C121.611 217.325 120.13 220.485 118.712 223.606L118.648 223.748C116.486 228.532 114.419 233.388 112.494 238.172C111.861 239.748 111.219 241.379 110.482 243.296C110.475 243.32 109.667 245.435 108.985 247.304C104.701 259.074 101.604 267.58 103.433 277.053L104.138 276.918L103.433 277.053C104.162 280.823 105.556 284.126 105.968 285.045C107.195 287.801 108.787 290.478 110.688 293.021L110.902 293.306L206.581 293.544L187.192 391.923L187.533 392.193C189.679 393.904 191.921 395.504 194.194 396.929C203.587 402.846 214.256 406.576 225.899 408.018L226.557 408.097L226.533 408.113ZM246.358 294.51C244.077 308.474 237.479 347.189 225.392 406.521C214.217 405.048 203.975 401.412 194.938 395.725C192.831 394.403 190.756 392.929 188.752 391.353L208.308 292.126L204.324 292.11L111.607 291.88C109.865 289.512 108.407 287.017 107.267 284.467C106.871 283.58 105.524 280.404 104.827 276.784C103.077 267.707 106.118 259.359 110.324 247.803C111.005 245.942 111.805 243.835 111.813 243.819C112.55 241.91 113.183 240.286 113.817 238.718C115.75 233.903 117.833 229.024 120.011 224.208L120.074 224.065C121.389 221.159 122.767 218.22 124.161 215.321L124.494 215.377C130.988 216.351 146.22 218.782 152.152 219.947C160.175 221.523 168.484 224.287 176.872 228.16C172.088 232.033 167.874 236.469 164.342 241.356C163.336 242.75 162.369 244.207 161.466 245.68L160.88 246.647L162.005 246.773C178.083 248.54 194.21 250.931 209.924 253.894C230.826 257.83 239.095 260.491 243.902 267.604C248.75 274.78 248.164 283.287 247.11 289.892L246.999 290.597C246.801 291.833 246.595 293.108 246.382 294.439L246.366 294.526L246.358 294.51Z" fill="white"/>
<path d="M188.024 217.491H188.064V217.008L188.143 216.565C165.467 212.818 144.81 203.282 134.521 197.936L134.094 198.76C144.438 204.13 165.189 213.705 187.992 217.476H188.032L188.024 217.491Z" fill="#1B1A3F"/>
<path d="M198.899 202.284L199.2 201.405C181.062 195.203 158.924 184.115 147.337 178.055L146.909 178.879C158.52 184.946 180.713 196.059 198.899 202.284Z" fill="#1B1A3F"/>
<path d="M207.999 185.754L208.395 184.914C190.875 176.622 172.84 162.967 163.653 155.561L163.067 156.282C172.294 163.711 190.392 177.422 207.999 185.754Z" fill="#1B1A3F"/>
<path d="M183.209 172.685C183.264 172.907 183.328 173.121 183.391 173.327L208.443 204.296L223.595 223.02H295.244C301.445 224.303 310.974 222.98 310.974 222.98C310.974 222.98 323.084 224.002 326.989 222.378C330.886 220.755 328.351 218.466 328.351 218.466C331.725 216.937 328.818 214.482 328.818 214.482C328.985 214.284 329.452 213.666 329.333 212.969C329.175 211.994 327.947 211.147 326.363 211.29C327.131 210.997 328.026 210.553 328.026 209.999C328.026 209.08 325.547 208.319 322.648 207.599C316.106 205.967 312.843 205.143 309.999 205.238C305.508 205.381 301.659 206.799 298.681 208.391C298.665 208.351 298.657 208.319 298.641 208.28C278.056 205.904 257.471 203.528 236.894 201.151C233.694 196.573 230.502 191.987 227.302 187.409C219.888 176.788 212.475 166.175 205.069 155.553C199.01 149.558 190.694 148.876 185.236 151.799C181.34 157.328 181.514 166.381 183.217 172.677L183.209 172.685Z" fill="white"/>
<path d="M301.944 224.311C306.324 224.311 310.332 223.796 310.989 223.709C312.154 223.804 323.369 224.667 327.266 223.052C328.81 222.41 329.682 221.555 329.856 220.517C329.982 219.796 329.737 219.155 329.452 218.687C330.173 218.196 330.592 217.594 330.687 216.882C330.83 215.836 330.22 214.925 329.753 214.394C329.975 213.983 330.149 213.452 330.054 212.85C329.919 211.995 329.285 211.29 328.406 210.894C328.62 210.64 328.755 210.347 328.755 210.007C328.755 208.62 326.759 207.868 322.822 206.886L322.696 206.854C316.169 205.223 312.89 204.407 309.975 204.502C306.158 204.621 302.364 205.65 298.705 207.551L237.305 200.47L227.904 186.998C224.165 181.635 220.427 176.281 216.68 170.919C213.005 165.66 209.338 160.401 205.663 155.134C205.639 155.094 205.608 155.062 205.576 155.031C198.836 148.354 190.123 148.338 184.88 151.15C184.777 151.205 184.69 151.276 184.626 151.371C180.666 156.987 180.698 166.206 182.496 172.86C182.551 173.081 182.615 173.303 182.678 173.517C182.702 173.612 182.749 173.699 182.813 173.77L223.017 223.455C223.159 223.63 223.365 223.725 223.587 223.725H295.156C297.231 224.145 299.639 224.287 301.936 224.287L301.944 224.311ZM310.965 222.236C310.965 222.236 310.894 222.236 310.863 222.236C310.767 222.252 301.382 223.527 295.378 222.283C295.331 222.275 295.283 222.267 295.228 222.267H223.936L184.048 172.971C184.001 172.812 183.961 172.654 183.914 172.495C182.226 166.222 182.139 157.613 185.727 152.369C190.511 149.898 198.353 149.993 204.491 156.029C208.15 161.272 211.809 166.515 215.469 171.759C219.207 177.121 222.953 182.475 226.692 187.837L236.284 201.579C236.402 201.753 236.592 201.864 236.798 201.888L298.229 208.977C298.285 209.016 298.348 209.056 298.419 209.08C298.617 209.159 298.839 209.143 299.029 209.04C302.601 207.124 306.3 206.094 310.023 205.975C312.756 205.88 315.955 206.688 322.347 208.28L322.474 208.312C325.864 209.159 326.965 209.682 327.25 209.991C327.139 210.094 326.846 210.315 326.101 210.601C325.761 210.735 325.563 211.1 325.65 211.456C325.737 211.812 326.07 212.058 326.434 212.018C327.709 211.9 328.533 212.573 328.612 213.08C328.676 213.468 328.359 213.888 328.256 214.006C327.994 214.315 328.034 214.775 328.343 215.036C328.604 215.258 329.333 216.042 329.238 216.676C329.167 217.182 328.549 217.555 328.042 217.784C327.82 217.887 327.654 218.093 327.622 218.339C327.583 218.584 327.67 218.83 327.852 218.996C327.852 218.996 328.517 219.638 328.406 220.256C328.319 220.755 327.709 221.262 326.695 221.681C323.005 223.218 311.148 222.236 311.029 222.228C311.005 222.228 310.989 222.228 310.965 222.228V222.236Z" fill="#1B1A3F"/>
<path d="M326.354 212.026C326.711 212.026 327.02 211.773 327.075 211.408C327.139 211.004 326.869 210.632 326.465 210.561L315.076 208.692C314.672 208.628 314.3 208.898 314.228 209.302C314.165 209.706 314.434 210.078 314.838 210.149L326.228 212.018C326.267 212.018 326.307 212.026 326.347 212.026H326.354Z" fill="#1B1A3F"/>
<path d="M328.81 215.218C329.174 215.218 329.491 214.949 329.539 214.577C329.586 214.173 329.301 213.808 328.897 213.761L315.67 212.129C315.266 212.074 314.902 212.367 314.854 212.771C314.807 213.175 315.092 213.539 315.496 213.587L328.723 215.218C328.723 215.218 328.786 215.218 328.81 215.218Z" fill="#1B1A3F"/>
<path d="M328.343 219.194C328.715 219.194 329.032 218.917 329.072 218.537C329.111 218.133 328.826 217.769 328.422 217.729L316.977 216.509C316.573 216.47 316.209 216.755 316.169 217.159C316.13 217.563 316.415 217.927 316.819 217.967L328.264 219.186C328.264 219.186 328.319 219.186 328.343 219.186V219.194Z" fill="#1B1A3F"/>
<path d="M183.209 172.685C183.264 172.907 183.327 173.121 183.391 173.327C184.286 176.345 185.648 178.848 189.403 184.558C193.086 190.166 198.44 197.888 205.576 206.862C206.534 206.007 207.493 205.151 208.443 204.296C214.732 198.68 221.013 193.049 227.302 187.425C228.918 185.984 230.533 184.534 232.149 183.085C230.106 179.37 211.778 146.754 195.058 147.023C193.806 147.039 190.694 147.094 187.906 149.09C186.852 149.843 185.973 150.762 185.236 151.807C181.339 157.336 181.514 166.389 183.217 172.685H183.209Z" fill="#77CBD8"/>
<path d="M205.568 207.916C205.829 207.916 206.075 207.821 206.273 207.646L207.247 206.775C207.881 206.213 208.514 205.642 209.148 205.072C213.813 200.906 218.478 196.732 223.143 192.558L232.854 183.869C233.218 183.544 233.313 183.006 233.076 182.57C229.694 176.44 212.047 145.962 195.263 145.962C195.192 145.962 195.113 145.962 195.042 145.962C193.759 145.978 190.353 146.033 187.288 148.227C186.179 149.019 185.197 150.017 184.373 151.197C180.349 156.892 180.381 166.23 182.195 172.955C182.258 173.184 182.321 173.406 182.385 173.62C183.304 176.717 184.618 179.196 188.523 185.128C193.466 192.661 198.931 200.185 204.752 207.512C204.934 207.741 205.204 207.884 205.489 207.908C205.52 207.908 205.552 207.908 205.576 207.908L205.568 207.916ZM230.803 182.855L221.726 190.982C217.061 195.156 212.395 199.33 207.73 203.504C207.097 204.074 206.463 204.637 205.837 205.199L205.695 205.326C200.174 198.332 194.986 191.148 190.274 183.972C186.503 178.238 185.244 175.885 184.397 173.026C184.341 172.828 184.278 172.63 184.222 172.416C182.535 166.159 182.464 157.557 186.092 152.417C186.781 151.435 187.596 150.603 188.515 149.954C191.042 148.148 193.862 148.1 195.073 148.084C195.137 148.084 195.2 148.084 195.263 148.084C210.399 148.084 227.444 176.899 230.81 182.863L230.803 182.855Z" fill="#1B1A3F"/>
<path d="M187.176 181.002C196.855 173.58 206.914 164.06 213.655 157.383L212.997 156.726C206.281 163.387 196.253 172.875 186.614 180.265L187.176 181.002Z" fill="#1B1A3F"/>
<path d="M198.986 198.165C208.775 188.328 218.525 178.15 224.98 171.347L224.307 170.705C217.852 177.509 208.11 187.679 198.328 197.508L198.986 198.165Z" fill="#1B1A3F"/>
<path d="M232.371 210.038C232.576 210.038 232.774 209.927 232.877 209.729L237.154 201.175C237.297 200.898 237.178 200.557 236.901 200.415C236.624 200.272 236.283 200.391 236.141 200.668L231.864 209.222C231.721 209.5 231.84 209.84 232.117 209.983C232.196 210.022 232.283 210.046 232.371 210.046V210.038Z" fill="#1B1A3F"/>
<path d="M215.856 166.705C215.991 166.705 216.133 166.658 216.236 166.555C216.466 166.341 216.482 165.985 216.268 165.755C208.355 157.153 200.704 151.688 200.625 151.641C200.372 151.459 200.015 151.522 199.833 151.775C199.651 152.029 199.714 152.385 199.968 152.567C200.047 152.623 207.603 158.017 215.428 166.531C215.539 166.65 215.69 166.713 215.848 166.713L215.856 166.705Z" fill="#1B1A3F"/>
<path d="M140.224 197.215C140.406 197.215 140.588 197.12 140.699 196.954L149.253 183.655C149.419 183.394 149.348 183.045 149.087 182.871C148.825 182.705 148.477 182.776 148.303 183.037L139.749 196.336C139.582 196.597 139.653 196.946 139.915 197.12C140.01 197.183 140.113 197.207 140.224 197.207V197.215Z" fill="#1B1A3F"/>
<path d="M135.947 204.811C136.137 204.811 136.327 204.716 136.43 204.533L137.856 202.157C138.014 201.888 137.927 201.54 137.666 201.381C137.396 201.223 137.048 201.31 136.89 201.571L135.464 203.947C135.305 204.217 135.393 204.565 135.654 204.724C135.741 204.779 135.844 204.803 135.947 204.803V204.811Z" fill="#1B1A3F"/>
<path d="M194.796 151.522H197.465C197.774 151.522 198.028 151.268 198.028 150.96C198.028 150.651 197.774 150.397 197.465 150.397H194.796C194.487 150.397 194.234 150.651 194.234 150.96C194.234 151.268 194.487 151.522 194.796 151.522Z" fill="#1B1A3F"/>
<path d="M177.743 222.861C177.901 222.861 178.052 222.798 178.163 222.671C182.424 217.935 191.152 203.718 191.525 203.116C191.691 202.846 191.604 202.498 191.334 202.339C191.065 202.181 190.717 202.26 190.558 202.53C190.471 202.68 181.513 217.262 177.323 221.919C177.117 222.149 177.133 222.505 177.363 222.719C177.474 222.814 177.608 222.861 177.743 222.861Z" fill="#1B1A3F"/>
<path d="M192.768 200.716C192.911 200.716 193.061 200.66 193.164 200.55L194.764 198.95C194.986 198.728 194.986 198.371 194.764 198.15C194.542 197.928 194.186 197.928 193.964 198.15L192.364 199.75C192.142 199.971 192.142 200.328 192.364 200.55C192.475 200.66 192.618 200.716 192.76 200.716H192.768Z" fill="#1B1A3F"/>
<path d="M206.225 399.923C213.433 376.376 226.177 331.72 230.477 297.203C231.04 292.72 231.879 285.948 227.99 280.095C222.692 272.119 212.252 271.16 187.026 268.855C181.22 268.325 174.638 267.723 167.138 266.947C144.889 264.65 134.901 263.01 132.581 256.951C131.844 255.018 131.979 252.975 136.39 240.342C139.067 232.675 141.935 225.016 144.929 217.571L143.598 217.032C140.596 224.493 137.721 232.176 135.036 239.867C130.64 252.46 130.276 254.931 131.242 257.458C133.84 264.262 144.137 266.004 166.987 268.364C174.496 269.141 181.078 269.743 186.891 270.273C211.627 272.531 221.868 273.465 226.787 280.871C230.382 286.288 229.582 292.736 229.044 297.013C224.759 331.427 212.039 375.995 204.847 399.495L206.217 399.915L206.225 399.923Z" fill="white"/>
<path d="M107.243 267.287C110.229 267.287 114.514 266.551 117.278 262.868C121.579 257.133 127.131 238.267 127.369 237.467L127.575 236.77L116.906 233.72L116.51 235.099L125.785 237.752C124.723 241.261 119.829 257.078 116.13 262.004C112.185 267.256 104.257 265.576 104.178 265.561L103.869 266.962C104.011 266.994 105.366 267.287 107.243 267.287Z" fill="white"/>
<path d="M134.347 246.639C145.903 245.942 153.657 239.423 158.124 234.077C162.947 228.311 165.031 222.782 165.118 222.552L163.771 222.053C163.692 222.275 155.391 243.93 134.26 245.205L134.347 246.639Z" fill="white"/>
<path d="M150.924 288.546C160.35 288.546 172.484 288.348 173.244 288.332L173.22 286.898C172.935 286.898 144.715 287.366 140.533 286.898L140.374 288.324C141.84 288.482 146.014 288.538 150.916 288.538L150.924 288.546Z" fill="white"/>
<path d="M131.432 286.898H136.184V288.332H131.432V286.898Z" fill="white"/>
<path d="M229.529 355.875L230.933 356.165L225.233 383.715L223.829 383.424L229.529 355.875Z" fill="white"/>
<path d="M231.473 347.237L232.821 347.727L230.921 352.953L229.573 352.463L231.473 347.237Z" fill="white"/>
<path d="M338.298 233.697H345.427V482.605H338.298V233.697Z" fill="white"/>
<path d="M338.298 483.159H345.427C345.736 483.159 345.981 482.914 345.981 482.605V233.697C345.981 233.388 345.736 233.142 345.427 233.142H338.298C337.989 233.142 337.744 233.388 337.744 233.697V482.605C337.744 482.914 337.989 483.159 338.298 483.159ZM344.872 482.05H338.853V234.251H344.872V482.05Z" fill="#1B1A3F"/>
</svg>
