<svg width="477" height="412" viewBox="0 0 477 412" fill="none" xmlns="http://www.w3.org/2000/svg">
<path d="M462.331 296.546H10.3384V338.577H462.331V296.546Z" fill="white"/>
<path d="M462.331 339.111H10.3382C10.1946 339.111 10.057 339.054 9.95544 338.952C9.85392 338.851 9.79688 338.713 9.79688 338.569V296.546C9.79687 296.402 9.85392 296.264 9.95544 296.163C10.057 296.061 10.1946 296.004 10.3382 296.004H462.331C462.475 296.004 462.612 296.061 462.714 296.163C462.815 296.264 462.873 296.402 462.873 296.546V338.577C462.871 338.719 462.813 338.855 462.711 338.955C462.61 339.055 462.474 339.111 462.331 339.111ZM10.8795 338.028H461.79V297.087H10.8795V338.028Z" fill="#1B1A3F"/>
<path d="M458.245 282.845L453.282 282.083C453.657 281.171 453.839 280.192 453.817 279.206C453.795 278.221 453.568 277.251 453.152 276.357C452.422 276.108 451.633 276.09 450.892 276.305C450.151 276.521 449.494 276.959 449.012 277.562C445.863 272.469 437.027 272.698 434.145 277.943C428.389 274.619 420.117 276.883 416.861 282.677C412.935 279.719 406.516 281.061 404.106 285.346C402.765 280.428 396.017 277.973 391.832 280.886C391.321 276.662 385.465 274.23 382.111 276.853C381.082 269.556 372.893 264.151 365.78 266.087C366.087 265.864 366.34 265.574 366.521 265.24C366.702 264.906 366.806 264.535 366.826 264.156C366.846 263.776 366.781 263.397 366.635 263.046C366.49 262.695 366.268 262.381 365.986 262.127C365.703 261.872 365.368 261.684 365.004 261.576C364.639 261.467 364.256 261.441 363.88 261.5C363.505 261.559 363.147 261.701 362.834 261.916C362.52 262.13 362.258 262.412 362.067 262.74C362.25 260.019 359.292 257.251 356.311 257.198C352.789 257.137 349.716 259.424 346.949 261.605C342.969 255.162 332.387 254.407 327.53 260.209C322.758 254.499 312.152 255.696 308.775 262.329C305.414 262.603 302.142 263.547 299.153 265.107C296.163 266.667 293.517 268.809 291.369 271.409C289.6 266.072 280.116 266.652 278.98 272.171C277.326 265.058 266.507 262.405 261.75 267.948C258.494 264.136 254.934 260.141 250.1 258.837C245.266 257.533 238.999 260.461 238.839 265.462C236.133 258.128 223.484 258.097 220.74 265.417C218.247 261.605 215.014 257.838 210.6 256.717C206.506 255.673 201.451 258.036 200.589 262.016C200.68 260.357 200.13 258.726 199.053 257.46C197.976 256.194 196.454 255.39 194.802 255.213C193.149 255.036 191.492 255.5 190.171 256.509C188.851 257.518 187.968 258.995 187.705 260.636C186.607 256.016 181.56 253.226 176.818 253.134C172.075 253.043 167.562 255.017 163.224 256.946C155.851 260.24 147.015 266.858 150.141 274.306C144.004 271.691 136.204 278.164 137.637 284.675C135.914 278.53 128.153 274.939 122.351 277.592C119.164 270.265 109.604 266.484 102.262 269.656C103.504 266.278 99.8449 262.649 96.2463 262.748C92.6478 262.847 89.6058 265.47 87.4634 268.359C86.7544 261.109 76.1112 257.327 70.9802 262.512C66.0626 259.622 58.7817 264.563 59.6279 270.204C55.0001 267.872 48.6188 270.304 46.7128 275.122C46.2379 276.352 46.0527 277.674 46.1715 278.987C45.7191 278.666 45.2424 278.381 44.7457 278.133C40.9871 276.273 35.3605 277.684 34.4685 281.778C30.4506 277.646 22.0413 280.398 21.2484 286.101C19.6509 285.217 17.7995 284.906 16.0011 285.219C14.2026 285.532 12.5652 286.451 11.3603 287.822C10.1553 289.193 9.45527 290.935 9.37617 292.759C9.29708 294.583 9.84369 296.379 10.9254 297.849L455.256 296.149C456.618 294.244 457.583 292.085 458.097 289.8C458.61 287.515 458.66 285.15 458.245 282.845Z" fill="white"/>
<path d="M458.459 282.228L453.495 281.465L453.945 282.228C454.479 280.703 455.157 276.891 453.51 275.77C451.986 274.718 449.622 275.961 448.601 277.074L449.607 277.211C445.947 271.737 437.02 271.92 433.596 277.592L434.473 277.356C431.379 275.734 427.785 275.346 424.415 276.268C421.045 277.191 418.15 279.355 416.313 282.327L417.189 282.09C416.109 281.37 414.895 280.873 413.62 280.628C412.345 280.384 411.033 280.397 409.763 280.667C408.493 280.937 407.289 281.458 406.224 282.2C405.158 282.942 404.251 283.89 403.558 284.987L404.732 285.148C403.047 279.811 396.269 277.264 391.519 280.306L392.457 280.687C391.641 275.991 385.694 273.528 381.783 276.266L382.729 276.654C381.425 268.885 373.229 263.579 365.613 265.432C365.818 265.79 366.024 266.148 366.238 266.507C366.589 266.22 366.875 265.862 367.076 265.455C367.277 265.049 367.388 264.604 367.402 264.151C367.416 263.698 367.332 263.247 367.156 262.829C366.981 262.411 366.718 262.035 366.384 261.728C366.051 261.42 365.655 261.188 365.225 261.047C364.794 260.906 364.338 260.859 363.887 260.909C363.436 260.96 363.002 261.107 362.613 261.34C362.224 261.573 361.89 261.887 361.633 262.26L362.731 262.71C362.731 259.592 360.032 256.969 356.975 256.611C353.002 256.1 349.442 258.86 346.514 261.147L347.521 261.277C343.091 254.514 332.478 253.653 327.096 259.752H328.003C323.756 254.949 315.881 254.728 310.971 258.677C309.721 259.683 308.958 261.528 307.41 261.826C305.41 262.146 303.444 262.657 301.54 263.35C297.421 264.957 293.775 267.579 290.942 270.974L292.01 271.257C289.761 265.394 279.949 265.821 278.386 272.019H279.628C277.6 264.395 266.667 261.681 261.331 267.513H262.238C258.586 263.251 254.019 258.036 247.92 257.907C243.345 257.815 238.611 260.659 238.237 265.485L239.503 265.317C236.285 257.358 223.408 257.335 220.153 265.272L221.327 265.119C218.605 261.01 214.847 256.473 209.586 255.909C205.522 255.467 201.078 257.754 200.01 261.864L201.276 262.039C201.23 258.456 198.752 255.01 195.047 254.567C193.23 254.413 191.42 254.931 189.959 256.023C188.499 257.115 187.491 258.705 187.125 260.491H188.361C187.217 256.374 183.58 253.698 179.509 252.829C174.302 251.724 169.095 253.721 164.391 255.78C157.529 258.776 146.047 265.272 149.562 274.512L150.324 273.75C143.462 271.134 135.739 277.783 137.028 284.904L138.248 284.446C137.717 282.859 136.867 281.397 135.75 280.151C134.633 278.905 133.272 277.901 131.751 277.202C130.231 276.502 128.583 276.122 126.91 276.084C125.237 276.046 123.574 276.352 122.024 276.982L122.9 277.211C121.088 273.485 117.946 270.574 114.093 269.05C110.241 267.526 105.957 267.5 102.087 268.977L102.849 269.739C103.909 266.08 100.859 262.634 97.2834 262.115C92.9529 261.475 89.301 264.807 86.8766 267.971L88.0735 268.291C87.0519 260.415 76.3096 256.473 70.5001 261.986L71.2625 261.887C65.7198 258.959 58.2634 263.831 58.9343 270.136L59.9026 269.579C53.1858 266.53 45.1882 271.417 45.4779 278.919L46.4461 278.362C42.3215 275.678 35.3302 275.961 33.7978 281.534L34.8728 281.252C30.2983 276.898 21.706 279.59 20.5777 285.826L21.523 285.437C15.0502 282.144 7.43376 287.465 8.88233 294.769C9.17204 296.294 9.70573 298.276 11.3602 298.436C13.2204 298.612 15.1722 298.436 17.0782 298.436L45.9429 298.33L93.2122 298.147L153.107 297.918L219.657 297.666L287.512 297.399L350.578 297.163L403.481 296.957L440.252 296.82H450.781C452.054 296.82 453.884 297.148 455.127 296.82C456.072 296.561 456.469 295.478 456.918 294.632C458.847 290.975 459.504 286.78 458.786 282.708C458.657 281.892 457.422 282.243 457.551 283.051C457.989 285.609 457.846 288.233 457.132 290.728C456.728 292.124 455.95 293.29 455.447 294.624C455.447 294.571 454.883 295.73 455.188 295.539C455.119 295.585 454.967 295.539 454.898 295.539C454.302 295.631 453.695 295.631 453.099 295.539H445.002L412.981 295.661L364.545 295.844L304.742 296.073L239.068 296.324L173.135 296.576L111.655 296.812L60.8022 297.011L25.4647 297.14L15.2332 297.186H12.336C12.0387 297.186 11.2153 297.346 10.9561 297.186C10.9561 297.186 10.8951 297.186 10.8798 297.186C11.3144 297.499 10.4986 295.486 10.7426 296.424C10.3995 295.112 9.91158 294.136 9.9802 292.726C10.1937 287.221 16.0794 284.149 20.8597 286.627C20.9456 286.674 21.0411 286.701 21.139 286.707C21.237 286.713 21.3349 286.696 21.4256 286.659C21.5163 286.621 21.5975 286.564 21.6632 286.491C21.7289 286.419 21.7774 286.332 21.8051 286.238C22.7505 280.962 30.0239 278.461 33.9503 282.197C34.0303 282.275 34.1292 282.331 34.2374 282.36C34.3456 282.389 34.4594 282.389 34.5676 282.36C34.6759 282.332 34.7749 282.276 34.8551 282.198C34.9353 282.12 34.9939 282.022 35.0252 281.915C36.3366 277.127 42.3901 277.341 45.7828 279.506C45.8803 279.561 45.9906 279.59 46.1028 279.59C46.2149 279.591 46.3252 279.562 46.4228 279.506C46.5204 279.451 46.602 279.371 46.6595 279.275C46.717 279.179 46.7486 279.069 46.7511 278.957C46.4995 272.499 53.3611 268.024 59.2393 270.73C59.6281 270.906 60.2609 270.73 60.2076 270.174C59.6434 264.898 65.8417 260.522 70.5992 263.038C70.7211 263.101 70.8596 263.126 70.996 263.108C71.1323 263.091 71.26 263.031 71.3616 262.939C76.2867 258.257 85.8473 261.528 86.7393 268.329C86.7428 268.468 86.7911 268.602 86.8769 268.712C86.9628 268.822 87.0817 268.901 87.216 268.938C87.3503 268.974 87.4929 268.967 87.6226 268.916C87.7524 268.866 87.8624 268.775 87.9363 268.657C89.8271 266.202 92.3659 263.754 95.5604 263.427C98.7549 263.099 102.559 265.882 101.538 269.45C101.408 269.884 101.858 270.433 102.3 270.212C105.896 268.812 109.888 268.819 113.479 270.232C117.07 271.645 119.996 274.36 121.673 277.836C121.761 277.98 121.902 278.084 122.065 278.126C122.229 278.169 122.402 278.147 122.55 278.065C128.161 275.694 135.076 278.972 136.89 284.759C136.932 284.939 137.043 285.095 137.2 285.193C137.356 285.291 137.545 285.322 137.725 285.281C137.905 285.24 138.061 285.128 138.159 284.972C138.257 284.815 138.289 284.626 138.248 284.446C137.119 278.187 144.11 272.629 149.966 274.87C150.07 274.891 150.178 274.886 150.281 274.855C150.383 274.824 150.475 274.768 150.551 274.693C150.626 274.618 150.682 274.525 150.713 274.423C150.744 274.321 150.749 274.212 150.728 274.108C147.679 266.11 157.475 260.209 163.521 257.472C167.745 255.551 172.35 253.523 177.092 253.752C181.423 253.965 185.837 256.405 187.057 260.773C187.099 260.904 187.181 261.019 187.292 261.1C187.403 261.181 187.537 261.225 187.674 261.225C187.812 261.225 187.946 261.181 188.057 261.1C188.168 261.019 188.25 260.904 188.292 260.773C188.564 259.356 189.322 258.079 190.436 257.162C191.549 256.244 192.948 255.745 194.391 255.749C197.67 255.841 199.903 258.89 199.942 261.978C199.948 262.13 200.008 262.276 200.111 262.388C200.213 262.501 200.353 262.573 200.504 262.593C200.655 262.614 200.808 262.58 200.937 262.498C201.066 262.416 201.161 262.291 201.207 262.146C202.244 258.151 206.994 256.329 210.745 257.388C214.938 258.578 217.866 262.222 220.176 265.706C220.243 265.81 220.338 265.893 220.451 265.945C220.563 265.997 220.688 266.017 220.811 266.001C220.934 265.985 221.05 265.934 221.145 265.855C221.241 265.776 221.312 265.672 221.35 265.554C224.102 258.829 235.493 258.867 238.214 265.599C238.261 265.745 238.357 265.87 238.486 265.952C238.616 266.034 238.77 266.067 238.921 266.046C239.073 266.025 239.212 265.951 239.314 265.837C239.417 265.723 239.475 265.577 239.48 265.424C239.854 260.529 245.678 258.349 249.925 259.416C254.72 260.629 258.205 264.753 261.285 268.359C261.344 268.419 261.415 268.466 261.493 268.499C261.571 268.531 261.654 268.548 261.738 268.548C261.823 268.548 261.906 268.531 261.984 268.499C262.062 268.466 262.133 268.419 262.192 268.359C266.873 263.244 276.571 265.584 278.355 272.301C278.395 272.435 278.477 272.553 278.589 272.636C278.701 272.72 278.837 272.765 278.976 272.765C279.116 272.765 279.252 272.72 279.364 272.636C279.476 272.553 279.558 272.435 279.598 272.301C280.825 267.46 288.922 266.827 290.744 271.539C290.776 271.646 290.834 271.744 290.914 271.822C290.995 271.9 291.094 271.956 291.202 271.984C291.31 272.012 291.424 272.012 291.532 271.984C291.64 271.955 291.739 271.899 291.819 271.821C294.424 268.682 297.756 266.228 301.525 264.669C303.24 263.961 305.031 263.449 306.861 263.144C309.149 262.771 308.813 263.076 310.102 261.338C314.013 256.046 322.742 255.734 327.058 260.575C327.18 260.692 327.342 260.757 327.511 260.757C327.68 260.757 327.843 260.692 327.965 260.575C332.776 255.124 342.367 255.719 346.377 261.833C346.427 261.917 346.496 261.988 346.578 262.041C346.66 262.094 346.752 262.128 346.849 262.141C346.946 262.153 347.044 262.144 347.137 262.113C347.229 262.082 347.313 262.031 347.383 261.963C349.488 260.324 351.752 258.555 354.405 257.953C357.554 257.236 361.358 259.081 361.404 262.649C361.406 262.775 361.445 262.898 361.515 263.003C361.586 263.108 361.686 263.189 361.803 263.238C361.92 263.287 362.048 263.3 362.172 263.277C362.296 263.253 362.411 263.194 362.502 263.106C364.309 261.017 367.397 263.533 365.315 265.538C365.219 265.64 365.158 265.77 365.142 265.909C365.126 266.048 365.155 266.189 365.225 266.31C365.296 266.431 365.404 266.526 365.532 266.581C365.661 266.635 365.804 266.647 365.94 266.613C372.932 264.913 380.289 269.869 381.471 276.936C381.498 277.031 381.546 277.118 381.612 277.19C381.678 277.263 381.76 277.32 381.851 277.357C381.942 277.394 382.04 277.409 382.138 277.402C382.236 277.396 382.331 277.367 382.416 277.318C383.201 276.803 384.099 276.489 385.033 276.402C385.967 276.314 386.909 276.457 387.775 276.817C388.641 277.177 389.406 277.744 390.003 278.468C390.6 279.192 391.01 280.051 391.199 280.97C391.226 281.064 391.275 281.151 391.341 281.224C391.406 281.296 391.488 281.353 391.579 281.39C391.67 281.427 391.768 281.442 391.866 281.435C391.964 281.429 392.059 281.4 392.144 281.351C393.132 280.755 394.239 280.388 395.386 280.274C396.534 280.16 397.692 280.303 398.777 280.693C399.862 281.083 400.846 281.71 401.659 282.528C402.471 283.346 403.091 284.334 403.474 285.422C403.51 285.542 403.579 285.649 403.675 285.73C403.77 285.812 403.887 285.863 404.011 285.879C404.135 285.896 404.262 285.875 404.375 285.821C404.488 285.767 404.583 285.681 404.648 285.574C405.261 284.626 406.058 283.809 406.992 283.174C407.926 282.539 408.978 282.098 410.086 281.877C411.193 281.656 412.334 281.659 413.44 281.887C414.547 282.115 415.596 282.563 416.526 283.203C416.674 283.285 416.847 283.307 417.01 283.265C417.174 283.222 417.314 283.118 417.403 282.975C419.064 280.292 421.679 278.336 424.722 277.501C427.765 276.665 431.011 277.011 433.81 278.469C433.957 278.551 434.131 278.573 434.294 278.53C434.457 278.488 434.598 278.384 434.687 278.24C437.569 273.429 445.322 273.178 448.456 277.859C448.506 277.942 448.575 278.013 448.657 278.067C448.738 278.12 448.831 278.154 448.928 278.167C449.024 278.179 449.123 278.17 449.215 278.139C449.308 278.108 449.392 278.057 449.462 277.989C450.301 277.066 452.161 276.06 452.901 277.531C453.526 278.781 453.084 280.672 452.657 281.884C452.619 282.045 452.645 282.214 452.729 282.356C452.812 282.498 452.948 282.602 453.106 282.647L458.07 283.447C458.885 283.6 459.221 282.357 458.459 282.228Z" fill="#1B1A3F"/>
<path d="M81.3106 282.624H81.2725C81.2163 282.619 81.1617 282.603 81.1117 282.577C81.0617 282.551 81.0174 282.516 80.9812 282.472C80.9451 282.429 80.9178 282.379 80.9011 282.325C80.8844 282.272 80.8784 282.215 80.8837 282.159C80.9556 281.856 80.9409 281.538 80.8411 281.243C80.7414 280.948 80.5606 280.687 80.3195 280.489C78.5583 279.315 73.313 281.595 71.4451 282.578C71.3535 282.627 71.2472 282.641 71.1462 282.617C71.0451 282.593 70.9562 282.533 70.8961 282.449C68.952 279.757 67.0307 278.461 65.1781 278.637C62.3648 278.858 60.6036 282.38 60.5503 282.411C60.4959 282.505 60.4076 282.575 60.3033 282.606C60.1991 282.638 60.0868 282.628 59.9894 282.579C59.8921 282.531 59.817 282.446 59.7795 282.344C59.742 282.242 59.745 282.129 59.7879 282.029C59.8641 281.869 61.8159 278.05 65.1247 277.783C67.2213 277.607 69.3256 278.919 71.3841 281.671C72.9089 280.909 78.5355 278.278 80.8074 279.803C81.1817 280.08 81.4693 280.459 81.6367 280.893C81.8041 281.328 81.8444 281.801 81.7528 282.258C81.7378 282.363 81.6841 282.459 81.6024 282.526C81.5206 282.594 81.4166 282.629 81.3106 282.624Z" fill="#1B1A3F"/>
<path d="M442.699 286.649H442.661C442.605 286.645 442.55 286.629 442.5 286.603C442.45 286.577 442.406 286.541 442.37 286.498C442.334 286.455 442.306 286.405 442.29 286.351C442.273 286.297 442.267 286.241 442.272 286.184C442.346 285.881 442.332 285.563 442.232 285.268C442.132 284.972 441.951 284.711 441.708 284.515C439.947 283.341 434.701 285.62 432.834 286.604C432.742 286.653 432.636 286.666 432.535 286.642C432.434 286.619 432.345 286.559 432.285 286.474C430.34 283.783 428.419 282.487 426.567 282.662C423.761 282.883 421.992 286.405 421.946 286.474C421.921 286.525 421.886 286.571 421.843 286.608C421.801 286.645 421.751 286.673 421.697 286.691C421.643 286.709 421.586 286.716 421.529 286.711C421.472 286.707 421.417 286.691 421.367 286.665C421.316 286.64 421.271 286.606 421.234 286.564C421.197 286.522 421.168 286.473 421.15 286.419C421.133 286.366 421.126 286.309 421.13 286.253C421.135 286.197 421.15 286.143 421.176 286.093C421.26 285.933 423.204 282.113 426.513 281.846C428.61 281.671 430.714 282.982 432.78 285.735C434.305 284.972 439.924 282.342 442.196 283.867C442.572 284.143 442.86 284.521 443.028 284.956C443.195 285.391 443.235 285.865 443.141 286.322C443.118 286.42 443.061 286.506 442.98 286.566C442.899 286.626 442.8 286.656 442.699 286.649Z" fill="#1B1A3F"/>
<path d="M103.177 280.863C103.071 280.863 102.969 280.825 102.89 280.754C102.811 280.684 102.761 280.587 102.75 280.482C102.75 280.306 102.361 276.334 104.557 275.145C106.203 274.276 108.643 275.229 112.005 278.065C112.092 278.138 112.147 278.242 112.157 278.355C112.167 278.468 112.132 278.58 112.059 278.667C111.986 278.754 111.882 278.809 111.769 278.819C111.656 278.829 111.543 278.793 111.456 278.721C107.69 275.549 105.837 275.435 104.953 275.9C103.558 276.662 103.505 279.369 103.604 280.36C103.614 280.474 103.579 280.588 103.507 280.676C103.434 280.765 103.329 280.821 103.215 280.832L103.177 280.863Z" fill="#1B1A3F"/>
<path d="M323.665 282.876C323.578 282.876 323.493 282.849 323.42 282.801C323.348 282.752 323.293 282.682 323.261 282.601C321.965 279.186 320.28 277.211 318.267 276.738C315.69 276.136 313.403 278.21 313.38 278.263C313.31 278.329 313.22 278.369 313.125 278.377C313.029 278.385 312.934 278.361 312.854 278.309C309.423 276.022 306.465 275.259 304.079 276.121C301.029 277.203 299.923 280.558 299.908 280.596C299.891 280.65 299.864 280.699 299.827 280.742C299.791 280.785 299.747 280.821 299.697 280.847C299.647 280.872 299.593 280.888 299.537 280.893C299.481 280.898 299.424 280.891 299.371 280.874C299.317 280.857 299.267 280.83 299.224 280.794C299.181 280.757 299.146 280.713 299.12 280.663C299.094 280.613 299.079 280.559 299.074 280.503C299.069 280.447 299.075 280.39 299.092 280.337C299.146 280.184 300.327 276.525 303.796 275.313C306.389 274.405 309.507 275.107 313.06 277.417C313.822 276.837 315.964 275.351 318.457 275.938C320.745 276.479 322.651 278.629 324.061 282.327C324.101 282.433 324.098 282.551 324.053 282.655C324.007 282.759 323.923 282.841 323.817 282.883L323.665 282.876Z" fill="#1B1A3F"/>
<path d="M404.19 364.202H310.071V365.78H404.19V364.202Z" fill="#1B1A3F"/>
<path d="M433.39 364.202H415.268V365.78H433.39V364.202Z" fill="#1B1A3F"/>
<path d="M477 336.801H0V338.379H477V336.801Z" fill="#1B1A3F"/>
<path d="M161.332 102.285C166.147 90.2518 160.296 76.5939 148.263 71.7787C136.23 66.9636 122.572 72.8145 117.757 84.8472C112.942 96.88 118.793 110.538 130.826 115.353C142.858 120.168 156.516 114.317 161.332 102.285Z" fill="#FEC562"/>
<path d="M139.605 117.929C137.606 117.916 135.617 117.66 133.681 117.166C129.015 116.001 124.799 113.479 121.566 109.918C118.332 106.357 116.227 101.919 115.516 97.162C114.804 92.4055 115.519 87.5448 117.568 83.1941C119.618 78.8434 122.912 75.1979 127.032 72.7181C130.244 70.7927 133.857 69.6349 137.59 69.335C141.322 69.035 145.073 69.601 148.551 70.9888C152.029 72.3766 155.14 74.5488 157.64 77.336C160.141 80.1232 161.964 83.4502 162.968 87.0577C163.972 90.6652 164.129 94.4558 163.428 98.1341C162.726 101.812 161.185 105.279 158.924 108.264C156.663 111.249 153.743 113.671 150.392 115.342C147.041 117.013 143.349 117.888 139.605 117.898V117.929ZM127.917 74.2124C124.084 76.5164 121.02 79.9055 119.112 83.951C117.205 87.9964 116.54 92.5166 117.202 96.9398C117.864 101.363 119.822 105.491 122.83 108.801C125.838 112.111 129.76 114.455 134.099 115.536C138.439 116.617 143.002 116.387 147.211 114.875C151.421 113.363 155.087 110.637 157.746 107.041C160.406 103.445 161.94 99.1416 162.153 94.6742C162.367 90.2068 161.251 85.7764 158.947 81.9432C155.851 76.8097 150.847 73.113 145.03 71.6638C139.213 70.2146 133.059 71.1311 127.917 74.2124Z" fill="#1B1A3F"/>
<path d="M151.833 128.656C146.557 130.492 140.935 131.117 135.385 130.484C129.834 129.851 124.497 127.976 119.771 124.998C115.044 122.02 111.048 118.016 108.08 113.282C105.113 108.549 103.249 103.208 102.628 97.6564L99.7153 97.8775C100.791 107.717 105.459 116.814 112.825 123.426C120.191 130.038 129.737 133.7 139.635 133.711C144.13 133.708 148.591 132.934 152.825 131.423L151.833 128.656ZM109.695 71.4754C113.944 65.729 119.763 61.3332 126.452 58.8173C133.14 56.3014 140.414 55.7726 147.396 57.2946L147.976 54.4356C145.178 53.8272 142.323 53.518 139.46 53.5131C132.141 53.5405 124.969 55.5661 118.717 59.3712C112.465 63.1762 107.371 68.6164 103.985 75.1044L106.524 76.5377C107.442 74.7719 108.503 73.0839 109.695 71.4906V71.4754ZM173.898 72.9468C172.746 71.017 171.432 69.1883 169.971 67.4804L167.89 69.5541C173.871 76.6186 177.002 85.6596 176.672 94.9099C176.342 104.16 172.575 112.955 166.106 119.576L168.393 121.421C174.515 115.072 178.373 106.882 179.37 98.1186C180.366 89.3553 178.446 80.508 173.905 72.9468H173.898Z" fill="#1B1A3F"/>
<path d="M101.057 141.197C93.9246 135.46 88.1682 128.198 84.2103 119.944C80.2523 111.69 78.1933 102.655 78.1846 93.5013C78.1846 91.641 78.2684 89.7579 78.4362 87.9128L92.5941 89.2165C92.4644 90.6346 92.3958 92.0756 92.3958 93.5013C92.4052 100.523 93.9848 107.453 97.0189 113.785C100.053 120.117 104.465 125.69 109.931 130.097L101.057 141.197ZM199.888 102.315L185.829 100.256C186.715 94.1285 186.384 87.8862 184.855 81.8866C183.325 75.8871 180.628 70.248 176.916 65.2922L188.291 56.7685C191.432 60.9675 194.023 65.5512 195.999 70.408C200.133 80.5026 201.476 91.5229 199.888 102.315ZM96.4595 74.3496L83.4985 68.5629C87.1433 60.3806 92.5411 53.0989 99.3103 47.2327C106.079 41.3664 114.055 37.0588 122.672 34.6144C131.289 32.1701 140.339 31.6487 149.18 33.0871C158.021 34.5254 166.438 37.8885 173.836 42.9384L165.839 54.6871C160.158 50.8081 153.695 48.2243 146.905 47.1184C140.116 46.0125 133.167 46.4114 126.549 48.287C119.931 50.1626 113.806 53.469 108.606 57.9726C103.407 62.4762 99.2602 68.0669 96.4595 74.3496Z" fill="white"/>
<path d="M101.049 142.333C100.794 142.333 100.546 142.244 100.348 142.082C93.0784 136.241 87.21 128.845 83.1741 120.438C79.1382 112.031 77.0373 102.827 77.0259 93.5013C77.0259 91.6029 77.1173 89.6892 77.2927 87.8061C77.3217 87.5085 77.4669 87.2344 77.6966 87.0432C77.9264 86.8519 78.2223 86.759 78.5202 86.7845L92.6705 88.0882C92.9671 88.1197 93.2402 88.2645 93.4329 88.4923C93.528 88.6071 93.5992 88.7397 93.6424 88.8824C93.6856 89.0251 93.6999 89.175 93.6845 89.3233C93.5625 90.7033 93.4939 92.1137 93.4939 93.5013C93.504 100.359 95.0493 107.126 98.0164 113.309C100.983 119.491 105.297 124.93 110.64 129.228C110.757 129.321 110.855 129.436 110.926 129.567C110.998 129.698 111.044 129.842 111.06 129.99C111.089 130.288 111.001 130.586 110.816 130.821L101.934 141.876C101.832 142.016 101.699 142.13 101.546 142.209C101.392 142.289 101.222 142.331 101.049 142.333ZM79.4503 89.1403C79.3436 90.5889 79.2902 92.0527 79.2902 93.5013C79.308 102.294 81.2509 110.977 84.9823 118.939C88.7137 126.901 94.1431 133.949 100.889 139.589L108.368 130.257C103.015 125.739 98.711 120.109 95.7551 113.759C92.7991 107.409 91.2626 100.491 91.2524 93.486C91.2524 92.4034 91.2524 91.3132 91.3591 90.2229L79.4503 89.1403ZM199.911 103.443H199.743L185.676 101.377C185.529 101.356 185.388 101.307 185.26 101.231C185.132 101.155 185.021 101.055 184.932 100.936C184.843 100.817 184.779 100.681 184.743 100.537C184.708 100.393 184.701 100.243 184.723 100.096C185.586 94.1166 185.262 88.0257 183.769 82.1716C182.276 76.3175 179.645 70.8149 176.024 65.9784C175.845 65.7375 175.769 65.4354 175.812 65.1383C175.854 64.8411 176.013 64.573 176.253 64.3926L187.628 55.8689C187.869 55.6897 188.171 55.6132 188.468 55.656C188.766 55.6989 189.034 55.8577 189.214 56.0976C194.146 62.6691 197.728 70.1515 199.755 78.1137C201.782 86.0759 202.213 94.3605 201.024 102.49C200.98 102.757 200.842 103 200.636 103.175C200.429 103.35 200.166 103.445 199.895 103.443H199.911ZM187.11 99.288L198.942 101.026C200.84 85.9324 196.956 70.6793 188.07 58.3314L178.502 65.5057C185.505 75.2832 188.578 87.3358 187.11 99.2727V99.288ZM96.4596 75.478C96.3017 75.4789 96.1455 75.4451 96.0022 75.3789L83.0413 69.5922C82.9015 69.5321 82.7753 69.4444 82.6703 69.3344C82.5653 69.2243 82.4837 69.0941 82.4302 68.9517C82.3768 68.8093 82.3528 68.6575 82.3595 68.5055C82.3663 68.3536 82.4036 68.2045 82.4695 68.0674C86.1871 59.7415 91.6871 52.3332 98.5811 46.3656C105.475 40.3979 113.595 36.0164 122.368 33.5304C131.141 31.0444 140.352 30.5145 149.352 31.978C158.352 33.4416 166.921 36.863 174.454 42.0007C174.577 42.0841 174.682 42.191 174.763 42.3151C174.845 42.4393 174.901 42.5783 174.929 42.7242C174.956 42.8701 174.955 43.0201 174.924 43.1654C174.894 43.3108 174.835 43.4487 174.751 43.5712L166.754 55.3199C166.585 55.5697 166.325 55.7425 166.029 55.8003C165.883 55.8274 165.733 55.8252 165.588 55.7938C165.442 55.7624 165.305 55.7024 165.183 55.6173C159.641 51.8368 153.336 49.3189 146.714 48.2412C140.093 47.1636 133.315 47.5524 126.86 49.3803C120.405 51.2082 114.43 54.4306 109.356 58.8201C104.282 63.2096 100.234 68.6592 97.4965 74.7842C97.4355 74.9202 97.3482 75.0428 97.2396 75.1448C97.131 75.2469 97.0032 75.3265 96.8637 75.3789C96.7369 75.4383 96.5995 75.472 96.4596 75.478ZM84.9854 67.9911L95.9031 72.8629C98.8378 66.6711 103.062 61.1781 108.293 56.7522C113.524 52.3262 119.641 49.0695 126.233 47.2003C132.825 45.3312 139.741 44.8927 146.516 45.9144C153.292 46.9361 159.77 49.3943 165.518 53.1242L172.243 43.2129C165.048 38.5026 156.925 35.3927 148.424 34.0936C139.923 32.7946 131.242 33.3366 122.969 35.683C114.696 38.0295 107.023 42.1256 100.47 47.6943C93.9167 53.263 88.6361 60.1744 84.9854 67.9606V67.9911Z" fill="#1B1A3F"/>
<path d="M102.681 389.742H17.6191V391.32H102.681V389.742Z" fill="#1B1A3F"/>
<path d="M143.958 389.742H122.313V391.32H143.958V389.742Z" fill="#1B1A3F"/>
<path d="M260.492 105.029C263.664 111.715 244.481 140.45 214.481 175.712H132.148C125.027 177.183 114.072 175.658 114.072 175.658C114.072 175.658 100.142 176.832 95.6595 174.972C91.1765 173.112 94.0965 170.482 94.0965 170.482C90.2159 168.72 93.5629 165.907 93.5629 165.907C93.349 165.674 93.1857 165.4 93.0833 165.1C92.981 164.801 92.9417 164.484 92.9682 164.169C93.1435 163.048 94.5616 162.072 96.3838 162.24C95.4994 161.905 94.4701 161.394 94.4701 160.761C94.4701 159.709 97.3139 158.832 100.646 158.009C108.163 156.125 111.922 155.18 115.185 155.294C119.743 155.476 124.196 156.716 128.191 158.916L128.237 158.794L199.21 150.598C201.497 147.335 207.268 139.063 210.234 134.809C227.083 110.656 237.353 95.8725 246.929 95.9716C249.569 96.0316 252.157 96.7216 254.477 97.9843C257.081 99.7458 259.16 102.18 260.492 105.029Z" fill="white"/>
<path d="M124.417 177.076C120.943 177.06 117.472 176.828 114.026 176.383C112.768 176.482 99.8222 177.488 95.3621 175.62C93.6315 174.904 92.6556 173.951 92.4573 172.799C92.3606 172.054 92.5425 171.299 92.9681 170.68C92.5862 170.469 92.2563 170.176 92.003 169.821C91.7496 169.466 91.5792 169.059 91.5043 168.629C91.4749 168.106 91.5576 167.584 91.747 167.096C91.9364 166.608 92.228 166.166 92.6022 165.8C92.2807 165.27 92.1515 164.646 92.2362 164.032C92.3478 163.523 92.5879 163.051 92.9336 162.661C93.2793 162.272 93.719 161.977 94.2109 161.805C93.9142 161.531 93.7387 161.15 93.7229 160.746C93.7229 159.221 96.0864 158.375 100.455 157.284L100.6 157.246C108.087 155.378 111.845 154.433 115.185 154.547C119.714 154.723 124.145 155.922 128.146 158.054L198.798 149.904C201.199 146.473 206.75 138.522 209.639 134.374L209.876 134.039C226.74 109.863 236.941 95.2321 246.822 95.2321H246.929C249.698 95.2894 252.413 96.0138 254.842 97.3439C257.573 99.1831 259.756 101.725 261.163 104.701C264.975 112.859 239.861 146.961 215.037 176.162C214.97 176.24 214.887 176.303 214.794 176.346C214.701 176.39 214.599 176.413 214.496 176.413H132.202C129.634 176.883 127.027 177.106 124.417 177.076ZM114.049 174.942H114.14C114.255 174.942 125.065 176.428 131.981 174.995H132.125H214.145C244.375 139.414 262.733 111.441 259.844 105.342C258.57 102.616 256.581 100.287 254.088 98.6019C251.873 97.4112 249.411 96.7559 246.898 96.6883H246.807C237.658 96.6883 227.632 111.082 211.034 134.877L210.806 135.22L199.781 151.025C199.721 151.107 199.645 151.177 199.557 151.229C199.469 151.282 199.372 151.316 199.271 151.33L128.634 159.48C128.569 159.532 128.497 159.573 128.42 159.602C128.326 159.64 128.224 159.656 128.122 159.649C128.021 159.643 127.922 159.613 127.833 159.564C123.934 157.416 119.588 156.204 115.139 156.026C111.998 155.927 108.277 156.842 100.951 158.68L100.798 158.718C96.3532 159.823 95.3545 160.471 95.1791 160.769C95.2401 160.868 95.5298 161.173 96.6201 161.584C96.7876 161.643 96.9276 161.761 97.0129 161.916C97.0983 162.072 97.1229 162.253 97.0822 162.426C97.0414 162.599 96.938 162.75 96.7921 162.851C96.6462 162.952 96.4681 162.995 96.2923 162.972C94.8589 162.842 93.7763 163.551 93.6543 164.299C93.6448 164.512 93.6783 164.726 93.753 164.926C93.8276 165.126 93.9419 165.31 94.0889 165.465C94.2013 165.616 94.2541 165.802 94.2372 165.989C94.2203 166.177 94.1349 166.351 93.9974 166.479C93.6619 166.761 92.8157 167.684 92.9224 168.477C92.9986 168.987 93.4866 169.445 94.371 169.849C94.4802 169.898 94.5753 169.973 94.6478 170.068C94.7203 170.164 94.7678 170.275 94.786 170.394C94.8042 170.512 94.7925 170.633 94.7519 170.745C94.7114 170.858 94.6434 170.959 94.554 171.038C94.3421 171.232 94.1725 171.468 94.0558 171.73C93.9391 171.992 93.8776 172.276 93.8754 172.563C93.9898 173.188 94.6912 173.783 95.9187 174.294C100.188 176.07 113.85 174.942 113.988 174.926L114.049 174.942Z" fill="#1B1A3F"/>
<path d="M131.142 158.878L140.252 157.391L142.326 175.536L132.148 175.491L131.142 158.878Z" fill="#1B1A3F"/>
<path d="M142.822 175.994L131.706 175.94L130.646 158.497L140.634 156.865L142.822 175.994ZM132.56 175.041L141.801 175.079L139.856 157.887L131.615 159.236L132.56 175.041Z" fill="#1B1A3F"/>
<path d="M140.413 158.817C140.413 158.817 137.18 156.865 142.212 152.84C147.244 148.814 160.335 148.311 169.392 148.311C178.449 148.311 196.572 147.808 196.572 147.808C203.502 139.962 208.77 133.269 212.178 128.679C221.373 116.435 224.903 109.809 234.288 101.995C245.724 92.5102 251.175 93.4785 252.914 93.9436C258.174 95.3464 260.949 100.485 261.468 101.491C267.407 113.034 257.656 128.938 250.398 140.755C242.275 153.91 232.065 165.655 220.168 175.529C210.394 178.022 197.235 179.112 181.743 180.416C162.431 182.04 142.936 182.024 142.182 175.483L140.413 158.817Z" fill="white"/>
<path d="M163.064 182.055C149.089 182.055 141.999 179.905 141.503 175.574L139.772 159.198C139.469 158.942 139.219 158.629 139.038 158.275C138.857 157.922 138.749 157.535 138.72 157.139C138.614 155.615 139.658 153.998 141.77 152.283C147.023 148.082 160.068 147.594 169.4 147.594C177.695 147.594 193.797 147.167 196.252 147.099C201.649 140.999 206.818 134.626 211.606 128.252C213.848 125.271 215.777 122.587 217.485 120.216C222.821 112.783 226.679 107.415 233.869 101.453C239.427 96.8788 247.279 91.6944 253.135 93.2573C258.472 94.6754 261.376 99.6768 262.146 101.171C268.246 113.08 258.334 129.296 251.046 141.137C242.878 154.355 232.62 166.16 220.671 176.093C220.588 176.159 220.492 176.208 220.389 176.238C210.669 178.716 197.517 179.821 182.368 181.094L181.842 181.14C174.589 181.75 168.33 182.055 163.064 182.055ZM250.809 94.3781C246.753 94.3781 241.272 97.1609 234.799 102.536C227.747 108.376 223.935 113.682 218.659 121.024C216.943 123.403 215.007 126.102 212.765 129.09C207.894 135.579 202.633 142.051 197.128 148.257C197.064 148.332 196.985 148.393 196.895 148.435C196.806 148.477 196.709 148.499 196.61 148.501C196.427 148.501 178.373 149.005 169.407 149.005C164.147 149.005 148.144 149.005 142.677 153.381C140.504 155.119 140.093 156.316 140.123 157.01C140.139 157.245 140.209 157.474 140.328 157.678C140.447 157.881 140.612 158.055 140.809 158.184C140.9 158.244 140.977 158.322 141.035 158.414C141.093 158.507 141.13 158.61 141.145 158.718L142.929 175.422C143.249 178.212 148.715 182.489 181.712 179.714L182.239 179.669C197.273 178.403 210.272 177.313 219.863 174.888C231.642 165.08 241.757 153.433 249.818 140.397C256.901 128.839 266.591 113.019 260.866 101.834C260.164 100.47 257.503 95.9181 252.761 94.6525C252.124 94.4847 251.468 94.4002 250.809 94.401V94.3781Z" fill="#1B1A3F"/>
<path d="M199.591 160.608C199.401 160.608 199.218 160.533 199.084 160.399C198.95 160.264 198.874 160.082 198.874 159.892C198.874 158.321 196.716 150.789 195.885 148.013C195.855 147.923 195.844 147.826 195.851 147.731C195.859 147.635 195.886 147.542 195.93 147.457C195.974 147.372 196.035 147.297 196.109 147.236C196.183 147.175 196.268 147.129 196.36 147.102C196.452 147.074 196.548 147.065 196.643 147.076C196.738 147.086 196.831 147.116 196.914 147.162C196.998 147.209 197.072 147.272 197.131 147.347C197.19 147.423 197.233 147.509 197.258 147.602C197.57 148.646 200.307 157.826 200.307 159.892C200.307 160.082 200.232 160.264 200.097 160.399C199.963 160.533 199.781 160.608 199.591 160.608Z" fill="#1B1A3F"/>
<path d="M222.875 61.2362C228.782 61.2362 233.571 55.884 233.571 49.2817C233.571 42.6794 228.782 37.3271 222.875 37.3271C216.967 37.3271 212.178 42.6794 212.178 49.2817C212.178 55.884 216.967 61.2362 222.875 61.2362Z" fill="white"/>
<path d="M222.875 61.9529C216.577 61.9529 211.438 56.2653 211.438 49.2817C211.438 42.298 216.562 36.6105 222.875 36.6105C229.187 36.6105 234.311 42.2904 234.311 49.2817C234.311 56.273 229.164 61.9529 222.875 61.9529ZM222.875 38.0438C217.37 38.0438 212.895 43.0833 212.895 49.2817C212.895 55.4801 217.37 60.5196 222.875 60.5196C228.379 60.5196 232.847 55.4801 232.847 49.2817C232.847 43.0833 228.372 38.0438 222.875 38.0438Z" fill="#1B1A3F"/>
<path d="M330.969 274.146H262.009V286.726H330.969V274.146Z" fill="white"/>
<path d="M330.961 287.442H262.009C261.911 287.449 261.813 287.435 261.721 287.402C261.628 287.368 261.544 287.317 261.472 287.249C261.401 287.182 261.344 287.101 261.305 287.011C261.266 286.921 261.246 286.824 261.247 286.726V274.146C261.246 274.048 261.266 273.951 261.305 273.861C261.344 273.771 261.401 273.69 261.472 273.622C261.544 273.555 261.628 273.503 261.721 273.47C261.813 273.437 261.911 273.423 262.009 273.429H330.961C331.055 273.429 331.148 273.448 331.235 273.484C331.322 273.52 331.401 273.573 331.468 273.639C331.534 273.706 331.587 273.785 331.623 273.872C331.659 273.959 331.678 274.052 331.678 274.146V286.733C331.676 286.922 331.599 287.103 331.465 287.235C331.331 287.368 331.15 287.442 330.961 287.442ZM262.726 286.009H330.244V274.863H262.726V286.009Z" fill="#1B1A3F"/>
<path d="M264.319 355.556C264.914 367.937 265.514 380.319 266.119 392.7L214.9 395.056L214.275 386.876L243.513 375.935C244.088 369.328 244.657 362.695 245.221 356.036L264.319 355.556Z" fill="#C10B25"/>
<path d="M214.099 395.963L213.337 386.288L242.697 375.34L244.428 355.22L265.15 354.664L267.033 393.547L214.099 395.963ZM215.19 387.463L215.7 394.149L265.211 391.862L263.488 356.44L246.021 356.913L244.329 376.575L215.19 387.463Z" fill="#1B1A3F"/>
<path d="M214.9 392.083L266.08 388.324C266.604 388.284 267.124 388.444 267.534 388.773C267.945 389.101 268.215 389.573 268.291 390.093L268.39 390.779C268.432 391.063 268.414 391.352 268.338 391.629C268.263 391.905 268.13 392.163 267.95 392.386C267.769 392.609 267.544 392.792 267.289 392.923C267.034 393.055 266.755 393.132 266.469 393.15L213.565 396.467C213.292 396.485 213.018 396.449 212.759 396.361C212.499 396.273 212.26 396.134 212.055 395.952C211.85 395.77 211.683 395.55 211.564 395.303C211.445 395.056 211.377 394.788 211.362 394.515C211.334 394 211.498 393.492 211.824 393.092C212.15 392.691 212.613 392.427 213.123 392.35L214.74 392.106L214.9 392.083Z" fill="#1B1A3F"/>
<path d="M213.428 396.901C212.801 396.895 212.198 396.654 211.74 396.225C211.283 395.796 211.003 395.21 210.957 394.584C210.911 393.958 211.102 393.338 211.492 392.846C211.882 392.355 212.442 392.028 213.062 391.93L214.671 391.686C214.737 391.679 214.803 391.679 214.869 391.686L266.05 387.92C266.68 387.877 267.304 388.072 267.797 388.468C268.29 388.863 268.616 389.43 268.71 390.055L268.809 390.741C268.858 391.081 268.837 391.427 268.747 391.758C268.657 392.089 268.5 392.398 268.286 392.666C268.071 392.934 267.804 393.155 267.501 393.316C267.197 393.477 266.864 393.573 266.522 393.6L213.619 396.916L213.428 396.901ZM266.232 388.743H266.118L214.93 392.51H214.8L213.184 392.754C212.875 392.802 212.586 392.938 212.351 393.144C212.116 393.351 211.944 393.619 211.855 393.92C211.766 394.22 211.765 394.539 211.85 394.84C211.936 395.141 212.105 395.412 212.338 395.62C212.667 395.909 213.097 396.057 213.535 396.032L266.438 392.708C266.667 392.695 266.89 392.633 267.094 392.528C267.297 392.423 267.477 392.277 267.62 392.098C267.766 391.922 267.873 391.716 267.933 391.495C267.994 391.274 268.006 391.043 267.971 390.817L267.872 390.131C267.808 389.743 267.608 389.389 267.308 389.135C267.007 388.881 266.626 388.742 266.232 388.743Z" fill="#1B1A3F"/>
<path d="M348.534 237.68C347.933 240.775 346.992 243.795 345.729 246.684H232.641L235.614 255.955L269.038 360.237C269.038 360.237 257.061 369.47 246.623 374.906C242.255 377.193 238.161 378.794 235.317 378.794C224.597 357.104 195.634 297.056 187.438 257.953C185.577 249.07 184.792 241.271 185.532 235.24C185.788 232.998 186.328 230.797 187.14 228.691C194.124 211.156 219.619 207.1 261.544 200.299L280.055 197.273C292.383 195.267 309.087 192.53 331.708 188.81L342.344 203.928C349.869 225.108 349.541 232.42 348.534 237.68Z" fill="#1B1A3F"/>
<path d="M235.317 379.259H235.073L234.951 379.015C220.275 349.396 194.589 294.296 187.041 258.059V257.991C185.074 248.575 184.434 240.89 185.143 235.164C185.405 232.883 185.953 230.645 186.775 228.501C193.804 210.821 218.986 206.734 260.728 199.964L267.529 198.858L280.025 196.83C293.527 194.627 310.91 191.783 331.67 188.368L331.952 188.322L332.112 188.551L337.388 196.053C339.18 198.592 340.964 201.123 342.725 203.677L342.786 203.784C350.41 225.238 350.021 232.58 349.03 237.772C348.426 240.902 347.474 243.955 346.194 246.875L346.072 247.142H233.259L269.564 360.42L269.313 360.611C269.198 360.702 257.183 369.935 246.829 375.325C241.813 377.933 237.94 379.259 235.317 379.259ZM187.888 257.907C195.443 293.938 220.961 348.725 235.592 378.367C238.069 378.276 241.691 376.987 246.418 374.555C255.872 369.63 266.736 361.472 268.528 360.123L232.024 246.234H345.432C346.628 243.459 347.52 240.563 348.092 237.596C349.061 232.519 349.465 225.337 341.902 204.134C340.133 201.593 338.354 199.072 336.565 196.571C334.857 194.147 333.152 191.725 331.449 189.305C310.803 192.698 293.527 195.527 280.078 197.692L267.582 199.72L260.781 200.825C219.375 207.542 194.383 211.598 187.545 228.806C186.752 230.879 186.221 233.043 185.966 235.248C185.273 240.882 185.906 248.476 187.857 257.808L187.888 257.907Z" fill="#1B1A3F"/>
<path d="M249.826 365.589C249.765 377.986 249.706 390.383 249.65 402.779L198.379 402.406C198.318 399.669 198.249 396.939 198.188 394.202L227.968 384.863C228.893 378.255 229.813 371.663 230.728 365.086L249.826 365.589Z" fill="#C10B25"/>
<path d="M250.512 403.649L197.524 403.267L197.303 393.57L227.182 384.2L229.972 364.202L250.695 364.743L250.512 403.649ZM199.24 401.544L248.796 401.903L248.964 366.436L231.497 365.978L228.768 385.526L199.087 394.835L199.24 401.544Z" fill="#1B1A3F"/>
<path d="M198.531 399.44L249.848 398.403C250.373 398.391 250.882 398.579 251.272 398.929C251.663 399.279 251.906 399.764 251.953 400.286L252.021 400.98C252.05 401.268 252.018 401.558 251.928 401.833C251.839 402.107 251.693 402.36 251.5 402.575C251.307 402.791 251.071 402.963 250.808 403.082C250.545 403.201 250.259 403.264 249.97 403.267L196.968 403.763C196.694 403.765 196.423 403.713 196.17 403.609C195.916 403.506 195.686 403.354 195.492 403.161C195.297 402.968 195.143 402.739 195.038 402.486C194.933 402.234 194.879 401.963 194.879 401.689C194.878 401.174 195.069 400.678 195.414 400.296C195.76 399.914 196.235 399.674 196.747 399.623L198.371 399.463L198.531 399.44Z" fill="#1B1A3F"/>
<path d="M196.953 404.144C196.316 404.136 195.706 403.886 195.248 403.444C194.789 403.002 194.517 402.402 194.485 401.766C194.454 401.13 194.667 400.506 195.08 400.021C195.493 399.536 196.076 399.228 196.709 399.158L198.333 398.998H198.524L249.841 397.961H249.887C250.512 397.964 251.114 398.2 251.575 398.623C252.036 399.046 252.323 399.625 252.38 400.248L252.441 400.942C252.474 401.286 252.435 401.633 252.326 401.961C252.217 402.29 252.042 402.592 251.81 402.848C251.579 403.105 251.296 403.311 250.981 403.452C250.665 403.594 250.324 403.669 249.978 403.671L196.953 404.144ZM198.546 399.829H198.417L196.793 399.989C196.356 400.01 195.946 400.204 195.652 400.528C195.358 400.852 195.205 401.279 195.226 401.716C195.247 402.153 195.441 402.563 195.765 402.857C196.089 403.151 196.516 403.304 196.953 403.283L249.956 402.787C250.184 402.784 250.409 402.733 250.617 402.639C250.825 402.545 251.012 402.409 251.165 402.239C251.318 402.069 251.435 401.87 251.507 401.653C251.58 401.437 251.607 401.208 251.587 400.98L251.518 400.286C251.486 399.872 251.298 399.485 250.993 399.202C250.688 398.919 250.288 398.762 249.872 398.761L198.554 399.791L198.546 399.829Z" fill="#1B1A3F"/>
<path d="M259.607 273.437H272.621L268.581 313.075L267.689 321.758L266.743 331.044L265.043 347.764L258.586 411.051H249.223L259.607 273.437Z" fill="white"/>
<path d="M258.586 411.768H249.223C249.124 411.769 249.026 411.749 248.936 411.71C248.845 411.671 248.764 411.613 248.697 411.539C248.629 411.468 248.577 411.382 248.545 411.289C248.512 411.196 248.499 411.097 248.507 410.998L258.891 273.384C258.902 273.202 258.983 273.032 259.117 272.909C259.25 272.786 259.426 272.718 259.607 272.72H272.629C272.729 272.72 272.827 272.741 272.918 272.781C273.009 272.822 273.09 272.882 273.155 272.957C273.224 273.031 273.275 273.119 273.307 273.215C273.338 273.311 273.349 273.413 273.338 273.513L265.714 347.84L259.264 411.12C259.248 411.292 259.17 411.452 259.046 411.571C258.921 411.69 258.758 411.76 258.586 411.768ZM249.993 410.335H257.945L267.856 313.006L271.821 274.123H260.27L249.993 410.335Z" fill="#1B1A3F"/>
<path d="M348.123 411.051H338.761L331.304 337.944L330.595 331.044L329.65 321.758L328.079 306.365L324.725 273.437H337.746L348.123 411.051Z" fill="white"/>
<path d="M348.123 411.768H338.76C338.581 411.769 338.409 411.703 338.276 411.583C338.144 411.463 338.061 411.298 338.044 411.12L324.008 273.513C324 273.413 324.012 273.312 324.043 273.217C324.075 273.121 324.125 273.033 324.191 272.957C324.258 272.882 324.34 272.822 324.432 272.781C324.524 272.74 324.624 272.72 324.724 272.72H337.746C337.924 272.73 338.094 272.801 338.225 272.922C338.356 273.043 338.44 273.207 338.463 273.384L348.839 411.006C348.847 411.104 348.834 411.203 348.801 411.297C348.768 411.39 348.716 411.475 348.649 411.547C348.581 411.619 348.5 411.675 348.409 411.714C348.318 411.752 348.221 411.77 348.123 411.768ZM339.408 410.335H347.353L337.083 274.161H325.517L339.408 410.335Z" fill="#1B1A3F"/>
<path d="M351.79 237.68C351.163 240.775 350.204 243.794 348.931 246.684C347.491 249.876 345.701 252.899 343.594 255.696L236.598 255.955H233.022C240.484 293.811 247.945 331.677 255.407 369.554C252.986 371.49 250.458 373.29 247.836 374.944C236.876 381.754 224.551 386.064 211.736 387.569C200.155 330.793 191.982 285.559 187.468 257.96C187.169 256.135 186.886 254.39 186.622 252.722C185.662 246.692 184.266 235.667 190.434 226.518C196.129 218.071 205.804 214.968 230.018 210.409C244.092 207.763 262.802 204.675 285.156 202.221C284.172 200.612 283.09 198.965 281.885 197.303C277.569 191.338 272.436 186.01 266.637 181.475C276.115 176.89 286.129 173.509 296.447 171.412C303.354 170.055 320.905 167.257 328.277 166.143L329.253 165.991C331.091 169.803 332.776 173.394 334.3 176.771C337.22 183.229 339.584 188.878 341.429 193.476C342.257 195.534 343.02 197.494 343.716 199.354C343.716 199.354 344.646 201.778 345.432 203.928C350.273 217.202 353.841 227.014 351.79 237.68Z" fill="#1B1A3F"/>
<path d="M211.385 388.05L211.301 387.638C197.296 318.922 189.664 274.116 187.034 258.029V257.968C186.775 256.382 186.521 254.857 186.271 253.393L186.165 252.753C184.922 244.931 184.236 234.844 190.061 226.221C195.885 217.598 205.53 214.518 229.935 209.921C247.805 206.566 266.126 203.822 284.401 201.809C283.494 200.353 282.525 198.919 281.527 197.532C277.226 191.601 272.111 186.306 266.332 181.803L265.752 181.346L266.416 181.033C275.935 176.45 285.983 173.057 296.333 170.931C303.194 169.59 320.73 166.792 328.186 165.663L328.666 165.587L329.162 165.511L329.49 165.465L329.635 165.762C331.373 169.338 333.073 172.967 334.697 176.55L334.735 176.649C337.228 182.162 339.614 187.758 341.833 193.285C342.595 195.092 343.297 196.96 344.12 199.171C344.12 199.171 345.058 201.626 345.836 203.745C350.738 217.225 354.283 226.953 352.209 237.741L351.76 237.657L352.209 237.741C351.575 240.886 350.603 243.953 349.312 246.89C347.873 250.109 346.083 253.159 343.975 255.986L343.838 256.161L233.602 256.435C237.302 275.18 240.997 293.928 244.687 312.678C248.413 331.601 252.143 350.527 255.879 369.455L255.933 369.729L255.719 369.904C253.28 371.849 250.735 373.656 248.095 375.318C237.087 382.178 224.696 386.513 211.812 388.012L211.385 388.05ZM187.933 257.914C190.564 273.971 198.165 318.602 212.109 387.043C224.714 385.516 236.83 381.245 247.607 374.532C250.14 372.94 252.584 371.209 254.926 369.348L243.787 312.838C240.062 293.91 236.331 274.982 232.595 256.054L232.489 255.513H236.598L343.335 255.246C345.362 252.53 347.085 249.6 348.474 246.509C349.735 243.649 350.684 240.66 351.302 237.596C353.338 227.06 349.831 217.423 344.974 204.05C344.212 201.908 343.274 199.476 343.266 199.476C342.42 197.265 341.68 195.405 340.979 193.598C338.753 188.055 336.359 182.444 333.858 176.909L333.82 176.817C332.295 173.371 330.626 169.879 328.956 166.441H328.803L328.308 166.517C320.844 167.638 303.331 170.436 296.5 171.778C286.468 173.844 276.722 177.115 267.475 181.521C273.092 185.977 278.073 191.179 282.281 196.983C283.433 198.584 284.569 200.246 285.567 201.931L285.941 202.541L285.232 202.617C266.736 204.653 248.202 207.405 230.125 210.805C205.987 215.38 196.427 218.429 190.831 226.717C185.235 235.004 185.86 244.938 187.08 252.6L187.186 253.233C187.42 254.712 187.674 256.237 187.949 257.808L187.933 257.914Z" fill="#1B1A3F"/>
<path d="M211.187 388.324L211.057 387.691C197.052 318.976 189.428 274.177 186.79 258.082V257.998C186.523 256.42 186.287 254.895 186.027 253.424L185.921 252.791C184.67 244.915 183.984 234.768 189.855 226.107C195.725 217.446 205.408 214.312 229.889 209.7C247.637 206.368 265.828 203.654 283.981 201.626C283.135 200.292 282.251 198.973 281.328 197.7C277.039 191.783 271.936 186.501 266.172 182.009L265.272 181.308L266.301 180.82C275.841 176.231 285.909 172.833 296.279 170.703C303.141 169.361 320.676 166.563 328.14 165.435L328.62 165.358L329.116 165.282L329.627 165.206L329.855 165.671C331.586 169.247 333.286 172.883 334.91 176.467L334.971 176.611C337.457 182.116 339.843 187.697 342.054 193.209C342.778 195.016 343.518 196.884 344.341 199.095C344.341 199.095 345.279 201.55 346.064 203.669C350.982 217.179 354.535 226.946 352.438 237.795C351.798 240.939 350.824 244.006 349.533 246.943C348.073 250.183 346.26 253.251 344.128 256.092L343.914 256.374L233.853 256.641C237.533 275.29 241.21 293.938 244.885 312.587C248.611 331.515 252.341 350.443 256.077 369.371L256.161 369.79L255.826 370.057C253.387 372.008 250.841 373.823 248.202 375.493C237.159 382.37 224.733 386.718 211.812 388.225L211.187 388.324ZM188.185 257.899C190.808 273.948 198.394 318.488 212.307 386.746C224.793 385.203 236.792 380.957 247.47 374.304C249.952 372.739 252.349 371.044 254.652 369.226C250.946 350.42 247.243 331.632 243.543 312.861C239.818 293.933 236.087 275.005 232.351 256.077L232.183 255.246H236.613L343.251 254.987C345.231 252.31 346.92 249.429 348.29 246.395C349.539 243.549 350.482 240.58 351.104 237.535C353.116 227.068 349.625 217.461 344.783 204.157C344.021 202.022 343.083 199.583 343.068 199.583C342.222 197.379 341.49 195.519 340.781 193.712C338.554 188.177 336.161 182.566 333.66 177.038L333.599 176.894C332.074 173.516 330.473 170.108 328.849 166.738L328.376 166.807C320.912 167.935 303.407 170.726 296.576 172.067C286.691 174.095 277.083 177.294 267.956 181.598C273.462 186.008 278.352 191.136 282.495 196.846C283.654 198.447 284.782 200.116 285.796 201.809L286.375 202.754L285.27 202.869C266.789 204.904 248.255 207.657 230.186 211.049C206.124 215.586 196.594 218.673 191.052 226.862C185.509 235.05 186.126 244.954 187.339 252.562L187.445 253.203C187.684 254.677 187.938 256.202 188.208 257.777L188.185 257.899Z" fill="white"/>
<path d="M234.555 378.985C226.267 351.927 211.629 300.609 206.681 260.941C206.04 255.803 205.08 248.049 209.525 241.355C215.624 232.206 227.571 231.139 256.519 228.493C263.191 227.883 270.754 227.189 279.392 226.305C305.016 223.659 316.521 221.731 319.212 214.739C320.089 212.452 319.936 210.165 314.836 195.565C311.786 186.751 308.455 177.946 305.016 169.391L306.32 168.865C309.766 177.442 313.075 186.271 316.163 195.1C321.202 209.54 321.621 212.368 320.524 215.242C317.558 222.996 305.756 224.994 279.537 227.7C270.906 228.592 263.335 229.278 256.664 229.888C228.181 232.496 216.394 233.571 210.706 242.133C206.551 248.392 207.474 255.856 208.091 260.766C213.024 300.327 227.639 351.561 235.912 378.573L234.555 378.985Z" fill="white"/>
<path d="M348.191 226.503C344.791 226.503 339.904 225.665 336.755 221.471C331.822 214.892 325.441 193.224 325.174 192.309L324.976 191.631L337.121 188.162L337.51 189.511L326.722 192.561C327.866 196.373 333.584 214.854 337.876 220.595C342.45 226.694 351.645 224.75 351.737 224.735L352.042 226.099C350.776 226.366 349.485 226.502 348.191 226.503Z" fill="white"/>
<path d="M317.055 202.739C303.819 201.938 294.945 194.475 289.814 188.345C286.468 184.386 283.762 179.928 281.793 175.132L283.105 174.66C285.037 179.312 287.67 183.642 290.912 187.498C295.86 193.377 304.452 200.581 317.139 201.344L317.055 202.739Z" fill="white"/>
<path d="M298.002 250.9C287.168 250.9 273.216 250.671 272.339 250.656V249.253C272.667 249.253 305.123 249.795 309.926 249.253L310.079 250.649C308.424 250.847 303.636 250.9 298.002 250.9Z" fill="white"/>
<path d="M320.394 249.261H314.935V250.664H320.394V249.261Z" fill="white"/>
<path d="M207.523 328.433L206.149 328.717L212.7 360.38L214.074 360.096L207.523 328.433Z" fill="white"/>
<path d="M205.299 318.544L203.981 319.023L206.164 325.028L207.482 324.548L205.299 318.544Z" fill="white"/>
<path d="M373.953 143.927L364.141 141.876C363.286 141.7 362.396 141.87 361.666 142.349C360.936 142.827 360.425 143.576 360.245 144.43L336.962 255.97H253.951C252.535 255.97 251.178 256.533 250.177 257.533C249.176 258.534 248.614 259.892 248.614 261.307V268.085C248.614 269.5 249.176 270.858 250.177 271.859C251.178 272.86 252.535 273.422 253.951 273.422H344.807C345.828 273.421 346.829 273.128 347.689 272.576C348.46 272.597 349.215 272.348 349.821 271.87C350.427 271.392 350.846 270.716 351.005 269.96L376.508 147.823C376.684 146.968 376.514 146.078 376.035 145.348C375.556 144.617 374.808 144.107 373.953 143.927Z" fill="#C10B25"/>
<path d="M344.806 274.306H253.95C252.302 274.304 250.722 273.649 249.556 272.485C248.39 271.32 247.733 269.741 247.729 268.093V261.315C247.731 259.666 248.387 258.086 249.554 256.921C250.72 255.756 252.302 255.101 253.95 255.101H336.29L359.429 144.255C359.541 143.72 359.757 143.212 360.065 142.76C360.373 142.308 360.767 141.922 361.224 141.622C361.681 141.323 362.193 141.116 362.73 141.015C363.267 140.913 363.819 140.918 364.354 141.03L374.167 143.073C374.703 143.184 375.213 143.4 375.665 143.709C376.118 144.018 376.505 144.413 376.805 144.872C377.105 145.328 377.311 145.84 377.412 146.376C377.513 146.913 377.506 147.464 377.392 147.998L351.851 270.151C351.664 271.061 351.176 271.882 350.467 272.482C349.758 273.082 348.868 273.426 347.94 273.46C346.989 274.016 345.907 274.308 344.806 274.306ZM253.95 256.84C252.763 256.84 251.624 257.311 250.783 258.15C249.943 258.989 249.469 260.127 249.467 261.315V268.093C249.469 269.28 249.943 270.419 250.783 271.258C251.624 272.097 252.763 272.568 253.95 272.568H344.806C345.663 272.568 346.502 272.322 347.223 271.859L347.444 271.714H347.711C348.279 271.73 348.835 271.545 349.281 271.192C349.727 270.84 350.035 270.342 350.151 269.785L375.653 147.64C375.784 147.011 375.661 146.356 375.31 145.818C375.137 145.552 374.914 145.323 374.652 145.143C374.39 144.964 374.096 144.838 373.785 144.773L363.973 142.722C363.344 142.592 362.689 142.716 362.152 143.067C361.614 143.419 361.239 143.969 361.107 144.598L337.663 256.84H253.95Z" fill="#1B1A3F"/>
<path d="M204.378 160.7C204.275 160.702 204.174 160.674 204.086 160.62C203.998 160.566 203.928 160.488 203.883 160.395L198.965 150.568C198.915 150.438 198.915 150.295 198.965 150.166C199.015 150.037 199.112 149.931 199.235 149.869C199.359 149.807 199.502 149.794 199.635 149.831C199.768 149.869 199.883 149.955 199.956 150.072L204.874 159.899C204.909 159.966 204.93 160.038 204.937 160.113C204.943 160.188 204.934 160.263 204.91 160.334C204.887 160.405 204.849 160.471 204.8 160.527C204.75 160.584 204.69 160.629 204.622 160.662C204.545 160.693 204.461 160.706 204.378 160.7Z" fill="#1B1A3F"/>
<path d="M230.582 28.8874C230.582 28.8874 219.314 13.075 224.933 4.97066C226.77 2.30986 229.69 1.49409 231.253 1.0214C242.362 -2.32557 258.464 6.12953 259.096 16.0713C259.34 20.013 257.175 24.3663 254.064 26.9127C251.554 28.8608 248.52 30.0155 245.35 30.2292C244.473 30.2292 244.039 30.1835 242.842 30.2292C240.533 30.3879 238.269 30.9424 236.148 31.8684L230.582 28.8874Z" fill="#1B1A3F"/>
<path d="M236.133 32.2267L230.384 29.1161L230.338 29.0551C229.873 28.407 219.016 12.9835 224.689 4.80291C226.541 2.13449 229.469 1.25008 231.04 0.777391L231.169 0.73928C237.269 -1.10575 245.655 0.57917 251.922 4.94014C256.413 8.06601 259.134 12.1144 259.386 16.056C259.638 19.9977 257.571 24.4425 254.247 27.1414C251.691 29.1372 248.6 30.3286 245.365 30.5646C244.999 30.5646 244.717 30.5646 244.42 30.5646C244.001 30.5646 243.566 30.5646 242.895 30.5646C240.618 30.723 238.385 31.2696 236.293 32.1809L236.133 32.2267ZM230.796 28.6662L236.178 31.571C238.293 30.6633 240.546 30.1219 242.842 29.97C243.378 29.9417 243.915 29.9417 244.45 29.97H245.358C248.463 29.7525 251.435 28.6196 253.897 26.7145C257.076 24.1147 259.05 19.8528 258.814 16.1246C258.578 12.3965 255.947 8.50058 251.602 5.45095C245.503 1.18909 237.33 -0.465324 231.352 1.33396H231.23C229.614 1.81427 226.923 2.62242 225.184 5.14599C219.893 12.7472 230.064 27.637 230.78 28.6662H230.796Z" fill="#1B1A3F"/>
<path d="M217.393 48.3516C217.393 48.3516 207.741 27.2482 234.113 25.6471C260.484 24.0461 259.196 55.747 251.8 57.9579C244.405 60.1689 217.393 48.3516 217.393 48.3516Z" fill="#1B1A3F"/>
<path d="M249.505 58.5221C240.044 58.5221 218.285 49.0606 217.278 48.6108L217.172 48.565L217.126 48.4659C217.088 48.3744 213.192 39.6754 217.202 32.989C219.939 28.4146 225.589 25.8605 234.089 25.365C240.677 24.9685 246.036 26.5772 250.008 30.1605C254.11 33.8658 255.696 38.7376 256.306 42.1761C257.625 49.64 255.544 57.1574 251.884 58.2476C251.108 58.4524 250.307 58.5448 249.505 58.5221ZM217.614 48.1C219.466 48.9005 244.733 59.7343 251.716 57.6529C255.063 56.6542 256.977 49.3046 255.727 42.237C254.964 38.1505 251.297 24.8694 234.128 25.9139C225.863 26.4171 220.336 28.8949 217.705 33.2711C214.076 39.3323 217.202 47.1469 217.614 48.1Z" fill="#1B1A3F"/>
<path d="M216.257 40.8113C219.208 34.8569 224.865 31.1516 230.377 31.6091C238.26 32.2571 242.415 41.1468 243.2 46.4989C243.353 47.5897 243.404 48.6923 243.353 49.7925L243.612 49.884C246.502 46.3083 250.116 45.1266 251.9 46.293C253.684 47.4595 253.348 50.7455 253.318 51.1648C253.173 53.048 252.029 55.1065 249.041 57.6986L256.421 82.4083C257.011 84.4218 257.011 86.5626 256.421 88.5761C256.283 89.0564 256.131 89.5063 255.971 89.9408C252.311 99.8064 238.13 99.2193 235.119 89.1403L229.965 71.7346C228.546 72.1837 227.039 72.2831 225.574 72.0243C218.864 70.6367 213.07 58.0112 216.257 40.8113Z" fill="white"/>
<path d="M245.793 97.6107H245.381C242.925 97.5559 240.551 96.7168 238.606 95.2161C236.66 93.7154 235.246 91.6318 234.57 89.27L229.554 72.497C228.215 72.8514 226.813 72.9035 225.452 72.6495C218.156 71.1247 212.491 57.9274 215.67 40.7275C215.681 40.6721 215.699 40.6183 215.723 40.5674C218.773 34.3919 224.697 30.557 230.43 31.0297C238.619 31.7083 242.972 40.8419 243.795 46.438C243.897 47.153 243.956 47.8735 243.971 48.5956C247.02 45.4163 250.436 44.6463 252.228 45.8128C254.019 46.9793 254.042 49.6782 253.92 51.203C253.752 53.3911 252.395 55.5182 249.727 57.9122L256.977 82.2406C257.617 84.3615 257.633 86.6219 257.023 88.7516C256.886 89.2319 256.726 89.7122 256.558 90.162C255.754 92.3643 254.287 94.2632 252.359 95.5972C250.431 96.9311 248.137 97.6346 245.793 97.6107ZM229.965 71.1476C230.094 71.1485 230.218 71.1904 230.321 71.2672C230.424 71.344 230.5 71.4517 230.537 71.5745L235.721 88.9498C236.333 91.0634 237.604 92.9265 239.348 94.2677C241.092 95.6089 243.219 96.358 245.419 96.4061C247.586 96.5186 249.732 95.9286 251.537 94.7239C253.342 93.5193 254.71 91.7642 255.437 89.7198C255.59 89.3005 255.735 88.8507 255.872 88.3932C256.417 86.485 256.401 84.4602 255.826 82.5608L248.461 57.8664C248.429 57.7557 248.428 57.6378 248.461 57.527C248.493 57.4161 248.557 57.317 248.644 57.2413C251.274 54.954 252.571 53.0175 252.723 51.142C252.807 50.0975 252.86 47.6578 251.572 46.8192C250.093 45.8509 246.814 46.903 244.077 50.2881C243.999 50.3852 243.892 50.455 243.771 50.4879C243.651 50.5207 243.523 50.5149 243.406 50.4711L243.147 50.372C243.028 50.3286 242.925 50.2484 242.854 50.1429C242.782 50.0374 242.746 49.9121 242.751 49.7849C242.804 48.7255 242.756 47.6634 242.606 46.6133C241.844 41.3832 237.833 32.8519 230.331 32.2267C225.093 31.7921 219.657 35.3297 216.837 41.0249C213.856 57.2565 219.124 70.0955 225.696 71.4754C227.066 71.7066 228.472 71.61 229.798 71.1933C229.851 71.1699 229.907 71.1545 229.965 71.1476Z" fill="#1B1A3F"/>
<path d="M229.965 71.7347L231.025 75.2951C234.335 73.1348 236.874 69.9793 238.276 66.2834C236.071 68.8431 233.191 70.732 229.965 71.7347Z" fill="#1B1A3F"/>
<path d="M230.857 75.7753L229.599 71.5516L229.881 71.4677C233.052 70.4906 235.884 68.6412 238.054 66.1309L239.083 64.9263L238.557 66.4511C237.123 70.1981 234.547 73.3989 231.193 75.6L230.857 75.7753ZM230.323 71.9633L231.193 74.8604C233.827 73.0334 235.954 70.5675 237.376 67.6938C235.379 69.6294 232.967 71.0843 230.323 71.948V71.9633Z" fill="#1B1A3F"/>
<path d="M223.942 56.4865C223.846 56.4874 223.751 56.4554 223.675 56.3959C223.599 56.3363 223.545 56.2527 223.523 56.1586C222.705 52.8046 223.182 49.2657 224.857 46.2473C224.887 46.1973 224.927 46.1536 224.974 46.1189C225.021 46.0841 225.074 46.0589 225.13 46.0448C225.187 46.0306 225.246 46.0277 225.304 46.0363C225.362 46.0449 225.417 46.0648 225.467 46.0948C225.517 46.1249 225.561 46.1645 225.596 46.2114C225.63 46.2583 225.655 46.3116 225.67 46.3682C225.684 46.4249 225.687 46.4837 225.678 46.5415C225.669 46.5992 225.65 46.6547 225.62 46.7048C224.104 49.5262 223.67 52.8037 224.4 55.9223C224.425 56.0334 224.406 56.15 224.346 56.247C224.286 56.344 224.19 56.4136 224.079 56.4407L223.942 56.4865Z" fill="#1B1A3F"/>
<path d="M222.722 32.6689C228.768 35.2459 231.246 38.4251 232.374 40.9258C233.404 43.213 233.434 45.1876 235.424 47.5587C237.566 50.1128 239.686 50.3186 241.287 51.5614C243.65 53.4064 245.45 57.9351 242.812 69.7981C244.336 65.9861 247.325 57.0431 244.748 46.7658C243.348 41.6672 240.774 36.9672 237.231 33.0425C234.669 30.2445 232.893 29.5888 231.467 29.3525C227.06 28.5977 223.439 31.9751 222.722 32.6689Z" fill="#1B1A3F"/>
<path d="M243.056 69.9125L242.499 69.7371C244.641 60.2147 244.176 54.1764 241.111 51.7901C240.537 51.3742 239.922 51.019 239.274 50.7303C237.705 50.0648 236.311 49.0444 235.203 47.7493C234.123 46.4051 233.343 44.8454 232.916 43.1749C232.699 42.4479 232.445 41.7328 232.153 41.0325C230.628 37.7008 227.457 34.9714 222.654 32.9205L222.25 32.7528L222.57 32.4402C223.866 31.1822 227.342 28.3232 231.536 29.0246C232.969 29.2609 234.799 29.9014 237.467 32.8366C241.039 36.8088 243.634 41.5602 245.046 46.7124C247.348 56.0672 245.236 64.4918 243.056 69.9125ZM223.233 32.5545C227.945 34.6435 231.101 37.4111 232.626 40.7809C232.937 41.4994 233.207 42.2351 233.434 42.9843C233.845 44.5824 234.596 46.0727 235.637 47.3529C236.698 48.5794 238.026 49.547 239.518 50.1814C240.203 50.4894 240.855 50.8675 241.462 51.3098C244.245 53.475 245.038 58.3468 243.841 65.7955C245.727 59.6327 245.924 53.0767 244.413 46.8116C243.032 41.7508 240.483 37.0845 236.972 33.1873C234.425 30.4122 232.717 29.8099 231.376 29.5888C227.724 29.0398 224.529 31.4262 223.248 32.5774L223.233 32.5545Z" fill="#1B1A3F"/>
<path d="M267.544 197.135C262.879 186.858 257.496 176.923 251.435 167.401C244.642 156.766 238.84 149.584 234.136 136.364C232.328 131.078 231.051 125.625 230.324 120.086C229.874 117.105 228.181 103.763 236.873 92.4034C237.91 91.0387 247.943 78.2684 260.096 79.3053H260.256C260.981 79.3784 261.702 79.4955 262.413 79.656C286.81 85.3512 316.392 138.194 316.392 138.194C323.574 151.017 332.448 167.928 341.551 188.512C333.368 193.133 324.549 196.524 315.378 198.576C299.559 202.056 283.125 201.561 267.544 197.135Z" fill="white"/>
<path d="M294.632 201.626C285.405 201.611 276.224 200.328 267.346 197.814C267.245 197.785 267.152 197.735 267.073 197.666C266.994 197.598 266.931 197.513 266.888 197.417C262.235 187.181 256.87 177.284 250.832 167.798C249.452 165.633 248.11 163.612 246.814 161.653C241.668 153.915 237.231 147.221 233.457 136.608C231.616 131.283 230.319 125.786 229.584 120.201C228.821 115.314 228.013 102.772 236.27 91.9918C237.398 90.5128 247.706 77.5518 260.126 78.6116H260.293C261.049 78.6935 261.8 78.8157 262.543 78.9775C272.827 81.3791 285.125 92.0376 299.092 110.648C305.588 119.361 311.566 128.45 316.994 137.866C326.089 154.105 334.529 171.061 342.153 188.253C342.217 188.419 342.222 188.601 342.167 188.769C342.111 188.938 341.998 189.082 341.848 189.176C327.434 197.341 311.145 201.62 294.579 201.595L294.632 201.626ZM268.055 196.533C283.416 200.866 299.609 201.35 315.202 197.944C324.089 195.952 332.645 192.694 340.605 188.269C333.073 171.32 324.709 154.608 315.736 138.598C315.446 138.072 286.002 85.9917 262.215 80.4109C261.536 80.2577 260.848 80.1457 260.156 80.0754H260.004C248.331 79.0843 238.496 91.4734 237.406 92.8915C229.485 103.253 230.293 115.321 231.002 120.033C231.732 125.527 233.009 130.934 234.814 136.173C238.534 146.618 242.926 153.244 248.019 160.906C249.315 162.865 250.664 164.893 252.052 167.066C258.06 176.507 263.407 186.353 268.055 196.533Z" fill="#1B1A3F"/>
<path d="M171.618 165.061V175.163H74.4337L28.7808 87.7909L37.8991 84.261H38.4023L80.4414 165.061H171.618Z" fill="#1B1A3F"/>
<path d="M172.075 175.62H74.1595L28.1406 87.5469L37.8156 83.8035H38.6771L38.8067 84.0474L80.7391 164.611H172.075V175.62ZM74.7085 174.705H171.161V165.511H80.1673L80.0377 165.267L38.1206 84.6955H37.9833L29.4215 88.012L74.7085 174.705Z" fill="#1B1A3F"/>
<path d="M260.492 105.029C263.664 111.715 244.481 140.45 214.481 175.712H132.148C125.027 177.183 114.072 175.658 114.072 175.658C114.072 175.658 100.142 176.832 95.6595 174.972C91.1765 173.112 94.0965 170.482 94.0965 170.482C90.2159 168.72 93.5629 165.907 93.5629 165.907C93.349 165.674 93.1857 165.4 93.0833 165.1C92.981 164.801 92.9417 164.484 92.9682 164.169C93.1435 163.048 94.5616 162.072 96.3838 162.24C95.4994 161.905 94.4701 161.394 94.4701 160.761C94.4701 159.709 97.3139 158.832 100.646 158.009C108.163 156.125 111.922 155.18 115.185 155.294C119.743 155.476 124.196 156.716 128.191 158.916L128.237 158.794L199.21 150.598C201.497 147.335 207.268 139.063 210.234 134.809C227.083 110.656 237.353 95.8725 246.929 95.9716C249.569 96.0316 252.157 96.7216 254.477 97.9843C257.081 99.7458 259.16 102.18 260.492 105.029Z" fill="white"/>
<path d="M124.417 177.076C120.943 177.06 117.472 176.828 114.026 176.383C112.768 176.482 99.8222 177.488 95.3621 175.62C93.6315 174.904 92.6556 173.951 92.4573 172.799C92.3606 172.054 92.5425 171.299 92.9681 170.68C92.5862 170.469 92.2563 170.176 92.003 169.821C91.7496 169.466 91.5792 169.059 91.5043 168.629C91.4749 168.106 91.5576 167.584 91.747 167.096C91.9364 166.608 92.228 166.166 92.6022 165.8C92.2807 165.27 92.1515 164.646 92.2362 164.032C92.3478 163.523 92.5879 163.051 92.9336 162.661C93.2793 162.272 93.719 161.977 94.2109 161.805C93.9142 161.531 93.7387 161.15 93.7229 160.746C93.7229 159.221 96.0864 158.375 100.455 157.284L100.6 157.246C108.087 155.378 111.845 154.433 115.185 154.547C119.714 154.723 124.145 155.922 128.146 158.054L198.798 149.904C201.199 146.473 206.75 138.522 209.639 134.374L209.876 134.039C226.74 109.863 236.941 95.2321 246.822 95.2321H246.929C249.698 95.2894 252.413 96.0138 254.842 97.3439C257.573 99.1831 259.756 101.725 261.163 104.701C264.975 112.859 239.861 146.961 215.037 176.162C214.97 176.24 214.887 176.303 214.794 176.346C214.701 176.39 214.599 176.413 214.496 176.413H132.202C129.634 176.883 127.027 177.106 124.417 177.076ZM114.049 174.942H114.14C114.255 174.942 125.065 176.428 131.981 174.995H132.125H214.145C244.375 139.414 262.733 111.441 259.844 105.342C258.57 102.616 256.581 100.287 254.088 98.6019C251.873 97.4112 249.411 96.7559 246.898 96.6883H246.807C237.658 96.6883 227.632 111.082 211.034 134.877L210.806 135.22L199.781 151.025C199.721 151.107 199.645 151.177 199.557 151.229C199.469 151.282 199.372 151.316 199.271 151.33L128.634 159.48C128.569 159.532 128.497 159.573 128.42 159.602C128.326 159.64 128.224 159.656 128.122 159.649C128.021 159.643 127.922 159.613 127.833 159.564C123.934 157.416 119.588 156.204 115.139 156.026C111.998 155.927 108.277 156.842 100.951 158.68L100.798 158.718C96.3532 159.823 95.3545 160.471 95.1791 160.769C95.2401 160.868 95.5298 161.173 96.6201 161.584C96.7876 161.643 96.9276 161.761 97.0129 161.916C97.0983 162.072 97.1229 162.253 97.0822 162.426C97.0414 162.599 96.938 162.75 96.7921 162.851C96.6462 162.952 96.4681 162.995 96.2923 162.972C94.8589 162.842 93.7763 163.551 93.6543 164.299C93.6448 164.512 93.6783 164.726 93.753 164.926C93.8276 165.126 93.9419 165.31 94.0889 165.465C94.2013 165.616 94.2541 165.802 94.2372 165.989C94.2203 166.177 94.1349 166.351 93.9974 166.479C93.6619 166.761 92.8157 167.684 92.9224 168.477C92.9986 168.987 93.4866 169.445 94.371 169.849C94.4802 169.898 94.5753 169.973 94.6478 170.068C94.7203 170.164 94.7678 170.275 94.786 170.394C94.8042 170.512 94.7925 170.633 94.7519 170.745C94.7114 170.858 94.6434 170.959 94.554 171.038C94.3421 171.232 94.1725 171.468 94.0558 171.73C93.9391 171.992 93.8776 172.276 93.8754 172.563C93.9898 173.188 94.6912 173.783 95.9187 174.294C100.188 176.07 113.85 174.942 113.988 174.926L114.049 174.942Z" fill="#1B1A3F"/>
<path d="M110.16 159.968C110.145 159.875 110.112 159.786 110.063 159.706C110.013 159.626 109.948 159.556 109.871 159.502C109.795 159.447 109.708 159.408 109.616 159.388C109.524 159.367 109.429 159.365 109.337 159.381L96.2462 161.523C96.153 161.538 96.0636 161.571 95.9832 161.621C95.9028 161.67 95.833 161.735 95.7778 161.811C95.7225 161.888 95.6829 161.975 95.6612 162.066C95.6396 162.158 95.6363 162.254 95.6515 162.347C95.6772 162.516 95.7631 162.67 95.8934 162.78C96.0237 162.891 96.1896 162.951 96.3605 162.949H96.4749L109.565 160.807C109.66 160.792 109.751 160.758 109.832 160.708C109.914 160.657 109.985 160.591 110.04 160.513C110.095 160.435 110.135 160.346 110.155 160.253C110.176 160.159 110.178 160.062 110.16 159.968Z" fill="#1B1A3F"/>
<path d="M108.651 163.315L93.4484 165.19C93.3543 165.196 93.2622 165.22 93.1773 165.261C93.0925 165.302 93.0166 165.36 92.9539 165.43C92.8913 165.5 92.8431 165.583 92.8122 165.672C92.7813 165.761 92.7682 165.855 92.7737 165.949C92.7792 166.043 92.8032 166.135 92.8443 166.22C92.8854 166.305 92.9428 166.381 93.0132 166.444C93.0837 166.506 93.1658 166.554 93.2548 166.585C93.3439 166.616 93.4382 166.629 93.5323 166.624H93.6238L108.826 164.748C108.92 164.737 109.01 164.707 109.092 164.66C109.174 164.614 109.246 164.552 109.305 164.477C109.363 164.403 109.405 164.318 109.431 164.227C109.456 164.136 109.463 164.041 109.451 163.948C109.44 163.854 109.41 163.764 109.364 163.682C109.317 163.6 109.255 163.527 109.181 163.469C109.106 163.411 109.021 163.368 108.93 163.343C108.839 163.318 108.744 163.311 108.651 163.323V163.315Z" fill="#1B1A3F"/>
<path d="M107.149 168.362L94.0279 169.765C93.9338 169.769 93.8415 169.792 93.7563 169.833C93.671 169.873 93.5946 169.929 93.5312 169.999C93.4032 170.14 93.3364 170.326 93.3455 170.516C93.3546 170.706 93.4389 170.885 93.5797 171.013C93.7205 171.141 93.9064 171.207 94.0965 171.198H94.1804L107.332 169.788C107.521 169.768 107.694 169.673 107.814 169.525C107.933 169.377 107.989 169.188 107.969 168.999C107.948 168.81 107.854 168.636 107.706 168.517C107.558 168.398 107.368 168.342 107.179 168.362H107.149Z" fill="#1B1A3F"/>
<path d="M204.378 160.7C204.275 160.702 204.174 160.674 204.086 160.62C203.998 160.566 203.928 160.488 203.883 160.395L198.965 150.568C198.915 150.438 198.915 150.295 198.965 150.166C199.015 150.037 199.112 149.931 199.235 149.869C199.359 149.807 199.502 149.794 199.635 149.831C199.768 149.869 199.883 149.955 199.956 150.072L204.874 159.899C204.909 159.966 204.93 160.038 204.937 160.113C204.943 160.188 204.934 160.263 204.91 160.334C204.887 160.405 204.849 160.471 204.8 160.527C204.75 160.584 204.69 160.629 204.622 160.662C204.545 160.693 204.461 160.706 204.378 160.7Z" fill="#1B1A3F"/>
<path d="M312.313 139.917C312.22 139.919 312.128 139.897 312.047 139.853C311.965 139.808 311.896 139.744 311.847 139.665L302.02 124.379C301.98 124.318 301.953 124.251 301.939 124.179C301.926 124.108 301.927 124.035 301.941 123.964C301.956 123.893 301.985 123.826 302.026 123.767C302.067 123.707 302.119 123.656 302.18 123.616C302.304 123.539 302.453 123.513 302.596 123.544C302.738 123.576 302.863 123.662 302.943 123.784L312.77 139.07C312.848 139.194 312.874 139.343 312.842 139.486C312.811 139.629 312.725 139.753 312.602 139.833C312.516 139.888 312.415 139.917 312.313 139.917Z" fill="#1B1A3F"/>
<path d="M317.222 148.654C317.127 148.654 317.034 148.63 316.951 148.583C316.868 148.536 316.798 148.469 316.75 148.387L315.126 145.688C315.05 145.563 315.027 145.412 315.062 145.27C315.097 145.128 315.187 145.005 315.312 144.929C315.438 144.854 315.588 144.831 315.73 144.866C315.873 144.901 315.995 144.991 316.071 145.116L317.71 147.846C317.749 147.908 317.774 147.977 317.785 148.05C317.797 148.122 317.793 148.196 317.776 148.267C317.758 148.338 317.726 148.405 317.682 148.463C317.638 148.522 317.583 148.571 317.52 148.608C317.427 148.652 317.324 148.668 317.222 148.654Z" fill="#1B1A3F"/>
<path d="M296.355 189.534C296.278 189.534 296.201 189.518 296.13 189.486C296.059 189.455 295.996 189.409 295.943 189.351C291.056 183.915 281.023 167.577 280.596 166.891C280.55 166.829 280.518 166.758 280.501 166.682C280.484 166.607 280.482 166.529 280.497 166.453C280.512 166.378 280.542 166.306 280.586 166.242C280.63 166.179 280.687 166.125 280.753 166.085C280.818 166.045 280.892 166.018 280.968 166.008C281.045 165.997 281.123 166.003 281.197 166.024C281.271 166.046 281.34 166.082 281.399 166.132C281.459 166.181 281.507 166.242 281.542 166.311C281.641 166.479 291.948 183.252 296.79 188.612C296.887 188.715 296.941 188.851 296.941 188.993C296.941 189.135 296.887 189.271 296.79 189.374C296.733 189.43 296.665 189.473 296.59 189.501C296.515 189.528 296.435 189.54 296.355 189.534Z" fill="#1B1A3F"/>
<path d="M279.087 164.077C278.941 164.077 278.802 164.019 278.698 163.917L276.86 162.072C276.794 162.027 276.737 161.967 276.696 161.898C276.655 161.828 276.63 161.75 276.622 161.67C276.614 161.589 276.625 161.508 276.652 161.432C276.679 161.356 276.723 161.287 276.78 161.23C276.838 161.173 276.907 161.129 276.983 161.101C277.059 161.074 277.14 161.064 277.221 161.071C277.301 161.079 277.379 161.104 277.448 161.146C277.518 161.187 277.578 161.243 277.623 161.31L279.468 163.147C279.544 163.225 279.596 163.325 279.616 163.432C279.637 163.539 279.625 163.65 279.583 163.751C279.541 163.852 279.47 163.938 279.379 163.999C279.288 164.06 279.181 164.092 279.071 164.093L279.087 164.077Z" fill="#1B1A3F"/>
<path d="M82.6223 187.994H74.4341V411.051H82.6223V187.994Z" fill="white"/>
<path d="M82.5916 411.593H74.4339C74.2903 411.593 74.1526 411.536 74.0511 411.434C73.9496 411.333 73.8926 411.195 73.8926 411.051V187.994C73.8926 187.85 73.9496 187.713 74.0511 187.611C74.1526 187.51 74.2903 187.453 74.4339 187.453H82.5916C82.7352 187.453 82.8729 187.51 82.9744 187.611C83.0759 187.713 83.1329 187.85 83.1329 187.994V411.051C83.1329 411.195 83.0759 411.333 82.9744 411.434C82.8729 411.536 82.7352 411.593 82.5916 411.593ZM74.9676 410.51H82.0732V188.535H74.9676V410.51Z" fill="#1B1A3F"/>
<path d="M218.27 187.994H210.082V411.051H218.27V187.994Z" fill="white"/>
<path d="M218.3 411.593H210.081C209.938 411.593 209.8 411.536 209.699 411.434C209.597 411.333 209.54 411.195 209.54 411.051V187.994C209.54 187.85 209.597 187.713 209.699 187.611C209.8 187.51 209.938 187.453 210.081 187.453H218.3C218.444 187.453 218.581 187.51 218.683 187.611C218.784 187.713 218.841 187.85 218.841 187.994V411.051C218.841 411.195 218.784 411.333 218.683 411.434C218.581 411.536 218.444 411.593 218.3 411.593ZM210.676 410.51H217.782V188.535H210.676V410.51Z" fill="#1B1A3F"/>
<path d="M235.226 175.163H57.2344V188.269H235.226V175.163Z" fill="white"/>
<path d="M235.226 188.81H57.2342C57.0906 188.81 56.9529 188.753 56.8514 188.651C56.7499 188.55 56.6929 188.412 56.6929 188.269V175.163C56.6929 175.019 56.7499 174.882 56.8514 174.78C56.9529 174.678 57.0906 174.621 57.2342 174.621H235.226C235.297 174.621 235.367 174.635 235.433 174.663C235.499 174.69 235.558 174.73 235.608 174.78C235.659 174.83 235.699 174.89 235.726 174.956C235.753 175.021 235.767 175.092 235.767 175.163V188.269C235.767 188.34 235.753 188.41 235.726 188.476C235.699 188.541 235.659 188.601 235.608 188.651C235.558 188.702 235.499 188.741 235.433 188.769C235.367 188.796 235.297 188.81 235.226 188.81ZM57.7755 187.727H234.654V175.704H57.7755V187.727Z" fill="#1B1A3F"/>
<path d="M241.234 38.6157C241.234 38.6157 235.584 25.7538 224.506 26.7602L229.965 24.8008C229.965 24.8008 240.639 24.2443 247.661 36.3208C254.682 48.3973 241.234 38.6157 241.234 38.6157Z" fill="#FEC562"/>
<path d="M248.667 43.1901C246.463 43.1901 242.918 40.9029 240.73 39.3095C240.61 39.2179 240.516 39.0972 240.455 38.9588C240.394 38.8368 234.898 26.6688 224.582 27.6065C224.375 27.6257 224.168 27.5687 224 27.4461C223.832 27.3235 223.714 27.1438 223.67 26.9407C223.625 26.7376 223.655 26.5251 223.756 26.3431C223.857 26.1611 224.02 26.022 224.216 25.9521L229.675 23.9927C229.753 23.9633 229.836 23.9453 229.919 23.9393C230.369 23.9393 241.172 23.4971 248.4 35.8863C250.618 39.6983 251.091 41.7492 249.986 42.7479C249.617 43.0556 249.146 43.2134 248.667 43.1901ZM241.935 38.0515C244.9 40.171 248.125 41.7797 248.842 41.4823C248.888 41.3375 249.055 40.3921 246.936 36.7554C240.57 25.8377 231.345 25.6319 230.163 25.6471L228.753 26.1579C236.834 27.9115 241.172 36.5114 241.935 38.0515Z" fill="#1B1A3F"/>
<path d="M247.531 60.2299C253.438 60.2299 258.227 54.8776 258.227 48.2753C258.227 41.673 253.438 36.3208 247.531 36.3208C241.623 36.3208 236.834 41.673 236.834 48.2753C236.834 54.8776 241.623 60.2299 247.531 60.2299Z" fill="#FEC562"/>
<path d="M247.531 61.061C241.165 61.061 235.98 55.3124 235.98 48.2525C235.98 41.1926 241.165 35.4441 247.531 35.4441C253.897 35.4441 259.089 41.185 259.089 48.2525C259.089 55.32 253.905 61.061 247.531 61.061ZM247.531 37.1519C242.11 37.1519 237.696 42.1304 237.696 48.2525C237.696 54.3747 242.11 59.3532 247.531 59.3532C252.952 59.3532 257.374 54.3747 257.374 48.2525C257.374 42.1304 252.959 37.1748 247.531 37.1748V37.1519Z" fill="#1B1A3F"/>
<path d="M247.531 60.2299C253.438 60.2299 258.227 54.8776 258.227 48.2753C258.227 41.673 253.438 36.3208 247.531 36.3208C241.623 36.3208 236.834 41.673 236.834 48.2753C236.834 54.8776 241.623 60.2299 247.531 60.2299Z" fill="white"/>
<path d="M247.531 60.9465C241.241 60.9465 236.095 55.259 236.095 48.2753C236.095 41.2917 241.218 35.6041 247.531 35.6041C253.844 35.6041 258.967 41.2841 258.967 48.2753C258.967 55.2666 253.828 60.9465 247.531 60.9465ZM247.531 37.0375C242.034 37.0375 237.559 42.077 237.559 48.2753C237.559 54.4737 242.034 59.5361 247.531 59.5361C253.028 59.5361 257.511 54.4966 257.511 48.2982C257.511 42.0998 253.035 37.0375 247.531 37.0375Z" fill="#1B1A3F"/>
<path d="M240.868 48.2753C240.868 42.4429 244.603 37.6016 249.551 36.5343C248.887 36.3935 248.21 36.3219 247.531 36.3208C241.63 36.3208 236.857 41.6576 236.857 48.2753C236.857 54.893 241.645 60.2299 247.531 60.2299C248.21 60.2288 248.887 60.1572 249.551 60.0164C244.603 58.9643 240.868 54.1078 240.868 48.2753Z" fill="#FEC562"/>
<path d="M247.531 61.061C241.165 61.061 235.98 55.3124 235.98 48.2525C235.98 41.1926 241.165 35.4441 247.531 35.4441C248.269 35.4442 249.005 35.5209 249.727 35.6728C249.922 35.7102 250.098 35.8144 250.224 35.9674C250.351 36.1205 250.42 36.3129 250.42 36.5115C250.42 36.7101 250.351 36.9024 250.224 37.0555C250.098 37.2086 249.922 37.3127 249.727 37.3501C245.091 38.3412 241.721 42.9233 241.721 48.2525C241.721 53.5818 245.091 58.1638 249.727 59.155C249.922 59.1923 250.098 59.2965 250.224 59.4496C250.351 59.6026 250.42 59.795 250.42 59.9936C250.42 60.1922 250.351 60.3846 250.224 60.5376C250.098 60.6907 249.922 60.7949 249.727 60.8322C249.005 60.9842 248.269 61.0608 247.531 61.061ZM245.396 37.4264C240.997 38.5318 237.696 42.9691 237.696 48.2602C237.696 53.5513 240.997 57.9885 245.396 59.094C243.722 57.8272 242.364 56.1897 241.43 54.31C240.495 52.4303 240.008 50.3595 240.008 48.2602C240.008 46.1608 240.495 44.0901 241.43 42.2103C242.364 40.3306 243.722 38.6931 245.396 37.4264Z" fill="#1B1A3F"/>
<path d="M227.274 80.2126C227.059 80.2186 226.85 80.1436 226.688 80.0024C226.527 79.8613 226.424 79.6643 226.401 79.4508C226.378 79.2373 226.436 79.023 226.564 78.8505C226.692 78.678 226.88 78.56 227.091 78.52C242.545 75.1426 248.568 60.0698 248.621 59.9173C248.717 59.7245 248.88 59.5742 249.081 59.496C249.281 59.4178 249.503 59.4173 249.704 59.4947C249.905 59.5721 250.069 59.7217 250.165 59.9142C250.261 60.1067 250.281 60.3281 250.222 60.5349C249.971 61.1905 243.826 76.614 227.457 80.1897C227.397 80.2047 227.336 80.2124 227.274 80.2126Z" fill="#1B1A3F"/>
<path d="M228.531 80.6166C228.531 81.2198 228.352 81.8094 228.017 82.3109C227.682 82.8124 227.206 83.2033 226.649 83.4341C226.092 83.665 225.478 83.7254 224.887 83.6077C224.295 83.49 223.752 83.1996 223.325 82.7731C222.899 82.3466 222.608 81.8032 222.491 81.2116C222.373 80.62 222.433 80.0069 222.664 79.4496C222.895 78.8924 223.286 78.4161 223.787 78.081C224.289 77.7459 224.879 77.567 225.482 77.567C226.291 77.567 227.066 77.8883 227.638 78.4602C228.21 79.0321 228.531 79.8078 228.531 80.6166Z" fill="#1B1A3F"/>
<path d="M241.371 145.848C241.27 145.846 241.171 145.817 241.085 145.763C241 145.71 240.93 145.635 240.883 145.545C240.836 145.456 240.814 145.355 240.82 145.254C240.825 145.153 240.857 145.056 240.913 144.971L244.436 139.94C244.473 139.871 244.525 139.811 244.587 139.763C244.649 139.715 244.721 139.681 244.797 139.663C244.873 139.645 244.952 139.644 245.029 139.658C245.106 139.673 245.179 139.704 245.243 139.749C245.308 139.793 245.362 139.851 245.402 139.918C245.442 139.985 245.468 140.06 245.477 140.138C245.487 140.216 245.48 140.295 245.457 140.37C245.433 140.444 245.395 140.514 245.343 140.572L241.821 145.612C241.77 145.685 241.703 145.744 241.625 145.785C241.546 145.826 241.459 145.848 241.371 145.848Z" fill="#1B1A3F"/>
<path d="M310.026 200.223C309.903 200.223 309.784 200.182 309.686 200.108C309.588 200.034 309.517 199.93 309.484 199.811C306.229 186.988 260.843 122.191 260.385 121.543C260.304 121.424 260.272 121.278 260.296 121.135C260.32 120.993 260.399 120.866 260.515 120.78C260.633 120.697 260.78 120.664 260.923 120.688C261.066 120.712 261.193 120.792 261.277 120.91C263.153 123.586 307.243 186.53 310.552 199.545C310.586 199.686 310.565 199.836 310.49 199.961C310.416 200.086 310.296 200.178 310.155 200.215C310.113 200.225 310.069 200.227 310.026 200.223Z" fill="#1B1A3F"/>
<path d="M259.47 161.95C259.412 161.961 259.353 161.961 259.295 161.95L247.272 157.887C247.141 157.846 247.032 157.755 246.967 157.635L235.835 138.011C235.776 137.9 235.756 137.772 235.776 137.648C235.797 137.524 235.858 137.41 235.95 137.325L249.559 125.248C249.613 125.198 249.677 125.16 249.746 125.137C249.816 125.113 249.89 125.104 249.963 125.111C250.036 125.115 250.108 125.134 250.173 125.167C250.239 125.2 250.297 125.245 250.344 125.301L255.948 131.843V131.881L267.491 147.975C267.547 148.064 267.577 148.167 267.577 148.273C267.577 148.378 267.547 148.481 267.491 148.57L259.966 161.699C259.914 161.782 259.84 161.849 259.753 161.893C259.665 161.937 259.568 161.957 259.47 161.95ZM247.767 156.911L259.203 160.723L266.355 148.334L255.056 132.537L249.841 126.437L237.01 137.873L247.767 156.911Z" fill="#1B1A3F"/>
<path d="M331.563 193.43C312 142.638 265.608 86.2737 260.385 80.0143C260.179 79.7856 260.08 79.6636 260.08 79.6636L261.414 78.5505L261.712 78.9012C266.957 85.1835 313.555 141.746 333.187 192.805L331.563 193.43Z" fill="#C10B25"/>
<path d="M319.7 197.73C299.718 156.362 255.041 95.3692 246.288 83.6052L247.683 82.5684C256.451 94.3857 301.219 155.439 321.256 196.975L319.7 197.73Z" fill="#C10B25"/>
<path d="M278.141 200.132C255.376 166.959 237.932 119.637 231.49 100.836L233.129 100.271C239.548 119.004 256.931 166.151 279.575 199.148L278.141 200.132Z" fill="#C10B25"/>
<path d="M296.561 201.344C278.492 172.761 247.706 116.717 235.31 93.9055L236.834 93.0745C249.223 115.84 279.987 171.877 298.033 200.414L296.561 201.344Z" fill="#C10B25"/>
<path d="M140.413 158.817C140.413 158.817 137.18 156.865 142.212 152.84C147.244 148.814 160.335 148.311 169.392 148.311C178.449 148.311 196.572 147.808 196.572 147.808C203.502 139.962 208.77 133.269 212.178 128.679C221.373 116.435 224.903 109.809 234.288 101.995C245.724 92.5102 251.175 93.4785 252.914 93.9436C258.174 95.3464 260.949 100.485 261.468 101.491C267.407 113.034 257.656 128.938 250.398 140.755C242.275 153.91 232.065 165.655 220.168 175.529C210.394 178.022 197.235 179.112 181.743 180.416C162.431 182.04 142.936 182.024 142.182 175.483L140.413 158.817Z" fill="white"/>
<path d="M163.064 182.055C149.089 182.055 141.999 179.905 141.503 175.574L139.772 159.198C139.469 158.942 139.219 158.629 139.038 158.275C138.857 157.922 138.749 157.535 138.72 157.139C138.614 155.615 139.658 153.998 141.77 152.283C147.023 148.082 160.068 147.594 169.4 147.594C177.695 147.594 193.797 147.167 196.252 147.099C201.649 140.999 206.818 134.626 211.606 128.252C213.848 125.271 215.777 122.587 217.485 120.216C222.821 112.783 226.679 107.415 233.869 101.453C239.427 96.8788 247.279 91.6944 253.135 93.2573C258.472 94.6754 261.376 99.6768 262.146 101.171C268.246 113.08 258.334 129.296 251.046 141.137C242.878 154.355 232.62 166.16 220.671 176.093C220.588 176.159 220.492 176.208 220.389 176.238C210.669 178.716 197.517 179.821 182.368 181.094L181.842 181.14C174.589 181.75 168.33 182.055 163.064 182.055ZM250.809 94.3781C246.753 94.3781 241.272 97.1609 234.799 102.536C227.747 108.376 223.935 113.682 218.659 121.024C216.943 123.403 215.007 126.102 212.765 129.09C207.894 135.579 202.633 142.051 197.128 148.257C197.064 148.332 196.985 148.393 196.895 148.435C196.806 148.477 196.709 148.499 196.61 148.501C196.427 148.501 178.373 149.005 169.407 149.005C164.147 149.005 148.144 149.005 142.677 153.381C140.504 155.119 140.093 156.316 140.123 157.01C140.139 157.245 140.209 157.474 140.328 157.678C140.447 157.881 140.612 158.055 140.809 158.184C140.9 158.244 140.977 158.322 141.035 158.414C141.093 158.507 141.13 158.61 141.145 158.718L142.929 175.422C143.249 178.212 148.715 182.489 181.712 179.714L182.239 179.669C197.273 178.403 210.272 177.313 219.863 174.888C231.642 165.08 241.757 153.433 249.818 140.397C256.901 128.839 266.591 113.019 260.866 101.834C260.164 100.47 257.503 95.9181 252.761 94.6525C252.124 94.4847 251.468 94.4002 250.809 94.401V94.3781Z" fill="#1B1A3F"/>
<path d="M131.142 158.878L140.252 157.391L142.326 175.536L132.148 175.491L131.142 158.878Z" fill="#1B1A3F"/>
<path d="M142.822 175.994L131.706 175.94L130.646 158.497L140.634 156.865L142.822 175.994ZM132.56 175.041L141.801 175.079L139.856 157.887L131.615 159.236L132.56 175.041Z" fill="#1B1A3F"/>
<path d="M199.591 160.608C199.401 160.608 199.218 160.533 199.084 160.399C198.95 160.264 198.874 160.082 198.874 159.892C198.874 158.321 196.716 150.789 195.885 148.013C195.855 147.923 195.844 147.826 195.851 147.731C195.859 147.635 195.886 147.542 195.93 147.457C195.974 147.372 196.035 147.297 196.109 147.236C196.183 147.175 196.268 147.129 196.36 147.102C196.452 147.074 196.548 147.065 196.643 147.076C196.738 147.086 196.831 147.116 196.914 147.162C196.998 147.209 197.072 147.272 197.131 147.347C197.19 147.423 197.233 147.509 197.258 147.602C197.57 148.646 200.307 157.826 200.307 159.892C200.307 160.082 200.232 160.264 200.097 160.399C199.963 160.533 199.781 160.608 199.591 160.608Z" fill="#1B1A3F"/>
<path d="M222.242 126.216C222.116 126.218 221.995 126.174 221.899 126.094C221.788 126.003 221.717 125.873 221.7 125.731C221.683 125.589 221.721 125.446 221.807 125.332C227.289 118.363 240.806 102.33 240.943 102.17C241.038 102.058 241.172 101.987 241.318 101.975C241.464 101.962 241.609 102.007 241.721 102.101C241.833 102.195 241.904 102.33 241.917 102.476C241.929 102.622 241.884 102.767 241.79 102.879C241.653 103.039 228.143 119.057 222.676 126.018C222.623 126.081 222.556 126.132 222.481 126.166C222.406 126.2 222.324 126.218 222.242 126.216Z" fill="#1B1A3F"/>
<path d="M215.197 132.727C215.049 132.727 214.907 132.67 214.801 132.567C214.705 132.463 214.652 132.327 214.652 132.186C214.652 132.045 214.705 131.909 214.801 131.805L217.324 129.289C217.43 129.217 217.557 129.184 217.684 129.197C217.811 129.209 217.93 129.265 218.02 129.355C218.111 129.445 218.167 129.564 218.179 129.691C218.191 129.818 218.158 129.945 218.087 130.051L215.571 132.567C215.471 132.666 215.337 132.723 215.197 132.727Z" fill="#1B1A3F"/>
<path d="M156.812 177.709C156.677 177.693 156.552 177.628 156.461 177.526C156.371 177.424 156.321 177.293 156.321 177.156C156.321 177.02 156.371 176.889 156.461 176.787C156.552 176.685 156.677 176.62 156.812 176.604C157.155 176.604 191.121 175.757 195.977 174.85C196.048 174.837 196.121 174.838 196.192 174.853C196.263 174.868 196.33 174.897 196.389 174.938C196.449 174.979 196.5 175.032 196.539 175.092C196.578 175.153 196.605 175.221 196.618 175.292C196.632 175.364 196.632 175.438 196.617 175.509C196.603 175.581 196.574 175.649 196.533 175.709C196.492 175.77 196.439 175.821 196.377 175.861C196.316 175.901 196.247 175.928 196.175 175.94C191.22 176.855 158.238 177.679 156.843 177.709H156.812Z" fill="#1B1A3F"/>
<path d="M217.713 169.498C217.595 169.498 217.481 169.461 217.386 169.391C217.291 169.321 217.222 169.222 217.187 169.109C217.165 169.04 217.157 168.967 217.163 168.895C217.17 168.823 217.191 168.753 217.225 168.689C217.259 168.625 217.306 168.568 217.362 168.523C217.418 168.477 217.483 168.443 217.553 168.423C223.858 166.479 239.305 147.434 239.465 147.243C239.557 147.134 239.687 147.065 239.829 147.049C239.971 147.034 240.114 147.073 240.227 147.16C240.337 147.252 240.406 147.383 240.42 147.525C240.434 147.668 240.393 147.81 240.303 147.922C239.663 148.723 224.491 167.424 217.858 169.46C217.812 169.479 217.763 169.492 217.713 169.498Z" fill="#1B1A3F"/>
<path d="M154.616 171.892C149.645 171.892 145.17 171.793 141.655 171.587L141.754 169.849C150.789 170.375 166.205 170.207 180.119 169.422H180.18C202.122 168.187 216.562 165.8 219.779 162.88C226.069 157.162 251.678 121.078 262.398 105.837L263.099 106.333H263.976V106.607L263.816 106.836C253.066 122.13 227.365 158.329 220.946 164.169C216.15 168.522 193.392 170.421 180.248 171.16H180.18C171.633 171.61 162.499 171.892 154.616 171.892Z" fill="#C10B25"/>
<path d="M153.579 159.145C148.014 159.145 143.157 159.061 139.711 158.977L139.749 157.246C152.031 157.536 182.329 157.841 198.454 154.349C201.061 153.881 203.586 153.036 205.949 151.841C215.807 146.153 240.821 108.978 251.121 93.265L252.578 94.218C239.701 113.865 216.63 147.686 206.833 153.343C204.316 154.636 201.621 155.549 198.836 156.049C187.041 158.596 167.981 159.145 153.579 159.145Z" fill="#C10B25"/>
<path d="M258.037 76.0499C257.941 77.7028 257.581 79.3297 256.969 80.8683C255.246 85.0005 251.434 90.2306 238.252 94.2409C237.223 94.5611 236.125 94.8661 234.974 95.1634C233.922 91.9054 232.865 88.6499 231.802 85.397C239.358 81.3715 253.317 72.0472 253.317 72.0472L258.037 76.0499Z" fill="white"/>
<path d="M234.974 95.8801C234.822 95.881 234.674 95.8335 234.55 95.7444C234.427 95.6553 234.335 95.5293 234.288 95.3845L231.315 86.2356L231.124 85.641C231.072 85.481 231.078 85.3078 231.141 85.1517C231.203 84.9956 231.319 84.8665 231.467 84.7871C238.901 80.8225 252.815 71.5669 252.921 71.4754C253.05 71.3872 253.204 71.3439 253.36 71.3522C253.516 71.3605 253.664 71.4199 253.783 71.5212L258.502 75.5314C258.588 75.6036 258.656 75.6951 258.7 75.7985C258.743 75.9019 258.762 76.0142 258.754 76.1261C258.651 77.855 258.273 79.5563 257.633 81.1656C255.864 85.4046 252.083 90.8101 238.466 94.9576C237.445 95.2625 236.331 95.5828 235.15 95.8801H234.974ZM232.687 85.7401L235.455 94.2714C236.37 94.0198 237.246 93.7758 238.047 93.509C251.099 89.5369 254.667 84.4973 256.345 80.5481C256.881 79.1971 257.213 77.7734 257.328 76.3243L253.303 72.9088C250.863 74.5403 239.48 82.0424 232.672 85.7401H232.687Z" fill="#1B1A3F"/>
<path d="M262.52 79.8619C258.265 85.171 252.765 89.3479 246.509 92.0223C243.882 93.121 241.144 93.9363 238.344 94.4544L238.245 94.2409C237.127 91.7394 235.63 89.4251 233.808 87.3792C233.175 86.6707 232.503 85.9987 231.795 85.3665C239.35 81.341 253.31 72.0167 253.31 72.0167L258.029 76.0194L262.52 79.8619Z" fill="white"/>
<path d="M238.351 95.171C238.212 95.167 238.077 95.1252 237.96 95.05C237.843 94.9747 237.749 94.8689 237.688 94.744L237.612 94.561C236.517 92.1296 235.056 89.8799 233.281 87.89C232.665 87.2011 232.011 86.547 231.322 85.9306C231.239 85.8505 231.175 85.7526 231.136 85.6443C231.096 85.536 231.082 85.4201 231.093 85.3054C231.108 85.1919 231.149 85.0836 231.214 84.9894C231.279 84.8952 231.366 84.818 231.467 84.7641C238.9 80.7996 252.814 71.544 252.921 71.4525C253.05 71.3643 253.204 71.321 253.359 71.3292C253.515 71.3375 253.664 71.3969 253.782 71.4982L262.977 79.3129C263.12 79.4343 263.21 79.6069 263.227 79.7936C263.244 79.9803 263.187 80.1663 263.069 80.3117C258.744 85.7083 253.156 89.9557 246.799 92.6779C244.123 93.8027 241.335 94.636 238.481 95.1634L238.351 95.171ZM233.014 85.5494C233.48 85.9992 233.922 86.4567 234.349 86.9293C236.142 88.9395 237.629 91.2027 238.763 93.6461C241.323 93.1316 243.826 92.3655 246.235 91.3589C252.154 88.813 257.381 84.8926 261.483 79.9228L253.241 72.9239C250.908 74.5097 239.869 81.7831 233.022 85.5494H233.014Z" fill="#1B1A3F"/>
<path d="M133.277 85.458H146.012C148.876 85.458 151.206 87.7877 151.206 90.6514V95.6189C151.206 98.2531 149.234 100.435 146.69 100.768V105.366C146.69 105.64 146.525 105.887 146.271 105.991C146.188 106.026 146.1 106.043 146.012 106.043C145.836 106.043 145.663 105.974 145.533 105.845L140.501 100.812H133.277C130.414 100.812 128.084 98.4826 128.084 95.6189V90.6514C128.084 87.7877 130.414 85.458 133.277 85.458ZM129.439 95.6189C129.439 97.7355 131.161 99.4575 133.277 99.4575H140.781C140.961 99.4575 141.133 99.5289 141.26 99.6559L145.335 103.73V100.135C145.335 99.7608 145.638 99.4575 146.012 99.4575C148.129 99.4575 149.851 97.7355 149.851 95.6189V90.6514C149.851 88.5348 148.129 86.8128 146.012 86.8128H133.277C131.161 86.8128 129.439 88.5348 129.439 90.6514V95.6189Z" fill="black"/>
<path d="M136.335 91.2281C136.606 91.2281 136.76 90.9391 136.76 90.6049C136.76 90.3159 136.633 89.9998 136.335 89.9998H133.201C132.894 89.9998 132.587 90.1443 132.587 90.4333V96.1685C132.587 96.4575 132.939 96.602 133.291 96.602C133.644 96.602 133.996 96.4575 133.996 96.1685V93.8382H135.36C135.658 93.8382 135.784 93.5492 135.784 93.3054C135.784 93.0163 135.631 92.7544 135.36 92.7544H133.996V91.2281H136.335V91.2281Z" fill="black"/>
<path d="M140.092 90.4152C139.993 90.0991 139.586 89.9456 139.171 89.9456C138.755 89.9456 138.349 90.0991 138.25 90.4152L136.57 95.9246C136.561 95.9607 136.552 95.9969 136.552 96.024C136.552 96.3581 137.067 96.602 137.455 96.602C137.681 96.602 137.861 96.5297 137.916 96.3401L138.223 95.2111H140.128L140.435 96.3401C140.49 96.5297 140.67 96.602 140.896 96.602C141.284 96.602 141.799 96.3581 141.799 96.024C141.799 95.9969 141.79 95.9607 141.781 95.9246L140.092 90.4152ZM138.512 94.1273L139.171 91.7067L139.83 94.1273H138.512Z" fill="black"/>
<path d="M144.915 89.9998C143.668 89.9998 142.702 90.5688 142.702 92.1312V94.5247C142.702 95.8975 143.452 96.5026 144.481 96.6291V97.153C144.481 97.442 144.698 97.5865 144.915 97.5865C145.132 97.5865 145.348 97.442 145.348 97.153V96.6291C146.378 96.5027 147.137 95.8975 147.137 94.5247V92.1312C147.137 90.5688 146.161 89.9998 144.915 89.9998ZM145.728 94.5247C145.728 94.9401 145.583 95.2021 145.348 95.3375V94.9401C145.348 94.6421 145.132 94.5156 144.915 94.5156C144.698 94.5156 144.481 94.6421 144.481 94.9401V95.3375C144.237 95.2021 144.111 94.9401 144.111 94.5247V92.1312C144.111 91.5171 144.409 91.2281 144.915 91.2281C145.421 91.2281 145.728 91.5171 145.728 92.1312V94.5247Z" fill="black"/>
</svg>
