<svg width="74" height="27" viewBox="0 0 74 27" fill="none" xmlns="http://www.w3.org/2000/svg">
<path d="M35.4727 12.1347H32.8964V9.33176H35.4727V8.11493C35.4727 3.41546 36.8406 3.23083 42.2701 3.23083V5.77359C39.333 5.77359 38.9637 5.93303 38.9637 7.53589V9.32337H42.2701V12.1263H38.9637V22.7169H35.4727V12.1347ZM44.7458 3.19727H48.3459V6.29389H44.7458V3.19727ZM44.7709 9.32337H48.2872V22.7169H44.7709V9.32337Z" fill="#0F0E0E"/>
<path d="M51.9712 9.32332H55.2524L55.3531 11.6395H55.5629C56.2762 9.65061 57.6945 9.11353 59.8512 9.11353V12.4535C56.4105 12.4535 55.4622 13.7123 55.4622 17.3628V22.7168H51.9712V9.32332Z" fill="#0F0E0E"/>
<path d="M61.7142 15.9949C61.7142 10.5821 62.0583 9.11353 67.8571 9.11353C73.6559 9.11353 74 10.5821 74 15.9949C74 21.4077 73.6559 22.9266 67.8571 22.9266C62.0583 22.935 61.7142 21.3993 61.7142 15.9949ZM70.4838 15.9949C70.4838 12.3108 70.4838 11.9248 67.8571 11.9248C65.2305 11.9248 65.2305 12.3192 65.2305 15.9949C65.2305 19.6706 65.2305 20.1153 67.8571 20.1153C70.4838 20.1153 70.4838 19.6706 70.4838 15.9949Z" fill="#0F0E0E"/>
<path d="M13.0578 26.1073C20.2601 26.1073 26.0988 20.2686 26.0988 13.0662C26.0988 5.86382 20.2601 0.0251465 13.0578 0.0251465C5.8554 0.0251465 0.0167236 5.86382 0.0167236 13.0662C0.0167236 20.2686 5.8554 26.1073 13.0578 26.1073Z" fill="#FEFEFE"/>
<path d="M7.67022 18.7895C7.97233 18.7895 8.25766 18.6217 8.39193 18.3531L10.3137 14.7027H7.34294C6.88977 14.7027 6.52892 14.3334 6.52892 13.8886V12.2522C6.52892 11.799 6.89816 11.4382 7.34294 11.4382H12.0424L15.6929 4.52325C15.8356 4.25471 16.1125 4.08687 16.4146 4.08687H22.5659C20.1826 1.56929 16.8174 0 13.0746 0C5.85756 0 0 5.84917 0 13.0746C0 15.1223 0.469948 17.0692 1.31753 18.7979H7.67022V18.7895Z" fill="#9B1C2E"/>
<path d="M18.4623 7.34299C18.1602 7.34299 17.8749 7.51083 17.7406 7.77937L15.8189 11.4299H18.7896C19.2428 11.4299 19.6036 11.7991 19.6036 12.2439V13.8803C19.6036 14.3335 19.2344 14.6943 18.7896 14.6943H14.0901L10.4396 21.6093C10.297 21.8778 10.02 22.0456 9.71793 22.0456H3.56665C5.94996 24.5632 9.31512 26.1325 13.0579 26.1325C20.275 26.1325 26.1325 20.2833 26.1325 13.0579C26.1325 11.0103 25.6626 9.06333 24.815 7.33459H18.4623V7.34299Z" fill="#9B1C2E"/>
</svg>
