<svg width="385" height="404" viewBox="0 0 385 404" fill="none" xmlns="http://www.w3.org/2000/svg">
<path d="M104.623 336.325C97.631 330.279 90.8625 323.95 84.3695 317.371C77.8766 310.792 71.6334 303.946 65.6829 296.867C59.7325 289.797 54.0662 282.495 48.7014 274.969C43.3451 267.468 38.2816 259.752 33.5454 251.847C31.1601 247.869 28.8436 243.847 26.6219 239.774C24.314 235.555 22.0234 231.232 20.9039 226.521C20.6198 225.342 20.4303 224.153 20.3184 222.948C20.2581 222.293 19.2247 222.284 19.285 222.948C19.7156 227.787 21.5756 232.308 23.7629 236.597C25.9157 240.808 28.2666 244.915 30.652 248.988C35.3365 256.997 40.3484 264.825 45.6616 272.428C50.9747 280.049 56.5979 287.464 62.5053 294.637C68.4299 301.827 74.6301 308.785 81.1058 315.485C87.5816 322.185 94.3156 328.617 101.308 334.774C102.169 335.532 103.03 336.281 103.891 337.031C104.391 337.461 105.123 336.738 104.623 336.299V336.316V336.325Z" fill="#1B1A3F"/>
<path d="M37.1708 228.046C34.8629 224.041 32.4345 219.891 28.8436 216.894C27.2161 215.533 25.313 214.345 23.2376 213.794C21.4465 213.32 19.5434 213.294 17.7264 213.639C14.3249 214.285 10.8717 216.463 9.91589 219.968C8.89975 223.731 11.0956 227.21 13.1882 230.138C15.2205 232.98 17.9072 236.209 17.3733 239.955C16.8997 243.245 14.2388 245.707 11.9654 247.886C9.7006 250.048 6.99664 252.338 6.09245 255.464C5.61883 257.092 5.76522 258.857 6.46274 260.398C7.22915 262.095 8.7103 263.378 10.2948 264.308C12.0429 265.333 13.9804 266.013 15.9266 266.564C17.8728 267.115 19.8362 267.529 21.7048 268.329C25.1063 269.785 29.0589 272.635 27.9394 276.855C27.595 278.138 26.9491 279.317 26.6305 280.609C26.3722 281.677 26.286 282.796 26.3894 283.899C26.5961 286.146 27.5089 288.308 29.0245 289.996C32.1245 293.423 37.455 294.155 41.4678 291.976C42.5443 291.391 43.6121 290.607 44.8693 290.486C45.9544 290.374 46.9963 290.771 47.935 291.287C49.9242 292.398 51.612 293.965 53.7993 294.697C57.7605 296.024 62.049 294.715 65.3902 292.441C68.9466 290.013 71.7023 286.474 73.1748 282.426C74.544 278.663 74.9401 274.392 73.9068 270.499C73.4159 268.657 72.572 266.9 71.3578 265.427C69.9628 263.731 68.1113 262.594 66.0791 261.811C63.7109 260.898 61.1534 260.407 58.9058 259.193C57.0285 258.177 55.4441 256.661 54.2815 254.879C53.1362 253.113 52.3612 251.081 52.1201 248.98C51.9995 247.921 51.9909 246.844 52.1373 245.794C52.3009 244.562 52.7143 243.391 53.0587 242.211C53.4118 241.006 53.6873 239.74 53.584 238.474C53.4979 237.475 53.2223 236.519 52.7659 235.632C51.8531 233.807 50.3031 232.368 48.6583 231.189C46.9619 229.975 45.1018 229.019 43.216 228.158C42.6218 227.882 42.0879 228.778 42.6907 229.053C44.6024 229.923 46.4796 230.896 48.1847 232.119C49.7606 233.255 51.2503 234.694 52.034 236.502C52.4043 237.363 52.5851 238.293 52.5679 239.232C52.542 240.549 52.0942 241.807 51.724 243.055C51.0781 245.191 50.8284 247.318 51.1556 249.539C51.7584 253.656 54.1954 257.522 57.7433 259.718C59.81 261.001 62.204 261.578 64.486 262.336C66.6043 263.033 68.6022 263.981 70.1522 265.625C72.7615 268.416 73.5968 272.411 73.3987 276.131C73.192 280.136 71.797 284.062 69.36 287.249C66.8799 290.495 63.2804 293.216 59.2072 294.008C57.3213 294.37 55.3579 294.241 53.5754 293.526C51.4914 292.708 49.8811 291.055 47.8747 290.099C46.893 289.634 45.8252 289.341 44.7315 289.47C43.526 289.608 42.4754 290.211 41.4334 290.805C39.4528 291.942 37.2741 292.458 35.0007 292.08C32.8393 291.718 30.8501 290.641 29.4464 288.936C28.0686 287.257 27.3366 285.053 27.3539 282.891C27.3625 281.72 27.638 280.609 28.0514 279.516C28.4992 278.327 29.0158 277.165 29.1278 275.882C29.2828 274.039 28.5508 272.308 27.3539 270.939C26.088 269.483 24.3743 268.433 22.6348 267.641C20.8006 266.805 18.8975 266.323 16.96 265.798C15.0482 265.281 13.1365 264.678 11.3884 263.748C9.80394 262.913 8.30557 261.776 7.47027 260.157C6.76414 258.771 6.64358 257.135 7.09137 255.662C7.52193 254.25 8.40029 253.018 9.36476 251.925C11.5607 249.419 14.2646 247.404 16.2883 244.734C17.2269 243.494 17.9933 242.082 18.2947 240.541C18.622 238.818 18.3722 237.079 17.7005 235.477C16.2711 232.024 13.4896 229.372 11.7932 226.065C11.0009 224.524 10.4928 222.793 10.7254 221.045C10.9406 219.426 11.8104 218.005 13.0332 216.928C15.6338 214.646 19.595 213.906 22.9018 214.767C27.1127 215.869 30.3506 219.417 32.7532 222.862C34.0276 224.696 35.1557 226.616 36.2666 228.554C36.5938 229.131 37.4894 228.614 37.1622 228.028H37.1708V228.046Z" fill="#1B1A3F"/>
<path d="M385 339.752H0.529297V341.13H385V339.752Z" fill="#1B1A3F"/>
<path d="M379.635 231.18C378.042 237.294 378.232 239.645 371.739 242.039C367.95 243.443 355.394 247.636 343.7 250.857L336.458 247.464L333.435 247.507C333.435 247.507 336.372 250.116 338.611 252.209C337.681 252.442 336.777 252.674 335.881 252.881L330.034 248.739L326.09 248.084C326.09 248.084 328.467 251.107 330.671 254.026C327.726 254.603 325.237 254.922 323.506 254.904C313.965 254.767 306.103 240.997 306.103 240.997C306.103 240.997 303.597 226.099 318.219 218.952L318.271 221.148L320.114 224.704C320.114 224.704 321.138 220.907 322.172 217.368C323.05 217.083 323.98 216.816 324.953 216.575C346.998 211.253 381.237 225.066 379.635 231.172V231.18Z" fill="white"/>
<path d="M323.696 255.533H323.506C313.707 255.395 305.888 241.875 305.56 241.307C305.526 241.247 305.5 241.178 305.483 241.1C305.457 240.945 303.08 225.652 317.952 218.384C318.15 218.289 318.374 218.298 318.564 218.409C318.744 218.521 318.865 218.719 318.874 218.935L318.925 220.984L319.95 222.965C320.346 221.527 320.966 219.305 321.578 217.187C321.638 216.98 321.784 216.825 321.991 216.756C322.904 216.455 323.86 216.188 324.815 215.955C344.268 211.262 372.186 221.045 378.757 227.736C380.04 229.044 380.557 230.259 380.272 231.335C380.092 232.033 379.928 232.687 379.782 233.29C378.619 238.018 378.042 240.394 371.98 242.633C368.07 244.08 355.412 248.291 343.89 251.46C343.743 251.494 343.588 251.486 343.45 251.425L336.337 248.093L335.097 248.11C336.157 249.066 337.75 250.495 339.067 251.735C339.239 251.89 339.308 252.131 339.248 252.364C339.188 252.588 339.016 252.76 338.792 252.82C337.836 253.062 336.923 253.294 336.053 253.492C335.872 253.535 335.683 253.492 335.537 253.389L329.81 249.324L327.614 248.963C328.51 250.125 329.896 251.899 331.196 253.621C331.326 253.802 331.36 254.026 331.283 254.233C331.205 254.439 331.024 254.586 330.809 254.629C327.769 255.223 325.375 255.524 323.705 255.524H323.687L323.696 255.533ZM306.723 240.773C307.455 242.013 314.869 254.138 323.524 254.267C324.953 254.284 326.96 254.06 329.552 253.595C327.562 250.995 325.625 248.506 325.599 248.48C325.444 248.274 325.418 247.989 325.556 247.757C325.685 247.533 325.952 247.412 326.202 247.456L330.146 248.11C330.241 248.127 330.327 248.162 330.404 248.222L336.01 252.2C336.432 252.097 336.871 251.994 337.31 251.882C335.278 250.004 333.031 248.007 333.005 247.981C332.807 247.809 332.738 247.533 332.833 247.283C332.919 247.034 333.16 246.87 333.418 246.87L336.441 246.827C336.535 246.827 336.63 246.844 336.725 246.887L343.752 250.177C355.179 247.016 367.648 242.874 371.515 241.445C376.94 239.438 377.37 237.682 378.516 232.988C378.662 232.377 378.826 231.723 379.015 231.016C379.222 230.25 378.481 229.294 377.827 228.631C371.342 222.026 343.459 212.769 325.1 217.195C324.282 217.393 323.472 217.617 322.688 217.867C321.707 221.268 320.742 224.834 320.725 224.868C320.656 225.126 320.441 225.307 320.183 225.333C319.924 225.359 319.674 225.23 319.554 224.989L317.711 221.432C317.668 221.346 317.642 221.251 317.642 221.157L317.616 219.968C305.19 226.651 306.542 239.447 306.723 240.765V240.782V240.773Z" fill="#1B1A3F"/>
<path d="M297.776 113.144C290.008 115.814 286.943 115.805 284.471 124.46C283.024 129.506 278.831 146.212 275.817 161.695L280.932 170.746L281.173 174.672C281.173 174.672 277.496 171.116 274.568 168.429C274.353 169.652 274.146 170.858 273.965 172.029L279.916 179.193L281.156 184.248C281.156 184.248 276.988 181.467 272.992 178.892C272.544 182.767 272.364 186.022 272.57 188.27C273.69 200.636 292.333 209.454 292.333 209.454C292.333 209.454 311.898 211.228 319.709 191.559L316.858 191.714L312.062 189.682C312.062 189.682 316.884 187.977 321.379 186.289C321.663 185.118 321.913 183.895 322.128 182.604C326.847 153.489 305.552 110.466 297.784 113.136L297.776 113.144Z" fill="white"/>
<path d="M293.625 210.143C292.824 210.143 292.342 210.108 292.281 210.099C292.204 210.099 292.135 210.074 292.066 210.039C291.291 209.669 273.087 200.92 271.95 188.339C271.752 186.177 271.898 182.974 272.372 178.832C272.398 178.616 272.527 178.427 272.734 178.332C272.932 178.238 273.164 178.255 273.354 178.367C275.929 180.029 278.607 181.785 280.157 182.819L279.339 179.486L273.474 172.433C273.362 172.296 273.311 172.106 273.337 171.934C273.517 170.797 273.715 169.618 273.939 168.317C273.982 168.085 274.146 167.895 274.361 167.826C274.585 167.749 274.826 167.801 274.999 167.956C276.893 169.695 279.115 171.805 280.432 173.079L280.303 170.935L275.257 162.014C275.179 161.876 275.154 161.73 275.188 161.583C278.159 146.333 282.37 129.506 283.86 124.305C286.142 116.322 289.13 115.349 295.089 113.394C295.855 113.144 296.682 112.869 297.569 112.567C298.878 112.12 300.436 112.654 302.202 114.143C307.076 118.251 313.25 129.446 317.556 141.992C320.552 150.716 325.203 167.603 322.748 182.75C322.542 184.024 322.292 185.273 321.991 186.479C321.939 186.685 321.793 186.849 321.594 186.926C318.675 188.011 315.601 189.131 313.81 189.777L316.97 191.111L319.674 190.974C319.889 190.974 320.096 191.06 320.225 191.241C320.354 191.422 320.38 191.645 320.303 191.843C316.178 202.229 308.781 206.655 303.295 208.532C299.136 209.962 295.493 210.186 293.616 210.186L293.625 210.143ZM292.514 208.825C293.263 208.868 297.75 209.058 302.951 207.258C310.236 204.743 315.541 199.697 318.753 192.248L316.91 192.343C316.815 192.343 316.72 192.326 316.634 192.291L311.838 190.259C311.597 190.156 311.442 189.915 311.45 189.656C311.45 189.398 311.631 189.165 311.872 189.079C311.915 189.062 316.514 187.434 320.854 185.807C321.112 184.739 321.328 183.62 321.508 182.5C323.911 167.637 319.321 150.974 316.367 142.363C312.131 130.014 306.111 119.052 301.401 115.073C300.436 114.255 299.059 113.368 297.999 113.73L297.793 113.127L297.999 113.73C297.104 114.04 296.277 114.307 295.493 114.565C289.621 116.486 287.192 117.286 285.1 124.623C283.627 129.79 279.468 146.419 276.497 161.566L281.5 170.418C281.543 170.505 281.578 170.599 281.586 170.694L281.827 174.612C281.845 174.871 281.698 175.12 281.457 175.232C281.225 175.344 280.932 175.292 280.751 175.112C280.716 175.077 277.72 172.192 275.016 169.669C274.887 170.418 274.766 171.133 274.663 171.831L280.432 178.78C280.493 178.858 280.544 178.935 280.561 179.038L281.801 184.093C281.862 184.352 281.758 184.619 281.543 184.765C281.328 184.92 281.044 184.92 280.82 184.765C280.785 184.739 277.203 182.345 273.526 179.977C273.147 183.534 273.044 186.306 273.216 188.201C274.249 199.585 291.016 208.084 292.505 208.825H292.514Z" fill="#1B1A3F"/>
<path d="M242.844 289.642C242.362 288.833 243.102 287.533 250.758 275.804C261.315 259.623 278.977 232.541 290.508 206.112C304.424 174.242 304.94 153.239 292.032 143.697L292.824 142.63C306.292 152.593 305.922 174.13 291.722 206.655C280.14 233.169 262.443 260.321 251.869 276.536C247.735 282.874 244.17 288.342 244.058 289.229C244.058 289.229 244.067 289.109 243.989 288.971L242.844 289.651V289.642Z" fill="#1B1A3F"/>
<path d="M244.678 299.485L243.748 298.529C243.955 298.323 264.846 278.008 289.01 259.58C303.218 248.739 315.774 240.661 326.305 235.555C339.618 229.113 349.814 227.417 356.609 230.517L356.057 231.731C344.449 226.435 321.552 236.433 289.828 260.639C265.733 279.025 244.894 299.296 244.678 299.494V299.485Z" fill="#1B1A3F"/>
<path d="M221.643 132.158C217.105 139.013 214.668 140.864 217.966 149.235C219.895 154.117 226.724 169.928 233.742 184.05L243.309 188.123L245.884 191.094C245.884 191.094 240.803 190.517 236.842 190.156C237.419 191.258 237.987 192.343 238.556 193.385L247.641 195.452L251.705 198.707C251.705 198.707 246.711 199.034 241.974 199.422C243.972 202.771 245.815 205.467 247.339 207.129C255.752 216.257 275.912 211.925 275.912 211.925C275.912 211.925 292.514 201.428 286.753 181.071L284.575 182.922L279.528 184.231C279.528 184.231 282.31 179.943 284.859 175.878C284.377 174.776 283.825 173.648 283.214 172.502C269.246 146.522 226.172 125.33 221.626 132.184H221.643V132.158Z" fill="#1B1A3F"/>
<path d="M265.32 213.165C259.051 213.165 251.524 212.02 247.158 207.292C245.703 205.716 243.886 203.107 241.759 199.551L241.552 199.206L241.957 199.172C245.651 198.87 249.544 198.595 251.051 198.5L247.537 195.684L238.392 193.6L238.332 193.497C237.781 192.481 237.204 191.387 236.618 190.259L236.411 189.854L236.868 189.897C239.959 190.173 243.783 190.595 245.273 190.758L243.154 188.33L233.553 184.24L233.518 184.153C226.603 170.246 219.714 154.358 217.725 149.312C214.754 141.777 216.382 139.4 219.955 134.182C220.412 133.51 220.911 132.795 221.428 132.003C222.108 130.97 223.555 130.505 225.725 130.6C232.028 130.884 243.654 135.99 254.659 143.293C262.314 148.373 276.222 158.905 283.447 172.339C284.049 173.467 284.609 174.604 285.1 175.732L285.152 175.852L285.083 175.964C283.094 179.15 280.932 182.5 280.105 183.783L284.471 182.655L286.9 180.58L287.012 180.959C290.008 191.568 286.874 199.473 283.722 204.227C280.304 209.385 276.11 212.071 276.067 212.097L275.981 212.132C275.886 212.149 271.15 213.139 265.328 213.139L265.32 213.165ZM242.396 199.637C244.411 202.986 246.142 205.449 247.52 206.948C255.546 215.654 274.741 211.899 275.808 211.675C276.23 211.4 280.097 208.782 283.292 203.96C286.349 199.344 289.388 191.723 286.616 181.501L284.695 183.137L278.969 184.618L279.322 184.076C279.348 184.033 282.086 179.822 284.575 175.835C284.101 174.758 283.567 173.673 282.99 172.597C275.817 159.258 261.979 148.787 254.366 143.732C243.438 136.472 231.908 131.409 225.69 131.116C223.71 131.03 222.418 131.418 221.841 132.296C221.316 133.088 220.825 133.803 220.369 134.483C216.795 139.702 215.322 141.863 218.19 149.148C220.171 154.169 227.025 169.996 233.923 183.861L243.464 187.925L246.504 191.421L245.858 191.344C245.806 191.344 241.122 190.801 237.281 190.448C237.772 191.387 238.254 192.3 238.728 193.161L247.761 195.219L252.377 198.913L251.731 198.956C251.679 198.956 246.969 199.266 242.405 199.637H242.396Z" fill="#1B1A3F"/>
<path d="M250.362 303.645L249.104 303.197C260.842 269.991 265.604 244.536 267.533 229.036C269.97 209.497 269.307 194.298 265.716 187.348C261.057 178.306 254.237 168.696 254.168 168.601C250.568 163.547 246.667 158.655 242.56 154.066L243.55 153.17C247.692 157.794 251.628 162.729 255.253 167.818C255.322 167.913 262.194 177.609 266.895 186.728C274.017 200.55 270.65 246.224 250.362 303.636V303.645Z" fill="#1B1A3F"/>
<path d="M276.282 290.383L241.854 262.784C238.736 260.286 234.147 261.061 232.02 264.428L202.25 311.61C200.433 314.486 201.07 318.267 203.723 320.394L228.093 339.933C230.736 342.051 234.543 341.862 236.962 339.485L276.79 300.364C279.649 297.556 279.416 292.88 276.29 290.383H276.282Z" fill="white"/>
<path d="M232.269 342.051C230.65 342.051 229.031 341.526 227.688 340.441L203.318 320.902C200.407 318.568 199.71 314.435 201.708 311.283L231.477 264.101C232.588 262.336 234.405 261.139 236.454 260.786C238.504 260.433 240.614 260.993 242.241 262.293L276.669 289.892C278.297 291.193 279.296 293.147 279.399 295.231C279.502 297.315 278.71 299.356 277.212 300.82L237.384 339.941C235.972 341.336 234.112 342.034 232.252 342.034V342.051H232.269ZM237.677 261.957C237.35 261.957 237.005 261.983 236.678 262.043C234.982 262.327 233.483 263.326 232.562 264.782L202.793 311.963C201.148 314.564 201.725 317.982 204.119 319.911L228.489 339.451C230.874 341.371 234.327 341.19 236.515 339.046L276.333 299.925C277.565 298.719 278.228 297.031 278.133 295.309C278.047 293.587 277.22 291.976 275.877 290.9L241.449 263.3C240.364 262.431 239.029 261.966 237.66 261.966L237.677 261.957Z" fill="#1B1A3F"/>
<path d="M274.543 302.749C260.799 293.32 241.587 280.101 228.076 270.62L228.842 269.535C242.336 279.008 261.557 292.235 275.292 301.664L274.543 302.766V302.749Z" fill="#1B1A3F"/>
<path d="M267.688 309.38C262.263 304.755 258.585 302.74 253.944 300.183C249.793 297.901 244.626 295.059 236.635 289.487C231.468 285.879 226.758 282.418 222.625 279.188L223.443 278.138C227.559 281.35 232.252 284.803 237.402 288.394C245.333 293.922 250.456 296.747 254.581 299.012C259.3 301.604 263.02 303.653 268.549 308.364L267.688 309.38Z" fill="#1B1A3F"/>
<path d="M256.7 320.247C250.155 315.373 240.614 308.458 232.355 303.214C225.268 298.719 219.723 296.144 214.358 293.647L213.833 293.406L214.392 292.2L214.918 292.441C220.325 294.947 225.914 297.548 233.07 302.086C241.363 307.347 250.939 314.288 257.501 319.171L256.708 320.239L256.7 320.247Z" fill="#1B1A3F"/>
<path d="M250.284 326.456L249.88 326.094C244.437 321.212 236.988 314.529 231.159 311.309C227.921 309.518 224.821 307.993 221.815 306.521C217.492 304.402 213.411 302.396 209.613 299.924L210.336 298.814C214.065 301.242 218.112 303.223 222.392 305.324C225.406 306.805 228.532 308.338 231.796 310.146C237.763 313.444 245.273 320.187 250.758 325.104L251.163 325.466L250.267 326.456H250.276H250.284Z" fill="#1B1A3F"/>
<path d="M243.817 332.76C242.939 331.873 242.078 330.977 241.277 330.081C232.562 320.385 231.468 320.135 229.057 319.593C227.292 319.197 224.889 318.654 219.103 314.986C214.668 312.17 210.259 308.992 205.996 305.539L206.84 304.497C211.068 307.924 215.434 311.076 219.817 313.858C225.406 317.405 227.688 317.914 229.359 318.292C232.054 318.895 233.277 319.179 242.276 329.186C243.068 330.064 243.903 330.951 244.764 331.812L243.826 332.751L243.817 332.76Z" fill="#1B1A3F"/>
<path d="M262.366 314.848C259.886 313.642 257.104 312.23 254.116 310.637C239.003 302.594 238.34 301.896 236.144 299.58C234.81 298.176 232.803 296.049 225.949 290.926C223.15 288.842 220.739 286.939 218.775 285.285L219.637 284.269C221.583 285.905 223.977 287.791 226.75 289.866C233.699 295.059 235.757 297.238 237.118 298.676C239.201 300.88 239.83 301.543 254.754 309.483C257.724 311.068 260.489 312.471 262.96 313.668L262.383 314.874H262.375L262.366 314.848Z" fill="#1B1A3F"/>
<path d="M240.295 336.368C237.143 334.06 236.764 334.335 236.618 334.439C235.688 335.11 234.879 335.024 230.625 331.382C222.719 324.622 221.402 323.873 214.091 319.713C213.083 319.136 211.972 318.499 210.706 317.776C206.935 315.606 204.102 313.375 202.293 311.154L203.335 310.31C205.032 312.402 207.744 314.521 211.378 316.613C212.635 317.337 213.755 317.974 214.762 318.542C222.168 322.762 223.494 323.511 231.511 330.357C234.792 333.156 235.585 333.423 235.774 333.405C235.774 333.405 235.826 333.371 235.86 333.345C236.773 332.691 237.746 332.811 241.105 335.283L240.312 336.359L240.295 336.368Z" fill="#1B1A3F"/>
<path d="M270.237 212.89L269.444 212.597C269.47 212.519 270.951 208.334 269.41 200.283C267.98 192.808 263.58 180.399 250.74 163.71L251.412 163.194C264.398 180.072 268.833 192.644 270.262 200.222C271.83 208.498 270.305 212.717 270.237 212.89ZM269.84 212.743L269.444 212.597L269.84 212.743Z" fill="white"/>
<path d="M197.075 201.91V212.493C197.075 214.715 196.532 216.756 195.619 218.366C194.388 220.528 192.511 221.914 190.392 221.914H100.722C98.6126 221.914 96.7181 220.528 95.5039 218.366C94.5911 216.756 94.0486 214.715 94.0486 212.493V201.91C94.0486 196.709 97.0367 192.498 100.722 192.498H190.392C194.087 192.498 197.075 196.709 197.075 201.91Z" fill="#C10B25"/>
<path d="M190.401 222.595H100.731C98.4319 222.595 96.3049 221.174 94.9099 218.702C93.8938 216.911 93.3599 214.767 93.3599 212.494V201.91C93.3599 196.339 96.6666 191.809 100.731 191.809H190.401C194.466 191.809 197.764 196.339 197.764 201.91V212.494C197.764 214.776 197.23 216.92 196.222 218.702C194.819 221.182 192.692 222.595 190.401 222.595ZM100.731 193.178C97.4244 193.178 94.7377 197.096 94.7377 201.91V212.494C94.7377 214.5 95.2199 216.463 96.1069 218.031C97.2608 220.063 98.94 221.225 100.731 221.225H190.401C192.192 221.225 193.871 220.063 195.025 218.031C195.904 216.481 196.386 214.509 196.386 212.494V201.91C196.386 197.096 193.699 193.178 190.392 193.178H100.731Z" fill="#1B1A3F"/>
<path d="M197.135 231.326V241.918C197.135 244.467 196.412 246.784 195.241 248.48C194.035 250.246 192.33 251.339 190.453 251.339H100.783C98.9055 251.339 97.209 250.246 95.9948 248.48C94.8237 246.784 94.1003 244.467 94.1003 241.918V231.326C94.1003 229.105 94.6429 227.064 95.5557 225.454C96.7785 223.292 98.6644 221.906 100.774 221.906H190.444C192.562 221.906 194.44 223.292 195.663 225.454C196.575 227.064 197.118 229.105 197.118 231.326H197.135Z" fill="#C10B25"/>
<path d="M190.461 252.028H100.791C98.7331 252.028 96.8386 250.909 95.435 248.876C94.1347 246.999 93.4199 244.528 93.4199 241.927V231.335C93.4199 229.053 93.9538 226.909 94.97 225.126C96.3736 222.646 98.492 221.234 100.791 221.234H190.461C192.76 221.234 194.879 222.655 196.282 225.126C197.299 226.917 197.832 229.062 197.832 231.335V241.927C197.832 244.528 197.118 246.999 195.817 248.876C194.414 250.909 192.511 252.028 190.461 252.028ZM100.791 222.612C99.0001 222.612 97.3122 223.774 96.1669 225.807C95.2886 227.365 94.7977 229.329 94.7977 231.335V241.927C94.7977 244.261 95.4264 246.448 96.5717 248.093C97.7084 249.746 99.2067 250.65 100.791 250.65H190.461C192.046 250.65 193.553 249.738 194.681 248.093C195.817 246.439 196.455 244.252 196.455 241.918V231.327C196.455 229.311 195.972 227.357 195.085 225.798C193.932 223.766 192.252 222.603 190.461 222.603H100.791V222.612Z" fill="#1B1A3F"/>
<path d="M197.135 260.751V271.335C197.135 272.713 196.928 274.039 196.541 275.21C195.904 277.199 194.793 278.809 193.415 279.774C192.528 280.403 191.52 280.747 190.453 280.747H100.783C99.6976 280.747 98.6643 280.385 97.7687 279.731C96.4167 278.766 95.3317 277.165 94.7031 275.21C94.3242 274.022 94.1089 272.713 94.1089 271.335V260.751C94.1089 258.831 94.5136 257.057 95.2111 255.576C96.3995 253.027 98.4576 251.339 100.791 251.339H190.461C192.795 251.339 194.844 253.027 196.041 255.576C196.739 257.057 197.144 258.84 197.144 260.751H197.135Z" fill="#C10B25"/>
<path d="M190.461 281.445H100.791C99.5943 281.445 98.4145 281.048 97.3639 280.299C95.8914 279.24 94.7202 277.518 94.0399 275.425C93.6266 274.134 93.4199 272.756 93.4199 271.335V260.751C93.4199 258.805 93.8246 256.902 94.5824 255.283C95.9344 252.381 98.2595 250.65 100.783 250.65H190.453C192.976 250.65 195.301 252.381 196.653 255.283C197.419 256.911 197.815 258.805 197.815 260.751V271.335C197.815 272.756 197.609 274.134 197.187 275.425C196.506 277.552 195.301 279.292 193.802 280.342C192.778 281.057 191.615 281.436 190.444 281.436L190.461 281.445ZM100.791 252.028C98.8106 252.028 96.9592 253.466 95.8397 255.877C95.168 257.324 94.7977 259.021 94.7977 260.769V271.361C94.7977 272.644 94.9872 273.875 95.3575 275.038C95.9344 276.846 96.9333 278.327 98.1734 279.206C98.9915 279.8 99.8698 280.101 100.8 280.101H190.47C191.365 280.101 192.226 279.817 193.036 279.257C194.293 278.379 195.318 276.881 195.903 275.046C196.274 273.892 196.463 272.661 196.463 271.378V260.786C196.463 259.038 196.11 257.35 195.421 255.895C194.293 253.492 192.442 252.054 190.47 252.054H100.8L100.791 252.028Z" fill="#1B1A3F"/>
<path d="M100.791 221.914H100.731C98.6214 221.914 96.7355 220.528 95.5127 218.366H195.628C194.405 220.528 192.519 221.914 190.41 221.914H190.47C192.58 221.914 194.466 223.301 195.688 225.462H95.573C96.7958 223.301 98.6817 221.914 100.791 221.914Z" fill="#A61F29"/>
<path d="M196.86 226.142H94.3846L94.9615 225.118C95.7796 223.662 96.856 222.577 98.053 221.931C96.8216 221.286 95.7279 220.183 94.8926 218.702L94.3157 217.677H196.791L196.214 218.702C195.396 220.158 194.319 221.243 193.122 221.897C194.354 222.543 195.447 223.645 196.283 225.126L196.86 226.151V226.142ZM96.8474 224.765H194.397C193.312 223.37 191.917 222.595 190.453 222.595H190.392V221.217C191.848 221.217 193.243 220.442 194.336 219.047H96.7871C97.8722 220.442 99.2672 221.217 100.731 221.217H100.791V222.595C99.3361 222.595 97.9411 223.37 96.8474 224.765Z" fill="#1B1A3F"/>
<path d="M100.791 251.331C98.914 251.331 97.2176 250.237 96.0034 248.472H195.258C194.052 250.237 192.347 251.331 190.47 251.331C192.803 251.331 194.853 253.018 196.05 255.567H95.2197C96.4081 253.018 98.4662 251.331 100.8 251.331H100.791Z" fill="#A61F29"/>
<path d="M197.118 256.265H94.1262L94.5826 255.283C95.4351 253.466 96.6666 252.097 98.0874 251.339C97.0885 250.805 96.1843 249.97 95.4265 248.868L94.686 247.791H196.55L195.809 248.868C195.051 249.97 194.147 250.805 193.148 251.339C194.578 252.106 195.8 253.458 196.653 255.283L197.109 256.265H197.118ZM96.3652 254.887H194.879C193.742 253.07 192.149 252.02 190.453 252.02V250.642C191.65 250.642 192.795 250.125 193.777 249.169H97.4588C98.4405 250.134 99.5858 250.642 100.783 250.642V252.02C99.0863 252.02 97.4933 253.07 96.3566 254.887H96.3652Z" fill="#1B1A3F"/>
<path d="M197.075 288.187V298.771C197.075 300.992 196.532 303.033 195.619 304.643C194.397 306.805 192.511 308.191 190.401 308.191H100.722C98.6126 308.191 96.7267 306.805 95.5039 304.643C94.5911 303.033 94.0486 300.992 94.0486 298.771V288.187C94.0486 285.965 94.5911 283.925 95.5039 282.314C96.1153 281.238 96.8817 280.351 97.7601 279.739C98.647 279.111 99.6546 278.766 100.722 278.766H190.392C191.477 278.766 192.511 279.128 193.406 279.782C194.267 280.394 195.017 281.264 195.611 282.314C196.524 283.925 197.066 285.965 197.066 288.187H197.075Z" fill="#C10B25"/>
<path d="M190.401 308.88H100.722C98.4232 308.88 96.3048 307.459 94.9011 304.988C93.885 303.197 93.3511 301.052 93.3511 298.779V288.196C93.3511 285.914 93.885 283.769 94.9011 281.987C95.5556 280.824 96.4081 279.851 97.3726 279.188C98.3973 278.473 99.5598 278.095 100.731 278.095H190.401C191.598 278.095 192.778 278.491 193.82 279.24C194.75 279.903 195.576 280.859 196.222 281.987C197.238 283.769 197.772 285.922 197.772 288.196V298.779C197.772 301.061 197.238 303.205 196.222 304.988C194.819 307.468 192.7 308.88 190.401 308.88ZM100.731 279.455C99.8354 279.455 98.9743 279.739 98.1648 280.299C97.3726 280.85 96.6664 281.66 96.1067 282.65C95.2197 284.209 94.7375 286.172 94.7375 288.187V298.77C94.7375 300.785 95.2197 302.74 96.1067 304.308C97.2606 306.34 98.9398 307.502 100.731 307.502H190.401C192.192 307.502 193.88 306.34 195.025 304.308C195.904 302.749 196.394 300.785 196.394 298.77V288.187C196.394 286.172 195.912 284.217 195.025 282.65C194.474 281.686 193.794 280.885 193.019 280.342C192.201 279.748 191.322 279.447 190.392 279.447H100.731V279.455Z" fill="#1B1A3F"/>
<path d="M197.135 317.612V328.204C197.135 330.753 196.412 333.07 195.241 334.766C194.035 336.531 192.33 337.625 190.453 337.625H100.783C98.9055 337.625 97.209 336.531 95.9948 334.766C94.8237 333.07 94.1003 330.753 94.1003 328.204V317.612C94.1003 315.39 94.6429 313.35 95.5557 311.739C96.7785 309.578 98.6644 308.191 100.774 308.191H190.444C192.562 308.191 194.44 309.578 195.663 311.739C196.575 313.35 197.118 315.39 197.118 317.612H197.135Z" fill="#C10B25"/>
<path d="M190.461 338.297H100.791C98.7331 338.297 96.8386 337.177 95.435 335.145C94.1347 333.268 93.4199 330.796 93.4199 328.195V317.604C93.4199 315.322 93.9538 313.177 94.97 311.395C96.3736 308.915 98.492 307.502 100.791 307.502H190.461C192.76 307.502 194.879 308.923 196.282 311.395C197.299 313.186 197.832 315.33 197.832 317.604V328.195C197.832 330.796 197.118 333.268 195.817 335.145C194.414 337.177 192.511 338.297 190.461 338.297ZM100.791 308.872C99.0001 308.872 97.3122 310.034 96.1669 312.066C95.2886 313.625 94.7977 315.588 94.7977 317.595V328.187C94.7977 330.521 95.4264 332.708 96.5717 334.353C97.7084 336.006 99.2067 336.91 100.791 336.91H190.461C192.046 336.91 193.553 335.997 194.681 334.353C195.817 332.699 196.455 330.503 196.455 328.178V317.586C196.455 315.571 195.972 313.617 195.085 312.058C193.932 310.026 192.252 308.863 190.461 308.863H100.791V308.872Z" fill="#1B1A3F"/>
<path d="M197.144 347.029V357.62C197.144 362.822 194.147 367.033 190.461 367.033H100.783C97.0885 367.033 94.1003 362.822 94.1003 357.62V347.029C94.1003 345.117 94.5051 343.334 95.2026 341.853C96.3996 339.304 98.4491 337.616 100.783 337.616H190.453C192.786 337.616 194.836 339.304 196.033 341.853C196.73 343.334 197.135 345.117 197.135 347.029H197.144Z" fill="#C10B25"/>
<path d="M190.461 367.73H100.791C96.7266 367.73 93.4285 363.201 93.4285 357.629V347.037C93.4285 345.091 93.8332 343.196 94.591 341.569C95.9516 338.667 98.268 336.927 100.791 336.927H190.461C192.984 336.927 195.309 338.658 196.661 341.569C197.428 343.196 197.824 345.091 197.824 347.037V357.629C197.824 363.201 194.517 367.73 190.452 367.73H190.461ZM100.791 338.305C98.8106 338.305 96.9591 339.743 95.8396 342.154C95.168 343.601 94.8063 345.289 94.8063 347.037V357.629C94.8063 362.443 97.493 366.361 100.8 366.361H190.47C193.776 366.361 196.463 362.443 196.463 357.629V347.037C196.463 345.289 196.11 343.601 195.421 342.154C194.293 339.752 192.442 338.305 190.47 338.305H100.8H100.791Z" fill="#1B1A3F"/>
<path d="M100.791 308.191H100.731C98.6214 308.191 96.7355 306.805 95.5127 304.643H195.628C194.405 306.805 192.519 308.191 190.41 308.191H190.47C192.58 308.191 194.466 309.578 195.688 311.739H95.573C96.7958 309.578 98.6817 308.191 100.791 308.191Z" fill="#A61F29"/>
<path d="M196.86 312.428H94.3846L94.9615 311.403C95.7796 309.948 96.856 308.863 98.053 308.217C96.8216 307.571 95.7279 306.469 94.8926 304.988L94.3157 303.963H196.791L196.214 304.988C195.396 306.443 194.319 307.528 193.122 308.174C194.354 308.82 195.447 309.922 196.283 311.403L196.86 312.428ZM96.8474 311.05H194.397C193.312 309.655 191.917 308.88 190.453 308.88H190.392V307.502C191.848 307.502 193.243 306.727 194.336 305.332H96.7871C97.8722 306.727 99.2672 307.502 100.731 307.502H100.791V308.88C99.3361 308.88 97.9411 309.655 96.8474 311.05Z" fill="#1B1A3F"/>
<path d="M195.619 282.314H95.5038C96.1152 281.238 96.8816 280.351 97.76 279.739C96.408 278.775 95.323 277.173 94.6943 275.219H196.541C195.903 277.208 194.793 278.818 193.415 279.783C194.276 280.394 195.025 281.264 195.619 282.314Z" fill="#A61F29"/>
<path d="M196.799 283.003H94.3241L94.9011 281.978C95.3919 281.109 95.9947 280.342 96.675 279.739C95.5297 278.68 94.6083 277.182 94.0486 275.434L93.7644 274.538H197.497L197.212 275.434C196.635 277.216 195.697 278.732 194.517 279.791C195.163 280.394 195.749 281.135 196.222 281.978L196.799 283.003ZM96.787 281.625H194.336C193.94 281.117 193.492 280.687 193.019 280.342L192.226 279.774L193.019 279.214C194.061 278.482 194.948 277.328 195.55 275.907H95.6847C96.2789 277.311 97.1401 278.448 98.1648 279.18L98.957 279.748L98.1648 280.299C97.6653 280.644 97.2089 281.091 96.787 281.625Z" fill="#1B1A3F"/>
<path d="M100.791 337.608C98.914 337.608 97.2176 336.514 96.0034 334.749H195.258C194.052 336.514 192.347 337.608 190.47 337.608C192.803 337.608 194.853 339.295 196.05 341.844H95.2197C96.4081 339.295 98.4662 337.608 100.8 337.608H100.791Z" fill="#A61F29"/>
<path d="M197.118 342.542H94.1262L94.5826 341.56C95.4351 339.743 96.6666 338.374 98.0874 337.616C97.0885 337.082 96.1843 336.247 95.4265 335.145L94.686 334.068H196.55L195.809 335.145C195.051 336.247 194.147 337.082 193.148 337.616C194.578 338.383 195.8 339.735 196.653 341.56L197.109 342.542H197.118ZM96.3652 341.164H194.879C193.742 339.347 192.149 338.297 190.453 338.297V336.919C191.65 336.919 192.795 336.402 193.777 335.446H97.4588C98.4405 336.411 99.5858 336.919 100.783 336.919V338.297C99.0863 338.297 97.4933 339.347 96.3566 341.164H96.3652Z" fill="#1B1A3F"/>
<g opacity="0.29">
<path opacity="0.29" d="M134.634 192.489H113.864V367.041H134.634V192.489Z" fill="#A61F29"/>
<path opacity="0.29" d="M135.323 367.73H113.183V191.8H135.323V367.722V367.73ZM114.552 366.361H133.945V193.178H114.552V366.352V366.361Z" fill="#1B1A3F"/>
</g>
<g opacity="0.22">
<path opacity="0.22" d="M176.968 192.489H155V367.041H176.968V192.489Z" fill="white"/>
<path opacity="0.22" d="M176.967 367.567H155C154.707 367.567 154.466 367.334 154.466 367.041V192.489C154.466 192.197 154.698 191.955 155 191.955H176.967C177.26 191.955 177.493 192.188 177.493 192.489V367.041C177.493 367.334 177.26 367.567 176.967 367.567ZM155.534 366.499H176.433V193.023H155.534V366.507V366.499Z" fill="#1B1A3F"/>
</g>
<path d="M281.586 265.772V275.856C281.586 277.173 281.38 278.431 281.018 279.559C280.415 281.445 279.347 282.986 278.039 283.907C277.195 284.502 276.23 284.837 275.223 284.837H189.789C188.748 284.837 187.774 284.484 186.913 283.873C185.622 282.951 184.588 281.419 183.994 279.559C183.632 278.431 183.434 277.173 183.434 275.856V265.772C183.434 263.955 183.813 262.25 184.476 260.838C185.613 258.409 187.568 256.799 189.789 256.799H275.223C277.444 256.799 279.408 258.401 280.536 260.838C281.199 262.25 281.586 263.955 281.586 265.772Z" fill="#C61926"/>
<path d="M275.223 285.518H189.79C188.644 285.518 187.508 285.139 186.509 284.424C185.105 283.416 183.977 281.763 183.331 279.774C182.935 278.542 182.737 277.234 182.737 275.864V265.78C182.737 263.912 183.116 262.103 183.848 260.553C185.148 257.781 187.37 256.119 189.79 256.119H275.223C277.651 256.119 279.873 257.772 281.164 260.553C281.888 262.112 282.275 263.92 282.275 265.78V275.864C282.275 277.225 282.069 278.542 281.673 279.774C281.027 281.798 279.873 283.477 278.435 284.476C277.453 285.165 276.342 285.526 275.223 285.526V285.518ZM189.79 257.479C187.921 257.479 186.164 258.84 185.096 261.122C184.45 262.5 184.115 264.101 184.115 265.772V275.856C184.115 277.079 184.295 278.25 184.64 279.343C185.191 281.057 186.138 282.461 187.309 283.305C188.084 283.864 188.92 284.148 189.79 284.148H275.223C276.067 284.148 276.885 283.881 277.651 283.348C278.848 282.512 279.812 281.091 280.372 279.352C280.725 278.25 280.906 277.079 280.906 275.864V265.78C280.906 264.127 280.562 262.517 279.916 261.13C278.857 258.848 277.1 257.488 275.223 257.488H189.79V257.479Z" fill="#1B1A3F"/>
<path d="M281.535 291.907V301.991C281.535 304.11 281.018 306.056 280.148 307.589C278.986 309.655 277.186 310.973 275.171 310.973H189.738C187.723 310.973 185.932 309.655 184.76 307.589C183.891 306.056 183.374 304.11 183.374 301.991V291.907C183.374 289.798 183.891 287.843 184.76 286.31C185.337 285.285 186.078 284.441 186.922 283.856C187.766 283.262 188.73 282.926 189.746 282.926H275.18C276.213 282.926 277.195 283.279 278.056 283.89C278.874 284.476 279.589 285.302 280.148 286.301C281.018 287.834 281.535 289.78 281.535 291.899V291.907Z" fill="#C61926"/>
<path d="M275.162 311.653H189.729C187.525 311.653 185.492 310.292 184.149 307.924C183.185 306.219 182.668 304.17 182.668 301.991V291.907C182.668 289.729 183.176 287.679 184.149 285.974C184.778 284.863 185.596 283.933 186.509 283.296C187.49 282.607 188.601 282.245 189.721 282.245H275.154C276.299 282.245 277.436 282.624 278.435 283.339C279.322 283.976 280.114 284.889 280.734 285.965C281.698 287.67 282.206 289.72 282.206 291.899V301.983C282.206 304.161 281.698 306.211 280.734 307.916C279.391 310.284 277.358 311.644 275.154 311.644L275.162 311.653ZM189.729 283.623C188.885 283.623 188.067 283.89 187.301 284.424C186.552 284.949 185.88 285.716 185.346 286.654C184.511 288.127 184.046 289.996 184.046 291.907V301.991C184.046 303.903 184.502 305.772 185.346 307.244C186.431 309.173 188.033 310.275 189.729 310.275H275.162C276.859 310.275 278.452 309.164 279.537 307.244C280.381 305.772 280.837 303.903 280.837 301.991V291.907C280.837 289.996 280.381 288.136 279.537 286.654C279.02 285.733 278.366 284.975 277.642 284.467C276.867 283.907 276.032 283.623 275.162 283.623H189.729Z" fill="#1B1A3F"/>
<path d="M281.586 319.946V330.03C281.586 332.458 280.898 334.663 279.787 336.281C278.633 337.961 277.014 339.003 275.223 339.003H189.79C187.998 339.003 186.379 337.961 185.226 336.281C184.115 334.663 183.426 332.458 183.426 330.03V319.946C183.426 317.836 183.942 315.881 184.812 314.348C185.975 312.282 187.775 310.964 189.79 310.964H275.223C277.238 310.964 279.029 312.282 280.2 314.348C281.07 315.881 281.586 317.827 281.586 319.946Z" fill="#C61926"/>
<path d="M275.223 339.692H189.79C187.818 339.692 186.001 338.624 184.657 336.669C183.417 334.878 182.737 332.51 182.737 330.03V319.946C182.737 317.767 183.245 315.718 184.209 314.013C185.553 311.645 187.585 310.284 189.79 310.284H275.223C277.427 310.284 279.459 311.645 280.803 314.013C281.767 315.718 282.275 317.767 282.275 319.946V330.03C282.275 332.518 281.595 334.878 280.355 336.678C279.02 338.624 277.186 339.7 275.223 339.7V339.692ZM189.79 311.653C188.093 311.653 186.5 312.764 185.406 314.684C184.571 316.157 184.106 318.026 184.106 319.937V330.021C184.106 332.234 184.7 334.31 185.785 335.885C186.862 337.444 188.283 338.314 189.781 338.314H275.214C276.712 338.314 278.133 337.453 279.21 335.885C280.295 334.31 280.889 332.234 280.889 330.021V319.937C280.889 318.026 280.432 316.165 279.589 314.684C278.504 312.755 276.902 311.653 275.214 311.653H189.772H189.79Z" fill="#1B1A3F"/>
<path d="M281.586 347.976V358.06C281.586 363.011 278.736 367.033 275.223 367.033H189.79C186.276 367.033 183.426 363.011 183.426 358.06V347.976C183.426 346.15 183.805 344.462 184.468 343.041C185.604 340.604 187.559 338.994 189.781 338.994H275.214C277.436 338.994 279.391 340.596 280.527 343.041C281.19 344.454 281.578 346.15 281.578 347.976H281.586Z" fill="#C61926"/>
<path d="M275.223 367.73H189.789C185.897 367.73 182.745 363.39 182.745 358.068V347.984C182.745 346.116 183.124 344.316 183.856 342.766C185.157 339.993 187.378 338.331 189.798 338.331H275.231C277.651 338.331 279.873 339.993 281.173 342.766C281.905 344.325 282.284 346.133 282.284 347.984V358.068C282.284 363.399 279.123 367.73 275.231 367.73H275.223ZM189.789 339.7C187.921 339.7 186.164 341.061 185.096 343.343C184.45 344.721 184.115 346.322 184.115 347.984V358.068C184.115 362.641 186.664 366.352 189.789 366.352H275.223C278.357 366.352 280.906 362.632 280.906 358.068V347.984C280.906 346.331 280.562 344.721 279.916 343.343C278.857 341.061 277.1 339.7 275.223 339.7H189.789Z" fill="#1B1A3F"/>
<path d="M189.79 310.964H189.729C187.714 310.964 185.923 309.647 184.752 307.58H280.148C278.986 309.647 277.186 310.964 275.171 310.964H275.231C277.246 310.964 279.038 312.282 280.209 314.348H184.821C185.983 312.282 187.783 310.964 189.798 310.964H189.79Z" fill="#A1141E"/>
<path d="M281.38 315.037H183.632L184.209 314.013C184.984 312.643 185.983 311.61 187.12 310.99C185.958 310.37 184.933 309.319 184.158 307.933L183.581 306.908H281.328L280.751 307.933C279.976 309.302 278.977 310.336 277.841 310.956C279.003 311.584 280.028 312.626 280.811 314.013L281.388 315.037H281.38ZM186.095 313.659H278.908C277.884 312.376 276.583 311.653 275.223 311.653H275.162V310.275C276.523 310.275 277.823 309.552 278.848 308.269H186.035C187.06 309.552 188.36 310.275 189.721 310.275H189.781V311.653C188.42 311.653 187.12 312.368 186.095 313.659Z" fill="#1B1A3F"/>
<path d="M280.148 286.319H184.76C185.337 285.294 186.078 284.45 186.922 283.864C185.639 282.943 184.597 281.419 184.003 279.55H281.044C280.441 281.445 279.373 282.977 278.064 283.899C278.882 284.484 279.597 285.311 280.157 286.31L280.148 286.319Z" fill="#A1141E"/>
<path d="M281.32 287.007H183.572L184.149 285.983C184.614 285.165 185.182 284.441 185.82 283.864C184.735 282.857 183.865 281.436 183.331 279.774L183.047 278.878H281.974L281.69 279.774C281.147 281.462 280.26 282.908 279.141 283.916C279.752 284.484 280.303 285.182 280.743 285.983L281.32 287.007ZM186.044 285.63H278.848C278.478 285.173 278.073 284.777 277.642 284.467L276.85 283.899L277.642 283.339C278.624 282.659 279.451 281.574 280.019 280.247H184.967C185.536 281.556 186.345 282.624 187.301 283.313L188.093 283.881L187.301 284.433C186.853 284.751 186.423 285.156 186.044 285.638V285.63Z" fill="#1B1A3F"/>
<path d="M189.79 339.003C187.998 339.003 186.379 337.961 185.226 336.281H279.787C278.633 337.961 277.014 339.003 275.223 339.003C277.444 339.003 279.399 340.604 280.536 343.05H184.468C185.604 340.622 187.559 339.003 189.781 339.003H189.79Z" fill="#A1141E"/>
<path d="M281.621 343.73H183.391L183.848 342.749C184.648 341.026 185.811 339.735 187.154 339.003C186.216 338.495 185.372 337.702 184.657 336.669L183.908 335.593H281.087L280.346 336.669C279.631 337.702 278.788 338.486 277.849 339.003C279.192 339.735 280.346 341.026 281.156 342.749L281.612 343.73H281.621ZM185.63 342.352H279.382C278.314 340.665 276.807 339.692 275.222 339.692V338.314C276.333 338.314 277.393 337.84 278.314 336.97H186.706C187.628 337.84 188.687 338.314 189.798 338.314V339.692C188.213 339.692 186.706 340.673 185.639 342.352H185.63Z" fill="#1B1A3F"/>
<g opacity="0.29">
<path opacity="0.29" d="M222.039 256.799H202.25V367.041H222.039V256.799Z" fill="#A1141E"/>
<path opacity="0.29" d="M222.719 367.73H201.552V256.119H222.719V367.73ZM202.93 366.352H221.341V257.488H202.93V366.352Z" fill="#1B1A3F"/>
</g>
<g opacity="0.22">
<path opacity="0.22" d="M262.366 256.799H241.44V367.041H262.366V256.799Z" fill="white"/>
<path opacity="0.22" d="M262.366 367.566H241.44C241.148 367.566 240.906 367.334 240.906 367.033V256.79C240.906 256.497 241.139 256.265 241.44 256.265H262.366C262.659 256.265 262.891 256.497 262.891 256.79V367.033C262.891 367.325 262.659 367.566 262.366 367.566ZM241.966 366.499H261.832V257.324H241.966V366.499Z" fill="#1B1A3F"/>
</g>
<path d="M104.503 380.38H13.6704V381.758H104.503V380.38Z" fill="#1B1A3F"/>
<path d="M320.776 367.601H228.781V368.979H320.776V367.601Z" fill="#1B1A3F"/>
<path d="M270.891 401.633H231.503V403.011H270.891V401.633Z" fill="#1B1A3F"/>
<path d="M90.0677 71.2071C90.0677 75.7625 87.4671 79.8874 83.4456 81.713C82.9203 81.9541 82.3175 81.7044 82.085 81.1618C81.8611 80.6193 82.0936 79.9907 82.6189 79.7496C85.8912 78.2684 88.001 74.91 88.001 71.2071C88.001 68.2707 86.6748 65.5581 84.4961 63.8186L85.2023 67.4784C85.3142 68.0554 84.9525 68.6237 84.3928 68.7357C83.8331 68.8476 83.2906 68.4773 83.1786 67.8918L82.0333 61.8897C81.9816 61.6141 82.0333 61.3213 82.1883 61.0888C82.3433 60.8563 82.5758 60.6927 82.8428 60.6324L88.621 59.4354C88.6899 59.4182 88.7588 59.4182 88.8276 59.4182C89.3099 59.4182 89.7404 59.7713 89.8352 60.2793C89.9471 60.8563 89.5854 61.4247 89.0257 61.5366L85.8567 62.1911C88.4832 64.3353 90.0763 67.642 90.0763 71.2071H90.0677Z" fill="#1B1A3F"/>
<path d="M10.6835 73.3514C10.7524 73.3341 10.8213 73.3341 10.8902 73.3341C11.3724 73.3341 11.803 73.6872 11.8977 74.1953L13.0516 80.1974C13.1636 80.7743 12.8019 81.3427 12.2421 81.4546L6.46393 82.6516C5.90419 82.7636 5.36168 82.3933 5.24973 81.8077C5.13778 81.2307 5.49946 80.6624 6.0592 80.5505L9.22817 79.896C6.60171 77.7432 5 74.4364 5 70.8799C5 66.3245 7.60063 62.1997 11.6221 60.3741C11.7599 60.3138 11.8977 60.288 12.0355 60.288C12.4316 60.288 12.8105 60.5291 12.9827 60.9338C13.2066 61.4763 12.9741 62.105 12.4488 62.3461C9.1765 63.8272 7.06672 67.1856 7.06672 70.8885C7.06672 73.8164 8.40148 76.5376 10.5715 78.2771L9.87402 74.6172C9.76207 74.0403 10.1237 73.4719 10.6835 73.36V73.3514Z" fill="#1B1A3F"/>
<path d="M69.6785 71.2159C69.6182 74.4968 68.8604 77.6055 67.5343 80.3869C66.8798 81.7734 66.0789 83.0823 65.1661 84.2879C64.2706 85.4676 63.2716 86.5527 62.1608 87.5343C60.7227 88.8088 59.121 89.9025 57.3901 90.7722C54.6689 92.15 51.6205 92.9853 48.4085 93.1317C47.9176 93.1576 47.4182 93.1662 46.9187 93.1489C43.8531 93.0887 40.951 92.4256 38.3074 91.2544C36.8176 90.6 35.414 89.7819 34.1136 88.826C28.456 84.6754 24.8306 77.9241 24.9684 70.3719C25.0115 67.9952 25.4248 65.7132 26.1568 63.569C27.1729 60.5722 28.8091 57.8683 30.9102 55.5949L30.9361 55.569C32.245 54.1654 33.7175 52.9254 35.3451 51.892C37.8423 50.2989 40.6755 49.1967 43.7067 48.7058C45.0156 48.4905 46.3676 48.3958 47.7454 48.4216C60.0941 48.6541 69.9196 58.8414 69.6957 71.19L69.6785 71.2159Z" fill="white"/>
<path d="M47.3234 93.7H46.8928C43.8272 93.6397 40.8649 92.9938 38.0834 91.7624C36.5678 91.0907 35.1211 90.264 33.795 89.2824C27.8015 84.882 24.2966 77.8207 24.4258 70.3891C24.4689 68.0037 24.8736 65.6614 25.6314 63.4311C26.6734 60.3913 28.3095 57.6357 30.5054 55.2676L30.5313 55.2417C31.866 53.8036 33.3816 52.5378 35.035 51.4872C37.6614 49.8166 40.5376 48.7143 43.5947 48.2235C44.9466 47.9996 46.3417 47.8962 47.7281 47.9307C60.3437 48.1632 70.4276 58.6174 70.1951 71.2416C70.1348 74.5225 69.3942 77.6829 67.9992 80.6279C67.3275 82.0316 66.5181 83.375 65.5708 84.6236C64.658 85.8292 63.6246 86.9487 62.4966 87.9476C61.0154 89.2565 59.3706 90.376 57.6139 91.263C54.7377 92.7183 51.6463 93.5277 48.417 93.6827C48.0553 93.7 47.685 93.7086 47.3148 93.7086L47.3234 93.7ZM47.3234 48.9727C46.135 48.9727 44.9466 49.0674 43.7841 49.2568C40.8649 49.7305 38.1265 50.781 35.6206 52.3741C34.0447 53.3817 32.598 54.5873 31.3149 55.9565C29.2051 58.2385 27.6378 60.8649 26.6475 63.7583C25.9242 65.8939 25.5367 68.1243 25.4936 70.3891C25.3645 77.4762 28.7057 84.2017 34.4236 88.404C35.6981 89.3426 37.0759 90.1349 38.514 90.7721C41.1663 91.9433 43.9908 92.5633 46.91 92.6149C47.3923 92.6149 47.8831 92.6149 48.3653 92.5977C51.4396 92.4513 54.3933 91.6763 57.1317 90.2899C58.8109 89.446 60.3782 88.3782 61.7904 87.1295C62.8668 86.1737 63.8571 85.1059 64.7269 83.9605C65.6225 82.7722 66.4061 81.4891 67.0347 80.1457C68.3695 77.3384 69.0756 74.3244 69.1273 71.1899C69.3512 59.1599 59.7409 49.1879 47.7023 48.964H47.3062L47.3234 48.9727Z" fill="#1B1A3F"/>
<path d="M59.7153 83.2029C66.5613 76.3569 66.5613 65.2568 59.7153 58.4022C52.8692 51.5562 41.7692 51.5562 34.9146 58.4022C28.06 65.2482 28.0686 76.3483 34.9146 83.2029C41.7606 90.0489 52.8606 90.0489 59.7153 83.2029Z" fill="white"/>
<path d="M43.5767 74.6612C43.7964 74.6612 44.0039 74.5392 44.1015 74.3439L45.4987 71.6898H43.3388C43.0093 71.6898 42.7469 71.4213 42.7469 71.0979V69.9082C42.7469 69.5787 43.0154 69.3163 43.3388 69.3163H46.7556L49.4098 64.2887C49.5135 64.0934 49.7148 63.9714 49.9345 63.9714H54.4069C52.6741 62.141 50.2274 61 47.5061 61C42.2588 61 38 65.2527 38 70.5061C38 71.9949 38.3417 73.4104 38.9579 74.6673H43.5767V74.6612Z" fill="#1B1A3F"/>
<path d="M51.4234 66.3389C51.2037 66.3389 50.9963 66.4609 50.8987 66.6561L49.5014 69.3103H51.6613C51.9908 69.3103 52.2532 69.5787 52.2532 69.9021V71.0919C52.2532 71.4214 51.9847 71.6838 51.6613 71.6838H48.2445L45.5904 76.7114C45.4866 76.9066 45.2853 77.0287 45.0656 77.0287H40.5933C42.3261 78.8591 44.7728 80.0001 47.494 80.0001C52.7413 80.0001 57.0001 75.7473 57.0001 70.494C57.0001 69.0052 56.6584 67.5897 56.0422 66.3328H51.4234V66.3389Z" fill="#1B1A3F"/>
<path d="M47.3235 88.869H46.9877C37.0244 88.6882 29.0761 80.4299 29.2569 70.4752C29.4378 60.6238 37.5066 52.7358 47.3149 52.7358H47.6508C57.6141 52.9167 65.5623 61.175 65.3815 71.1297C65.2007 80.981 57.1318 88.869 47.3235 88.869ZM47.3235 53.8036C38.0922 53.8036 30.497 61.2266 30.3333 70.501C30.1611 79.8702 37.6444 87.6376 47.0221 87.8098H47.3407C56.5721 87.8098 64.1673 80.3869 64.3309 71.1124C64.5032 61.7433 57.0113 53.9759 47.6421 53.8036H47.3235Z" fill="#1B1A3F"/>
<path d="M302.219 0.533936H219.619C214.099 0.533936 209.621 5.01183 209.621 10.5317V68.8219C209.621 74.3417 214.099 78.8196 219.619 78.8196H302.219C307.739 78.8196 312.217 74.3417 312.217 68.8219V10.5403C312.217 5.02044 307.739 0.542547 302.219 0.542547V0.533936Z" fill="white"/>
<path d="M306.818 79.3535H215.021C211.748 79.3535 209.079 76.684 209.079 73.4117V5.94183C209.079 2.66952 211.74 0 215.021 0H306.818C310.09 0 312.759 2.66952 312.759 5.94183V73.4117C312.759 76.684 310.099 79.3535 306.818 79.3535ZM215.021 1.0592C212.334 1.0592 210.147 3.24648 210.147 5.93321V73.4117C210.147 76.0984 212.334 78.2857 215.021 78.2857H306.818C309.504 78.2857 311.692 76.0984 311.692 73.4117V5.94183C311.692 3.25509 309.504 1.06781 306.818 1.06781H215.021V1.0592Z" fill="#1B1A3F"/>
<path d="M258.896 18.9709H220.575C219.482 18.9709 218.586 18.0839 218.586 16.9817C218.586 15.8794 219.482 14.9924 220.575 14.9924H258.896C259.989 14.9924 260.885 15.8794 260.885 16.9817C260.885 18.0839 259.989 18.9709 258.896 18.9709Z" fill="#1B1A3F"/>
<path d="M258.895 19.3324H220.566C219.266 19.3324 218.215 18.2732 218.215 16.9815C218.215 15.6898 219.275 14.6306 220.566 14.6306H258.895C260.196 14.6306 261.246 15.6898 261.246 16.9815C261.246 18.2732 260.187 19.3324 258.895 19.3324ZM220.566 15.3626C219.671 15.3626 218.947 16.0859 218.947 16.9815C218.947 17.8771 219.671 18.6004 220.566 18.6004H258.895C259.791 18.6004 260.514 17.8771 260.514 16.9815C260.514 16.0859 259.791 15.3626 258.895 15.3626H220.566Z" fill="#1B1A3F"/>
<path d="M258.896 27.3755H220.575C219.482 27.3755 218.586 26.48 218.586 25.3863C218.586 24.2927 219.482 23.3971 220.575 23.3971H258.896C259.989 23.3971 260.885 24.2927 260.885 25.3863C260.885 26.48 259.989 27.3755 258.896 27.3755Z" fill="#1B1A3F"/>
<path d="M258.895 27.7372H220.566C219.266 27.7372 218.215 26.678 218.215 25.3863C218.215 24.0946 219.275 23.0354 220.566 23.0354H258.895C260.196 23.0354 261.246 24.0946 261.246 25.3863C261.246 26.678 260.187 27.7372 258.895 27.7372ZM220.566 23.7674C219.671 23.7674 218.947 24.4907 218.947 25.3863C218.947 26.2819 219.671 27.0052 220.566 27.0052H258.895C259.791 27.0052 260.514 26.2819 260.514 25.3863C260.514 24.4907 259.791 23.7674 258.895 23.7674H220.566Z" fill="#1B1A3F"/>
<path d="M258.896 35.7801H220.575C219.482 35.7801 218.586 34.8845 218.586 33.7909C218.586 32.6972 219.482 31.8016 220.575 31.8016H258.896C259.989 31.8016 260.885 32.6972 260.885 33.7909C260.885 34.8845 259.989 35.7801 258.896 35.7801Z" fill="#1B1A3F"/>
<path d="M258.895 36.1419H220.566C219.266 36.1419 218.215 35.0827 218.215 33.791C218.215 32.4993 219.275 31.4401 220.566 31.4401H258.895C260.196 31.4401 261.246 32.4993 261.246 33.791C261.246 35.0827 260.187 36.1419 258.895 36.1419ZM220.566 32.172C219.671 32.172 218.947 32.8954 218.947 33.791C218.947 34.6865 219.671 35.4099 220.566 35.4099H258.895C259.791 35.4099 260.514 34.6865 260.514 33.791C260.514 32.8954 259.791 32.172 258.895 32.172H220.566Z" fill="#1B1A3F"/>
<path d="M239.856 67.4957C239.744 67.4957 239.632 67.4957 239.529 67.4871C235.903 67.1857 233.699 64.9123 231.554 62.7078C229.445 60.5377 227.257 58.2988 223.46 57.4807C217.802 56.2751 211.189 58.9016 203.809 65.2912L201.957 63.1556C210.043 56.146 217.475 53.3042 224.045 54.7165C228.678 55.7068 231.279 58.3763 233.57 60.7358C235.585 62.8111 237.178 64.4473 239.744 64.6626C241.561 64.8176 244.446 60.3052 246.986 56.3182C251.86 48.6885 257.931 39.1816 266.809 41.8081C275.128 44.2623 278.168 50.5141 280.613 55.5432C282.215 58.8241 283.593 61.6658 286.013 62.7509C288.725 63.9651 291.55 58.3763 294.529 52.4517C298.396 44.779 302.77 36.0901 310.004 35.3065C314.051 34.8673 318.279 36.736 322.611 40.8522L320.656 42.9017C316.962 39.3883 313.483 37.778 310.314 38.1224C304.613 38.7424 300.6 46.7079 297.061 53.7262C293.952 59.9091 290.981 65.7993 286.891 65.7993C286.245 65.7993 285.565 65.6529 284.859 65.3343C281.5 63.8359 279.838 60.4086 278.073 56.7832C275.645 51.7886 273.13 46.639 266.017 44.5293C259.188 42.5142 253.978 50.6605 249.38 57.851C245.944 63.2159 243.214 67.4957 239.847 67.4957H239.856Z" fill="#77CBD8"/>
<path d="M239.856 68.0038C239.727 68.0038 239.606 68.0038 239.477 67.9952C235.671 67.6766 233.389 65.3343 231.184 63.0695C229.118 60.9511 226.999 58.7639 223.357 57.9802C217.863 56.8005 211.395 59.3925 204.145 65.6788L203.766 66.006L201.251 63.104L201.63 62.7767C209.837 55.6552 217.423 52.779 224.166 54.2257C228.945 55.2504 231.606 57.9716 233.948 60.3914C235.964 62.4667 237.427 63.9651 239.804 64.1632H239.864C241.397 64.1632 244.385 59.4872 246.573 56.0599C251.541 48.2838 257.724 38.6047 266.964 41.3345C275.498 43.8576 278.59 50.2128 281.078 55.3279C282.637 58.5227 283.98 61.287 286.228 62.2945C288.51 63.3106 291.343 57.6788 294.082 52.2365C298 44.4518 302.443 35.6252 309.961 34.8157C314.155 34.3679 318.529 36.271 322.964 40.4906L323.326 40.8436L320.673 43.6251L320.303 43.272C316.729 39.862 313.38 38.3033 310.357 38.6305C304.923 39.2161 300.979 47.0524 297.5 53.9587C294.305 60.3053 291.283 66.3074 286.882 66.3074C286.15 66.3074 285.401 66.1352 284.643 65.7993C281.113 64.2234 279.408 60.7186 277.608 57.0071C275.231 52.1159 272.76 47.0524 265.862 45.0115C259.395 43.0998 254.297 51.0825 249.802 58.118C246.271 63.6379 243.49 67.9952 239.847 67.9952H239.839L239.856 68.0038ZM220.713 56.6971C221.686 56.6971 222.642 56.8005 223.563 56.9985C227.507 57.8424 229.746 60.1417 231.908 62.3634C233.983 64.499 236.127 66.6949 239.563 66.9877C239.658 66.9877 239.761 66.9963 239.856 66.9963C242.947 66.9963 245.6 62.837 248.958 57.5841C253.651 50.2472 258.964 41.9201 266.164 44.0471C273.5 46.2171 276.058 51.4787 278.529 56.568C280.252 60.1072 281.879 63.4484 285.065 64.8779C285.685 65.1621 286.297 65.2999 286.882 65.2999C290.663 65.2999 293.548 59.5733 296.596 53.5109C300.196 46.3635 304.269 38.2775 310.245 37.6316C313.466 37.2786 316.953 38.82 320.63 42.2042L321.888 40.8867C317.806 37.1149 313.827 35.4185 310.056 35.8232C303.089 36.5724 298.783 45.1407 294.968 52.6929C292.084 58.4194 289.552 63.4484 286.796 63.4484C286.469 63.4484 286.133 63.3795 285.797 63.2245C283.214 62.062 281.793 59.16 280.148 55.7843C277.746 50.85 274.758 44.7101 266.654 42.3162C258.138 39.8017 252.187 49.1191 247.399 56.611C244.024 61.8984 241.647 65.3429 239.692 65.1879C236.937 64.9554 235.206 63.1729 233.191 61.1147C230.952 58.8069 228.403 56.1891 223.925 55.2418C217.613 53.8898 210.457 56.5852 202.655 63.2418L203.843 64.6196C210 59.3753 215.649 56.723 220.687 56.723L220.713 56.6971Z" fill="#1B1A3F"/>
<path d="M143.314 113.222C141.643 126.414 140.817 133.011 139.301 136.714C131.749 155.323 113.407 163.951 106.923 166.647C103.762 160.369 100.602 154.1 97.4329 147.831C104.658 142.079 111.883 136.335 119.108 130.591V130.066C119.159 122.453 119.581 115.891 120.072 110.664C120.408 107.116 120.77 104.085 121.209 101.459C122.552 93.3814 124.524 89.2565 127.995 86.0531C128.873 85.2437 129.674 84.6495 130.233 84.262C132.653 84.6409 136.201 85.5192 139.318 87.9218C139.318 87.9218 139.663 88.1887 139.947 88.4471C145.794 93.5967 143.305 113.222 143.305 113.222H143.314Z" fill="white"/>
<path d="M106.923 167.396C106.647 167.396 106.38 167.241 106.251 166.983C104.322 163.159 102.393 159.327 100.464 155.512L96.7613 148.175C96.6063 147.857 96.6838 147.478 96.968 147.254L118.359 130.238V130.057C118.402 123.547 118.729 116.994 119.323 110.604C119.668 106.936 120.038 103.913 120.468 101.347C121.795 93.3901 123.758 88.9552 127.487 85.5107C128.21 84.839 128.985 84.219 129.803 83.6592C129.967 83.5473 130.156 83.5042 130.346 83.5387C134.074 84.1156 137.243 85.3987 139.775 87.3449C139.792 87.3535 140.145 87.6291 140.447 87.896C146.518 93.2437 144.158 112.507 144.055 113.334C142.376 126.57 141.54 133.218 139.99 137.015C132.895 154.513 116.404 163.529 107.198 167.361C107.104 167.396 107.009 167.422 106.914 167.422L106.923 167.396ZM98.3889 148.02L101.816 154.815C103.633 158.432 105.467 162.048 107.284 165.665C116.369 161.79 131.878 153.006 138.612 136.421C140.085 132.804 140.92 126.225 142.574 113.119C142.6 112.921 144.942 93.8292 139.465 88.9983C139.189 88.7571 138.871 88.5074 138.862 88.4988C136.606 86.7593 133.773 85.5968 130.423 85.037C129.751 85.5107 129.114 86.036 128.52 86.5871C125.067 89.7733 123.224 93.9756 121.958 101.571C121.536 104.103 121.166 107.091 120.821 110.716C120.227 117.063 119.909 123.564 119.866 130.049V130.574C119.866 130.806 119.762 131.022 119.581 131.159L98.3803 148.029L98.3889 148.02Z" fill="#1B1A3F"/>
<path d="M121.734 102.94C123.878 105.73 123.232 109.614 122.707 113.523C122.483 115.22 122.251 116.933 122.251 118.57C122.251 120.206 122.655 122.212 123.043 124.15C123.586 126.871 124.206 129.954 123.301 130.677C122.888 131.004 122.018 130.884 120.77 130.324C120.468 130.186 120.227 130.031 119.883 129.816C119.883 129.816 119.9 130.806 119.685 131.082C119.685 131.082 120.072 131.297 120.305 131.392C121.243 131.805 122.027 132.012 122.681 132.012C123.224 132.012 123.672 131.865 124.042 131.573C125.506 130.402 124.903 127.388 124.197 123.9C123.818 122.014 123.422 120.068 123.422 118.544C123.422 117.019 123.646 115.383 123.878 113.652C124.455 109.321 125.067 104.826 122.216 101.64C122.113 101.519 122.087 101.493 121.984 101.39C121.984 101.39 121.889 101.984 121.829 102.303" fill="#DEEBF3"/>
<path d="M91.7752 300.26C82.0961 304.385 72.4169 308.51 62.7378 312.635L63.2889 318.895L114.552 314.383C112.77 303.016 110.987 291.657 109.213 280.291C102.169 281.522 95.1251 282.753 88.081 283.985C89.3124 289.41 90.5524 294.835 91.7838 300.26H91.7752Z" fill="white"/>
<path d="M63.2803 319.438C63.0048 319.438 62.7809 319.231 62.7551 318.956L62.2039 312.686C62.1867 312.454 62.3159 312.239 62.5225 312.153L91.1553 299.95L87.5557 284.114C87.5213 283.976 87.5557 283.821 87.6332 283.701C87.7193 283.58 87.8399 283.494 87.9863 283.468L109.119 279.774C109.256 279.748 109.403 279.774 109.515 279.86C109.627 279.946 109.704 280.067 109.73 280.213L115.069 314.305C115.095 314.452 115.06 314.598 114.957 314.71C114.871 314.822 114.733 314.9 114.587 314.917L63.3234 319.429H63.289L63.2803 319.438ZM63.289 312.979L63.7626 318.336L113.924 313.918L108.757 280.928L88.7096 284.433L92.292 300.157C92.3522 300.407 92.2144 300.665 91.9819 300.76L63.2976 312.988L63.289 312.979Z" fill="#1B1A3F"/>
<path d="M115.577 312.101L61.5581 316.854L61.9026 320.747L115.922 315.993L115.577 312.101Z" fill="#1B1A3F"/>
<path d="M61.7129 320.988L61.334 316.639L115.801 311.843L116.18 316.191L61.7129 320.988ZM61.8248 317.052L62.1262 320.488L115.689 315.769L115.387 312.333L61.8248 317.052Z" fill="#1B1A3F"/>
<path d="M156.317 305.548C147.508 311.309 138.716 317.078 129.915 322.839L131.56 328.91L181.23 315.442C177.475 304.566 173.721 293.698 169.966 282.822C163.249 285.276 156.532 287.731 149.816 290.185C151.986 295.3 154.156 300.432 156.326 305.548H156.317Z" fill="white"/>
<path d="M131.568 329.435C131.482 329.435 131.387 329.41 131.301 329.367C131.181 329.298 131.095 329.186 131.051 329.039L129.407 322.968C129.346 322.744 129.441 322.512 129.631 322.383L155.663 305.332L149.325 290.374C149.264 290.245 149.264 290.09 149.325 289.952C149.385 289.823 149.488 289.72 149.626 289.668L169.777 282.306C169.914 282.254 170.061 282.262 170.19 282.323C170.319 282.383 170.423 282.495 170.466 282.633L181.729 315.253C181.781 315.39 181.764 315.545 181.695 315.674C181.626 315.804 181.505 315.907 181.368 315.941L131.697 329.41C131.654 329.418 131.603 329.427 131.56 329.427L131.568 329.435ZM130.535 323.072L131.938 328.256L180.541 315.072L169.639 283.503L150.522 290.486L156.808 305.332C156.911 305.565 156.825 305.84 156.61 305.978L130.526 323.063L130.535 323.072Z" fill="#1B1A3F"/>
<path d="M181.876 312.979L129.545 327.179L130.569 330.951L182.901 316.751L181.876 312.979Z" fill="#1B1A3F"/>
<path d="M130.38 331.235L129.243 327.024L129.467 326.964L182.013 312.712L183.15 316.923L182.926 316.983L130.371 331.235H130.38ZM129.803 327.343L130.707 330.676L182.599 316.596L181.695 313.263L129.803 327.343Z" fill="#1B1A3F"/>
<path d="M102.066 145.497C102.066 145.497 91.7495 153.695 90.6473 155.504C89.5364 157.312 90.2597 169.6 91.9476 169.437C93.6354 169.273 95.0046 161.058 95.0046 161.058C95.0046 161.058 94.729 171.736 95.6849 172.924C96.6494 174.113 98.2597 173.105 98.9486 171.348C99.6375 169.583 99.3103 161.523 99.3103 161.523C99.3103 161.523 98.4922 170.97 100.378 172.924C102.264 174.879 103.797 173.036 103.711 172.184C103.633 171.34 103.53 161.127 103.53 161.127C103.53 161.127 104.512 171.684 105.82 171.986C107.129 172.287 108.352 171.753 108.154 169.635C107.956 167.525 108.318 157.691 108.318 157.691L110.04 153.273C110.04 153.273 111.211 161.256 113.02 162.367C114.828 163.478 115.646 162.47 116.335 158.819C117.032 155.168 116.981 150.061 115.482 147.65C113.984 145.239 107.414 143.284 102.075 145.489L102.066 145.497Z" fill="white"/>
<path d="M102.04 174.526C101.437 174.526 100.654 174.294 99.8269 173.441C99.5944 173.191 99.3878 172.864 99.2241 172.477C98.6472 173.407 97.8377 174.052 97.011 174.173C96.2791 174.285 95.6074 174.018 95.1079 173.407C94.5568 172.726 94.3243 170.143 94.2468 167.387C93.6526 168.98 92.9206 170.109 92.0251 170.186C91.6892 170.22 91.207 170.117 90.7936 169.445C89.3986 167.206 88.8475 157.019 90.0186 155.108C91.1639 153.239 100.55 145.747 101.609 144.903C101.67 144.86 101.721 144.817 101.79 144.791C107.181 142.569 114.294 144.318 116.12 147.245C117.721 149.82 117.816 155.09 117.075 158.957C116.636 161.247 116.111 162.875 114.957 163.383C114.285 163.676 113.528 163.555 112.623 163.004C111.254 162.16 110.298 158.638 109.764 156.038L109.067 157.837C109.032 158.991 108.722 167.646 108.903 169.557C109.041 171.056 108.533 171.839 108.085 172.235C107.482 172.761 106.613 172.933 105.657 172.701C105.407 172.64 104.951 172.537 104.425 171.056C104.434 171.598 104.451 171.969 104.46 172.098C104.537 172.924 103.9 173.897 103.005 174.311C102.806 174.397 102.471 174.518 102.04 174.518V174.526ZM100.025 169.308C100.18 170.763 100.456 171.934 100.912 172.408C101.282 172.787 101.825 173.2 102.341 172.985C102.746 172.821 102.961 172.391 102.961 172.253C102.884 171.409 102.789 162.186 102.781 161.135C102.781 160.731 103.091 160.395 103.495 160.378C103.891 160.36 104.245 160.662 104.279 161.058C104.684 165.389 105.485 170.436 106.113 171.28C106.544 171.357 106.897 171.297 107.104 171.125C107.37 170.892 107.482 170.393 107.414 169.712C107.215 167.577 107.56 158.07 107.577 157.674C107.577 157.588 107.594 157.51 107.629 157.433L109.351 153.015C109.472 152.696 109.79 152.498 110.135 152.541C110.471 152.576 110.746 152.843 110.789 153.179C111.332 156.856 112.486 161.17 113.416 161.738C113.665 161.893 114.122 162.134 114.363 162.022C114.664 161.893 115.129 161.204 115.603 158.69C116.275 155.202 116.232 150.285 114.845 148.055C113.657 146.16 107.646 144.068 102.453 146.152C98.3458 149.424 92.0423 154.668 91.2845 155.9C90.3889 157.364 90.9659 166.905 91.982 168.584C92.6537 167.844 93.6698 164.477 94.2554 160.946C94.3157 160.559 94.6774 160.283 95.0649 160.326C95.461 160.36 95.7538 160.696 95.7452 161.092C95.616 165.966 95.7796 171.71 96.2705 172.477C96.4599 172.709 96.6235 172.718 96.7699 172.692C97.2177 172.623 97.8636 172.046 98.2425 171.082C98.3716 170.763 98.4577 170.143 98.518 169.342C98.1908 166.225 98.4663 162.496 98.5525 161.463C98.5869 161.067 98.9227 160.774 99.3189 160.774C99.715 160.774 100.034 161.101 100.051 161.497C100.077 162.117 100.232 166.388 100.016 169.308H100.025Z" fill="#1B1A3F"/>
<path d="M194.551 150.518C194.371 149.932 193.975 148.632 193.398 146.944C193.036 145.902 192.709 145.024 192.45 144.335L179.714 145.523L166.978 146.711L154.242 147.9L141.506 149.088L139.551 153.489L137.596 157.889L135.641 162.289L133.687 166.69C129.544 168.386 123.706 170.806 117.222 173.579C110.737 176.352 103.599 179.495 96.8644 182.621C90.1304 185.747 83.7838 188.873 78.9012 191.62C74.0099 194.367 70.5654 196.743 69.6181 198.388C68.447 200.412 68.869 207.404 70.1434 216.747C71.6418 227.641 73.9066 238.422 75.87 249.247C77.7817 259.778 78.0056 262.06 80.6148 276.174C81.6482 281.823 82.5438 286.465 83.1379 289.565C85.928 290.633 90.8193 292.071 96.9678 291.683C105.235 291.167 111.125 287.645 113.708 285.862C113.381 279.541 113.062 273.212 112.735 266.891C112.408 260.571 112.089 254.241 111.762 247.921C111.435 241.6 111.116 235.27 110.789 228.95C110.462 222.629 110.143 216.3 109.816 209.979C115.784 206.354 121.76 202.737 127.736 199.12C133.239 195.787 138.741 192.464 144.261 189.14C142.35 191.818 140.283 195.133 138.414 199.12C135.796 204.7 134.384 209.85 133.592 213.914C138.027 241.557 142.453 269.199 146.888 296.833C149.359 298.056 153.958 299.916 159.951 299.873C168.829 299.821 175.081 295.636 177.294 294C176.425 276.364 175.185 258.254 173.514 239.723C172.877 232.653 172.188 225.652 171.447 218.728C173.815 216.334 177.475 212.7 182.117 208.403C190.211 200.894 190.22 201.626 192.097 199.456C200.846 189.346 200.812 173.519 199.055 166.302C198.409 163.624 195.051 152.025 194.603 150.535H194.569L194.551 150.518Z" fill="#77CBD8"/>
<path d="M159.727 300.613C155.198 300.613 150.625 299.537 146.492 297.496C146.268 297.384 146.113 297.178 146.078 296.936L132.782 214.018C132.774 213.932 132.774 213.837 132.782 213.751C133.79 208.567 135.435 203.529 137.656 198.776C138.819 196.296 140.154 193.876 141.626 191.559C137.105 194.289 132.584 197.019 128.063 199.749C122.216 203.279 116.378 206.819 110.539 210.367L114.423 285.802C114.44 286.06 114.311 286.319 114.096 286.474C110.531 288.928 104.666 291.942 96.9679 292.424C92.2144 292.725 87.3232 291.976 82.8194 290.254C82.5697 290.159 82.3889 289.953 82.3458 289.686C81.4933 285.259 80.6408 280.738 79.8141 276.286C78.3501 268.33 77.6354 264.144 76.9465 260.106C76.4126 256.945 75.9045 253.957 75.0692 249.367C74.5181 246.328 73.9325 243.236 73.3642 240.239C71.9175 232.592 70.4191 224.687 69.3427 216.834C67.3965 202.642 68.1629 199.284 68.9121 197.992C69.8766 196.33 73.0025 194.022 78.4793 190.939C82.9572 188.425 89.0196 185.385 96.4942 181.915C102.445 179.15 109.308 176.102 116.877 172.864C123.37 170.083 129.226 167.663 133.067 166.087L140.765 148.761C140.877 148.511 141.118 148.339 141.385 148.313L192.347 143.56C192.692 143.525 193.01 143.723 193.131 144.051C193.467 144.938 193.777 145.799 194.087 146.686C194.638 148.27 195.017 149.51 195.249 150.294C195.697 151.801 199.055 163.426 199.71 166.113C201.587 173.837 201.32 189.854 192.588 199.947C191.675 200.997 191.185 201.402 190.108 202.289C188.903 203.279 186.887 204.933 182.547 208.954C179 212.244 175.503 215.611 172.153 219.004C172.877 225.841 173.557 232.782 174.186 239.654C175.813 257.643 177.079 275.916 177.975 293.965C177.983 294.224 177.871 294.465 177.673 294.62C174.668 296.85 168.364 300.596 159.882 300.639H159.719V300.622L159.727 300.613ZM147.516 296.299C151.392 298.151 155.663 299.124 159.891 299.098C167.65 299.055 173.488 295.748 176.468 293.612C175.581 275.718 174.315 257.608 172.705 239.774C172.076 232.799 171.378 225.738 170.646 218.797C170.621 218.565 170.707 218.349 170.862 218.177C174.306 214.698 177.906 211.21 181.548 207.835C185.923 203.788 187.964 202.108 189.178 201.109C190.22 200.257 190.651 199.904 191.469 198.948C199.83 189.286 200.071 173.898 198.263 166.466C197.617 163.814 194.276 152.24 193.82 150.733C193.587 149.958 193.217 148.744 192.674 147.177C192.433 146.479 192.192 145.807 191.942 145.127L141.997 149.777L134.358 166.974C134.272 167.155 134.134 167.293 133.954 167.37C130.122 168.937 124.145 171.409 117.506 174.251C109.945 177.488 103.108 180.52 97.1659 183.284C89.7171 186.737 83.6978 189.76 79.2543 192.257C72.8303 195.865 70.8152 197.777 70.2555 198.741C69.5838 199.904 69.1446 203.96 70.8755 216.618C71.9433 224.429 73.4417 232.317 74.8884 239.947C75.4567 242.935 76.0423 246.035 76.5934 249.075C77.4287 253.682 77.9368 256.67 78.4707 259.83C79.1596 263.877 79.8657 268.054 81.3297 275.994C82.1219 280.308 82.9486 284.674 83.7753 288.962C87.969 290.495 92.49 291.158 96.8904 290.883C103.995 290.435 109.472 287.722 112.899 285.432L109.007 209.97C108.998 209.686 109.136 209.428 109.368 209.282C115.336 205.656 121.312 202.039 127.28 198.431C132.782 195.099 138.285 191.775 143.805 188.451C144.106 188.27 144.511 188.322 144.752 188.58C144.993 188.847 145.019 189.252 144.812 189.544C142.591 192.644 140.653 195.96 139.034 199.404C136.873 204.011 135.288 208.885 134.298 213.897L147.508 296.291H147.534L147.516 296.299Z" fill="#1B1A3F"/>
<path d="M198.341 163.822C193.286 164.968 187.826 165.932 181.988 166.595C160.933 168.972 142.651 166.509 128.847 163.228C127.857 153.514 127.09 145.032 126.505 138.109C126.505 138.023 126.496 137.937 126.488 137.859C125.471 125.881 124.912 117.278 125.325 108.443C125.446 105.808 125.652 103.147 125.971 100.365C126.789 93.0714 127.245 89.3599 129.347 86.2685C129.872 85.502 130.432 84.8131 131.06 84.1587C134.048 81.0242 138.13 79.2072 142.522 78.0877C147.473 76.8218 152.821 76.4429 157.377 76.0985C163.224 75.6507 172.455 75.6421 183.598 78.656C185.458 83.4009 187.215 88.3868 188.825 93.6139C191.202 101.33 193.062 108.89 194.466 116.227C195.223 120.145 195.852 123.995 196.369 127.775C198.143 140.718 198.616 152.843 198.349 163.796L198.341 163.822Z" fill="white"/>
<path d="M165.118 168.257C152.993 168.257 140.8 166.802 128.683 163.917C128.382 163.848 128.167 163.59 128.132 163.297C127.288 155.021 126.496 146.565 125.79 138.169C125.79 138.083 125.773 137.98 125.773 137.893C124.688 125.045 124.214 116.951 124.61 108.408C124.739 105.67 124.946 103.017 125.256 100.288C126.066 93.1144 126.513 89.1618 128.752 85.8723C129.286 85.08 129.889 84.3481 130.543 83.6678C133.308 80.7744 137.174 78.7249 142.341 77.3987C147.189 76.1587 152.322 75.7712 156.851 75.4267L157.316 75.3923C166.074 74.7206 174.987 75.599 183.779 77.9757C184.003 78.036 184.175 78.191 184.261 78.4063C186.181 83.3319 187.947 88.3696 189.497 93.4158C191.796 100.856 193.699 108.494 195.154 116.107C195.904 119.947 196.541 123.84 197.066 127.698C198.685 139.504 199.348 151.663 199.055 163.831C199.055 164.158 198.823 164.442 198.496 164.511C193.053 165.742 187.525 166.681 182.065 167.293C176.442 167.93 170.793 168.248 165.118 168.248V168.257ZM129.51 162.651C146.974 166.75 164.601 167.835 181.901 165.889C187.129 165.303 192.416 164.408 197.634 163.254C197.893 151.344 197.23 139.452 195.645 127.904C195.12 124.081 194.483 120.206 193.751 116.391C192.304 108.83 190.409 101.244 188.127 93.855C186.62 88.9638 184.915 84.0639 183.055 79.2846C174.53 77.0198 165.902 76.1931 157.419 76.839L156.954 76.8734C152.485 77.2093 147.422 77.5968 142.694 78.8024C137.794 80.0596 134.16 81.9714 131.577 84.6753C130.983 85.2953 130.431 85.9756 129.941 86.6904C127.977 89.5666 127.529 92.9939 126.686 100.46C126.384 103.155 126.169 105.773 126.04 108.477C125.644 116.933 126.117 124.985 127.202 137.799C127.202 137.893 127.211 137.971 127.219 138.04C127.917 146.264 128.683 154.539 129.51 162.642V162.651Z" fill="#1B1A3F"/>
<path d="M157.282 53.5884C159.03 61.218 160.761 68.8477 162.509 76.4859C161.742 77.6226 159.727 80.2835 156.145 81.5063C151.504 83.0908 147.439 81.1791 146.345 80.6194C144.528 73.4892 142.694 66.359 140.877 59.2288C146.345 57.3515 151.814 55.4743 157.273 53.597L157.282 53.5884Z" fill="white"/>
<path d="M152.434 82.8153C149.514 82.8153 147.138 81.8078 146.027 81.2394L145.751 81.093L140.042 58.7638L157.79 52.667L163.258 76.6151L163.086 76.8735C161.898 78.6474 159.762 81.0069 156.369 82.1608C154.991 82.6345 153.665 82.8067 152.425 82.8067L152.434 82.8153ZM146.948 80.1286C148.524 80.8864 152.046 82.1608 155.921 80.8347C158.797 79.853 160.658 77.8982 161.76 76.3396L156.774 54.5098L141.721 59.6766L146.957 80.1286H146.948Z" fill="#1B1A3F"/>
<path d="M151.478 45.0803C151.478 45.0803 158.108 71.6377 144.141 72.3094C130.173 72.9811 132.283 40.258 132.283 40.258C132.283 40.258 152.098 29.9502 151.478 45.0803Z" fill="white"/>
<path d="M143.719 72.9639C141.411 72.9639 139.387 72.0942 137.699 70.3805C130.259 62.8198 131.568 41.1278 131.628 40.215L131.654 39.8533L131.981 39.6811C132.446 39.44 143.434 33.7995 149.023 37.3474C151.219 38.7424 152.261 41.3172 152.132 45.0029C152.494 46.5013 156.179 62.3375 150.866 69.5022C149.264 71.655 147.017 72.8089 144.184 72.9467C144.029 72.9467 143.874 72.9553 143.727 72.9553H143.719V72.9639ZM132.911 40.6628C132.774 43.582 132.111 62.837 138.629 69.4677C140.179 71.0436 141.979 71.7583 144.115 71.655C146.586 71.5344 148.455 70.5786 149.815 68.7357C154.913 61.8725 150.883 45.399 150.849 45.2354L150.823 45.1493V45.0546C150.961 41.8167 150.117 39.595 148.317 38.4497C143.848 35.6079 134.746 39.7758 132.903 40.6714L132.911 40.6628Z" fill="#1B1A3F"/>
<path d="M159.831 66.3849C160.012 65.5237 163.964 45.7866 162.311 38.4325C161.786 36.073 160.614 34.3679 160.614 34.3679C158.668 31.5262 155.861 30.3981 154.302 29.7695C152.985 29.2442 148.223 27.5133 142.884 29.1064C139.887 30.002 140.137 30.9234 137.519 31.4314C133.118 32.2754 131.698 29.8125 128.322 30.6823C125.282 31.4659 122.458 34.4885 121.889 38.1569C121.416 41.2053 122.535 44.3398 124.636 46.2774C126.539 48.0255 128.847 47.8102 132.257 48.6627C141.454 50.9447 143.168 47.8705 148.171 49.6789C148.696 49.8683 153.553 51.2203 155.826 55.3796C157.032 57.5927 156.757 59.1858 159.004 64.5162C159.331 65.3085 159.633 65.9543 159.839 66.4021L159.831 66.3849Z" fill="#1B1A3F"/>
<path d="M152.873 51.7455C152.873 51.7455 154.871 44.1503 157.514 47.1384C160.158 50.1266 155.982 55.7756 154.586 56.542C153.191 57.3084 152.873 51.7455 152.873 51.7455Z" fill="white"/>
<path d="M146.319 41.9028C146.319 41.9028 149.764 58.2386 145.131 60.1675C144.055 60.6153 143.305 60.6928 142.677 60.5636C140.946 60.1761 140.292 58.9619 138.94 58.2472C137.854 57.6702 136.037 57.3774 132.886 58.8241C132.972 60.8908 133.23 63.922 134.083 67.5044C134.996 71.3278 135.452 73.2309 136.692 74.4193C140.662 78.191 151.34 75.9779 154.724 69.7864C155.818 67.7799 155.602 64.6368 155.163 58.3505C154.612 50.4022 153.028 42.4281 153.028 42.4281L146.302 41.9028H146.319Z" fill="#1B1A3F"/>
<path d="M82.7764 273.97C81.8894 271.671 77.5751 242.573 77.3943 241.324L78.5482 241.152C79.7882 249.548 83.1725 271.74 83.8614 273.548L82.7764 273.97Z" fill="#1B1A3F"/>
<path d="M77.6613 231.473L76.4988 231.585L76.8777 235.658L78.0402 235.546L77.6613 231.473Z" fill="#1B1A3F"/>
<path d="M148.791 276.045C147.327 269.397 145.243 238.422 145.166 237.105L146.328 237.027C146.345 237.346 148.489 269.234 149.936 275.795L148.8 276.045H148.791Z" fill="#1B1A3F"/>
<path d="M144.451 229.458L144.416 233.186H145.579L145.613 229.475H144.451V229.458Z" fill="#1B1A3F"/>
<path d="M157.118 271.3C157.032 271.3 156.937 271.283 156.843 271.24C156.524 271.111 156.059 270.913 156.489 267.838C155.93 267.959 155.31 268.097 154.647 268.235L153.829 268.415L153.579 267.279L154.397 267.098C155.275 266.908 156.024 266.745 156.679 266.607C156.894 265.367 157.221 263.774 157.695 261.75L158.832 262.009C158.505 263.438 158.177 264.979 157.928 266.349C160.451 265.841 160.709 265.927 160.967 266.4C161.252 266.926 160.847 267.322 160.184 267.993C159.615 268.562 158.849 269.328 158.238 270.327C158.031 270.654 157.635 271.3 157.109 271.3H157.118ZM157.721 267.58C157.609 268.269 157.531 268.88 157.488 269.354C158.083 268.484 158.754 267.778 159.262 267.279C158.858 267.348 158.35 267.451 157.73 267.58H157.721Z" fill="#1B1A3F"/>
<path d="M81.4244 207.353C80.6924 207.353 80.3135 206.965 80.1671 206.776C79.5816 206.001 79.771 204.571 80.8991 202.857C79.9519 202.59 78.8841 202.358 77.8679 202.22L78.0315 201.066C78.5568 201.144 80.1155 201.385 81.6311 201.867C82.3975 200.937 83.405 199.947 84.6967 198.948L85.4115 199.869C84.3006 200.73 83.4395 201.549 82.785 202.289C83.8959 202.763 84.8 203.374 84.9981 204.166C85.1876 204.907 84.8 205.639 83.8614 206.328C82.7936 207.12 81.9928 207.361 81.4072 207.361L81.4244 207.353ZM82.0444 203.219C81.0024 204.692 80.8561 205.742 81.0972 206.069C81.2522 206.276 81.9669 206.276 83.1897 205.381C83.6892 205.01 83.9475 204.666 83.8872 204.442C83.7839 204.037 83.0692 203.607 82.0444 203.228V203.219Z" fill="#1B1A3F"/>
<path d="M142.901 78.7507C142.677 78.8024 142.444 78.8541 142.212 78.9144C141.988 78.9746 141.773 79.0349 141.557 79.1038C140.877 81.5064 141.635 83.2975 142.315 84.9423C143.254 87.1985 143.994 88.981 140.955 91.8916C138.983 93.7689 137.562 94.5784 136.623 94.3545C135.374 94.0617 134.591 91.8486 133.601 89.0413C133.101 87.6204 132.55 86.0618 131.818 84.4256C131.654 84.5548 131.474 84.7528 131.301 84.9423C131.172 85.0801 130.948 85.3729 130.948 85.3729C131.62 86.8971 132.025 88.094 132.49 89.4374C133.652 92.7011 134.479 95.0606 136.348 95.5084C136.546 95.5515 136.744 95.5773 136.95 95.5773H136.942C138.216 95.5773 139.74 94.6731 141.755 92.7442C145.381 89.2824 144.373 86.8454 143.392 84.5031C142.668 82.7636 142.005 81.0844 142.901 78.7766V78.7507Z" fill="#DEEBF3"/>
<path d="M160.347 133.149C159.297 133.149 158.212 133.045 157.153 132.821C154.337 132.227 152.339 130.944 151.521 129.196C150.987 128.059 151.09 127.009 151.219 125.665C151.357 124.27 151.529 122.367 151.09 119.422C150.935 118.363 150.608 117.812 150.272 117.286C149.626 116.305 148.912 115.917 148.145 115.504C147.439 115.125 146.716 114.729 146.182 113.876C145.071 112.111 145.536 109.519 146.561 107.866C148.326 105.041 151.96 104.774 155.473 104.516C159.366 104.232 166.599 103.689 168.726 107.762C169.958 110.122 169.226 113.472 167.925 115.426C167.331 116.313 166.565 117.011 165.833 117.691C164.593 118.828 163.525 119.818 163.456 121.411V121.592C163.516 123.736 164.886 125.484 165.996 126.888C166.961 128.12 167.796 129.17 167.503 130.221C167.374 130.694 167.073 130.953 166.754 131.22L166.668 131.288C165.308 132.477 162.939 133.131 160.356 133.131L160.347 133.149ZM155.551 105.704C152.184 105.954 148.989 106.186 147.551 108.503C146.733 109.812 146.32 111.922 147.163 113.256C147.534 113.842 148.05 114.126 148.696 114.479C149.514 114.927 150.444 115.426 151.245 116.649C151.65 117.261 152.046 117.958 152.244 119.25C152.701 122.341 152.52 124.322 152.373 125.777C152.253 127.034 152.175 127.861 152.571 128.696C153.217 130.074 154.974 131.159 157.385 131.667C160.623 132.348 164.283 131.814 165.876 130.427L165.962 130.35C166.22 130.126 166.307 130.048 166.341 129.919C166.479 129.437 165.773 128.559 165.041 127.62C163.826 126.079 162.319 124.167 162.251 121.627V121.36C162.337 119.276 163.697 118.027 165.006 116.83C165.695 116.201 166.41 115.547 166.927 114.772C168.063 113.075 168.649 110.191 167.667 108.305C165.902 104.921 159.159 105.411 155.542 105.687H155.551V105.704Z" fill="#DEEBF3"/>
<path d="M174.677 100.546C173.195 100.546 171.559 99.9346 169.94 99.3404C167.564 98.462 165.101 97.5492 163.034 98.3501C159.012 99.9001 154.302 99.0821 152.244 97.4459C151.133 96.5589 151.004 95.6461 151.09 95.0261C151.469 92.348 152.597 89.334 157.996 87.2587C162.707 85.4417 165.712 78.4234 165.738 78.3546L165.867 78.0532L166.186 78.0015C170.448 77.2954 171.396 80.0424 172.231 82.4794C172.911 84.4514 173.497 86.1564 175.589 86.4578C177.596 86.742 179.042 87.7926 179.757 89.4976C180.842 92.0552 180.076 95.9303 177.906 98.9184C177.027 100.124 175.917 100.555 174.677 100.555V100.546ZM164.773 96.8689C166.642 96.8689 168.58 97.5837 170.345 98.2381C173.583 99.4351 175.632 100.029 176.95 98.2209C178.896 95.5514 179.602 92.1499 178.672 89.9454C178.112 88.6279 177.019 87.8356 175.417 87.6117C172.61 87.207 171.809 84.8992 171.111 82.8583C170.319 80.5591 169.691 78.7248 166.677 79.1124C166.013 80.5591 163.043 86.5698 158.41 88.3523C153.587 90.2038 152.597 92.7355 152.244 95.1897C152.184 95.6461 152.425 96.0939 152.967 96.5245C154.784 97.9712 159.09 98.6084 162.603 97.2478C163.301 96.9809 164.033 96.8689 164.765 96.8689H164.773Z" fill="#DEEBF3"/>
<path d="M134.841 121.291C132.378 117.812 131.973 116.529 132.068 116.072C132.102 115.943 132.18 115.866 132.49 115.685C133.506 115.065 133.945 114.264 132.972 112.154C132.068 110.191 129.82 108.822 126.057 108.004L126.005 109.183C129.183 109.915 131.189 111.104 131.904 112.645C132.627 114.221 132.326 114.402 131.878 114.677C131.525 114.884 131.06 115.177 130.914 115.831C130.75 116.615 130.991 117.898 133.876 121.971C138.027 127.844 137.596 135.06 134.815 138.384C133.489 139.977 131.775 140.391 129.992 139.555C129.209 139.194 128.27 138.557 127.254 137.73C126.901 137.962 126.496 138.135 126.031 138.247L126.1 138.307C127.34 139.366 128.52 140.167 129.493 140.623C130.259 140.976 131.017 141.157 131.766 141.157C133.222 141.157 134.599 140.46 135.71 139.134C138.776 135.482 139.31 127.62 134.832 121.291H134.841Z" fill="#DEEBF3"/>
<path d="M178.913 149.028C178.216 149.028 177.63 148.968 177.225 148.899C174.814 148.511 172.231 147.194 172.231 145.859C172.231 145.583 172.145 145.092 172.05 144.533C171.507 141.415 170.379 134.94 177.191 131.874C181.919 129.738 181.281 128.249 180.231 125.76C179.731 124.572 179.154 123.228 179.154 121.644C179.154 116.589 188.472 114.979 188.868 114.91H188.963C190.659 114.91 192.709 115.185 194.612 115.685L194.965 115.779L195.034 116.141C195.783 119.982 196.411 123.874 196.945 127.723L196.988 128.076L196.704 128.283C196.231 128.61 195.817 128.894 195.447 129.153C192.752 130.978 192.579 131.09 189.514 140.296C186.991 147.857 181.884 149.054 178.905 149.054L178.913 149.028ZM189.014 116.055C186.551 116.477 180.325 118.268 180.325 121.618C180.325 122.953 180.825 124.132 181.316 125.269C182.366 127.749 183.46 130.315 177.682 132.907C171.697 135.603 172.687 141.26 173.212 144.3C173.324 144.946 173.419 145.463 173.419 145.833C173.505 146.229 175.46 147.633 178.414 147.822C181.109 147.994 185.992 147.194 188.429 139.874C191.503 130.651 191.735 130.212 194.818 128.137C195.103 127.947 195.413 127.741 195.757 127.491C195.258 123.9 194.663 120.275 193.983 116.692C192.304 116.279 190.521 116.038 189.04 116.038L189.014 116.055Z" fill="#DEEBF3"/>
<path d="M186.776 183.086L86.0918 186.746L86.3674 194.435L187.051 190.776L186.776 183.086Z" fill="#1B1A3F"/>
<path d="M86.0573 194.788L85.7559 186.401L187.137 182.707L187.447 191.094L86.0659 194.788H86.0573ZM86.4878 187.081L86.7462 194.057L186.724 190.414L186.466 183.439L86.4878 187.081Z" fill="#1B1A3F"/>
<path d="M165.135 191.439C155.413 191.775 145.682 192.111 135.96 192.455C129.708 192.67 123.465 192.886 117.213 193.101C106.707 193.462 96.2015 193.833 85.6956 194.194L73.0542 138.333L151.788 135.465C156.24 154.117 160.692 172.778 165.135 191.439Z" fill="#1B1A3F"/>
<path d="M85.4285 194.556L85.3683 194.272L72.6321 137.997L152.072 135.103L152.141 135.379L165.592 191.766H165.161C155.439 192.119 145.708 192.455 135.986 192.791L135.383 192.808C129.338 193.015 123.284 193.23 117.239 193.437L85.4285 194.547V194.556ZM73.5018 138.668L85.9883 193.833L117.213 192.748C123.258 192.541 129.312 192.326 135.357 192.119L135.951 192.102C145.536 191.766 155.112 191.43 164.696 191.103L151.512 135.835L73.4932 138.677L73.5018 138.668Z" fill="#1B1A3F"/>
<path d="M164.567 153.084C164.567 153.084 144.795 156.003 144.606 158.578C144.425 161.153 147.758 160.412 154.053 159.396L160.347 158.38C160.347 158.38 143.151 161.256 143.349 163.374C143.547 165.493 144.391 165.407 145.7 165.708C145.7 165.708 145.011 167.482 147.62 168.085L161.562 166.785C161.562 166.785 150.238 168.696 150.393 170.384C150.548 172.072 153.045 171.417 155.999 171.142C158.952 170.866 167.4 170.074 168.21 169.575C169.01 169.075 174.728 166.414 178.603 162.212C182.47 158.018 184.916 152.257 184.916 152.257L172.713 145.945L164.567 153.075V153.084Z" fill="white"/>
<path d="M152.227 172.037C151.478 172.037 150.866 171.925 150.427 171.572C150.091 171.297 149.902 170.926 149.859 170.436C149.798 169.79 150.238 169.058 153.407 168.085L147.663 168.619C147.603 168.619 147.551 168.619 147.491 168.61C146.406 168.36 145.665 167.887 145.303 167.198C145.097 166.81 145.054 166.431 145.071 166.13C144.003 165.906 143.013 165.639 142.806 163.435C142.746 162.746 143.28 161.962 146.767 160.868C145.803 160.851 145.097 160.662 144.632 160.24C144.201 159.844 144.012 159.275 144.063 158.543C144.132 157.553 145.433 156.279 154.535 154.35C158.97 153.411 163.439 152.722 164.317 152.584L172.343 145.557C172.507 145.411 172.748 145.385 172.937 145.489L185.139 151.801C185.389 151.93 185.492 152.231 185.389 152.481C185.286 152.722 182.866 158.38 178.982 162.591C175.65 166.207 170.931 168.722 169.148 169.669C168.838 169.833 168.588 169.971 168.476 170.04C167.831 170.436 164.222 170.918 156.033 171.684C155.516 171.727 155.026 171.796 154.552 171.848C153.674 171.951 152.89 172.046 152.218 172.046L152.227 172.037ZM150.927 170.367C150.952 170.591 151.03 170.677 151.107 170.737C151.581 171.116 152.967 170.952 154.44 170.78C154.922 170.72 155.43 170.668 155.947 170.616C165.144 169.755 167.538 169.333 167.925 169.127C168.063 169.041 168.296 168.92 168.649 168.731C170.38 167.809 174.987 165.346 178.199 161.867C181.342 158.457 183.564 153.936 184.218 152.507L172.782 146.591L164.911 153.489C164.834 153.557 164.739 153.592 164.636 153.618C164.584 153.618 159.693 154.35 154.836 155.383C145.424 157.372 145.14 158.578 145.131 158.63C145.097 159.155 145.243 159.353 145.355 159.465C146.121 160.171 149.015 159.697 152.675 159.103L160.261 157.88C160.545 157.837 160.821 158.035 160.873 158.319C160.916 158.604 160.726 158.879 160.433 158.931C152.838 160.205 144.382 162.263 143.882 163.383C144.02 164.838 144.373 164.916 145.389 165.122C145.519 165.148 145.665 165.183 145.811 165.217C145.966 165.252 146.096 165.355 146.165 165.484C146.233 165.613 146.251 165.786 146.19 165.923C146.19 165.932 146.053 166.328 146.268 166.724C146.475 167.103 146.957 167.396 147.663 167.568L161.51 166.276C161.794 166.242 162.052 166.457 162.087 166.733C162.121 167.017 161.932 167.284 161.648 167.327C156.782 168.145 151.349 169.566 150.927 170.384V170.367Z" fill="#1B1A3F"/>
<path d="M209.992 125.657C208.433 142.94 194.767 155.529 186.741 161.557C184.674 163.116 182.969 164.236 181.962 164.89C181.015 163.805 180.067 162.72 179.12 161.644C175.598 157.622 172.076 153.609 168.563 149.596C168.382 149.39 168.192 149.174 168.011 148.968C169.923 146.815 171.835 144.662 173.738 142.518C178.397 137.273 183.038 132.029 187.697 126.793C187.947 126.518 188.196 126.234 188.446 125.958C186.672 119.121 185.277 113.851 184.502 110.966C180.162 94.7076 177.966 87.3621 181.85 80.9036C182.487 79.8444 183.133 79.0607 183.555 78.5957C185.932 78.346 189.505 78.2943 193.07 79.7583C193.139 79.7841 193.2 79.8099 193.277 79.8444C195.327 80.7227 201.475 83.8659 206.496 103.173C207.262 106.118 207.925 108.658 208.468 110.923C209.449 115.039 210.035 118.26 210.155 121.463C210.207 122.849 210.164 124.236 210.043 125.683H210.035L209.992 125.657Z" fill="white"/>
<path d="M181.953 165.639C181.746 165.639 181.531 165.553 181.385 165.381C180.437 164.296 179.49 163.219 178.534 162.134C176.183 159.456 173.832 156.769 171.49 154.1L167.417 149.45C167.167 149.166 167.167 148.744 167.417 148.46C168.692 147.021 169.966 145.583 171.249 144.145L173.144 142.01C177.794 136.765 182.444 131.521 187.103 126.285C187.258 126.104 187.421 125.932 187.576 125.751C185.906 119.319 184.571 114.272 183.736 111.155L183.236 109.287C179.137 93.9756 177.268 86.9831 181.161 80.5074C181.815 79.4224 182.495 78.5871 182.952 78.079C183.072 77.9412 183.245 77.8551 183.434 77.8379C187.077 77.459 190.383 77.8551 193.268 79.0349C193.277 79.0349 193.286 79.0349 193.303 79.0435C193.389 79.0779 193.458 79.1038 193.535 79.1382C199.09 81.5236 203.679 89.5321 207.176 102.966L207.279 103.345C208.002 106.143 208.631 108.555 209.148 110.725C210.25 115.349 210.749 118.44 210.853 121.411C210.904 122.867 210.861 124.27 210.732 125.726C209.156 143.207 195.301 156.055 187.18 162.16C185.113 163.719 183.434 164.83 182.358 165.519C182.229 165.605 182.091 165.639 181.953 165.639ZM168.984 148.959L172.627 153.11C174.978 155.788 177.329 158.466 179.671 161.144C180.48 162.065 181.281 162.987 182.091 163.9C183.133 163.211 184.571 162.238 186.284 160.955C194.207 155.004 207.718 142.483 209.242 125.588C209.371 124.201 209.406 122.849 209.354 121.463C209.242 118.604 208.76 115.59 207.684 111.069C207.167 108.908 206.547 106.505 205.824 103.724L205.72 103.345C203.404 94.4406 199.313 83.2458 192.932 80.516C192.881 80.4902 192.829 80.473 192.786 80.4557C192.769 80.4557 192.752 80.4471 192.734 80.4385C190.151 79.3793 187.171 78.9918 183.882 79.3018C183.486 79.7668 182.961 80.4385 182.452 81.2824C178.887 87.2157 180.704 94.0186 184.691 108.908L185.191 110.776C186.043 113.962 187.421 119.147 189.135 125.769C189.195 126.01 189.135 126.268 188.971 126.458L188.73 126.733C188.566 126.923 188.403 127.112 188.231 127.301C183.581 132.537 178.93 137.781 174.28 143.026L172.386 145.161C171.258 146.436 170.13 147.71 169.002 148.985L168.984 148.959Z" fill="#1B1A3F"/>
<path d="M207.563 110.57C204.988 111.379 202.422 111.439 201.647 111.439C200.485 111.439 199.52 110.501 198.917 109.717C196.584 106.677 195.421 100.641 196.446 96.8001C197.385 93.2694 196.386 91.9002 195.12 90.1521C194.181 88.869 193.027 87.2673 192.218 84.2017C191.856 82.8066 192.123 81.6183 193.036 80.5849C192.89 80.5246 192.752 80.4557 192.614 80.3782C192.356 80.3266 192.097 80.2577 191.873 80.163C190.935 81.4116 190.659 82.8669 191.09 84.4945C191.951 87.7754 193.182 89.4718 194.181 90.8324C195.387 92.503 196.119 93.5019 195.318 96.4901C194.198 100.701 195.421 107.082 197.987 110.423C199.081 111.853 200.347 112.611 201.647 112.611C202.706 112.611 205.178 112.533 207.83 111.698C207.83 111.698 207.804 111.577 207.727 111.215C207.606 110.759 207.563 110.578 207.563 110.578V110.57Z" fill="#DEEBF3"/>
<path d="M209.303 120.447C208.046 119.973 206.961 120.068 205.729 120.602C202.758 121.885 200.166 126.104 198.78 131.874C198.142 134.518 197.85 136.498 197.617 138.091C196.997 142.337 196.704 144.274 191.21 150.862C188.61 153.988 186.991 157.269 186.285 160.955C186.285 160.955 186.844 160.558 187.068 160.395C187.507 160.016 187.792 159.835 187.792 159.835C188.601 156.985 190.048 154.109 192.123 151.62C197.824 144.774 198.142 142.604 198.788 138.272C199.021 136.696 199.305 134.75 199.925 132.158C201.208 126.819 203.611 122.806 206.203 121.687C206.702 121.463 207.21 121.36 207.727 121.36C208.287 121.36 208.795 121.48 209.363 121.739C209.363 121.739 209.354 121.368 209.337 121.101C209.337 120.938 209.294 120.464 209.294 120.464L209.303 120.447Z" fill="#DEEBF3"/>
<path d="M170.242 297.685C169.88 294.671 161.346 223.645 161.346 215.439C161.346 209.144 173.764 199.241 185.406 190.448C187.594 188.795 189.324 187.486 190.099 186.789C193.019 184.136 191.667 170.375 190.9 165.295L192.054 165.122C192.347 167.06 194.793 184.11 190.892 187.658C190.074 188.399 188.334 189.725 186.121 191.387C178.466 197.174 162.517 209.204 162.517 215.447C162.517 223.576 171.31 296.816 171.396 297.556L170.233 297.694L170.242 297.685Z" fill="#1B1A3F"/>
<path d="M104.236 288.85C103.866 285.535 95.2886 207.749 97.0367 202.866C97.3209 202.065 98.1993 199.628 120.873 189.131C131.982 183.99 143.021 179.383 143.133 179.331L143.581 180.408C125.971 187.744 99.336 199.895 98.139 203.253C96.7612 207.103 102.91 266.254 105.407 288.721L104.244 288.85H104.236Z" fill="#1B1A3F"/>
</svg>
