<svg width="65" height="52" viewBox="0 0 65 52" fill="black" xmlns="http://www.w3.org/2000/svg">
<path d="M64.5937 30.4533C63.8842 15.8118 53.5953 2.45043 38.4362 1.06181C27.4704 0.0572258 16.5914 6.9327 13.15 17.0312C0.785401 21.0206 -8.00761 32.6074 -13.7842 44.3396C-14.0851 42.657 -14.3938 40.9757 -14.6979 39.2977C-15.2288 36.3691 -19.8042 37.1502 -19.2531 40.0794C-18.6523 43.2507 -18.1019 46.4347 -17.4382 49.5953C-17.1186 51.1049 -15.675 51.7667 -14.2809 51.2688C-10.5799 49.9384 -6.73571 48.6885 -3.23417 46.8789C-1.87971 46.1735 -2.47897 44.1419 -4.01472 44.3327C-6.33338 44.6255 -8.63191 45.1533 -10.9164 45.7394C-5.92283 35.3098 1.23182 24.9178 12.2744 20.6216C12.0262 22.261 11.9636 23.9696 12.1266 25.7203C13.2099 37.4517 27.7041 50.4189 39.2997 42.2077C44.9516 38.2059 45.1091 30.195 41.5244 24.7828C37.6382 18.9089 30.5185 15.8416 23.6436 15.5903C21.1089 15.4957 18.6969 15.7155 16.3954 16.1792C19.8657 8.39209 28.5576 3.04805 37.3347 3.42974C51.9452 4.07164 61.8809 16.859 62.8535 30.7478C62.933 31.8944 64.66 31.5697 64.6048 30.4473L64.5937 30.4533ZM31.2507 20.3203C37.0665 22.7625 42.7543 28.9578 40.4738 35.7161C38.2954 42.1738 30.3344 42.59 25.027 40.0242C19.7996 37.5013 16.0183 32.1915 15.0661 26.5014C14.6702 24.1236 14.7568 21.8248 15.237 19.6524C20.4774 18.2235 26.1937 18.2007 31.2507 20.3203Z" fill="#1B1A3F"/>
</svg>
