<svg width="380" height="413" viewBox="0 0 380 413" fill="none" xmlns="http://www.w3.org/2000/svg">
<path d="M262.241 246.722L253.429 364.264L259.927 364.579L270.778 246.427L271.913 234.081L263.677 227.576L262.241 246.722Z" fill="#1B1A3F"/>
<path d="M253.115 364.552L260.203 364.893L272.228 233.956L263.422 227.006L253.115 364.552ZM271.605 234.218L270.464 246.401L259.658 364.27L253.757 363.988L263.907 228.173L271.605 234.218Z" fill="#1B1A3F"/>
<path d="M335.742 252.623C334.929 238.52 334.634 229.543 334.562 223.951C334.476 217.394 334.68 215.532 334.68 215.532C334.68 215.532 328.123 210.286 324.13 215.191C321.416 218.509 319.881 226.468 322.327 243.837C322.865 247.646 323.481 251.915 324.156 256.524C331.093 303.962 344.298 387.776 344.298 387.776L352.016 388.15C352.016 388.15 338.653 291.465 336.03 256.642C335.906 255.193 335.814 253.849 335.742 252.623Z" fill="#1B1A3F"/>
<path d="M336.312 256.616C336.207 255.272 336.116 253.921 336.044 252.603C335.349 240.67 334.949 231.025 334.857 223.951C334.772 217.518 334.975 215.578 334.975 215.565V215.401L334.85 215.296C334.778 215.243 328.018 209.939 323.881 215.001C320.524 219.118 319.894 228.829 322.012 243.85C322.497 247.286 323.081 251.318 323.841 256.544C330.7 303.437 343.853 386.957 343.984 387.796L344.023 388.032L352.337 388.432L352.284 388.078C352.173 387.14 338.928 291.032 336.312 256.616ZM344.554 387.501C343.767 382.505 331.126 302.146 324.451 256.498C323.684 251.253 323.107 247.247 322.622 243.811C320.524 228.934 321.107 219.374 324.36 215.394C327.88 211.08 333.447 214.974 334.372 215.676C334.326 216.26 334.188 218.463 334.267 223.97C334.358 231.058 334.758 240.71 335.447 252.656C335.526 253.967 335.617 255.324 335.722 256.675C338.253 290.055 350.803 381.39 351.668 387.848L344.554 387.501Z" fill="#1B1A3F"/>
<path d="M203.408 276.896L187.193 387.534L192.878 387.809C194.845 380.983 209.84 280.751 209.84 280.751C210.955 274.293 203.408 276.896 203.408 276.896Z" fill="#1B1A3F"/>
<path d="M203.316 276.614L203.146 276.673L186.885 387.481L186.839 387.802L193.088 388.104L193.153 387.875C195.061 381.128 209.486 284.934 210.142 280.797C210.45 279.001 210.142 277.689 209.217 276.902C207.283 275.27 203.474 276.561 203.316 276.614ZM209.532 280.699C209.388 281.689 194.806 379.049 192.642 387.488L187.521 387.239L203.677 277.086C204.411 276.87 207.362 276.083 208.811 277.322C209.565 278.004 209.807 279.125 209.532 280.699Z" fill="#1B1A3F"/>
<path d="M205.539 280.955L204.818 295.982L277.486 299.477L335.388 302.27L333.814 285.098L205.539 280.955Z" fill="#1B1A3F"/>
<path d="M205.264 280.627L204.51 296.245L335.716 302.559L334.064 284.81L205.264 280.627ZM205.133 295.707L205.828 281.282L333.546 285.413L335.06 301.982L205.133 295.707Z" fill="#1B1A3F"/>
<path d="M272.431 291.117L266.72 409.702L276.063 410.154L281.892 289.131C271.886 285.367 272.431 291.117 272.431 291.117Z" fill="#1B1A3F"/>
<path d="M273.355 288.357C272.947 288.683 272.623 289.102 272.41 289.579C272.196 290.056 272.1 290.576 272.129 291.098L266.418 409.669V409.964L276.364 410.449L282.206 289.15V288.934L282.01 288.855C277.866 287.288 274.961 287.131 273.355 288.357ZM275.774 409.826L267.021 409.4L272.719 291.117V291.072C272.697 290.642 272.779 290.214 272.957 289.823C273.135 289.431 273.404 289.088 273.742 288.823C274.712 288.088 276.863 287.577 281.61 289.308L275.774 409.826Z" fill="#1B1A3F"/>
<path d="M329.363 276.398C322.937 268.53 284.121 265.159 273.329 263.868C261.999 262.504 218.849 262.465 209.316 266.071C206.831 267.015 205.382 268.274 204.53 269.677C202.163 273.677 205.034 278.824 204.936 280.922C204.798 283.767 210.018 285.243 216.01 287.564C222.003 289.885 279.053 297.11 282.712 297.287C286.37 297.464 329.422 290.993 329.422 290.993C329.422 290.993 333.31 286.292 330.077 277.591C329.906 277.157 329.665 276.753 329.363 276.398Z" fill="white"/>
<path d="M330.195 275.716C324.202 268.392 292.966 264.956 277.958 263.304L273.46 262.799C262.018 261.422 218.803 261.33 208.929 265.068C206.424 266.018 204.634 267.382 203.605 269.133C201.729 272.293 202.687 275.906 203.388 278.542C203.633 279.297 203.791 280.078 203.86 280.869C203.703 284.095 207.866 285.649 213.132 287.623L215.623 288.567C221.99 291.039 279.675 298.218 282.659 298.362H282.842C287.55 298.362 327.841 292.311 329.578 292.048C329.836 292.004 330.068 291.869 330.234 291.668C330.411 291.458 334.483 286.39 331.06 277.204C330.856 276.664 330.563 276.161 330.195 275.716ZM328.818 289.996C316.727 291.812 286.567 296.218 282.921 296.218H282.777C279.498 296.068 222.304 288.855 216.416 286.567C215.558 286.233 214.712 285.911 213.899 285.616C209.807 284.082 205.939 282.633 206.031 280.981C205.991 279.966 205.808 278.961 205.486 277.997C204.831 275.604 204.057 272.621 205.486 270.228C206.26 268.916 207.689 267.854 209.729 267.087C219.131 263.527 262.241 263.619 273.23 264.936C274.424 265.081 275.958 265.251 277.754 265.448C291.327 266.943 323.12 270.438 328.562 277.086C328.786 277.35 328.963 277.649 329.087 277.971C331.604 284.797 329.526 288.875 328.818 289.996Z" fill="#1B1A3F"/>
<path d="M329.362 276.398C316.793 280.259 297.346 285.131 282.265 283.905C281.682 283.859 281.098 283.8 280.528 283.735C261.166 281.505 225.17 275.867 204.542 269.664C202.175 273.663 205.047 278.804 204.949 280.909C204.811 283.754 210.03 285.229 216.023 287.551C222.016 289.872 279.066 297.097 282.724 297.274H282.81C287.019 297.359 329.434 290.98 329.434 290.98C329.434 290.98 333.322 286.279 330.09 277.578C329.914 277.147 329.668 276.748 329.362 276.398Z" fill="white"/>
<path d="M331.073 277.211C330.864 276.668 330.567 276.163 330.195 275.716C330.059 275.552 329.877 275.431 329.673 275.37C329.469 275.308 329.252 275.307 329.047 275.368C315.836 279.433 297.011 284.023 282.344 282.849C281.78 282.803 281.203 282.744 280.633 282.679C261.618 280.489 225.688 274.935 204.837 268.648C204.607 268.578 204.36 268.588 204.137 268.676C203.913 268.764 203.726 268.925 203.605 269.133C201.729 272.293 202.687 275.906 203.388 278.548C203.633 279.302 203.791 280.08 203.86 280.869C203.703 284.095 207.86 285.649 213.132 287.623L215.623 288.567C221.99 291.039 279.675 298.218 282.659 298.362H282.869C287.563 298.362 327.854 292.311 329.578 292.055C329.836 292.011 330.068 291.876 330.234 291.675C330.411 291.465 334.483 286.397 331.06 277.211H331.073ZM328.811 290.003C314.151 292.206 286.462 296.218 282.914 296.218H282.777C279.498 296.061 222.311 288.849 216.423 286.567C215.564 286.233 214.718 285.911 213.899 285.616C209.814 284.082 205.945 282.633 206.031 280.981C205.991 279.966 205.808 278.961 205.486 277.997C204.916 275.847 204.214 273.218 205.106 270.975C226.212 277.197 261.553 282.653 280.41 284.823L282.187 285C296.913 286.18 315.593 281.722 328.936 277.663C328.992 277.762 329.04 277.865 329.08 277.971C331.605 284.797 329.526 288.875 328.818 289.996L328.811 290.003Z" fill="#1B1A3F"/>
<path d="M328.372 195.835C304.387 188.754 279.5 185.198 254.491 185.279C252.155 185.284 249.862 185.904 247.842 187.077C245.822 188.25 244.146 189.934 242.984 191.96C239.214 198.517 234.985 208.89 235.969 221.538C236.158 223.994 236.537 226.431 237.103 228.829C237.818 231.893 239.591 234.608 242.109 236.495C244.627 238.383 247.73 239.322 250.872 239.149C269.372 238.117 287.91 240.366 305.627 245.791C308.866 246.792 311.967 247.861 314.931 248.997C316.62 249.638 318.422 249.929 320.227 249.852C322.031 249.775 323.802 249.332 325.43 248.549C327.058 247.767 328.511 246.661 329.698 245.3C330.886 243.939 331.784 242.35 332.339 240.631C335.622 230.442 337.506 219.855 337.938 209.159C338.052 206.19 337.174 203.269 335.441 200.856C333.709 198.443 331.221 196.676 328.372 195.835Z" fill="white"/>
<path d="M328.674 194.806C304.593 187.685 279.603 184.114 254.491 184.204C251.965 184.21 249.485 184.879 247.299 186.145C245.112 187.411 243.297 189.228 242.034 191.416C238.218 198.071 233.884 208.713 234.88 221.61C235.077 224.119 235.465 226.609 236.041 229.058C236.814 232.365 238.726 235.295 241.443 237.333C244.16 239.371 247.507 240.388 250.898 240.205C269.273 239.172 287.685 241.406 305.28 246.801C308.374 247.758 311.482 248.827 314.518 249.981C316.343 250.674 318.29 250.99 320.241 250.908C322.192 250.827 324.106 250.35 325.868 249.507C327.629 248.665 329.201 247.473 330.488 246.004C331.775 244.536 332.75 242.822 333.355 240.965C336.661 230.681 338.56 219.998 339.001 209.205C339.126 205.998 338.179 202.841 336.309 200.233C334.438 197.625 331.752 195.715 328.674 194.806ZM336.863 209.159C336.429 219.756 334.563 230.246 331.316 240.342C330.805 241.923 329.978 243.384 328.884 244.635C327.791 245.886 326.454 246.902 324.955 247.619C323.457 248.337 321.828 248.742 320.167 248.81C318.507 248.878 316.85 248.607 315.298 248.014C312.217 246.84 309.063 245.752 305.929 244.781C290.906 240.166 275.275 237.834 259.56 237.864C256.649 237.864 253.726 237.94 250.793 238.093C247.907 238.249 245.057 237.384 242.744 235.649C240.432 233.915 238.804 231.421 238.146 228.606C237.595 226.252 237.22 223.861 237.024 221.452C236.067 209.106 240.237 198.891 243.902 192.498C244.974 190.637 246.515 189.09 248.372 188.012C250.23 186.934 252.337 186.362 254.485 186.354C263.298 186.332 272.106 186.757 280.876 187.626C296.865 189.229 312.67 192.322 328.084 196.865C330.709 197.641 332.999 199.272 334.59 201.5C336.181 203.728 336.981 206.424 336.863 209.159Z" fill="#1B1A3F"/>
<path d="M321.894 200.248C320.878 199.999 296.73 194.144 282.875 193.855C282.727 193.841 282.577 193.857 282.436 193.904C282.294 193.95 282.164 194.025 282.053 194.124C281.941 194.222 281.852 194.343 281.789 194.478C281.727 194.614 281.693 194.76 281.69 194.909C281.687 195.058 281.714 195.206 281.771 195.344C281.827 195.481 281.912 195.606 282.019 195.709C282.126 195.813 282.253 195.893 282.392 195.945C282.532 195.998 282.681 196.02 282.829 196.012C296.448 196.288 321.14 202.274 321.389 202.34C321.474 202.349 321.56 202.349 321.645 202.34C321.906 202.336 322.157 202.238 322.351 202.063C322.545 201.889 322.668 201.649 322.699 201.39C322.729 201.131 322.665 200.869 322.517 200.654C322.368 200.439 322.147 200.286 321.894 200.222V200.248Z" fill="#1B1A3F"/>
<path d="M275.938 193.252C273.539 193.182 271.157 192.837 268.837 192.223C268.702 192.18 268.561 192.164 268.42 192.175C268.279 192.187 268.141 192.227 268.016 192.291C267.89 192.356 267.778 192.445 267.687 192.553C267.595 192.661 267.526 192.786 267.483 192.921C267.44 193.056 267.424 193.198 267.436 193.339C267.448 193.48 267.487 193.617 267.552 193.743C267.617 193.868 267.706 193.98 267.814 194.071C267.922 194.163 268.047 194.232 268.182 194.275C270.698 194.955 273.286 195.33 275.892 195.39C276.177 195.39 276.451 195.276 276.653 195.075C276.854 194.873 276.967 194.599 276.967 194.314C276.967 194.029 276.854 193.756 276.653 193.554C276.451 193.352 276.177 193.239 275.892 193.239L275.938 193.252Z" fill="#1B1A3F"/>
<path d="M226.632 353.472L206.589 352.704C207.231 366.395 207.871 380.085 208.51 393.776L181.253 403.493V410.279H233.746C232.107 403.753 230.466 397.227 228.822 390.701C228.105 378.295 227.375 365.886 226.632 353.472Z" fill="white"/>
<path d="M229.596 390.589L227.373 353.406C227.363 353.221 227.285 353.046 227.152 352.916C227.02 352.786 226.844 352.711 226.658 352.704L206.615 351.937C206.512 351.935 206.409 351.953 206.314 351.991C206.218 352.03 206.132 352.087 206.059 352.16C205.987 352.233 205.93 352.32 205.892 352.416C205.855 352.512 205.837 352.615 205.841 352.718L207.736 393.238L181.004 402.765C180.859 402.819 180.734 402.915 180.646 403.042C180.557 403.168 180.508 403.318 180.506 403.473V410.259C180.508 410.457 180.587 410.646 180.727 410.786C180.866 410.926 181.056 411.005 181.253 411.007H233.746C233.86 411.006 233.972 410.979 234.074 410.929C234.176 410.879 234.265 410.806 234.335 410.717C234.405 410.627 234.454 410.523 234.478 410.412C234.502 410.301 234.501 410.186 234.474 410.076L229.596 390.589ZM182.007 409.531V404.017L208.759 394.477C208.91 394.423 209.04 394.322 209.129 394.188C209.219 394.055 209.264 393.897 209.257 393.736L207.375 353.485L225.924 354.193L228.108 390.779C228.101 390.825 228.101 390.871 228.108 390.917L232.796 409.564L182.007 409.531Z" fill="#1B1A3F"/>
<path d="M234.605 407.21H180.486V411.813H234.605V407.21Z" fill="white"/>
<path d="M234.605 406.463H180.486C180.288 406.463 180.098 406.542 179.958 406.682C179.818 406.822 179.739 407.012 179.739 407.21V411.8C179.739 411.998 179.818 412.188 179.958 412.328C180.098 412.469 180.288 412.547 180.486 412.547H234.605C234.804 412.547 234.995 412.469 235.136 412.329C235.277 412.189 235.358 411.999 235.359 411.8V407.21C235.358 407.011 235.277 406.821 235.136 406.681C234.995 406.541 234.804 406.463 234.605 406.463ZM233.858 411.052H181.234V407.958H233.858V411.052Z" fill="#1B1A3F"/>
<path d="M215.991 389.756C216.102 391.363 217.643 392.622 219.512 392.622C221.38 392.622 222.842 391.428 223.013 389.868L224.626 375.273H215.027L215.991 389.756Z" fill="white"/>
<path d="M224.626 374.578H215.027C214.932 374.577 214.838 374.597 214.75 374.634C214.663 374.672 214.584 374.728 214.519 374.797C214.453 374.867 214.403 374.949 214.371 375.038C214.339 375.128 214.326 375.223 214.332 375.318L215.302 389.802C215.434 391.769 217.269 393.317 219.512 393.317C220.503 393.367 221.478 393.052 222.252 392.431C223.025 391.809 223.544 390.925 223.708 389.946L225.321 375.351C225.331 375.254 225.32 375.156 225.289 375.064C225.259 374.971 225.209 374.886 225.144 374.814C225.081 374.738 225.002 374.677 224.912 374.636C224.822 374.596 224.725 374.575 224.626 374.578ZM222.325 389.796C222.194 390.989 220.954 391.927 219.512 391.927C218.069 391.927 216.771 390.956 216.686 389.71L215.768 375.941H223.852L222.325 389.796Z" fill="#1B1A3F"/>
<path d="M293.104 247.043C290.571 243.7 287.481 240.816 283.971 238.52C278.125 234.782 271.532 232.37 264.655 231.451C252.502 234.965 240.546 239.124 228.836 243.909C208.838 252.112 203.92 256.321 200.747 261.212C195.285 269.69 196.111 278.817 196.524 283.905C198.183 304.06 199.114 329.802 199.724 363.038C209.805 366.151 220.456 366.966 230.894 365.424C231.36 365.359 231.819 365.287 232.278 365.208C239.688 363.943 246.843 361.481 253.462 357.917C250.516 329.942 247.575 301.967 244.637 273.991L248.211 272.024L293.104 247.043Z" fill="white"/>
<path d="M284.384 237.91C278.449 234.098 271.75 231.636 264.759 230.697C264.658 230.674 264.553 230.674 264.451 230.697C252.271 234.243 240.288 238.434 228.553 243.253C209.001 251.272 203.474 255.619 200.117 260.839C194.59 269.421 195.357 278.778 195.763 283.787V283.99C197.33 302.815 198.34 327.179 198.996 363.064C199.001 363.222 199.054 363.374 199.15 363.499C199.245 363.625 199.377 363.718 199.527 363.766C206.365 365.869 213.479 366.941 220.633 366.946C224.098 366.947 227.559 366.69 230.986 366.178C231.458 366.113 231.93 366.034 232.389 365.956C239.881 364.682 247.114 362.193 253.803 358.586C253.934 358.516 254.04 358.409 254.109 358.278C254.178 358.147 254.206 357.999 254.19 357.851L245.43 274.404L293.465 247.699C293.559 247.647 293.64 247.576 293.705 247.49C293.769 247.404 293.815 247.305 293.838 247.201C293.859 247.095 293.857 246.986 293.833 246.881C293.81 246.776 293.764 246.677 293.701 246.591C291.113 243.187 287.962 240.251 284.384 237.91ZM244.276 273.316C244.148 273.386 244.044 273.493 243.976 273.622C243.908 273.752 243.881 273.898 243.896 274.044L252.669 357.478C246.244 360.884 239.316 363.239 232.146 364.454L230.783 364.677C220.637 366.165 210.288 365.411 200.464 362.467C199.809 326.878 198.819 302.605 197.271 283.833V283.636C196.845 278.443 196.13 269.756 201.382 261.606C204.582 256.642 209.945 252.459 229.13 244.591C240.766 239.829 252.646 235.686 264.72 232.179C271.439 233.103 277.875 235.484 283.577 239.156C286.771 241.249 289.614 243.834 292.002 246.814L244.276 273.316Z" fill="#1B1A3F"/>
<path d="M228.809 374.42H207.605C207.421 374.438 207.251 374.523 207.127 374.659C207.002 374.796 206.934 374.974 206.934 375.158C206.934 375.342 207.002 375.52 207.127 375.657C207.251 375.793 207.421 375.878 207.605 375.896H228.809C228.993 375.878 229.163 375.793 229.288 375.657C229.412 375.52 229.481 375.342 229.481 375.158C229.481 374.974 229.412 374.796 229.288 374.659C229.163 374.523 228.993 374.438 228.809 374.42Z" fill="#1B1A3F"/>
<path d="M215.027 255.967C212.51 256.485 210.172 257.654 208.247 259.357C205.159 261.979 201.35 267.192 200.779 277.06C200.77 277.255 200.838 277.446 200.968 277.592C201.098 277.737 201.279 277.827 201.474 277.84H201.52C201.708 277.839 201.888 277.766 202.024 277.637C202.16 277.508 202.243 277.332 202.254 277.145C203.277 259.39 214.751 257.475 215.237 257.416C215.418 257.375 215.578 257.267 215.684 257.114C215.789 256.96 215.833 256.772 215.807 256.588C215.78 256.404 215.685 256.236 215.541 256.118C215.396 256.001 215.213 255.942 215.027 255.954V255.967Z" fill="#1B1A3F"/>
<path d="M203.585 305.398C203.489 305.408 203.396 305.436 203.311 305.482C203.226 305.528 203.151 305.59 203.09 305.665C203.029 305.74 202.984 305.826 202.956 305.919C202.929 306.011 202.92 306.108 202.93 306.204L206.864 349.19C206.883 349.37 206.968 349.536 207.102 349.657C207.237 349.778 207.411 349.845 207.592 349.846H207.664C207.857 349.824 208.034 349.728 208.157 349.577C208.279 349.426 208.338 349.233 208.319 349.039L204.385 306.054C204.365 305.861 204.27 305.684 204.12 305.561C203.971 305.438 203.778 305.38 203.585 305.398Z" fill="#1B1A3F"/>
<path d="M248.21 272.005L234.605 266.045C234.605 266.045 228.566 269.415 226.416 280.161C224.606 289.183 230.35 346.889 232.278 365.221C239.688 363.956 246.843 361.494 253.462 357.93C250.516 329.955 247.574 301.98 244.637 274.004L248.21 272.005Z" fill="#1B1A3F"/>
<path d="M249.266 271.952L234.586 265.546L234.382 265.658C234.127 265.802 228.121 269.257 225.957 280.082C224.187 288.908 229.458 342.601 231.812 365.28L231.864 365.779L232.356 365.693C239.819 364.424 247.023 361.944 253.685 358.35L253.961 358.206L245.135 274.28L249.266 271.952ZM252.964 357.661C246.616 361.048 239.775 363.414 232.691 364.67C230.802 346.443 225.098 289.118 226.875 280.253C228.737 270.936 233.622 267.251 234.645 266.576L247.161 272.057L244.139 273.736L252.964 357.661Z" fill="#1B1A3F"/>
<path d="M257.252 367.293L276.443 386.485L269.152 399.532L257.639 404.122V410.266H278.751L303.313 386.472L272.221 358.848L257.252 367.293Z" fill="white"/>
<path d="M272.719 358.284C272.602 358.182 272.456 358.119 272.301 358.102C272.146 358.086 271.99 358.117 271.854 358.193L256.885 366.638C256.785 366.695 256.699 366.774 256.635 366.87C256.57 366.965 256.528 367.074 256.511 367.188C256.492 367.307 256.502 367.428 256.54 367.542C256.578 367.656 256.642 367.76 256.728 367.844L275.519 386.635L268.628 398.962L257.35 403.447C257.216 403.498 257.1 403.587 257.016 403.704C256.932 403.82 256.884 403.959 256.878 404.103V410.246C256.878 410.444 256.957 410.634 257.097 410.775C257.237 410.915 257.428 410.994 257.626 410.994H278.738C278.931 410.992 279.117 410.917 279.256 410.784L303.818 386.983C303.893 386.913 303.952 386.827 303.992 386.732C304.031 386.637 304.05 386.535 304.047 386.432C304.044 386.33 304.02 386.228 303.977 386.135C303.935 386.042 303.874 385.958 303.798 385.888L272.719 358.284ZM278.443 409.531H258.386V404.647L269.428 400.227C269.589 400.163 269.723 400.045 269.808 399.893L277.099 386.845C277.178 386.703 277.209 386.539 277.186 386.379C277.164 386.218 277.09 386.068 276.975 385.954L258.478 367.457L272.123 359.76L302.211 386.504L278.443 409.531Z" fill="#1B1A3F"/>
<path d="M279.519 407.21H256.485V411.813H274.916H281.427L286.029 407.21L306.224 387.016L302.972 383.757L279.519 407.21Z" fill="white"/>
<path d="M303.503 383.232C303.359 383.097 303.169 383.021 302.972 383.021C302.774 383.021 302.584 383.097 302.441 383.232L279.217 406.463H256.485C256.287 406.463 256.096 406.541 255.956 406.682C255.816 406.822 255.737 407.012 255.737 407.21V411.8C255.737 411.998 255.816 412.188 255.956 412.328C256.096 412.469 256.287 412.547 256.485 412.547H281.4C281.598 412.546 281.789 412.468 281.931 412.331L306.729 387.533C306.867 387.391 306.945 387.201 306.945 387.002C306.945 386.804 306.867 386.613 306.729 386.471L303.503 383.232ZM281.118 411.065H257.232V407.958H279.525C279.623 407.958 279.72 407.938 279.81 407.9C279.9 407.862 279.982 407.806 280.05 407.735L302.998 384.786L305.194 386.983L281.118 411.065Z" fill="#1B1A3F"/>
<path d="M275.283 367.346L267.618 372.971L279.945 383.613C280.617 384.188 281.482 384.49 282.366 384.457C283.251 384.424 284.09 384.059 284.718 383.434C285.345 382.81 285.715 381.973 285.752 381.088C285.79 380.204 285.493 379.338 284.921 378.663L275.283 367.346Z" fill="white"/>
<path d="M275.853 366.86C275.729 366.718 275.556 366.627 275.368 366.605C275.18 366.583 274.991 366.632 274.837 366.742L267.185 372.368C267.095 372.434 267.022 372.52 266.969 372.619C266.917 372.717 266.888 372.827 266.884 372.938C266.878 373.051 266.898 373.163 266.942 373.266C266.987 373.37 267.054 373.462 267.14 373.535L279.46 384.177C280.274 384.88 281.323 385.25 282.399 385.213C283.474 385.176 284.496 384.734 285.259 383.975C286.023 383.217 286.471 382.198 286.516 381.123C286.56 380.048 286.197 378.996 285.498 378.177L275.853 366.86ZM284.233 382.911C283.74 383.418 283.071 383.718 282.364 383.748C281.657 383.779 280.965 383.538 280.43 383.075L268.818 373.05L275.165 368.395L284.344 379.18C284.795 379.704 285.033 380.377 285.012 381.067C284.992 381.758 284.714 382.415 284.233 382.911Z" fill="#1B1A3F"/>
<path d="M257.941 72.386C246.139 73.1007 253.285 89.2236 253.285 89.2236C253.285 89.2236 241.483 96.7441 260.426 95.282C279.368 93.8199 269.762 71.6648 257.941 72.386Z" fill="#1B1A3F"/>
<path d="M257.914 71.9139C255.042 72.0909 252.984 73.1596 251.81 75.1004C249.082 79.5852 251.967 87.2631 252.702 89.0465C251.626 89.7809 248.636 92.0233 249.259 93.8854C249.718 95.2688 251.882 95.9442 256.039 95.9442C257.35 95.9442 258.793 95.8786 260.465 95.7475C267.841 95.1836 272.004 91.2824 271.611 85.3223C271.119 78.7656 265.061 71.468 257.914 71.9139ZM260.393 94.8164C251.738 95.4721 250.348 94.1608 250.151 93.5903C249.771 92.456 252.269 90.4234 253.534 89.617L253.875 89.4006L253.711 89.0334C253.672 88.9416 249.823 80.1688 252.61 75.5856C253.62 73.9268 255.423 73.0023 257.967 72.8515H258.504C264.805 72.8515 270.26 79.5721 270.66 85.4076C271.034 90.8496 267.29 94.2853 260.393 94.8164Z" fill="#1B1A3F"/>
<path d="M267.612 98.18C257.599 91.5512 259.186 86.1747 251.875 84.2077C246.328 82.7193 235.864 80.89 230.474 87.2434C227.091 91.243 227.268 96.5343 227.517 98.8947C227.622 115.011 238.047 128.098 250.8 130.419C269.506 133.822 286.154 112.867 283.761 106.061C282.476 102.494 276.889 104.317 267.612 98.18Z" fill="#1B1A3F"/>
<path d="M278.988 102.691C275.019 101.706 271.249 100.047 267.841 97.7866C264.473 95.5878 261.576 92.7417 259.318 89.4137C257.436 86.8434 255.954 84.824 252.007 83.7552C244.873 81.8407 235.294 80.8441 230.127 86.9418C226.783 90.8758 226.764 96.1212 227.052 98.9209C227.17 114.703 237.346 128.426 250.722 130.878C252.115 131.133 253.528 131.261 254.944 131.259C264.74 131.259 273.519 125.213 278.843 118.978C283.125 113.955 285.236 108.821 284.207 105.904C283.479 103.937 281.702 103.438 278.988 102.691ZM278.076 118.368C272.175 125.292 261.907 131.973 250.84 129.96C237.884 127.6 228.042 114.224 227.937 98.8881V98.8422C227.662 96.2195 227.662 91.2364 230.789 87.545C233.537 84.306 237.674 83.2176 241.995 83.2176C245.282 83.2812 248.548 83.7659 251.712 84.6601C255.338 85.6304 256.669 87.4467 258.505 89.9644C260.847 93.3905 263.85 96.315 267.336 98.5668C270.826 100.887 274.69 102.589 278.758 103.596C281.256 104.291 282.764 104.71 283.289 106.218C284.194 108.782 282.109 113.667 278.096 118.368H278.076Z" fill="#1B1A3F"/>
<path d="M225.518 163.557C225.518 163.557 222.167 168.691 209.939 189.167L168.737 174.841L161.577 189.167C161.577 189.167 170.1 193.882 179.935 199.225C195.967 207.972 197.475 210.182 205.743 213.099C209.998 214.601 212.122 215.348 214.076 215.499C232.186 216.876 249.535 172.618 252.046 166.062L239.49 143.854C233.202 152.05 228.534 158.934 225.518 163.557Z" fill="#C10B25"/>
<path d="M238.893 143.395C233.923 149.867 229.209 156.508 224.888 163.144C224.888 163.196 221.446 168.435 209.604 188.256L168.363 173.91L160.573 189.489L161.229 189.836C161.314 189.882 169.89 194.609 179.588 199.894C185.849 203.31 189.803 205.677 192.983 207.579C197.763 210.437 200.399 212.017 205.506 213.814C209.814 215.342 211.978 216.102 214.03 216.26C214.332 216.26 214.62 216.292 214.922 216.292C232.244 216.292 248.223 178.185 252.767 166.337L252.892 166.009L239.621 142.49L238.893 143.395ZM214.115 214.745C212.26 214.607 210.181 213.866 205.972 212.385C201.015 210.634 198.576 209.178 193.724 206.274C190.701 204.471 186.564 201.992 180.283 198.563C172.113 194.105 164.737 190.039 162.58 188.859L169.136 175.746L210.286 190.059L210.601 189.528C222.678 169.32 226.14 163.996 226.173 163.957C230.271 157.669 234.697 151.361 239.418 145.205L251.22 166.114C247.679 175.234 230.966 216.01 214.115 214.745Z" fill="#1B1A3F"/>
<path d="M151.46 168.114C146.732 168.619 139.192 169.576 134.373 170.94C131.626 171.72 129.783 172.631 129.783 173.667C129.934 177.523 140.635 174.323 145.185 174.021C140.962 174.834 132.524 176.683 132.439 178.893C132.429 179.314 132.558 179.726 132.806 180.067C133.593 181.063 135.429 180.88 136.491 180.637L140.982 179.608L148.732 177.824C146.051 178.883 143.302 179.759 140.503 180.447L140.346 180.48C139.867 180.578 138.563 180.814 138.195 181.706C138.047 182.097 138.059 182.53 138.228 182.912C138.759 183.961 141.723 184.119 145.27 183.266C147.727 182.68 150.08 181.72 152.246 180.421C154.587 178.998 157.577 177.182 156.371 170.31L151.46 168.114Z" fill="white"/>
<path d="M156.672 169.687L151.742 167.491C151.63 167.444 151.508 167.426 151.388 167.438C146.142 167.996 138.93 168.946 134.183 170.284C130.629 171.294 129.069 172.343 129.128 173.7C129.134 174.025 129.213 174.344 129.356 174.635C129.5 174.926 129.706 175.182 129.96 175.385C130.918 176.159 132.583 176.329 134.602 176.205C131.842 177.431 131.803 178.388 131.79 178.867C131.77 179.451 131.95 180.025 132.301 180.493C133.396 181.883 135.724 181.522 136.668 181.306L137.822 181.037C137.727 181.164 137.65 181.303 137.592 181.45C137.481 181.734 137.429 182.037 137.439 182.341C137.449 182.646 137.521 182.945 137.651 183.22C138.117 184.151 139.494 184.499 141.146 184.499C142.601 184.472 144.048 184.281 145.46 183.928C147.984 183.323 150.4 182.337 152.627 181.004C155.046 179.535 158.351 177.523 157.066 170.192C157.049 170.081 157.004 169.977 156.935 169.888C156.866 169.8 156.776 169.731 156.672 169.687ZM151.919 179.837C149.814 181.102 147.528 182.036 145.139 182.604C141.415 183.496 139.107 183.089 138.864 182.604C138.782 182.393 138.782 182.159 138.864 181.948C139.087 181.411 140.136 181.207 140.484 181.135H140.53H140.687C143.517 180.438 146.297 179.551 149.008 178.48C149.094 178.454 149.174 178.412 149.244 178.356C149.314 178.3 149.372 178.23 149.414 178.151C149.457 178.072 149.484 177.986 149.494 177.896C149.503 177.807 149.495 177.717 149.47 177.631C149.444 177.545 149.402 177.464 149.346 177.395C149.289 177.325 149.22 177.267 149.141 177.224C149.062 177.181 148.976 177.154 148.886 177.144C148.797 177.135 148.707 177.143 148.621 177.169L140.871 178.952L136.379 179.981C135.225 180.25 133.855 180.25 133.376 179.653C133.234 179.438 133.159 179.184 133.16 178.926C133.16 178.854 133.37 177.005 145.349 174.697C145.528 174.674 145.691 174.581 145.801 174.439C145.912 174.296 145.962 174.115 145.939 173.936C145.916 173.757 145.824 173.594 145.681 173.483C145.538 173.373 145.358 173.323 145.178 173.346C143.972 173.431 142.359 173.707 140.654 174.002C137.094 174.611 132.216 175.451 130.819 174.336C130.714 174.255 130.63 174.15 130.572 174.031C130.514 173.911 130.484 173.78 130.485 173.648C130.485 173.615 130.485 172.756 134.557 171.602C139.369 170.238 147.067 169.281 151.355 168.815L155.787 170.782C156.751 176.9 154.187 178.46 151.919 179.837Z" fill="#1B1A3F"/>
<path d="M166.101 174.638L156.397 170.31L151.46 168.114L145.021 165.229C141.444 164.624 137.787 164.677 134.229 165.386C131.796 165.884 127.587 166.737 127.148 168.999C127.083 169.365 127.103 169.741 127.206 170.098C127.31 170.455 127.494 170.783 127.744 171.058C128.918 172.297 130.944 171.307 134.373 170.927C134.983 170.854 135.645 170.809 136.34 170.795C138.893 170.715 141.433 171.185 143.789 172.172C146.412 173.297 148.712 175.062 150.476 177.306C145.657 177.523 142.261 178.401 141.828 178.775C141.782 178.821 141.389 179.195 141.041 179.608C140.962 179.703 140.889 179.804 140.825 179.909C140.713 180.076 140.625 180.257 140.563 180.447C140.511 180.601 140.495 180.765 140.517 180.926C140.681 182.099 142.785 182.702 145.329 183.266C146.103 183.437 146.916 183.601 147.736 183.784C154.869 185.358 153.768 186.033 158.344 186.781C162.721 187.479 167.183 187.451 171.55 186.695C171.936 186.263 173.851 184.02 173.517 181.076C173.045 177.837 170.055 175.064 166.101 174.638Z" fill="white"/>
<path d="M166.278 173.969L145.297 164.619C145.244 164.597 145.189 164.581 145.133 164.573C141.471 163.953 137.726 164.009 134.085 164.737C131.462 165.275 127.003 166.179 126.479 168.881C126.395 169.354 126.42 169.839 126.553 170.301C126.686 170.762 126.923 171.187 127.246 171.543C128.334 172.684 129.869 172.395 131.803 172.035C132.577 171.89 133.455 171.726 134.426 171.615C135.081 171.543 135.737 171.503 136.347 171.49C138.802 171.411 141.245 171.858 143.513 172.802C145.6 173.702 147.474 175.032 149.014 176.703C145.139 176.991 141.953 177.713 141.33 178.257C141.021 178.541 140.732 178.845 140.464 179.168C140.365 179.286 140.275 179.411 140.195 179.542C140.052 179.762 139.94 180 139.861 180.25C139.783 180.496 139.758 180.755 139.789 181.011C140.018 182.663 142.346 183.306 145.133 183.922L146.214 184.158L147.526 184.44C149.675 184.866 151.783 185.478 153.827 186.269C155.22 186.845 156.681 187.242 158.174 187.449C160.272 187.792 162.395 187.963 164.521 187.961C166.896 187.955 169.266 187.755 171.609 187.364C171.762 187.339 171.901 187.26 172.002 187.141C172.76 186.317 173.338 185.344 173.699 184.284C174.06 183.224 174.197 182.1 174.1 180.984C173.68 177.405 170.389 174.467 166.278 173.969ZM171.169 186.04C166.951 186.74 162.647 186.755 158.423 186.086C157.025 185.891 155.657 185.521 154.351 184.984C152.246 184.159 150.072 183.525 147.854 183.089L146.542 182.807L145.474 182.571C144.221 182.296 141.303 181.653 141.185 180.807C141.171 180.747 141.171 180.684 141.185 180.624C141.226 180.492 141.286 180.366 141.363 180.25C141.416 180.167 141.475 180.089 141.54 180.014C141.835 179.653 142.195 179.313 142.195 179.28C142.621 179.004 145.808 178.172 150.45 177.968C150.579 177.972 150.706 177.937 150.816 177.869C150.925 177.8 151.012 177.701 151.065 177.583C151.118 177.466 151.136 177.335 151.115 177.207C151.094 177.08 151.036 176.962 150.948 176.867C149.123 174.548 146.751 172.718 144.044 171.543C141.76 170.586 139.308 170.098 136.832 170.107H136.301C135.645 170.107 134.95 170.166 134.255 170.245C133.213 170.363 132.288 170.527 131.514 170.677C129.659 171.025 128.747 171.163 128.197 170.586C128.022 170.387 127.894 170.153 127.821 169.899C127.748 169.645 127.733 169.377 127.777 169.117C128.125 167.314 132.308 166.494 134.334 166.048C137.781 165.363 141.324 165.307 144.792 165.884L165.773 175.241C165.838 175.267 165.907 175.285 165.976 175.293C169.517 175.68 172.349 178.139 172.723 181.142C172.801 182.025 172.703 182.915 172.435 183.76C172.167 184.605 171.735 185.389 171.163 186.066L171.169 186.04Z" fill="#1B1A3F"/>
<path d="M290.18 147.972C274.962 137.042 250.335 132.635 239.313 143.67C230.586 152.404 232.887 167.353 234.297 176.631C237.576 198.438 250.414 212.87 256.505 218.902C263.455 219.558 270.746 220.049 278.358 220.338C288.98 220.738 299.031 220.692 308.453 220.338C310.663 215.263 316.446 200.189 312.033 181.653C310.853 176.677 306.27 159.524 290.18 147.972Z" fill="#C10B25"/>
<path d="M290.619 147.362C275.185 136.274 250.092 131.816 238.775 143.139C229.812 152.115 232.146 167.478 233.53 176.664V176.742C236.553 196.675 247.397 210.962 255.954 219.44L256.15 219.63H256.419C263.632 220.285 271.034 220.79 278.312 221.066C283.308 221.256 288.344 221.348 293.393 221.348C298.441 221.348 303.47 221.256 308.473 221.066H308.945L309.135 220.633C312.263 213.46 316.892 198.832 312.761 181.463C310.814 173.267 305.345 157.931 290.619 147.362ZM307.948 219.597C298.113 219.958 288.187 219.951 278.391 219.597C271.224 219.322 263.966 218.849 256.845 218.187C248.479 209.847 237.982 195.894 235.044 176.533V176.447C233.694 167.55 231.432 152.653 239.857 144.221C250.643 133.429 274.811 137.868 289.754 148.601C304.08 158.888 309.424 173.838 311.312 181.837C315.246 198.412 310.991 212.437 307.948 219.597Z" fill="#1B1A3F"/>
<path d="M260.223 100.973C260.144 100.75 258.754 97.0391 255.803 96.6326C252.984 96.2392 249.535 98.9799 248.637 103.583C248.317 100.684 247.071 97.9662 245.083 95.8327C244.178 94.8885 239.556 90.3579 234.068 92.0626C229.334 93.5313 227.688 98.4947 227.511 99.0455C228.162 102.458 228.532 105.919 228.619 109.392C228.777 116.493 227.616 119.575 229.642 124.158C230.05 125.064 230.521 125.94 231.052 126.78C231.842 127.88 232.827 128.827 233.956 129.573C235.444 130.501 237.136 131.05 238.885 131.173C240.634 131.295 242.386 130.987 243.988 130.275C245.177 135.337 246.362 140.401 247.542 145.467C247.726 146.123 248.853 149.807 252.204 151.197C255.135 152.404 257.934 151.112 260.072 150.122C263.68 148.386 266.634 145.536 268.497 141.992L258.19 109.497C260.439 107.025 261.219 103.773 260.223 100.973Z" fill="white"/>
<path d="M259.167 109.7C260.234 108.491 260.967 107.025 261.295 105.447C261.622 103.868 261.533 102.231 261.035 100.698C260.871 100.245 259.35 96.272 255.921 95.7933C253.469 95.4524 250.466 97.1047 248.801 100.422C248.162 98.4933 247.105 96.7291 245.706 95.2557C244.395 93.8591 239.582 89.4596 233.812 91.2561C228.803 92.81 227 97.8128 226.691 98.8029C226.656 98.9404 226.656 99.0849 226.691 99.2225C227.334 102.59 227.7 106.004 227.786 109.431C227.832 111.641 227.786 113.457 227.681 115.063C227.524 118.63 227.413 121.201 228.888 124.525C229.311 125.469 229.804 126.381 230.363 127.252V127.292C231.218 128.476 232.279 129.496 233.497 130.301C235.797 131.727 238.519 132.313 241.201 131.96C241.944 131.861 242.675 131.69 243.385 131.449L246.716 145.664C247.03 146.772 248.322 150.496 251.876 151.965C252.769 152.336 253.728 152.526 254.695 152.522C256.885 152.522 258.872 151.604 260.452 150.876C264.219 149.054 267.298 146.064 269.231 142.352C269.339 142.151 269.362 141.915 269.297 141.697L259.167 109.7ZM259.724 149.335C257.672 150.279 255.134 151.46 252.512 150.398C249.699 149.237 248.63 146.188 248.361 145.25L244.814 130.078C244.786 129.954 244.73 129.837 244.65 129.738C244.571 129.638 244.47 129.557 244.355 129.501C244.239 129.446 244.113 129.418 243.985 129.418C243.857 129.418 243.73 129.446 243.614 129.501C242.765 129.886 241.863 130.142 240.939 130.262C238.658 130.574 236.339 130.08 234.382 128.865C233.363 128.176 232.474 127.31 231.76 126.308C231.267 125.517 230.829 124.694 230.448 123.843C229.137 120.892 229.242 118.598 229.393 115.162C229.465 113.529 229.55 111.68 229.498 109.412C229.413 105.966 229.051 102.532 228.416 99.1438C228.776 98.1144 230.383 94.1476 234.317 92.928C239.136 91.4331 243.293 95.2622 244.447 96.4752C246.296 98.4632 247.461 100.99 247.771 103.688C247.794 103.894 247.889 104.086 248.041 104.227C248.193 104.369 248.391 104.451 248.599 104.459C248.806 104.467 249.01 104.4 249.172 104.271C249.334 104.141 249.444 103.957 249.483 103.753C250.289 99.6093 253.338 97.1965 255.679 97.4981C258.137 97.839 259.39 101.235 259.396 101.268C260.288 103.747 259.573 106.671 257.547 108.907C257.444 109.017 257.372 109.153 257.34 109.301C257.308 109.449 257.316 109.603 257.364 109.746L267.527 141.874C265.771 145.116 263.042 147.726 259.724 149.335Z" fill="#1B1A3F"/>
<path d="M243.949 130.144L245.64 135.488C248.847 131.377 251.318 125.299 251.961 123.62C250.748 126.544 247.935 128.754 243.949 130.144Z" fill="#1B1A3F"/>
<path d="M243.785 129.665L243.326 129.829L245.45 136.55L246.04 135.796C249.319 131.626 251.751 125.561 252.433 123.804L251.495 123.43C250.368 126.144 247.699 128.301 243.785 129.665ZM245.824 134.399L244.578 130.465C246.484 129.792 248.249 128.771 249.784 127.456C248.673 129.887 247.347 132.215 245.824 134.412V134.399Z" fill="#1B1A3F"/>
<path d="M233.314 115.234C233.279 115.201 233.252 115.16 233.236 115.114C233.22 115.068 233.215 115.02 233.222 114.972C233.222 113.451 234.002 104.481 234.009 104.37L232.494 104.245C232.461 104.612 231.727 113.372 231.701 114.952C231.692 115.215 231.74 115.476 231.842 115.718C231.944 115.961 232.097 116.178 232.291 116.355C232.939 116.83 233.732 117.062 234.533 117.011C234.699 117.02 234.866 117.02 235.032 117.011L234.868 115.496C234.335 115.578 233.79 115.486 233.314 115.234Z" fill="#1B1A3F"/>
<path d="M250.217 211.945L253.43 237.87C253.43 237.87 260.753 240.605 270.68 244.053C265.527 246.82 259.632 250.564 249.555 256.406C238.605 262.753 235.746 264.019 233.051 268.038C230.738 271.891 229.523 276.303 229.537 280.797C229.491 287.531 234.664 327.704 243.431 382.17C254.609 384.344 266.141 383.875 277.106 380.8C283.559 378.964 289.714 376.205 295.379 372.611C289.006 342.288 282.631 311.968 276.253 281.65C280.679 280.568 287.564 278.981 296.1 277.473C309.358 275.132 315.495 276.024 319.744 271.388C320.537 270.516 323.094 267.454 323.422 257.416C323.422 257.416 323.888 243.26 311.41 211.945H250.217Z" fill="white"/>
<path d="M311.404 211.198H250.216C250.11 211.196 250.004 211.217 249.907 211.26C249.809 211.303 249.722 211.366 249.652 211.446C249.581 211.526 249.529 211.62 249.499 211.722C249.468 211.824 249.46 211.932 249.475 212.037L252.688 237.962C252.707 238.098 252.762 238.226 252.848 238.333C252.933 238.441 253.046 238.523 253.173 238.572C253.239 238.572 259.829 241.057 268.844 244.204C266.28 245.627 263.474 247.306 260.071 249.332C256.983 251.174 253.514 253.266 249.18 255.757L245.246 258.013C237.47 262.478 234.854 263.986 232.415 267.612C230.011 271.586 228.75 276.146 228.769 280.791C228.717 287.747 234.015 328.53 242.676 382.288C242.701 382.439 242.771 382.578 242.878 382.688C242.985 382.797 243.123 382.87 243.273 382.898C247.951 383.799 252.704 384.254 257.468 384.255C264.17 384.265 270.84 383.345 277.289 381.521C283.809 379.66 290.027 376.871 295.753 373.24C295.883 373.159 295.985 373.041 296.045 372.9C296.105 372.759 296.119 372.603 296.087 372.453L277.073 282.207C283.321 280.692 289.747 279.348 296.172 278.214C299.975 277.558 303.155 277.138 305.955 276.784C312.859 275.919 317.029 275.394 320.235 271.887C323.153 268.7 323.953 262.274 324.11 257.462C324.11 256.878 324.438 242.788 312.046 211.69C311.998 211.554 311.912 211.436 311.798 211.348C311.684 211.261 311.547 211.209 311.404 211.198ZM322.668 257.39C322.452 263.946 321.245 268.621 319.186 270.883C316.347 273.978 312.63 274.45 305.824 275.303C303.004 275.657 299.805 276.057 295.989 276.739C289.288 277.925 282.593 279.328 276.096 280.922C275.906 280.969 275.743 281.087 275.639 281.252C275.535 281.417 275.499 281.616 275.538 281.807L294.553 372.25C289.07 375.684 283.133 378.333 276.915 380.118C266.232 383.111 255.003 383.605 244.099 381.56C235.503 328.143 230.245 287.708 230.33 280.836C230.328 276.489 231.499 272.221 233.72 268.484C235.962 265.14 238.309 263.796 246.053 259.344C247.233 258.688 248.538 257.921 249.987 257.082C254.301 254.583 257.802 252.492 260.897 250.649C264.949 248.23 268.156 246.322 271.093 244.748C271.221 244.681 271.325 244.577 271.394 244.449C271.463 244.322 271.493 244.178 271.48 244.034C271.471 243.887 271.419 243.747 271.33 243.63C271.241 243.514 271.12 243.426 270.981 243.378C262.517 240.441 255.901 237.995 254.177 237.359L251.121 212.725H310.958C322.956 243.116 322.674 257.252 322.668 257.39Z" fill="#1B1A3F"/>
<path d="M107.858 234.382L86.2207 410.102L95.164 410.371C98.0031 399.5 118.112 240.296 118.112 240.296C119.614 230.035 107.858 234.382 107.858 234.382Z" fill="#1B1A3F"/>
<path d="M116.925 234.205C113.857 231.707 107.936 233.851 107.687 233.943L107.418 234.048L85.7155 410.056L85.6499 410.561L95.485 410.849L95.5767 410.495C98.3896 399.723 117.699 246.958 118.525 240.369C118.958 237.497 118.42 235.425 116.925 234.205ZM117.581 240.231C117.384 241.805 97.8454 396.425 94.7375 409.886L86.6859 409.643L108.277 234.73C109.424 234.35 114.014 233.032 116.335 234.927C117.555 235.93 117.981 237.707 117.607 240.231H117.581Z" fill="#1B1A3F"/>
<path d="M341.571 240.303C341.571 240.303 361.674 399.506 364.52 410.377L373.469 410.108L351.767 234.382C351.767 234.382 340.024 230.035 341.571 240.303Z" fill="#1B1A3F"/>
<path d="M352.219 234.074L351.951 233.969C351.701 233.877 345.781 231.733 342.712 234.231C341.217 235.451 340.68 237.51 341.106 240.395C341.938 246.951 361.248 399.723 364.054 410.521L364.146 410.876L373.981 410.587L352.252 234.33L352.219 234.074ZM364.88 409.899C361.772 396.438 342.234 241.818 342.037 240.244C341.663 237.72 342.089 235.943 343.309 234.946C344.321 234.23 345.546 233.879 346.784 233.95C348.345 233.989 349.891 234.259 351.374 234.749L372.945 409.669L364.88 409.899Z" fill="#1B1A3F"/>
<path d="M112.015 215.329H239.215C239.482 215.329 239.746 215.381 239.993 215.483C240.239 215.585 240.463 215.735 240.652 215.924C240.841 216.113 240.99 216.337 241.093 216.583C241.195 216.83 241.247 217.094 241.247 217.361V223.793C241.247 224.331 241.034 224.846 240.654 225.226C240.274 225.606 239.759 225.819 239.221 225.819H112.021C111.482 225.819 110.965 225.605 110.584 225.224C110.203 224.843 109.989 224.326 109.989 223.787V217.355C109.989 216.817 110.202 216.302 110.582 215.922C110.962 215.542 111.477 215.329 112.015 215.329Z" fill="#1B1A3F"/>
<path d="M239.241 214.856H112.041C111.379 214.858 110.744 215.122 110.276 215.59C109.808 216.058 109.544 216.693 109.542 217.355V223.793C109.544 224.455 109.808 225.088 110.276 225.555C110.745 226.022 111.379 226.285 112.041 226.285H239.241C239.902 226.285 240.536 226.022 241.005 225.555C241.473 225.088 241.737 224.455 241.739 223.793V217.355C241.737 216.693 241.473 216.058 241.005 215.59C240.537 215.122 239.903 214.858 239.241 214.856ZM240.801 223.793C240.799 224.207 240.634 224.602 240.342 224.895C240.05 225.187 239.654 225.352 239.241 225.354H112.041C111.627 225.352 111.231 225.187 110.939 224.895C110.647 224.602 110.482 224.207 110.48 223.793V217.355C110.482 216.941 110.647 216.545 110.939 216.253C111.231 215.961 111.627 215.796 112.041 215.794H239.241C239.654 215.796 240.05 215.961 240.342 216.253C240.634 216.545 240.799 216.941 240.801 217.355V223.793Z" fill="#1B1A3F"/>
<path d="M191.783 160.41C191.669 159.976 191.413 159.593 191.057 159.32C190.701 159.047 190.265 158.9 189.816 158.902H94.6787C94.367 158.9 94.0593 158.97 93.7792 159.107C93.4992 159.244 93.2546 159.444 93.0643 159.69C92.874 159.937 92.7431 160.224 92.682 160.53C92.6208 160.836 92.631 161.151 92.7117 161.452C98.3286 182.407 103.95 203.363 109.575 224.318C109.691 224.75 109.947 225.132 110.303 225.404C110.659 225.675 111.095 225.821 111.543 225.819H206.457C206.769 225.821 207.077 225.75 207.357 225.614C207.637 225.477 207.881 225.277 208.072 225.031C208.262 224.784 208.393 224.496 208.454 224.191C208.515 223.885 208.505 223.57 208.424 223.269C202.869 202.322 197.322 181.369 191.783 160.41Z" fill="#1B1A3F"/>
<path d="M192.223 160.292C192.081 159.759 191.768 159.288 191.332 158.951C190.896 158.615 190.361 158.431 189.81 158.429H94.6787C94.2954 158.429 93.9171 158.517 93.5734 158.687C93.2296 158.856 92.9297 159.103 92.6968 159.408C92.464 159.712 92.3046 160.066 92.2309 160.443C92.1573 160.819 92.1715 161.207 92.2724 161.577L109.169 224.436C109.313 224.966 109.627 225.434 110.063 225.768C110.499 226.102 111.033 226.284 111.582 226.285H206.457C206.839 226.284 207.216 226.196 207.559 226.027C207.901 225.858 208.201 225.613 208.434 225.311C208.667 225.008 208.827 224.656 208.903 224.281C208.979 223.907 208.967 223.52 208.87 223.151L192.223 160.292ZM207.69 224.744C207.546 224.934 207.359 225.088 207.145 225.194C206.932 225.3 206.696 225.354 206.457 225.354H111.549C111.205 225.352 110.871 225.238 110.599 225.028C110.326 224.819 110.13 224.525 110.041 224.193L93.1772 161.334C93.1149 161.103 93.1065 160.861 93.1527 160.626C93.1988 160.392 93.2983 160.171 93.4434 159.981C93.5885 159.791 93.7754 159.636 93.9896 159.53C94.2038 159.424 94.4395 159.368 94.6787 159.367H189.816C190.16 159.368 190.494 159.482 190.767 159.692C191.039 159.902 191.235 160.195 191.324 160.528L207.972 223.393C208.033 223.625 208.039 223.867 207.991 224.102C207.942 224.336 207.839 224.556 207.69 224.744Z" fill="#1B1A3F"/>
<path d="M147.126 181.863C145.707 181.862 144.319 182.281 143.139 183.069C141.959 183.856 141.038 184.976 140.494 186.287C139.95 187.597 139.807 189.04 140.083 190.432C140.359 191.823 141.042 193.102 142.045 194.106C143.048 195.11 144.326 195.794 145.718 196.071C147.109 196.348 148.552 196.207 149.863 195.664C151.174 195.121 152.295 194.202 153.083 193.022C153.871 191.842 154.292 190.455 154.292 189.036C154.292 187.135 153.538 185.311 152.194 183.966C150.85 182.621 149.027 181.865 147.126 181.863Z" fill="#C10B25"/>
<path d="M147.126 181.109C145.559 181.112 144.027 181.579 142.725 182.451C141.424 183.324 140.41 184.563 139.812 186.012C139.214 187.46 139.058 189.054 139.366 190.591C139.673 192.128 140.429 193.539 141.538 194.646C142.647 195.753 144.06 196.507 145.597 196.812C147.135 197.117 148.728 196.959 150.176 196.359C151.623 195.758 152.861 194.742 153.731 193.439C154.601 192.136 155.066 190.603 155.066 189.036C155.063 186.933 154.224 184.916 152.736 183.43C151.247 181.944 149.229 181.109 147.126 181.109ZM147.126 195.449C145.858 195.449 144.618 195.073 143.563 194.368C142.509 193.663 141.687 192.662 141.202 191.49C140.716 190.318 140.589 189.029 140.837 187.785C141.084 186.541 141.695 185.399 142.592 184.502C143.488 183.605 144.631 182.994 145.875 182.747C147.119 182.5 148.408 182.626 149.58 183.112C150.752 183.597 151.753 184.419 152.458 185.474C153.162 186.528 153.538 187.768 153.538 189.036C153.537 190.736 152.86 192.366 151.658 193.569C150.456 194.771 148.826 195.447 147.126 195.449Z" fill="#1B1A3F"/>
<path d="M294.481 151.552C290.383 147.545 284.712 146.208 280.712 148.149C275.126 150.85 272.359 160.036 277.434 167.674C285.739 180.932 294.044 194.188 302.349 207.441L251.122 209.296V225.819L336.877 225.708C326.655 198.947 312.349 173.932 294.468 151.552H294.481Z" fill="#C10B25"/>
<path d="M324.524 196.347C316.191 180.35 306.327 165.199 295.071 151.106L295.005 151.033C290.737 146.85 284.711 145.395 280.358 147.493C277.597 148.804 275.466 151.584 274.516 155.072C273.941 157.281 273.847 159.588 274.239 161.837C274.632 164.085 275.502 166.223 276.791 168.107L301.051 206.752L250.407 208.588V226.593L337.998 226.462L337.604 225.439C333.804 215.499 329.437 205.786 324.524 196.347ZM251.889 225.065V210.024L303.686 208.149L278.056 167.274C276.888 165.569 276.098 163.634 275.739 161.598C275.381 159.563 275.462 157.474 275.978 155.472C276.817 152.404 278.653 149.991 281.02 148.85C284.803 147.027 290.101 148.358 293.924 152.083C311.516 174.103 325.638 198.684 335.801 224.973L251.889 225.065Z" fill="#1B1A3F"/>
<path d="M263.192 90.9152C263.06 90.5494 262.905 90.1924 262.727 89.8465C262.556 89.4924 262.379 89.1449 262.196 88.7974C262.012 88.4499 261.756 88.1417 261.54 87.8073L261.193 87.3221C261.068 87.1648 260.93 87.014 260.799 86.8632C259.744 85.5836 258.365 84.61 256.806 84.0438C256.408 83.9153 256.003 83.808 255.593 83.7225C255.18 83.6671 254.764 83.6409 254.347 83.6438C253.525 83.6492 252.718 83.8757 252.013 84.2995L252.059 84.4438C252.771 84.3028 253.504 84.3028 254.216 84.4438C254.575 84.5042 254.93 84.5875 255.278 84.6929C255.613 84.8306 255.934 84.9486 256.282 85.1125C257.585 85.7793 258.737 86.7079 259.665 87.8401C259.783 87.9778 259.914 88.109 260.032 88.2532L260.353 88.6925L261.009 89.5711L261.586 90.5153L261.868 90.9873C261.968 91.141 262.057 91.3008 262.137 91.466C262.458 92.1217 262.792 92.7773 263.107 93.433L263.966 95.4721L264.11 95.4197C264.078 94.6454 263.993 93.8743 263.855 93.1117C263.675 92.3678 263.454 91.6345 263.192 90.9152Z" fill="#C10B25"/>
<path d="M262.675 129.554C254.689 133.527 244.506 131.672 242.349 135.612C240.192 139.553 244.499 148.509 244.499 148.509C260.622 164.632 271.382 145.644 273.159 143.493C274.936 141.343 271.369 134.537 268.504 130.957C265.638 127.377 262.675 129.554 262.675 129.554Z" fill="#C10B25"/>
<path d="M262.301 128.898C258.662 130.695 254.544 131.259 250.905 131.75C246.499 132.354 243.037 132.832 241.726 135.252C239.418 139.481 243.693 148.457 243.857 148.837L243.916 148.955L244.007 149.04C248.427 153.466 252.872 155.702 257.245 155.702C257.606 155.702 257.96 155.702 258.321 155.656C265.874 155.014 271.119 147.65 273.086 144.903C273.375 144.497 273.604 144.175 273.742 144.005C276.089 141.185 271.532 133.56 269.1 130.511C266.077 126.708 262.819 128.564 262.301 128.898ZM272.581 143.008C272.404 143.225 272.175 143.552 271.854 144.005C269.998 146.627 265.074 153.564 258.163 154.148C253.941 154.502 249.554 152.463 245.129 148.07C243.955 145.572 241.437 138.891 243.017 135.973C243.975 134.222 247.279 133.77 251.108 133.252C254.937 132.734 259.14 132.157 263.009 130.229L263.114 130.164C263.363 129.987 265.599 128.531 267.92 131.429C271.073 135.376 273.847 141.494 272.581 143.008Z" fill="#1B1A3F"/>
<path d="M254.891 108.389C254.537 108.391 254.191 108.499 253.898 108.699C253.605 108.898 253.377 109.18 253.245 109.509C253.112 109.838 253.08 110.199 253.153 110.546C253.225 110.893 253.4 111.21 253.653 111.458C253.907 111.706 254.228 111.873 254.576 111.938C254.925 112.003 255.285 111.963 255.611 111.824C255.937 111.684 256.214 111.45 256.407 111.153C256.599 110.855 256.7 110.507 256.695 110.153C256.688 109.68 256.494 109.23 256.156 108.899C255.819 108.569 255.364 108.385 254.891 108.389Z" fill="#C10B25"/>
<path d="M254.891 107.635C254.389 107.636 253.897 107.786 253.48 108.067C253.062 108.347 252.737 108.745 252.546 109.21C252.354 109.675 252.305 110.186 252.404 110.679C252.503 111.172 252.745 111.625 253.101 111.98C253.457 112.335 253.911 112.577 254.404 112.674C254.897 112.772 255.409 112.721 255.873 112.528C256.338 112.336 256.734 112.01 257.014 111.591C257.293 111.173 257.442 110.682 257.442 110.179C257.442 109.844 257.376 109.513 257.248 109.204C257.119 108.895 256.932 108.614 256.695 108.378C256.458 108.141 256.176 107.954 255.867 107.827C255.558 107.699 255.226 107.634 254.891 107.635ZM254.891 111.215C254.687 111.215 254.486 111.154 254.316 111.04C254.146 110.926 254.013 110.765 253.934 110.575C253.856 110.386 253.835 110.178 253.875 109.977C253.915 109.776 254.014 109.591 254.159 109.446C254.304 109.301 254.488 109.203 254.689 109.163C254.89 109.123 255.099 109.143 255.288 109.222C255.477 109.3 255.639 109.433 255.753 109.603C255.867 109.774 255.927 109.974 255.927 110.179C255.927 110.454 255.818 110.717 255.624 110.911C255.43 111.106 255.166 111.215 254.891 111.215Z" fill="#1B1A3F"/>
<path d="M276.811 281.171C276.712 281.105 267.422 274.673 263.147 272.182C263.063 272.133 262.971 272.101 262.875 272.088C262.779 272.075 262.682 272.081 262.588 272.106C262.495 272.131 262.407 272.173 262.33 272.232C262.253 272.291 262.189 272.364 262.14 272.447C262.091 272.531 262.06 272.623 262.047 272.719C262.034 272.815 262.04 272.912 262.064 273.005C262.089 273.099 262.132 273.187 262.19 273.263C262.249 273.34 262.322 273.405 262.406 273.454C266.628 275.919 275.88 282.318 275.971 282.377C276.094 282.464 276.241 282.51 276.391 282.508C276.509 282.508 276.626 282.479 276.731 282.424C276.836 282.37 276.926 282.291 276.994 282.194C277.049 282.115 277.088 282.025 277.109 281.931C277.13 281.837 277.132 281.739 277.115 281.644C277.097 281.549 277.062 281.459 277.01 281.377C276.958 281.296 276.89 281.226 276.811 281.171Z" fill="#1B1A3F"/>
<path d="M242.362 316.748C242.327 316.556 242.217 316.387 242.058 316.276C241.898 316.166 241.701 316.123 241.51 316.157C241.317 316.193 241.146 316.303 241.034 316.464C240.922 316.625 240.878 316.823 240.913 317.016C241.614 320.905 250.138 370.598 250.23 371.109C250.259 371.279 250.348 371.434 250.48 371.545C250.611 371.657 250.778 371.718 250.951 371.719H251.076C251.171 371.704 251.263 371.67 251.345 371.619C251.427 371.568 251.499 371.501 251.555 371.423C251.611 371.344 251.651 371.255 251.672 371.16C251.694 371.066 251.696 370.968 251.679 370.873C251.594 370.349 243.077 320.623 242.362 316.748Z" fill="#1B1A3F"/>
<path d="M236.526 295.923C236.5 295.831 236.455 295.744 236.395 295.668C236.334 295.592 236.26 295.529 236.175 295.482C236.091 295.435 235.998 295.406 235.901 295.395C235.805 295.384 235.708 295.392 235.615 295.419C235.522 295.445 235.435 295.49 235.36 295.55C235.284 295.611 235.221 295.685 235.174 295.77C235.127 295.854 235.097 295.947 235.086 296.044C235.075 296.14 235.083 296.237 235.11 296.33L238.874 309.535C238.918 309.689 239.01 309.825 239.138 309.922C239.266 310.019 239.422 310.072 239.582 310.073C239.696 310.071 239.808 310.043 239.909 309.991C240.01 309.939 240.099 309.865 240.167 309.774C240.235 309.683 240.282 309.577 240.303 309.466C240.324 309.354 240.32 309.238 240.29 309.129L236.526 295.923Z" fill="#1B1A3F"/>
<path d="M318.111 249.155C318.016 249.173 317.926 249.211 317.846 249.264C317.765 249.318 317.696 249.387 317.643 249.467C317.589 249.548 317.552 249.638 317.533 249.733C317.515 249.828 317.515 249.925 317.534 250.02C317.534 250.118 319.258 259.855 300.1 266.208C299.931 266.261 299.786 266.372 299.693 266.522C299.599 266.672 299.563 266.851 299.591 267.026C299.619 267.201 299.709 267.359 299.845 267.473C299.98 267.587 300.152 267.648 300.329 267.644C300.407 267.645 300.485 267.632 300.559 267.605C320.944 260.852 319.068 250.184 318.977 249.731C318.958 249.637 318.92 249.547 318.867 249.466C318.813 249.386 318.744 249.317 318.664 249.263C318.583 249.21 318.493 249.173 318.398 249.154C318.303 249.135 318.206 249.135 318.111 249.155Z" fill="#1B1A3F"/>
<path d="M279.925 243.542C279.663 243.712 253.403 260.839 250.761 262.379C250.592 262.478 250.47 262.639 250.42 262.828C250.37 263.016 250.397 263.217 250.496 263.386C250.594 263.555 250.755 263.677 250.944 263.727C251.133 263.777 251.333 263.75 251.502 263.651C254.177 262.091 279.65 245.483 280.732 244.775C280.813 244.722 280.883 244.654 280.937 244.575C280.992 244.495 281.03 244.406 281.051 244.311C281.071 244.217 281.072 244.12 281.054 244.025C281.037 243.93 281.001 243.839 280.948 243.758C280.841 243.594 280.673 243.48 280.481 243.439C280.29 243.398 280.09 243.435 279.925 243.542Z" fill="#1B1A3F"/>
<path d="M302.71 206.903C302.526 206.877 302.34 206.92 302.187 207.024C302.034 207.128 301.926 207.285 301.883 207.465C301.84 207.645 301.866 207.835 301.956 207.996C302.046 208.158 302.193 208.28 302.369 208.339C302.428 208.339 308.27 209.755 310.977 212.437C311.045 212.506 311.126 212.56 311.215 212.597C311.304 212.634 311.399 212.653 311.496 212.653C311.593 212.653 311.689 212.634 311.779 212.597C311.869 212.56 311.951 212.506 312.02 212.437C312.156 212.297 312.232 212.11 312.232 211.916C312.232 211.721 312.156 211.534 312.02 211.394C309.037 208.418 302.965 206.962 302.71 206.903Z" fill="#1B1A3F"/>
<path d="M302.788 169.222C302.733 169.142 302.662 169.074 302.58 169.022C302.498 168.97 302.406 168.935 302.311 168.918C302.215 168.902 302.117 168.905 302.022 168.926C301.927 168.948 301.838 168.988 301.759 169.045C301.679 169.1 301.612 169.17 301.56 169.251C301.508 169.333 301.472 169.424 301.456 169.519C301.44 169.614 301.442 169.712 301.464 169.806C301.485 169.9 301.526 169.989 301.582 170.068C301.746 170.31 318.36 194.072 320.806 204.562C320.846 204.724 320.938 204.868 321.069 204.972C321.199 205.075 321.361 205.132 321.527 205.133C321.582 205.139 321.637 205.139 321.691 205.133C321.786 205.111 321.875 205.071 321.954 205.015C322.033 204.959 322.1 204.887 322.151 204.805C322.202 204.723 322.237 204.631 322.252 204.535C322.268 204.44 322.264 204.342 322.242 204.248C319.731 193.462 303.477 170.205 302.788 169.222Z" fill="#1B1A3F"/>
<path d="M210.241 188.794C210.167 188.73 210.083 188.682 209.991 188.652C209.899 188.621 209.802 188.609 209.705 188.616C209.609 188.623 209.515 188.649 209.428 188.692C209.342 188.736 209.265 188.796 209.201 188.869C209.138 188.942 209.09 189.027 209.059 189.119C209.029 189.211 209.017 189.308 209.024 189.404C209.031 189.501 209.057 189.595 209.1 189.681C209.144 189.768 209.204 189.845 209.277 189.908C209.323 189.948 214.391 194.413 214.391 199.376C214.381 199.479 214.393 199.582 214.426 199.68C214.459 199.778 214.511 199.868 214.581 199.944C214.65 200.021 214.735 200.082 214.829 200.123C214.923 200.165 215.026 200.187 215.129 200.187C215.232 200.187 215.334 200.165 215.428 200.123C215.523 200.082 215.607 200.021 215.677 199.944C215.746 199.868 215.799 199.778 215.831 199.68C215.864 199.582 215.876 199.479 215.866 199.376C215.866 193.737 210.47 188.99 210.241 188.794Z" fill="#1B1A3F"/>
<path d="M246.387 136.543C246.087 136.492 245.778 136.526 245.496 136.642C245.215 136.758 244.971 136.951 244.794 137.199C243.083 139.572 247.469 149.191 248.859 152.076C248.9 152.164 248.958 152.242 249.029 152.307C249.101 152.372 249.184 152.422 249.275 152.454C249.366 152.487 249.462 152.501 249.559 152.495C249.655 152.49 249.749 152.466 249.836 152.424C249.924 152.382 250.003 152.324 250.068 152.252C250.133 152.18 250.183 152.096 250.215 152.004C250.247 151.913 250.261 151.816 250.256 151.719C250.25 151.622 250.226 151.527 250.184 151.44C247.528 145.893 245.168 139.205 245.988 138.064C245.988 138.064 246.033 138.005 246.204 138.064C248.597 138.359 252.761 148.221 254.964 155.112C255.011 155.261 255.104 155.392 255.23 155.485C255.356 155.578 255.509 155.629 255.665 155.63C255.741 155.63 255.817 155.616 255.888 155.59C255.98 155.561 256.066 155.514 256.14 155.452C256.214 155.39 256.275 155.314 256.32 155.228C256.364 155.142 256.391 155.048 256.399 154.952C256.407 154.855 256.396 154.758 256.367 154.666C255.436 151.696 250.584 137.035 246.387 136.543Z" fill="#1B1A3F"/>
<path d="M257.383 135.848C258.222 136.803 258.979 137.827 259.645 138.91C260.419 140.071 261.291 141.389 262.202 142.523C262.325 142.675 262.503 142.772 262.697 142.793C262.892 142.814 263.086 142.757 263.238 142.634C263.391 142.512 263.488 142.334 263.509 142.139C263.53 141.945 263.472 141.751 263.35 141.598C262.484 140.517 261.625 139.231 260.871 138.097C259.062 135.376 258.137 134.071 257.062 134.242C256.701 134.301 256.223 134.55 255.98 135.409C255.22 138.071 262.012 150.791 263.383 153.309C263.446 153.427 263.54 153.526 263.656 153.595C263.772 153.663 263.904 153.698 264.038 153.696C264.16 153.698 264.281 153.666 264.386 153.604C264.471 153.558 264.547 153.496 264.608 153.422C264.669 153.347 264.715 153.26 264.743 153.167C264.77 153.075 264.779 152.977 264.768 152.881C264.758 152.785 264.728 152.692 264.681 152.607C260.812 145.5 257.055 137.33 257.383 135.848Z" fill="#1B1A3F"/>
<path d="M264.936 134.793C264.922 134.697 264.89 134.605 264.841 134.522C264.791 134.439 264.726 134.367 264.649 134.309C264.572 134.251 264.484 134.209 264.39 134.185C264.296 134.161 264.199 134.156 264.104 134.17C264.008 134.184 263.916 134.216 263.833 134.265C263.75 134.315 263.677 134.38 263.62 134.457C263.562 134.534 263.52 134.622 263.496 134.716C263.472 134.81 263.467 134.907 263.481 135.002C263.861 137.664 270.608 144.903 271.349 145.723C271.417 145.796 271.501 145.855 271.593 145.894C271.686 145.934 271.786 145.954 271.886 145.952C272.03 145.953 272.171 145.912 272.292 145.833C272.412 145.754 272.507 145.642 272.564 145.51C272.622 145.378 272.639 145.232 272.614 145.09C272.589 144.949 272.523 144.817 272.424 144.713C269.67 141.756 265.172 136.451 264.936 134.793Z" fill="#1B1A3F"/>
<path d="M240.224 163.262C240.233 163.165 240.223 163.068 240.194 162.976C240.165 162.883 240.118 162.798 240.056 162.723C239.994 162.649 239.917 162.588 239.832 162.543C239.746 162.498 239.652 162.47 239.556 162.462C239.459 162.453 239.362 162.464 239.27 162.493C239.177 162.522 239.091 162.568 239.017 162.631C238.943 162.693 238.882 162.769 238.837 162.855C238.792 162.94 238.764 163.034 238.756 163.131C238.697 163.786 237.339 179.398 243.299 190.846C243.363 190.965 243.457 191.064 243.573 191.134C243.688 191.203 243.82 191.239 243.955 191.239C244.071 191.239 244.186 191.212 244.29 191.161C244.463 191.07 244.594 190.914 244.653 190.727C244.712 190.54 244.694 190.338 244.604 190.164C238.847 179.109 240.211 163.419 240.224 163.262Z" fill="#1B1A3F"/>
<path d="M246.978 193.364C246.894 193.196 246.749 193.066 246.573 193.001C246.397 192.936 246.203 192.94 246.03 193.012C245.857 193.085 245.717 193.22 245.64 193.391C245.563 193.562 245.554 193.756 245.614 193.934L247.411 198.229C247.464 198.36 247.555 198.472 247.671 198.553C247.787 198.633 247.925 198.678 248.066 198.681C248.165 198.683 248.263 198.665 248.355 198.629C248.444 198.591 248.525 198.537 248.593 198.468C248.661 198.4 248.715 198.318 248.752 198.228C248.788 198.139 248.807 198.043 248.806 197.946C248.806 197.85 248.786 197.754 248.748 197.665L246.978 193.364Z" fill="#1B1A3F"/>
<path d="M293.104 211.211H264.032C263.837 211.211 263.65 211.288 263.512 211.426C263.375 211.564 263.297 211.751 263.297 211.945C263.297 212.14 263.375 212.327 263.512 212.465C263.65 212.602 263.837 212.68 264.032 212.68H293.104C293.299 212.68 293.486 212.602 293.623 212.465C293.761 212.327 293.838 212.14 293.838 211.945C293.838 211.751 293.761 211.564 293.623 211.426C293.486 211.288 293.299 211.211 293.104 211.211Z" fill="#1B1A3F"/>
<path d="M239.202 207.316C236.153 207.375 232.691 208.431 225.773 210.536C222.705 211.467 220.076 212.411 220.135 213.394C220.135 213.984 221.151 214.417 221.99 214.706C220.279 214.633 219.013 215.617 218.895 216.673C218.889 216.969 218.943 217.264 219.056 217.538C219.169 217.812 219.338 218.06 219.551 218.266C219.551 218.266 216.568 221.052 220.266 222.515C220.266 222.515 217.676 225.105 221.944 226.632C226.213 228.16 239.143 226.409 239.143 226.409C239.143 226.409 252.328 227.57 258.4 224.783C259.236 224.435 259.939 223.829 260.406 223.052C262.268 219.728 258.052 214.43 257.462 213.709C254.597 211.545 247.902 207.192 239.202 207.316Z" fill="white"/>
<path d="M257.953 212.988C253.888 209.926 247.318 206.307 239.188 206.431C236.015 206.49 232.507 207.559 225.517 209.709C221.301 211.021 219.184 211.926 219.269 213.453C219.291 213.788 219.422 214.105 219.643 214.358C219.217 214.568 218.849 214.877 218.568 215.26C218.287 215.642 218.103 216.086 218.03 216.555C217.973 217.131 218.109 217.71 218.416 218.2C218.091 218.572 217.846 219.008 217.699 219.48C217.553 219.952 217.507 220.45 217.564 220.941C217.65 221.335 217.819 221.706 218.06 222.03C218.301 222.353 218.608 222.621 218.961 222.816C218.631 223.416 218.524 224.113 218.659 224.783C218.915 225.918 219.911 226.809 221.629 227.406C223.026 227.904 225.249 228.062 227.655 228.062C231.497 228 235.332 227.72 239.142 227.222C240.453 227.327 252.734 228.265 258.734 225.518C259.741 225.096 260.584 224.357 261.133 223.413C263.166 219.794 259.33 214.607 258.104 213.099C258.058 213.056 258.008 213.019 257.953 212.988ZM259.625 222.6C259.251 223.22 258.685 223.701 258.012 223.97C252.223 226.626 239.326 225.531 239.195 225.518C239.132 225.508 239.067 225.508 239.004 225.518C238.873 225.518 226.232 227.222 222.213 225.78C221.124 225.393 220.469 224.908 220.351 224.403C220.206 223.78 220.849 223.092 220.856 223.092C220.957 222.99 221.031 222.865 221.072 222.727C221.113 222.59 221.119 222.444 221.09 222.304C221.061 222.164 220.997 222.033 220.905 221.923C220.812 221.813 220.694 221.728 220.56 221.675C220.023 221.466 219.367 221.105 219.249 220.607C219.125 219.951 219.839 219.112 220.101 218.869C220.269 218.713 220.367 218.497 220.376 218.269C220.385 218.04 220.302 217.818 220.147 217.65C219.895 217.412 219.746 217.085 219.734 216.738C219.787 216.233 220.547 215.545 221.787 215.545H221.944C222.153 215.553 222.358 215.486 222.521 215.356C222.685 215.227 222.797 215.042 222.836 214.837C222.874 214.631 222.836 214.418 222.729 214.238C222.621 214.058 222.452 213.923 222.252 213.86C221.838 213.742 221.442 213.566 221.078 213.335C221.439 212.988 222.639 212.385 226.016 211.368C232.854 209.29 236.283 208.247 239.214 208.188C246.813 208.057 252.983 211.427 256.819 214.312C258.865 216.843 260.799 220.502 259.625 222.6Z" fill="#1B1A3F"/>
<path d="M233.917 211.224L221.807 213.847C221.598 213.892 221.413 214.013 221.288 214.186C221.163 214.359 221.107 214.572 221.129 214.785C221.152 214.997 221.253 215.194 221.412 215.336C221.571 215.479 221.777 215.558 221.99 215.558H222.174L234.284 212.935C234.395 212.911 234.5 212.865 234.594 212.801C234.687 212.736 234.767 212.653 234.828 212.558C234.89 212.462 234.932 212.355 234.952 212.244C234.972 212.132 234.97 212.017 234.946 211.906C234.922 211.795 234.876 211.69 234.812 211.596C234.747 211.503 234.664 211.423 234.569 211.362C234.473 211.3 234.366 211.258 234.254 211.238C234.143 211.218 234.028 211.22 233.917 211.244V211.224Z" fill="#1B1A3F"/>
<path d="M233.471 214.922L219.38 217.387C219.156 217.412 218.95 217.523 218.806 217.697C218.662 217.871 218.593 218.095 218.611 218.32C218.63 218.545 218.736 218.754 218.907 218.902C219.077 219.05 219.299 219.125 219.525 219.112H219.675L233.746 216.633C233.957 216.577 234.139 216.444 234.257 216.26C234.374 216.076 234.418 215.854 234.381 215.639C234.343 215.424 234.225 215.231 234.052 215.098C233.879 214.966 233.662 214.903 233.444 214.922H233.471Z" fill="#1B1A3F"/>
<path d="M232.31 219.702L220.108 221.616C219.881 221.653 219.677 221.779 219.542 221.966C219.407 222.153 219.351 222.385 219.387 222.613C219.419 222.816 219.522 223.002 219.678 223.135C219.835 223.269 220.034 223.342 220.24 223.341H220.377L232.586 221.407C232.698 221.389 232.806 221.349 232.903 221.289C233 221.229 233.084 221.151 233.15 221.059C233.217 220.966 233.265 220.862 233.291 220.751C233.318 220.64 233.322 220.526 233.304 220.413C233.286 220.301 233.246 220.193 233.186 220.096C233.126 219.999 233.048 219.915 232.956 219.849C232.864 219.782 232.759 219.734 232.648 219.708C232.538 219.681 232.423 219.677 232.31 219.695V219.702Z" fill="#1B1A3F"/>
<path d="M379.377 225.826H81.5063V237.87H379.377V225.826Z" fill="white"/>
<path d="M379.384 225.209H81.5065C81.343 225.209 81.1862 225.274 81.0707 225.39C80.9551 225.506 80.8901 225.662 80.8901 225.826V237.87C80.8901 238.034 80.9551 238.191 81.0707 238.306C81.1862 238.422 81.343 238.487 81.5065 238.487H379.384C379.547 238.487 379.704 238.422 379.82 238.306C379.935 238.191 380 238.034 380 237.87V225.826C380 225.662 379.935 225.506 379.82 225.39C379.704 225.274 379.547 225.209 379.384 225.209ZM378.767 237.254H82.1228V226.442H378.767V237.254Z" fill="#1B1A3F"/>
</svg>
